<svg width="30" height="30" viewBox="0 0 30 30" fill="none" xmlns="http://www.w3.org/2000/svg">
<path d="M28.904 12.3633H15.063V18.2953H22.907C21.654 22.2498 18.557 23.5678 15 23.5678C13.6219 23.5697 12.2637 23.2391 11.0406 22.6041C9.81748 21.9691 8.7656 21.0484 7.97418 19.9202C7.18277 18.792 6.67517 17.4895 6.49447 16.1233C6.31376 14.7571 6.46527 13.3675 6.93615 12.0723C7.40703 10.7771 8.18338 9.61465 9.19933 8.6835C10.2153 7.75235 11.4408 7.07999 12.772 6.72349C14.1032 6.36699 15.5008 6.33686 16.8461 6.63565C18.1915 6.93444 19.4449 7.55334 20.5 8.43984L24.8105 4.33484C23.0747 2.73794 20.9755 1.58869 18.695 0.986796C16.4145 0.384905 14.0215 0.348554 11.7238 0.880895C9.42602 1.41324 7.29286 2.49819 5.50937 4.04163C3.72588 5.58507 2.34592 7.54037 1.48922 9.73789C0.63252 11.9354 0.324958 14.3088 0.593215 16.6521C0.861473 18.9954 1.69745 21.2379 3.02861 23.1849C4.35977 25.132 6.14592 26.7248 8.23208 27.8253C10.3182 28.9257 12.6414 29.5005 15 29.4998C22.9955 29.4998 30.222 24.2273 28.904 12.3633Z" fill="#D55227"/>
</svg>
