<svg width="16" height="16" viewBox="0 0 16 16" fill="none" xmlns="http://www.w3.org/2000/svg">
<g clip-path="url(#clip0)">
<path d="M15.9683 1.68397C15.9557 1.62493 15.9276 1.57032 15.8868 1.52583C15.846 1.48134 15.794 1.44859 15.7363 1.43097C15.526 1.38905 15.3084 1.4046 15.1063 1.47597C15.1063 1.47597 1.08725 6.51397 0.286252 7.07197C0.114252 7.19297 0.056252 7.26197 0.027252 7.34397C-0.110748 7.74397 0.320252 7.91697 0.320252 7.91697L3.93325 9.09397C3.99426 9.10498 4.05701 9.10121 4.11625 9.08297C4.93825 8.56397 12.3863 3.86097 12.8163 3.70297C12.8843 3.68297 12.9343 3.70297 12.9163 3.75197C12.7443 4.35197 6.31025 10.071 6.27525 10.106C6.25818 10.1202 6.2448 10.1384 6.23627 10.159C6.22774 10.1795 6.2243 10.2018 6.22625 10.224L5.88925 13.752C5.88925 13.752 5.74725 14.852 6.84525 13.752C7.62425 12.973 8.37225 12.327 8.74525 12.014C9.98725 12.872 11.3243 13.82 11.9013 14.314C11.9979 14.4081 12.1125 14.4817 12.2383 14.5303C12.3641 14.5789 12.4985 14.6016 12.6333 14.597C12.7992 14.5765 12.955 14.506 13.0801 14.3949C13.2051 14.2838 13.2934 14.1374 13.3333 13.975C13.3333 13.975 15.8943 3.69997 15.9793 2.31697C15.9873 2.18197 16.0003 2.09997 16.0003 1.99997C16.0039 1.89368 15.9931 1.78738 15.9683 1.68397Z" fill="#515151"/>
</g>
<defs>
<clipPath id="clip0">
<rect width="16" height="16" fill="white"/>
</clipPath>
</defs>
</svg>
