<svg width="12" height="12" viewBox="0 0 12 12" fill="none" xmlns="http://www.w3.org/2000/svg">
<path d="M10.2417 1.75799L10.2307 1.74999C9.09442 0.683657 7.5878 0.101251 6.0297 0.126002C4.4716 0.150753 2.98424 0.78072 1.88236 1.8826C0.780476 2.98449 0.150509 4.47184 0.125758 6.02994C0.101007 7.58805 0.683413 9.09466 1.74974 10.231L1.75774 10.242L1.76874 10.25C2.90507 11.3163 4.41168 11.8987 5.96979 11.874C7.52789 11.8492 9.01524 11.2193 10.1171 10.1174C11.219 9.01549 11.849 7.52813 11.8737 5.97003C11.8985 4.41193 11.3161 2.90531 10.2497 1.76899L10.2417 1.75799ZM5.99974 1.99999C6.71156 2.00347 7.40918 2.19939 8.01874 2.56699L2.56674 8.01899C2.19914 7.40943 2.00323 6.7118 1.99974 5.99999C1.99974 4.93912 2.42117 3.92171 3.17132 3.17156C3.92146 2.42141 4.93888 1.99999 5.99974 1.99999ZM5.99974 9.99999C5.28793 9.9965 4.5903 9.80059 3.98074 9.43299L9.43274 3.98099C9.80034 4.59055 9.99626 5.28817 9.99974 5.99999C9.99974 7.06085 9.57832 8.07827 8.82817 8.82841C8.07802 9.57856 7.06061 9.99999 5.99974 9.99999Z" fill="#EB5757"/>
</svg>
