<svg width="32" height="32" viewBox="0 0 32 32" fill="none" xmlns="http://www.w3.org/2000/svg">
<path d="M30.85 18.65C30.85 18.7 30.85 18.75 30.8 18.8V18.5C30.8 18.55 30.85 18.6 30.85 18.65C31 17.75 31.1 16.85 31.1 15.9C31.1 13.85 30.7 11.9 29.9 10C29.15 8.2 28.05 6.6 26.65 5.2C25.25 3.8 23.65 2.7 21.85 1.95C20.05 1.2 18.05 0.8 16 0.8C15.05 0.8 14.1 0.9 13.15 1.05C13.2 1.1 13.25 1.1 13.3 1.15L13 1.1C13.05 1.1 13.1 1.1 13.15 1.05C11.85 0.35 10.4 0 8.95 0C6.55 0 4.3 0.95 2.6 2.6C0.95 4.35 0 6.6 0 9C0 10.5 0.4 12 1.15 13.35C1.15 13.3 1.15 13.25 1.2 13.2L1.25 13.5C1.2 13.45 1.2 13.4 1.15 13.35C1 14.2 0.9 15.1 0.9 15.95C0.9 18 1.3 19.95 2.1 21.85C2.85 23.65 3.95 25.25 5.35 26.65C6.75 28.05 8.35 29.15 10.15 29.9C12 30.7 14 31.1 16.05 31.1C16.95 31.1 17.85 31 18.7 30.85C18.65 30.8 18.6 30.8 18.55 30.75L18.85 30.8C18.8 30.8 18.75 30.8 18.7 30.85C20.05 31.6 21.55 32 23.1 32C25.5 32 27.75 31.05 29.4 29.4C31.05 27.65 32 25.4 32 23C32 21.5 31.6 20 30.85 18.65ZM16.05 25.2C10.7 25.2 8.3 22.55 8.3 20.6C8.3 19.6 9.05 18.85 10.1 18.85C12.4 18.85 11.8 22.15 16.1 22.15C18.3 22.15 19.5 20.95 19.5 19.75C19.5 19 19.15 18.2 17.7 17.85L12.95 16.65C9.1 15.7 8.4 13.6 8.4 11.65C8.4 7.6 12.2 6.05 15.8 6.05C19.1 6.05 23 7.9 23 10.3C23 11.35 22.1 11.95 21.05 11.95C19.1 11.95 19.45 9.25 15.5 9.25C13.55 9.25 12.45 10.15 12.45 11.4C12.45 12.65 14 13.05 15.35 13.4L18.9 14.2C22.75 15.05 23.75 17.3 23.75 19.45C23.7 22.7 21.2 25.2 16.05 25.2Z" fill="#00A9F0"/>
</svg>
