<svg width="88" height="88" viewBox="0 0 88 88" fill="none" xmlns="http://www.w3.org/2000/svg">
<path d="M63.6749 61.4419C58.2587 59.6833 55.6188 55.1293 54.3304 51.1872C51.2105 52.7327 47.7111 53.625 44 53.625C40.2875 53.625 36.7881 52.7327 33.6683 51.1858C32.3785 55.1293 29.7385 59.6847 24.3251 61.4419C13.2729 65.0307 4.125 69.2987 4.125 85.25C4.125 86.009 4.741 86.625 5.5 86.625H82.5C83.259 86.625 83.875 86.009 83.875 85.25C83.875 69.2987 74.7271 65.0307 63.6749 61.4419Z" fill="#57AE5B"/>
<path d="M44 1.375C32.6274 1.375 23.375 10.6274 23.375 22V30.25C23.375 41.6226 32.6274 50.875 44 50.875C55.3726 50.875 64.625 41.6226 64.625 30.25V22C64.625 10.6274 55.3726 1.375 44 1.375Z" fill="#57AE5B"/>
</svg>
