<svg width="476" height="430" viewBox="0 0 476 430" fill="none" xmlns="http://www.w3.org/2000/svg">
<path opacity="0.3" d="M13.62 413.034C21.1421 413.034 27.24 409.515 27.24 405.174C27.24 400.833 21.1421 397.314 13.62 397.314C6.09788 397.314 0 400.833 0 405.174C0 409.515 6.09788 413.034 13.62 413.034Z" fill="#FF5A6F"/>
<path opacity="0.3" d="M41.33 429.034C48.8521 429.034 54.95 425.515 54.95 421.174C54.95 416.833 48.8521 413.314 41.33 413.314C33.8078 413.314 27.71 416.833 27.71 421.174C27.71 425.515 33.8078 429.034 41.33 429.034Z" fill="#FFAD6F"/>
<path d="M42.8301 421.174H39.8301V387.174C39.8382 382.032 41.1955 376.982 43.7662 372.528C46.337 368.075 50.0313 364.373 54.4801 361.794L241.19 254.004L242.69 256.594L55.9801 364.394C51.9876 366.71 48.6722 370.032 46.3647 374.029C44.0573 378.027 42.8385 382.559 42.8301 387.174V421.174Z" fill="#FFAD6F"/>
<path d="M15.1006 405.174H12.1006V371.174C12.1095 366.034 13.4671 360.985 16.0378 356.533C18.6086 352.081 22.3026 348.382 26.7506 345.804L213.461 238.004L214.961 240.604L28.2706 348.394C24.2751 350.708 20.9562 354.029 18.6453 358.027C16.3343 362.024 15.1121 366.557 15.1006 371.174V405.174Z" fill="#FF5A6F"/>
<path d="M18.2708 405.175C18.2708 406.655 16.1907 407.855 13.6207 407.855C11.0507 407.855 8.9707 406.655 8.9707 405.175C8.9707 403.695 11.0507 402.495 13.6207 402.495C16.1907 402.495 18.2708 403.695 18.2708 405.175Z" fill="#FF5A6F"/>
<path d="M45.9807 421.175C45.9807 422.655 43.9007 423.855 41.3307 423.855C38.7607 423.855 36.6807 422.655 36.6807 421.175C36.6807 419.695 38.7607 418.485 41.3307 418.485C43.9007 418.485 45.9807 419.685 45.9807 421.175Z" fill="#FFAD6F"/>
<path style="mix-blend-mode:multiply" d="M292.331 140.385H234.101L405.841 239.535C407.608 240.556 409.075 242.024 410.095 243.791C411.115 245.559 411.652 247.564 411.652 249.605C411.652 251.645 411.115 253.65 410.095 255.418C409.075 257.186 407.608 258.654 405.841 259.675L234.101 358.825H292.291C297.958 358.827 303.526 357.334 308.431 354.495L467.721 262.495C469.991 261.186 471.876 259.302 473.187 257.033C474.497 254.764 475.187 252.19 475.187 249.57C475.187 246.949 474.497 244.375 473.187 242.106C471.876 239.837 469.991 237.954 467.721 236.645L308.431 144.645C303.529 141.841 297.977 140.372 292.331 140.385Z" fill="url(#paint0_linear)"/>
<g style="mix-blend-mode:multiply">
<path d="M419.771 251.635C419.481 247.155 416.091 242.515 409.771 238.845L256.101 150.235C243.941 143.235 225.551 142.465 215.021 148.555L55.5606 240.705C50.5606 243.605 48.2207 247.545 48.4907 251.635C48.7807 256.105 52.1707 260.755 58.4907 264.415L212.121 353.025C224.281 360.025 242.671 360.795 253.201 354.715L412.651 262.565C417.721 259.655 420.041 255.715 419.771 251.635Z" fill="#9295B2"/>
</g>
<path d="M419.77 248.835V233.585L357.43 263.885L256.1 205.425C243.94 198.425 225.55 197.665 215.02 203.745L110.91 263.945L48.5002 233.615V247.715C48.4752 248.091 48.4752 248.468 48.5002 248.845C48.7902 253.325 52.1802 257.965 58.5002 261.635L212.13 350.245C218.885 353.929 226.436 355.913 234.13 356.025C241.27 356.195 248.13 354.855 253.23 351.925L412.68 259.775C417.72 256.845 420.03 252.945 419.77 248.835Z" fill="url(#paint1_linear)"/>
<path d="M419.771 233.585C419.481 229.115 416.091 224.465 409.771 220.805L256.101 132.195C243.941 125.195 225.551 124.425 215.021 130.505L55.5606 222.655C50.5606 225.565 48.2207 229.505 48.4907 233.585C48.7807 238.055 52.1707 242.705 58.4907 246.375L212.161 334.945C224.321 341.945 242.711 342.715 253.241 336.625L412.691 244.475C417.721 241.615 420.041 237.675 419.771 233.585Z" fill="white"/>
<path d="M419.771 231.755C419.481 227.285 416.091 222.635 409.771 218.975L256.101 130.365C243.941 123.365 225.551 122.595 215.021 128.675L55.5606 220.825C50.5606 223.735 48.2207 227.665 48.4907 231.755C48.7807 236.225 52.1707 240.875 58.4907 244.535L212.121 333.155C224.281 340.155 242.671 340.915 253.201 334.835L412.651 242.685C417.721 239.785 420.041 235.845 419.771 231.755Z" fill="url(#paint2_linear)"/>
<g opacity="0.2">
<path opacity="0.2" d="M119.021 230.315C119.241 230.387 119.432 230.527 119.568 230.715C119.704 230.902 119.777 231.128 119.777 231.36C119.777 231.591 119.704 231.817 119.568 232.005C119.432 232.192 119.241 232.332 119.021 232.405C118.461 232.688 117.843 232.835 117.216 232.835C116.588 232.835 115.97 232.688 115.411 232.405C115.195 232.328 115.009 232.186 114.877 231.999C114.745 231.812 114.675 231.588 114.675 231.36C114.675 231.131 114.745 230.908 114.877 230.721C115.009 230.534 115.195 230.392 115.411 230.315C115.97 230.032 116.588 229.884 117.216 229.884C117.843 229.884 118.461 230.032 119.021 230.315Z" fill="white"/>
<path opacity="0.2" d="M138.341 219.165C138.557 219.239 138.745 219.379 138.878 219.566C139.011 219.752 139.083 219.976 139.083 220.205C139.083 220.434 139.011 220.657 138.878 220.843C138.745 221.03 138.557 221.17 138.341 221.245C137.781 221.528 137.163 221.675 136.536 221.675C135.909 221.675 135.291 221.528 134.731 221.245C134.514 221.17 134.327 221.03 134.194 220.843C134.061 220.657 133.989 220.434 133.989 220.205C133.989 219.976 134.061 219.752 134.194 219.566C134.327 219.379 134.514 219.239 134.731 219.165C135.291 218.882 135.909 218.734 136.536 218.734C137.163 218.734 137.781 218.882 138.341 219.165Z" fill="white"/>
<path opacity="0.2" d="M157.66 208.005C157.88 208.077 158.072 208.217 158.208 208.405C158.344 208.592 158.417 208.818 158.417 209.05C158.417 209.281 158.344 209.507 158.208 209.695C158.072 209.882 157.88 210.022 157.66 210.095C157.101 210.378 156.482 210.525 155.855 210.525C155.228 210.525 154.61 210.378 154.05 210.095C153.835 210.017 153.649 209.876 153.517 209.689C153.385 209.502 153.314 209.278 153.314 209.05C153.314 208.821 153.385 208.598 153.517 208.411C153.649 208.224 153.835 208.082 154.05 208.005C154.61 207.722 155.228 207.574 155.855 207.574C156.482 207.574 157.101 207.722 157.66 208.005Z" fill="white"/>
<path opacity="0.2" d="M176.981 196.855C177.197 196.929 177.385 197.07 177.518 197.256C177.651 197.442 177.722 197.666 177.722 197.895C177.722 198.124 177.651 198.347 177.518 198.533C177.385 198.72 177.197 198.86 176.981 198.935C176.421 199.218 175.803 199.365 175.176 199.365C174.548 199.365 173.93 199.218 173.371 198.935C173.154 198.86 172.966 198.72 172.833 198.533C172.7 198.347 172.629 198.124 172.629 197.895C172.629 197.666 172.7 197.442 172.833 197.256C172.966 197.07 173.154 196.929 173.371 196.855C173.93 196.572 174.548 196.424 175.176 196.424C175.803 196.424 176.421 196.572 176.981 196.855Z" fill="white"/>
<path opacity="0.2" d="M138.341 241.475C138.557 241.549 138.745 241.689 138.878 241.876C139.011 242.062 139.083 242.286 139.083 242.515C139.083 242.744 139.011 242.967 138.878 243.153C138.745 243.34 138.557 243.48 138.341 243.555C137.781 243.838 137.163 243.985 136.536 243.985C135.909 243.985 135.291 243.838 134.731 243.555C134.514 243.48 134.327 243.34 134.194 243.153C134.061 242.967 133.989 242.744 133.989 242.515C133.989 242.286 134.061 242.062 134.194 241.876C134.327 241.689 134.514 241.549 134.731 241.475C135.291 241.192 135.909 241.044 136.536 241.044C137.163 241.044 137.781 241.192 138.341 241.475Z" fill="white"/>
<path opacity="0.2" d="M157.66 230.315C157.88 230.387 158.072 230.527 158.208 230.715C158.344 230.902 158.417 231.128 158.417 231.36C158.417 231.591 158.344 231.817 158.208 232.005C158.072 232.192 157.88 232.332 157.66 232.405C157.101 232.688 156.482 232.835 155.855 232.835C155.228 232.835 154.61 232.688 154.05 232.405C153.835 232.328 153.649 232.186 153.517 231.999C153.385 231.812 153.314 231.588 153.314 231.36C153.314 231.131 153.385 230.908 153.517 230.721C153.649 230.534 153.835 230.392 154.05 230.315C154.61 230.032 155.228 229.884 155.855 229.884C156.482 229.884 157.101 230.032 157.66 230.315Z" fill="white"/>
<path opacity="0.2" d="M176.981 219.165C177.197 219.239 177.385 219.379 177.518 219.566C177.651 219.752 177.722 219.976 177.722 220.205C177.722 220.434 177.651 220.657 177.518 220.843C177.385 221.03 177.197 221.17 176.981 221.245C176.421 221.528 175.803 221.675 175.176 221.675C174.548 221.675 173.93 221.528 173.371 221.245C173.154 221.17 172.966 221.03 172.833 220.843C172.7 220.657 172.629 220.434 172.629 220.205C172.629 219.976 172.7 219.752 172.833 219.566C172.966 219.379 173.154 219.239 173.371 219.165C173.93 218.882 174.548 218.734 175.176 218.734C175.803 218.734 176.421 218.882 176.981 219.165Z" fill="white"/>
<path opacity="0.2" d="M196.301 208.015C196.517 208.089 196.705 208.23 196.838 208.416C196.971 208.602 197.042 208.826 197.042 209.055C197.042 209.284 196.971 209.507 196.838 209.693C196.705 209.88 196.517 210.02 196.301 210.095C195.741 210.378 195.123 210.525 194.496 210.525C193.869 210.525 193.25 210.378 192.691 210.095C192.474 210.02 192.287 209.88 192.154 209.693C192.021 209.507 191.949 209.284 191.949 209.055C191.949 208.826 192.021 208.602 192.154 208.416C192.287 208.23 192.474 208.089 192.691 208.015C193.25 207.732 193.869 207.584 194.496 207.584C195.123 207.584 195.741 207.732 196.301 208.015Z" fill="white"/>
<path opacity="0.2" d="M157.66 252.625C157.88 252.697 158.072 252.837 158.208 253.025C158.344 253.212 158.417 253.438 158.417 253.67C158.417 253.901 158.344 254.127 158.208 254.315C158.072 254.502 157.88 254.642 157.66 254.715C157.101 254.998 156.482 255.145 155.855 255.145C155.228 255.145 154.61 254.998 154.05 254.715C153.835 254.638 153.649 254.496 153.517 254.309C153.385 254.122 153.314 253.899 153.314 253.67C153.314 253.441 153.385 253.218 153.517 253.031C153.649 252.844 153.835 252.702 154.05 252.625C154.61 252.342 155.228 252.194 155.855 252.194C156.482 252.194 157.101 252.342 157.66 252.625Z" fill="white"/>
<path opacity="0.2" d="M176.981 241.475C177.197 241.549 177.385 241.689 177.518 241.876C177.651 242.062 177.722 242.286 177.722 242.515C177.722 242.744 177.651 242.967 177.518 243.153C177.385 243.34 177.197 243.48 176.981 243.555C176.421 243.838 175.803 243.985 175.176 243.985C174.548 243.985 173.93 243.838 173.371 243.555C173.154 243.48 172.966 243.34 172.833 243.153C172.7 242.967 172.629 242.744 172.629 242.515C172.629 242.286 172.7 242.062 172.833 241.876C172.966 241.689 173.154 241.549 173.371 241.475C173.93 241.192 174.548 241.044 175.176 241.044C175.803 241.044 176.421 241.192 176.981 241.475Z" fill="white"/>
<path opacity="0.2" d="M196.301 230.315C196.521 230.387 196.713 230.527 196.848 230.715C196.984 230.902 197.057 231.128 197.057 231.36C197.057 231.591 196.984 231.817 196.848 232.005C196.713 232.192 196.521 232.332 196.301 232.405C195.741 232.688 195.123 232.835 194.496 232.835C193.869 232.835 193.25 232.688 192.691 232.405C192.475 232.328 192.289 232.186 192.157 231.999C192.026 231.812 191.955 231.588 191.955 231.36C191.955 231.131 192.026 230.908 192.157 230.721C192.289 230.534 192.475 230.392 192.691 230.315C193.25 230.032 193.869 229.884 194.496 229.884C195.123 229.884 195.741 230.032 196.301 230.315Z" fill="white"/>
<path opacity="0.2" d="M215.621 219.165C215.837 219.239 216.025 219.38 216.158 219.566C216.291 219.752 216.363 219.976 216.363 220.205C216.363 220.434 216.291 220.657 216.158 220.843C216.025 221.03 215.837 221.17 215.621 221.245C215.064 221.531 214.447 221.68 213.821 221.68C213.195 221.68 212.578 221.531 212.021 221.245C211.805 221.17 211.617 221.03 211.484 220.843C211.351 220.657 211.279 220.434 211.279 220.205C211.279 219.976 211.351 219.752 211.484 219.566C211.617 219.38 211.805 219.239 212.021 219.165C212.578 218.879 213.195 218.729 213.821 218.729C214.447 218.729 215.064 218.879 215.621 219.165Z" fill="white"/>
<path opacity="0.2" d="M175.181 266.294C176.589 266.294 177.731 265.636 177.731 264.824C177.731 264.013 176.589 263.354 175.181 263.354C173.772 263.354 172.631 264.013 172.631 264.824C172.631 265.636 173.772 266.294 175.181 266.294Z" fill="white"/>
<path opacity="0.2" d="M194.5 255.135C195.909 255.135 197.05 254.476 197.05 253.665C197.05 252.853 195.909 252.195 194.5 252.195C193.092 252.195 191.95 252.853 191.95 253.665C191.95 254.476 193.092 255.135 194.5 255.135Z" fill="white"/>
<path opacity="0.2" d="M215.621 241.475C215.837 241.549 216.025 241.689 216.158 241.876C216.291 242.062 216.363 242.286 216.363 242.515C216.363 242.744 216.291 242.967 216.158 243.153C216.025 243.34 215.837 243.48 215.621 243.555C215.064 243.841 214.447 243.99 213.821 243.99C213.195 243.99 212.578 243.841 212.021 243.555C211.805 243.48 211.617 243.34 211.484 243.153C211.351 242.967 211.279 242.744 211.279 242.515C211.279 242.286 211.351 242.062 211.484 241.876C211.617 241.689 211.805 241.549 212.021 241.475C212.578 241.189 213.195 241.039 213.821 241.039C214.447 241.039 215.064 241.189 215.621 241.475Z" fill="white"/>
<path opacity="0.2" d="M234.94 230.315C235.161 230.387 235.352 230.527 235.488 230.715C235.624 230.902 235.697 231.128 235.697 231.36C235.697 231.591 235.624 231.817 235.488 232.005C235.352 232.192 235.161 232.332 234.94 232.405C234.382 232.686 233.766 232.832 233.141 232.832C232.515 232.832 231.899 232.686 231.34 232.405C231.12 232.332 230.929 232.192 230.793 232.005C230.657 231.817 230.584 231.591 230.584 231.36C230.584 231.128 230.657 230.902 230.793 230.715C230.929 230.527 231.12 230.387 231.34 230.315C231.899 230.033 232.515 229.887 233.141 229.887C233.766 229.887 234.382 230.033 234.94 230.315Z" fill="white"/>
<path opacity="0.2" d="M196.301 274.944C196.521 275.017 196.713 275.157 196.848 275.344C196.984 275.532 197.057 275.758 197.057 275.99C197.057 276.221 196.984 276.447 196.848 276.635C196.713 276.822 196.521 276.962 196.301 277.034C195.742 277.316 195.126 277.462 194.501 277.462C193.876 277.462 193.259 277.316 192.701 277.034C192.481 276.962 192.289 276.822 192.153 276.635C192.017 276.447 191.944 276.221 191.944 275.99C191.944 275.758 192.017 275.532 192.153 275.344C192.289 275.157 192.481 275.017 192.701 274.944C193.259 274.663 193.876 274.517 194.501 274.517C195.126 274.517 195.742 274.663 196.301 274.944Z" fill="white"/>
<path opacity="0.2" d="M215.621 263.785C215.837 263.859 216.025 263.999 216.158 264.186C216.291 264.372 216.363 264.596 216.363 264.825C216.363 265.054 216.291 265.277 216.158 265.463C216.025 265.65 215.837 265.79 215.621 265.865C215.064 266.151 214.447 266.3 213.821 266.3C213.195 266.3 212.578 266.151 212.021 265.865C211.805 265.79 211.617 265.65 211.484 265.463C211.351 265.277 211.279 265.054 211.279 264.825C211.279 264.596 211.351 264.372 211.484 264.186C211.617 263.999 211.805 263.859 212.021 263.785C212.578 263.499 213.195 263.349 213.821 263.349C214.447 263.349 215.064 263.499 215.621 263.785Z" fill="white"/>
<path opacity="0.2" d="M234.94 252.625C235.161 252.697 235.352 252.837 235.488 253.025C235.624 253.212 235.697 253.438 235.697 253.67C235.697 253.901 235.624 254.127 235.488 254.315C235.352 254.502 235.161 254.642 234.94 254.715C234.382 254.996 233.766 255.143 233.141 255.143C232.515 255.143 231.899 254.996 231.34 254.715C231.12 254.642 230.929 254.502 230.793 254.315C230.657 254.127 230.584 253.901 230.584 253.67C230.584 253.438 230.657 253.212 230.793 253.025C230.929 252.837 231.12 252.697 231.34 252.625C231.899 252.343 232.515 252.197 233.141 252.197C233.766 252.197 234.382 252.343 234.94 252.625Z" fill="white"/>
<path opacity="0.2" d="M254.261 241.475C254.477 241.549 254.665 241.689 254.798 241.876C254.931 242.062 255.002 242.286 255.002 242.515C255.002 242.744 254.931 242.967 254.798 243.153C254.665 243.34 254.477 243.48 254.261 243.555C253.704 243.841 253.087 243.99 252.461 243.99C251.835 243.99 251.218 243.841 250.661 243.555C250.444 243.48 250.256 243.34 250.123 243.153C249.99 242.967 249.919 242.744 249.919 242.515C249.919 242.286 249.99 242.062 250.123 241.876C250.256 241.689 250.444 241.549 250.661 241.475C251.218 241.189 251.835 241.039 252.461 241.039C253.087 241.039 253.704 241.189 254.261 241.475Z" fill="white"/>
<path opacity="0.2" d="M254.261 241.475C254.477 241.549 254.665 241.689 254.798 241.876C254.931 242.062 255.002 242.286 255.002 242.515C255.002 242.744 254.931 242.967 254.798 243.153C254.665 243.34 254.477 243.48 254.261 243.555C253.704 243.841 253.087 243.99 252.461 243.99C251.835 243.99 251.218 243.841 250.661 243.555C250.444 243.48 250.256 243.34 250.123 243.153C249.99 242.967 249.919 242.744 249.919 242.515C249.919 242.286 249.99 242.062 250.123 241.876C250.256 241.689 250.444 241.549 250.661 241.475C251.218 241.189 251.835 241.039 252.461 241.039C253.087 241.039 253.704 241.189 254.261 241.475Z" fill="white"/>
<path opacity="0.2" d="M196.301 185.705C196.517 185.779 196.705 185.919 196.838 186.106C196.971 186.292 197.042 186.516 197.042 186.745C197.042 186.974 196.971 187.197 196.838 187.383C196.705 187.57 196.517 187.71 196.301 187.785C195.741 188.068 195.123 188.215 194.496 188.215C193.869 188.215 193.25 188.068 192.691 187.785C192.474 187.71 192.287 187.57 192.154 187.383C192.021 187.197 191.949 186.974 191.949 186.745C191.949 186.516 192.021 186.292 192.154 186.106C192.287 185.919 192.474 185.779 192.691 185.705C193.25 185.422 193.869 185.274 194.496 185.274C195.123 185.274 195.741 185.422 196.301 185.705Z" fill="white"/>
<path opacity="0.2" d="M215.62 174.545C215.837 174.619 216.025 174.76 216.157 174.946C216.29 175.132 216.362 175.356 216.362 175.585C216.362 175.814 216.29 176.037 216.157 176.223C216.025 176.41 215.837 176.55 215.62 176.625C215.061 176.908 214.442 177.055 213.815 177.055C213.188 177.055 212.57 176.908 212.01 176.625C211.794 176.55 211.606 176.41 211.473 176.223C211.34 176.037 211.269 175.814 211.269 175.585C211.269 175.356 211.34 175.132 211.473 174.946C211.606 174.76 211.794 174.619 212.01 174.545C212.57 174.262 213.188 174.114 213.815 174.114C214.442 174.114 215.061 174.262 215.62 174.545Z" fill="white"/>
<path opacity="0.2" d="M233.141 165.905C234.549 165.905 235.691 165.246 235.691 164.435C235.691 163.623 234.549 162.965 233.141 162.965C231.733 162.965 230.591 163.623 230.591 164.435C230.591 165.246 231.733 165.905 233.141 165.905Z" fill="white"/>
<path opacity="0.2" d="M215.62 196.855C215.837 196.929 216.025 197.07 216.157 197.256C216.29 197.442 216.362 197.666 216.362 197.895C216.362 198.124 216.29 198.347 216.157 198.533C216.025 198.72 215.837 198.86 215.62 198.935C215.061 199.218 214.442 199.365 213.815 199.365C213.188 199.365 212.57 199.218 212.01 198.935C211.794 198.86 211.606 198.72 211.473 198.533C211.34 198.347 211.269 198.124 211.269 197.895C211.269 197.666 211.34 197.442 211.473 197.256C211.606 197.07 211.794 196.929 212.01 196.855C212.57 196.572 213.188 196.424 213.815 196.424C214.442 196.424 215.061 196.572 215.62 196.855Z" fill="white"/>
<path opacity="0.2" d="M234.941 185.705C235.157 185.779 235.345 185.919 235.478 186.106C235.611 186.292 235.682 186.516 235.682 186.745C235.682 186.974 235.611 187.197 235.478 187.383C235.345 187.57 235.157 187.71 234.941 187.785C234.381 188.068 233.763 188.215 233.136 188.215C232.509 188.215 231.89 188.068 231.331 187.785C231.114 187.71 230.926 187.57 230.793 187.383C230.66 187.197 230.589 186.974 230.589 186.745C230.589 186.516 230.66 186.292 230.793 186.106C230.926 185.919 231.114 185.779 231.331 185.705C231.89 185.422 232.509 185.274 233.136 185.274C233.763 185.274 234.381 185.422 234.941 185.705Z" fill="white"/>
<path opacity="0.2" d="M254.261 174.545C254.477 174.619 254.665 174.76 254.798 174.946C254.931 175.132 255.002 175.356 255.002 175.585C255.002 175.814 254.931 176.037 254.798 176.223C254.665 176.41 254.477 176.55 254.261 176.625C253.701 176.908 253.083 177.055 252.456 177.055C251.829 177.055 251.21 176.908 250.651 176.625C250.434 176.55 250.246 176.41 250.114 176.223C249.981 176.037 249.909 175.814 249.909 175.585C249.909 175.356 249.981 175.132 250.114 174.946C250.246 174.76 250.434 174.619 250.651 174.545C251.21 174.262 251.829 174.114 252.456 174.114C253.083 174.114 253.701 174.262 254.261 174.545Z" fill="white"/>
<path opacity="0.2" d="M234.94 208.015C235.157 208.089 235.345 208.229 235.478 208.416C235.611 208.602 235.682 208.826 235.682 209.055C235.682 209.284 235.611 209.507 235.478 209.693C235.345 209.88 235.157 210.02 234.94 210.095C234.382 210.376 233.766 210.522 233.14 210.522C232.515 210.522 231.899 210.376 231.34 210.095C231.124 210.02 230.936 209.88 230.803 209.693C230.67 209.507 230.599 209.284 230.599 209.055C230.599 208.826 230.67 208.602 230.803 208.416C230.936 208.229 231.124 208.089 231.34 208.015C231.897 207.729 232.514 207.579 233.14 207.579C233.766 207.579 234.383 207.729 234.94 208.015Z" fill="white"/>
<path opacity="0.2" d="M254.261 196.855C254.477 196.929 254.665 197.07 254.798 197.256C254.931 197.442 255.002 197.666 255.002 197.895C255.002 198.124 254.931 198.347 254.798 198.533C254.665 198.72 254.477 198.86 254.261 198.935C253.704 199.221 253.087 199.37 252.461 199.37C251.835 199.37 251.218 199.221 250.661 198.935C250.444 198.86 250.256 198.72 250.123 198.533C249.99 198.347 249.919 198.124 249.919 197.895C249.919 197.666 249.99 197.442 250.123 197.256C250.256 197.07 250.444 196.929 250.661 196.855C251.219 196.573 251.835 196.427 252.461 196.427C253.086 196.427 253.702 196.573 254.261 196.855Z" fill="white"/>
<path opacity="0.2" d="M273.581 185.705C273.797 185.779 273.985 185.92 274.118 186.106C274.251 186.292 274.323 186.516 274.323 186.745C274.323 186.974 274.251 187.197 274.118 187.383C273.985 187.57 273.797 187.71 273.581 187.785C273.023 188.066 272.406 188.213 271.781 188.213C271.156 188.213 270.539 188.066 269.981 187.785C269.764 187.71 269.577 187.57 269.444 187.383C269.311 187.197 269.239 186.974 269.239 186.745C269.239 186.516 269.311 186.292 269.444 186.106C269.577 185.92 269.764 185.779 269.981 185.705C270.538 185.419 271.155 185.27 271.781 185.27C272.407 185.27 273.024 185.419 273.581 185.705Z" fill="white"/>
<path opacity="0.2" d="M252.46 221.675C253.868 221.675 255.01 221.016 255.01 220.205C255.01 219.393 253.868 218.735 252.46 218.735C251.052 218.735 249.91 219.393 249.91 220.205C249.91 221.016 251.052 221.675 252.46 221.675Z" fill="white"/>
<path opacity="0.2" d="M273.581 208.015C273.797 208.089 273.985 208.229 274.118 208.416C274.251 208.602 274.323 208.826 274.323 209.055C274.323 209.284 274.251 209.507 274.118 209.693C273.985 209.88 273.797 210.02 273.581 210.095C273.023 210.376 272.406 210.522 271.781 210.522C271.156 210.522 270.539 210.376 269.981 210.095C269.764 210.02 269.577 209.88 269.444 209.693C269.311 209.507 269.239 209.284 269.239 209.055C269.239 208.826 269.311 208.602 269.444 208.416C269.577 208.229 269.764 208.089 269.981 208.015C270.538 207.729 271.155 207.579 271.781 207.579C272.407 207.579 273.024 207.729 273.581 208.015Z" fill="white"/>
<path opacity="0.2" d="M292.9 196.855C293.117 196.929 293.305 197.07 293.438 197.256C293.57 197.442 293.642 197.666 293.642 197.895C293.642 198.124 293.57 198.347 293.438 198.533C293.305 198.72 293.117 198.86 292.9 198.935C292.343 199.221 291.726 199.37 291.1 199.37C290.474 199.37 289.857 199.221 289.3 198.935C289.084 198.86 288.896 198.72 288.763 198.533C288.63 198.347 288.559 198.124 288.559 197.895C288.559 197.666 288.63 197.442 288.763 197.256C288.896 197.07 289.084 196.929 289.3 196.855C289.858 196.573 290.475 196.427 291.1 196.427C291.725 196.427 292.342 196.573 292.9 196.855Z" fill="white"/>
<path opacity="0.2" d="M273.581 230.325C273.797 230.399 273.985 230.539 274.118 230.726C274.251 230.912 274.323 231.136 274.323 231.365C274.323 231.594 274.251 231.817 274.118 232.003C273.985 232.19 273.797 232.33 273.581 232.405C273.023 232.686 272.406 232.832 271.781 232.832C271.156 232.832 270.539 232.686 269.981 232.405C269.764 232.33 269.577 232.19 269.444 232.003C269.311 231.817 269.239 231.594 269.239 231.365C269.239 231.136 269.311 230.912 269.444 230.726C269.577 230.539 269.764 230.399 269.981 230.325C270.538 230.039 271.155 229.889 271.781 229.889C272.407 229.889 273.024 230.039 273.581 230.325Z" fill="white"/>
<path opacity="0.2" d="M292.9 219.165C293.117 219.239 293.305 219.38 293.438 219.566C293.57 219.752 293.642 219.976 293.642 220.205C293.642 220.434 293.57 220.657 293.438 220.843C293.305 221.03 293.117 221.17 292.9 221.245C292.343 221.531 291.726 221.68 291.1 221.68C290.474 221.68 289.857 221.531 289.3 221.245C289.084 221.17 288.896 221.03 288.763 220.843C288.63 220.657 288.559 220.434 288.559 220.205C288.559 219.976 288.63 219.752 288.763 219.566C288.896 219.38 289.084 219.239 289.3 219.165C289.858 218.883 290.475 218.737 291.1 218.737C291.725 218.737 292.342 218.883 292.9 219.165Z" fill="white"/>
<path opacity="0.2" d="M312.221 208.015C312.437 208.089 312.625 208.229 312.758 208.416C312.891 208.602 312.962 208.826 312.962 209.055C312.962 209.284 312.891 209.507 312.758 209.693C312.625 209.88 312.437 210.02 312.221 210.095C311.662 210.376 311.046 210.522 310.421 210.522C309.795 210.522 309.179 210.376 308.621 210.095C308.404 210.02 308.216 209.88 308.083 209.693C307.95 209.507 307.879 209.284 307.879 209.055C307.879 208.826 307.95 208.602 308.083 208.416C308.216 208.229 308.404 208.089 308.621 208.015C309.178 207.729 309.794 207.579 310.421 207.579C311.047 207.579 311.664 207.729 312.221 208.015Z" fill="white"/>
<path opacity="0.2" d="M215.621 286.095C215.837 286.169 216.025 286.31 216.158 286.496C216.291 286.682 216.363 286.906 216.363 287.135C216.363 287.364 216.291 287.587 216.158 287.773C216.025 287.96 215.837 288.1 215.621 288.175C215.063 288.456 214.446 288.603 213.821 288.603C213.196 288.603 212.579 288.456 212.021 288.175C211.805 288.1 211.617 287.96 211.484 287.773C211.351 287.587 211.279 287.364 211.279 287.135C211.279 286.906 211.351 286.682 211.484 286.496C211.617 286.31 211.805 286.169 212.021 286.095C212.578 285.809 213.195 285.659 213.821 285.659C214.447 285.659 215.064 285.809 215.621 286.095Z" fill="white"/>
<path opacity="0.2" d="M234.94 274.944C235.161 275.017 235.352 275.157 235.488 275.344C235.624 275.532 235.697 275.758 235.697 275.99C235.697 276.221 235.624 276.447 235.488 276.635C235.352 276.822 235.161 276.962 234.94 277.034C234.382 277.316 233.766 277.462 233.141 277.462C232.515 277.462 231.899 277.316 231.34 277.034C231.12 276.962 230.929 276.822 230.793 276.635C230.657 276.447 230.584 276.221 230.584 275.99C230.584 275.758 230.657 275.532 230.793 275.344C230.929 275.157 231.12 275.017 231.34 274.944C231.899 274.663 232.515 274.517 233.141 274.517C233.766 274.517 234.382 274.663 234.94 274.944Z" fill="white"/>
<path opacity="0.2" d="M254.261 263.785C254.477 263.859 254.665 263.999 254.798 264.186C254.931 264.372 255.002 264.596 255.002 264.825C255.002 265.054 254.931 265.277 254.798 265.463C254.665 265.65 254.477 265.79 254.261 265.865C253.704 266.151 253.087 266.3 252.461 266.3C251.835 266.3 251.218 266.151 250.661 265.865C250.444 265.79 250.256 265.65 250.123 265.463C249.99 265.277 249.919 265.054 249.919 264.825C249.919 264.596 249.99 264.372 250.123 264.186C250.256 263.999 250.444 263.859 250.661 263.785C251.218 263.499 251.835 263.349 252.461 263.349C253.087 263.349 253.704 263.499 254.261 263.785Z" fill="white"/>
<path opacity="0.2" d="M273.581 252.625C273.801 252.697 273.993 252.837 274.129 253.025C274.265 253.212 274.338 253.438 274.338 253.67C274.338 253.901 274.265 254.127 274.129 254.315C273.993 254.502 273.801 254.642 273.581 254.715C273.023 254.996 272.406 255.143 271.781 255.143C271.156 255.143 270.539 254.996 269.981 254.715C269.761 254.642 269.569 254.502 269.433 254.315C269.298 254.127 269.225 253.901 269.225 253.67C269.225 253.438 269.298 253.212 269.433 253.025C269.569 252.837 269.761 252.697 269.981 252.625C270.539 252.343 271.156 252.197 271.781 252.197C272.406 252.197 273.023 252.343 273.581 252.625Z" fill="white"/>
<path opacity="0.2" d="M234.94 297.245C235.157 297.319 235.345 297.459 235.478 297.646C235.611 297.832 235.682 298.056 235.682 298.285C235.682 298.514 235.611 298.737 235.478 298.923C235.345 299.11 235.157 299.25 234.94 299.325C234.383 299.611 233.766 299.76 233.14 299.76C232.514 299.76 231.897 299.611 231.34 299.325C231.124 299.25 230.936 299.11 230.803 298.923C230.67 298.737 230.599 298.514 230.599 298.285C230.599 298.056 230.67 297.832 230.803 297.646C230.936 297.459 231.124 297.319 231.34 297.245C231.899 296.963 232.515 296.817 233.14 296.817C233.766 296.817 234.382 296.963 234.94 297.245Z" fill="white"/>
<path opacity="0.2" d="M254.261 286.095C254.477 286.169 254.665 286.31 254.798 286.496C254.931 286.682 255.002 286.906 255.002 287.135C255.002 287.364 254.931 287.587 254.798 287.773C254.665 287.96 254.477 288.1 254.261 288.175C253.704 288.461 253.087 288.61 252.461 288.61C251.835 288.61 251.218 288.461 250.661 288.175C250.444 288.1 250.256 287.96 250.123 287.773C249.99 287.587 249.919 287.364 249.919 287.135C249.919 286.906 249.99 286.682 250.123 286.496C250.256 286.31 250.444 286.169 250.661 286.095C251.218 285.809 251.835 285.659 252.461 285.659C253.087 285.659 253.704 285.809 254.261 286.095Z" fill="white"/>
<path opacity="0.2" d="M271.781 277.445C273.189 277.445 274.33 276.786 274.33 275.975C274.33 275.163 273.189 274.505 271.781 274.505C270.372 274.505 269.23 275.163 269.23 275.975C269.23 276.786 270.372 277.445 271.781 277.445Z" fill="white"/>
<path opacity="0.2" d="M292.9 263.785C293.117 263.859 293.305 263.999 293.438 264.186C293.57 264.372 293.642 264.596 293.642 264.825C293.642 265.054 293.57 265.277 293.438 265.463C293.305 265.65 293.117 265.79 292.9 265.865C292.343 266.151 291.726 266.3 291.1 266.3C290.474 266.3 289.857 266.151 289.3 265.865C289.084 265.79 288.896 265.65 288.763 265.463C288.63 265.277 288.559 265.054 288.559 264.825C288.559 264.596 288.63 264.372 288.763 264.186C288.896 263.999 289.084 263.859 289.3 263.785C289.857 263.499 290.474 263.349 291.1 263.349C291.726 263.349 292.343 263.499 292.9 263.785Z" fill="white"/>
<path opacity="0.2" d="M292.9 241.475C293.117 241.549 293.305 241.689 293.438 241.876C293.57 242.062 293.642 242.286 293.642 242.515C293.642 242.744 293.57 242.967 293.438 243.153C293.305 243.34 293.117 243.48 292.9 243.555C292.343 243.841 291.726 243.99 291.1 243.99C290.474 243.99 289.857 243.841 289.3 243.555C289.084 243.48 288.896 243.34 288.763 243.153C288.63 242.967 288.559 242.744 288.559 242.515C288.559 242.286 288.63 242.062 288.763 241.876C288.896 241.689 289.084 241.549 289.3 241.475C289.857 241.189 290.474 241.039 291.1 241.039C291.726 241.039 292.343 241.189 292.9 241.475Z" fill="white"/>
<path opacity="0.2" d="M312.221 230.325C312.437 230.399 312.625 230.539 312.758 230.726C312.891 230.912 312.962 231.136 312.962 231.365C312.962 231.594 312.891 231.817 312.758 232.003C312.625 232.19 312.437 232.33 312.221 232.405C311.662 232.686 311.046 232.832 310.421 232.832C309.795 232.832 309.179 232.686 308.621 232.405C308.404 232.33 308.216 232.19 308.083 232.003C307.95 231.817 307.879 231.594 307.879 231.365C307.879 231.136 307.95 230.912 308.083 230.726C308.216 230.539 308.404 230.399 308.621 230.325C309.178 230.039 309.794 229.889 310.421 229.889C311.047 229.889 311.664 230.039 312.221 230.325Z" fill="white"/>
<path opacity="0.2" d="M331.541 219.165C331.757 219.239 331.945 219.38 332.078 219.566C332.211 219.752 332.282 219.976 332.282 220.205C332.282 220.434 332.211 220.657 332.078 220.843C331.945 221.03 331.757 221.17 331.541 221.245C330.984 221.531 330.367 221.68 329.741 221.68C329.115 221.68 328.498 221.531 327.941 221.245C327.724 221.17 327.537 221.03 327.404 220.843C327.271 220.657 327.199 220.434 327.199 220.205C327.199 219.976 327.271 219.752 327.404 219.566C327.537 219.38 327.724 219.239 327.941 219.165C328.499 218.883 329.116 218.737 329.741 218.737C330.366 218.737 330.982 218.883 331.541 219.165Z" fill="white"/>
<path opacity="0.2" d="M312.221 252.625C312.441 252.697 312.633 252.837 312.768 253.025C312.904 253.212 312.977 253.438 312.977 253.67C312.977 253.901 312.904 254.127 312.768 254.315C312.633 254.502 312.441 254.642 312.221 254.715C311.663 254.996 311.046 255.143 310.421 255.143C309.796 255.143 309.179 254.996 308.621 254.715C308.401 254.642 308.209 254.502 308.073 254.315C307.937 254.127 307.864 253.901 307.864 253.67C307.864 253.438 307.937 253.212 308.073 253.025C308.209 252.837 308.401 252.697 308.621 252.625C309.179 252.343 309.796 252.197 310.421 252.197C311.046 252.197 311.663 252.343 312.221 252.625Z" fill="white"/>
<path opacity="0.2" d="M331.541 241.475C331.757 241.549 331.945 241.689 332.078 241.876C332.211 242.062 332.282 242.286 332.282 242.515C332.282 242.744 332.211 242.967 332.078 243.153C331.945 243.34 331.757 243.48 331.541 243.555C330.984 243.841 330.367 243.99 329.741 243.99C329.115 243.99 328.498 243.841 327.941 243.555C327.724 243.48 327.537 243.34 327.404 243.153C327.271 242.967 327.199 242.744 327.199 242.515C327.199 242.286 327.271 242.062 327.404 241.876C327.537 241.689 327.724 241.549 327.941 241.475C328.499 241.193 329.116 241.047 329.741 241.047C330.366 241.047 330.982 241.193 331.541 241.475Z" fill="white"/>
<path opacity="0.2" d="M350.86 230.325C351.077 230.399 351.265 230.539 351.397 230.726C351.53 230.912 351.602 231.136 351.602 231.365C351.602 231.594 351.53 231.817 351.397 232.003C351.265 232.19 351.077 232.33 350.86 232.405C350.302 232.686 349.685 232.832 349.06 232.832C348.435 232.832 347.819 232.686 347.26 232.405C347.044 232.33 346.856 232.19 346.723 232.003C346.59 231.817 346.519 231.594 346.519 231.365C346.519 231.136 346.59 230.912 346.723 230.726C346.856 230.539 347.044 230.399 347.26 230.325C347.817 230.039 348.434 229.889 349.06 229.889C349.686 229.889 350.303 230.039 350.86 230.325Z" fill="white"/>
</g>
<path style="mix-blend-mode:multiply" d="M240.43 162.294H219.35L281.57 198.224C282.21 198.594 282.741 199.125 283.11 199.765C283.479 200.405 283.673 201.131 283.673 201.869C283.673 202.608 283.479 203.334 283.11 203.974C282.741 204.613 282.21 205.145 281.57 205.514L181.91 263.054H202.99C205.044 263.056 207.062 262.514 208.84 261.484L304 206.554C304.822 206.08 305.505 205.397 305.98 204.574C306.455 203.752 306.705 202.819 306.705 201.869C306.705 200.92 306.455 199.987 305.98 199.165C305.505 198.342 304.822 197.659 304 197.184L246.28 163.864C244.502 162.835 242.484 162.293 240.43 162.294Z" fill="url(#paint3_linear)"/>
<g style="mix-blend-mode:multiply">
<path d="M286.611 202.605C286.501 200.985 285.271 199.295 282.971 197.965L227.31 165.865C222.9 163.325 216.24 163.045 212.43 165.255L117.21 220.255C115.39 221.315 114.551 222.735 114.651 224.255C114.751 225.775 115.981 227.565 118.281 228.895L173.95 260.995C178.35 263.535 185.01 263.815 188.83 261.605L284.04 206.605C285.87 205.505 286.701 204.085 286.611 202.605Z" fill="#9295B2"/>
</g>
<path d="M286.61 200.335V140.425L114.61 162.045V221.535C114.6 221.671 114.6 221.808 114.61 221.945C114.71 223.565 115.94 225.255 118.24 226.585L173.91 258.685C176.365 260.028 179.112 260.749 181.91 260.785C184.308 260.911 186.696 260.397 188.83 259.295L284.04 204.295C285.86 203.245 286.7 201.815 286.61 200.335Z" fill="url(#paint4_linear)"/>
<path d="M286.611 140.425C286.501 138.805 285.271 137.125 282.971 135.795L227.31 103.685C222.9 101.145 216.24 100.875 212.43 103.075L117.21 158.075C115.39 159.125 114.551 160.555 114.651 162.075C114.751 163.595 115.981 165.375 118.281 166.705L173.95 198.815C178.35 201.355 185.01 201.625 188.83 199.425L284.04 144.425C285.87 143.335 286.701 141.945 286.611 140.425Z" fill="white"/>
<path d="M286.611 138.435C286.501 136.815 285.271 135.125 282.971 133.795L227.31 101.695C222.9 99.1546 216.24 98.8746 212.43 101.085L117.21 156.085C115.39 157.135 114.551 158.565 114.651 160.085C114.751 161.605 115.981 163.395 118.281 164.715L173.95 196.825C178.35 199.365 185.01 199.635 188.83 197.435L284.04 142.435C285.87 141.335 286.701 139.945 286.611 138.435Z" fill="url(#paint5_linear)"/>
<path d="M204.3 179.825C202.51 179.827 200.751 179.358 199.2 178.465L189.73 172.995C189.092 172.626 188.563 172.096 188.195 171.458C187.828 170.82 187.634 170.096 187.634 169.36C187.634 168.623 187.828 167.9 188.195 167.262C188.563 166.624 189.092 166.093 189.73 165.725L232.15 141.235C233.703 140.34 235.463 139.87 237.255 139.87C239.047 139.87 240.807 140.34 242.36 141.235L251.82 146.695C252.46 147.063 252.991 147.593 253.36 148.232C253.73 148.871 253.925 149.596 253.925 150.335C253.925 151.073 253.73 151.798 253.36 152.437C252.991 153.076 252.46 153.606 251.82 153.975L209.41 178.465C207.856 179.359 206.093 179.828 204.3 179.825ZM237.3 141.095C235.724 141.095 234.176 141.508 232.81 142.295L190.4 166.785C189.955 167.051 189.586 167.428 189.33 167.879C189.074 168.331 188.939 168.841 188.939 169.36C188.939 169.878 189.074 170.388 189.33 170.84C189.586 171.291 189.955 171.668 190.4 171.935L199.86 177.395C201.228 178.184 202.78 178.6 204.36 178.6C205.94 178.6 207.492 178.184 208.86 177.395L251.21 152.945C251.653 152.678 252.02 152.301 252.274 151.851C252.529 151.4 252.662 150.892 252.662 150.375C252.662 149.857 252.529 149.349 252.274 148.899C252.02 148.448 251.653 148.071 251.21 147.805L241.74 142.335C240.379 141.532 238.83 141.104 237.25 141.095H237.3Z" fill="#BCC0E5"/>
<path d="M222.77 113.245L143.33 159.995V70.1946L222.77 23.7146V113.245Z" fill="url(#paint6_linear)"/>
<path opacity="0.8" d="M150.46 38.7346L215.64 1.10457C219.58 -1.16543 222.77 0.174569 222.77 4.10457V81.5846C222.77 85.5246 219.58 90.5846 215.64 92.8346L150.46 130.465C146.52 132.735 143.33 131.385 143.33 127.465V49.9446C143.33 46.0446 146.52 41.0146 150.46 38.7346Z" fill="#080078"/>
<path d="M198.261 91.9446L210.231 85.0346V53.9246L198.261 60.8346V91.9446Z" fill="#FFAD6F"/>
<path d="M184 100.175L195.97 93.2646V50.4746L184 57.3846V100.175Z" fill="#FF5A6F"/>
<path d="M169.74 108.415L181.71 101.505V50.4746L169.74 57.3846V108.415Z" fill="#FFAD6F"/>
<path d="M155.48 116.645L167.44 109.735V41.5245L155.48 48.4345V116.645Z" fill="#FF5A6F"/>
<path d="M198.261 72.6946L210.231 65.7846V60.9446L198.261 67.8546V72.6946Z" fill="white"/>
<path d="M184 87.8945L195.97 80.9845V76.1445L184 83.0545V87.8945Z" fill="white"/>
<path d="M169.74 73.4446L181.71 66.5446V61.6946L169.74 68.6046V73.4446Z" fill="white"/>
<path d="M155.48 58.7046L167.44 51.7946V46.9546L155.48 53.8646V58.7046Z" fill="white"/>
<path d="M143.331 161.005C143.154 161.005 142.981 160.959 142.828 160.872C142.676 160.784 142.549 160.657 142.461 160.505C142.391 160.39 142.345 160.263 142.325 160.131C142.306 159.998 142.313 159.863 142.346 159.733C142.38 159.604 142.439 159.482 142.521 159.376C142.602 159.27 142.704 159.181 142.821 159.115L222.261 112.365C222.493 112.232 222.768 112.197 223.026 112.267C223.284 112.338 223.503 112.508 223.636 112.74C223.768 112.972 223.803 113.247 223.733 113.505C223.663 113.763 223.493 113.982 223.261 114.115L143.811 160.865C143.664 160.949 143.499 160.997 143.331 161.005Z" fill="#FF5A6F"/>
<path d="M318.481 206.345C308.691 206.345 300.761 210.485 300.761 215.575C300.761 220.665 308.691 224.815 318.481 224.815H408.611V206.345H318.481Z" fill="url(#paint7_linear)"/>
<path d="M320.001 205.705C321.221 206.865 320.881 209.365 320.211 210.385C319.061 212.145 317.641 211.155 316.661 211.795C313.991 213.535 308.381 215.125 307.191 214.285C306.001 213.445 305.101 210.965 311.351 208.565C312.901 208.012 314.319 207.14 315.511 206.005L320.001 205.705Z" fill="#080078"/>
<path d="M319.92 203.575C320.005 204.602 320.145 205.623 320.34 206.635C320.373 206.817 320.359 207.006 320.297 207.181C320.236 207.356 320.13 207.513 319.99 207.635C319.41 208.219 318.667 208.614 317.859 208.769C317.051 208.924 316.215 208.832 315.46 208.505C315.46 208.505 314.31 208.055 314.84 206.505C315.202 205.385 315.473 204.238 315.65 203.075L319.92 203.575Z" fill="white"/>
<path d="M331.27 214.735C331.793 215.394 332.094 216.201 332.132 217.041C332.17 217.881 331.942 218.712 331.48 219.415C330.67 220.325 329.39 219.575 328.8 220.585C326.56 224.455 322.52 223.995 321.12 223.855C319.01 223.635 318.91 221.855 322.38 218.615C323.782 217.351 325.117 216.016 326.38 214.615L331.27 214.735Z" fill="#080078"/>
<path d="M329.751 119.045C333.751 128.875 329.461 131.045 326.491 143.345C323.811 154.345 325.491 176.685 320.401 205.585C320.091 207.355 314.641 207.775 314.661 204.475C314.661 198.805 311.571 178.205 311.281 165.905C311.091 157.625 311.281 131.685 311.281 131.685L329.751 119.045Z" fill="url(#paint8_linear)"/>
<path d="M331.19 212.604C331.275 213.631 331.415 214.653 331.61 215.664C331.644 215.847 331.629 216.036 331.568 216.211C331.506 216.386 331.4 216.543 331.26 216.664C330.68 217.248 329.938 217.644 329.13 217.799C328.321 217.954 327.485 217.862 326.73 217.534C326.73 217.534 325.58 217.084 326.11 215.534C326.473 214.415 326.743 213.268 326.92 212.104L331.19 212.604Z" fill="white"/>
<path d="M308.94 113.115C303.94 116.935 301.94 118.415 301.94 118.415L297.07 115.765L304.07 105.765L306.39 103.885L309.54 108.355L308.94 113.115Z" fill="#F5D5D5"/>
<path d="M341.68 125.885C345.68 135.715 342.68 148.195 339.87 160.475C335.803 177.959 333.128 195.738 331.87 213.645C331.74 215.445 326.06 216.905 325.63 213.645C325.09 209.595 323.22 183.955 322.43 175.105C321.13 160.585 323.17 138.525 323.17 138.525L341.68 125.885Z" fill="url(#paint9_linear)"/>
<path d="M313.47 95.5145L313.21 114.835C313.21 114.835 310.21 112.385 308.94 113.115C308.94 113.115 309.49 106.365 304 105.765C304 105.765 311.76 96.5045 313.47 95.5145Z" fill="#2C35B0"/>
<path d="M344.7 132.555C343.2 141.125 332.59 145.945 319.09 138.425C305.59 130.905 311.97 128.045 312.19 120.855C312.41 113.665 316.63 109.855 313.56 99.2346C310.49 88.6146 326.28 95.6646 334.1 102.235C341.92 108.805 346.1 124.635 344.7 132.555Z" fill="#2C35B0"/>
<path d="M336.661 102.405C342.961 110.405 344.581 135.405 343.201 143.295C342.011 150.105 335.911 149.925 326.361 147.715C326.571 146.405 327.431 138.365 327.491 135.595C327.751 123.915 324.931 113.885 326.561 99.6846C326.561 99.6846 332.851 98.6046 326.751 95.7746C320.651 92.9446 317.921 92.9546 317.161 95.2546C316.401 97.5546 316.861 115.975 316.411 128.465C316.251 133.025 314.411 139.385 314.271 141.605C306.021 135.785 310.871 127.225 311.071 120.855C311.291 113.665 312.881 110.185 312.701 99.1546C312.511 87.8046 330.281 94.2946 336.661 102.405Z" fill="url(#paint10_linear)"/>
<path d="M323.79 88.1046C326.53 93.8146 325.55 94.7846 327.93 96.9046C328.84 97.7146 325.73 99.2546 323.53 99.4246L319.38 104.545L319.61 97.4746C319.61 97.4746 318.23 96.8946 318.55 95.6846C318.87 94.4746 319.9 93.5846 318.86 91.9546C318.38 91.1946 323.79 88.1046 323.79 88.1046Z" fill="#F5D5D5"/>
<path d="M325.101 88.0845C323.921 91.9945 320.281 92.8145 317.481 92.7145C314.681 92.6145 310.941 82.7145 312.801 79.2545C314.661 75.7945 321.421 73.7345 323.911 77.3145C326.401 80.8945 325.101 88.0845 325.101 88.0845Z" fill="#F5D5D5"/>
<path d="M310.47 121.205H310.59L315.06 120.055C315.182 120.022 315.285 119.943 315.349 119.834C315.412 119.726 315.431 119.597 315.4 119.475C315.384 119.415 315.356 119.359 315.318 119.31C315.28 119.261 315.233 119.219 315.179 119.189C315.125 119.158 315.066 119.138 315.004 119.131C314.942 119.123 314.88 119.128 314.82 119.145L310.35 120.295C310.23 120.325 310.126 120.402 310.062 120.509C309.999 120.616 309.98 120.744 310.01 120.865C310.04 120.963 310.101 121.049 310.184 121.111C310.267 121.172 310.367 121.205 310.47 121.205Z" fill="white"/>
<path d="M334.1 102.205C338.93 103.495 339.6 111.625 341.04 118.415C342.48 125.205 335.7 123.535 333.36 121.065C331.02 118.595 327.54 100.445 334.1 102.205Z" fill="#2C35B0"/>
<path d="M310.1 119.735C311.82 119.345 312.02 120.275 313.52 122.345L328.46 128.145C328.46 128.145 330.85 109.145 331.87 106.235L338.98 118.405C336.48 129.175 333.75 133.585 331.6 135.695C329.88 137.395 316.33 129.125 311.04 125.785C311.04 125.785 309.34 126.125 306.49 123.845C303.64 121.565 308.21 120.165 310.1 119.735Z" fill="#F5D5D5"/>
<path d="M325.701 88.3745C324.501 90.9145 327.641 90.1345 327.851 91.8245C328.061 93.5145 323.851 92.8245 322.851 90.4845C322.251 89.1445 321.371 89.3645 322.771 88.0845C324.171 86.8045 322.161 85.4445 320.951 86.2845C319.741 87.1245 318.951 85.6645 318.721 84.7145C318.491 83.7645 314.991 84.9045 312.721 84.7145C310.451 84.5245 307.641 82.9445 308.821 80.3845C310.001 77.8245 310.821 79.5945 311.541 78.7045C312.261 77.8145 309.961 77.2145 311.681 76.1345C313.401 75.0545 314.501 77.1345 315.241 76.1345C315.981 75.1345 318.021 75.4145 319.111 74.4645C320.201 73.5145 321.421 75.5545 322.111 75.2445C322.801 74.9345 325.211 75.6245 325.621 79.3845C326.031 83.1445 326.321 81.6945 326.781 83.5745C327.241 85.4545 325.701 88.3745 325.701 88.3745Z" fill="#FFAD6F"/>
<path d="M309.43 122.425L295.92 111.285L303.7 125.455L317.15 137.295L309.43 122.425Z" fill="#FF5A6F"/>
<path d="M297.79 114.685C294.26 119.425 295.86 121.575 296.86 122.975C297.86 124.375 307.86 130.465 309.27 132.975C310.68 135.485 314.12 134.845 315.27 134.205C316.42 133.565 317.2 131.345 316.4 129.585C315.45 127.515 312.24 129.525 312.24 129.525L300.48 119.615L297.79 114.685Z" fill="#F5D5D5"/>
<path d="M330.101 116.455C332.281 114.685 338.011 117.525 338.471 120.735L339.891 119.045L336.101 108.185L332.391 104.855L330.521 106.245L330.101 116.455Z" fill="#2C35B0"/>
<path d="M262.541 227.205C252.751 227.205 244.811 231.345 244.811 236.435C244.811 241.525 252.751 245.675 262.541 245.675H352.671V227.205H262.541Z" fill="url(#paint11_linear)"/>
<path d="M232.331 89.0846C230.211 86.2446 228.791 85.9346 227.721 84.7346C226.651 83.5346 227.361 83.2346 228.151 83.7346C228.941 84.2346 229.441 84.6346 229.391 84.1946C229.391 84.0346 229.521 83.1946 227.071 81.9246C224.621 80.6546 223.831 78.7546 225.221 79.2946C226.611 79.8346 227.311 80.9646 228.791 80.7746C230.271 80.5846 231.191 79.6046 232.331 81.5646C233.189 83.2242 233.895 84.9579 234.441 86.7446L232.331 89.0846Z" fill="#F5D5D5"/>
<path d="M218.5 153.274C216.09 155.274 215.64 155.074 213.89 156.194C212.14 157.314 210.02 157.194 210.07 157.834C210.12 158.474 212.89 157.744 213.48 157.734C213.83 157.734 214.31 159.624 215.63 159.814C217.81 160.134 217.91 157.734 219.16 156.744C220.41 155.754 218.5 153.274 218.5 153.274Z" fill="#F5D5D5"/>
<path d="M250.53 116.595C254.69 113.155 266.04 116.865 268.96 124.265C268.96 124.265 264.88 115.045 261.82 110.525C258.76 106.005 245.82 99.5246 245.02 98.3346C244.22 97.1446 238.02 88.4346 235.02 85.7346C233.02 83.9046 230.65 88.0746 231.29 89.1746C235.06 95.6246 240.57 104.095 240.57 104.095L250.53 116.595Z" fill="#FFAD6F"/>
<path d="M246.57 237.704C245.57 239.414 251.24 241.904 253.91 242.514C255.48 242.874 257.56 245.024 259.13 244.574C263.07 243.434 261.29 240.434 260.68 239.204C260.447 238.658 260.066 238.186 259.581 237.844C259.095 237.501 258.523 237.3 257.93 237.264C256.1 237.384 254.264 237.351 252.44 237.164C251.22 236.874 247.9 235.414 246.57 237.704Z" fill="#8992F5"/>
<path d="M261.27 228.525C260.27 230.235 265.94 232.735 268.62 233.345C270.18 233.695 272.26 235.855 273.83 235.395C277.77 234.255 275.99 231.255 275.38 230.035C275.152 229.486 274.774 229.014 274.289 228.671C273.805 228.327 273.233 228.128 272.64 228.095C270.807 228.209 268.968 228.176 267.14 227.995C265.92 227.705 262.6 226.235 261.27 228.525Z" fill="#8992F5"/>
<path d="M274.25 154.845C277.49 171.785 272.69 193.575 272.63 197.965C272.53 205.145 273.56 221.595 274.28 228.375C274.39 229.475 270.43 230.795 270.05 229.755C266.05 218.565 260.24 198.875 260.58 195.755C261.16 190.445 257.71 154.175 257.71 154.175L263.05 146.655C263.05 146.655 271.67 141.395 274.25 154.845Z" fill="url(#paint12_linear)"/>
<path d="M247.49 149.854C242.93 165.454 249.05 188.084 250.16 205.494C250.43 209.644 252.54 229.544 254.86 238.094C255.21 239.384 260.73 241.374 260.57 238.034C260.21 230.514 261.13 212.454 261.57 206.654C263.23 187.134 268.69 155.094 268.69 155.094L247.49 149.854Z" fill="url(#paint13_linear)"/>
<path d="M274.78 150.535C267.54 139.855 273.34 137.035 268.55 122.345C264.25 109.135 258.4 110.545 251.55 112.735C250.25 113.295 238.99 117.955 242.2 125.445C244.27 130.265 243.92 135.765 242.93 144.065C241.31 157.715 242.71 165.544 245.93 167.125C256.1 172.224 281.72 160.765 274.78 150.535Z" fill="url(#paint14_linear)"/>
<path d="M246.501 116.615C251.231 115.525 246.791 153.735 243.671 136.175C243.671 136.175 241.051 143.465 236.171 147.595C231.291 151.725 226.871 152.885 220.171 156.415C218.341 157.415 217.021 154.135 218.071 153.185C221.821 149.805 225.771 145.635 231.171 141.025C232.971 139.495 242.151 117.625 246.501 116.615Z" fill="#FFAD6F"/>
<path d="M256.361 95.6245C247.551 99.3845 246.531 102.045 246.841 103.945C247.151 105.845 249.091 105.945 249.741 108.015C250.063 108.848 250.211 109.739 250.175 110.631C250.139 111.524 249.92 112.4 249.531 113.205C248.991 114.665 252.221 114.455 254.231 113.075C256.241 111.695 256.951 111.455 256.091 108.075C255.231 104.695 258.721 104.075 259.091 100.075C259.461 96.0745 256.361 95.6245 256.361 95.6245Z" fill="#F5D5D5"/>
<path d="M255.391 95.0645C253.211 95.6545 254.661 102.165 254.311 102.385C254.311 102.385 256.311 102.385 255.311 103.825C254.311 105.265 253.311 104.215 253.311 104.215C253.237 104.687 253.29 105.171 253.466 105.616C253.642 106.061 253.934 106.45 254.311 106.745C255.581 107.485 255.921 107.285 255.921 107.285C256.937 107.339 257.953 107.171 258.897 106.793C259.842 106.415 260.693 105.835 261.391 105.095C264.161 102.065 260.211 93.7745 255.391 95.0645Z" fill="#080078"/>
<path d="M261.211 101.945C260.271 102.205 260.58 103.945 260.94 104.235C261.3 104.525 264.251 105.995 264.251 109.165C264.251 112.335 261.951 111.945 261.741 117.015C261.531 122.085 275.121 125.675 273.641 129.905C272.161 134.135 266.8 131.315 266.05 135.395C265.71 137.235 266.391 139.395 274.211 137.715C282.031 136.035 282.801 128.645 277.451 121.605C272.101 114.565 274.981 110.825 273.641 107.345C272.301 103.865 265.691 100.725 261.211 101.945Z" fill="#080078"/>
<defs>
<linearGradient id="paint0_linear" x1="328122" y1="89626.5" x2="386245" y2="89626.5" gradientUnits="userSpaceOnUse">
<stop stop-color="#BCC0E5"/>
<stop offset="1" stop-color="#BCC0E5"/>
</linearGradient>
<linearGradient id="paint1_linear" x1="573560" y1="68683.4" x2="436295" y2="68683.4" gradientUnits="userSpaceOnUse">
<stop offset="0.4" stop-color="#BCC0E5"/>
<stop offset="0.61" stop-color="#D0D3F5"/>
</linearGradient>
<linearGradient id="paint2_linear" x1="436122" y1="84117.2" x2="573997" y2="84117.2" gradientUnits="userSpaceOnUse">
<stop stop-color="#F7F8FF"/>
<stop offset="1" stop-color="#F2F3FA"/>
</linearGradient>
<linearGradient id="paint3_linear" x1="163389" y1="37718.6" x2="178963" y2="37718.6" gradientUnits="userSpaceOnUse">
<stop stop-color="#BCC0E5"/>
<stop offset="1" stop-color="#BCC0E5"/>
</linearGradient>
<linearGradient id="paint4_linear" x1="242998" y1="43556.2" x2="213546" y2="43556.2" gradientUnits="userSpaceOnUse">
<stop offset="0.4" stop-color="#BCC0E5"/>
<stop offset="0.61" stop-color="#D0D3F5"/>
</linearGradient>
<linearGradient id="paint5_linear" x1="213456" y1="30821.3" x2="243032" y2="30821.3" gradientUnits="userSpaceOnUse">
<stop stop-color="#F7F8FF"/>
<stop offset="1" stop-color="#F2F3FA"/>
</linearGradient>
<linearGradient id="paint6_linear" x1="106402" y1="40378.9" x2="101564" y2="36025.8" gradientUnits="userSpaceOnUse">
<stop stop-color="#FF5A6F"/>
<stop offset="1" stop-color="#FFAD6F"/>
</linearGradient>
<linearGradient id="paint7_linear" x1="297.298" y1="206.345" x2="376.631" y2="266.788" gradientUnits="userSpaceOnUse">
<stop stop-color="#B6BBE5"/>
<stop offset="1" stop-color="white" stop-opacity="0"/>
</linearGradient>
<linearGradient id="paint8_linear" x1="315.5" y1="138.5" x2="330.169" y2="140.427" gradientUnits="userSpaceOnUse">
<stop stop-color="#B6BBE5"/>
<stop offset="1" stop-color="#9A9EC7"/>
</linearGradient>
<linearGradient id="paint9_linear" x1="31831.6" y1="28084" x2="30680.3" y2="29882.4" gradientUnits="userSpaceOnUse">
<stop stop-color="#BCC0E5"/>
<stop offset="1" stop-color="white"/>
</linearGradient>
<linearGradient id="paint10_linear" x1="331.641" y1="175.125" x2="340.061" y2="247.185" gradientUnits="userSpaceOnUse">
<stop stop-color="#080078"/>
<stop offset="1" stop-color="#5B68F5"/>
</linearGradient>
<linearGradient id="paint11_linear" x1="241.347" y1="227.205" x2="320.683" y2="287.655" gradientUnits="userSpaceOnUse">
<stop stop-color="#B6BBE5"/>
<stop offset="1" stop-color="white" stop-opacity="0"/>
</linearGradient>
<linearGradient id="paint12_linear" x1="24940.4" y1="29967.6" x2="27686.9" y2="32264.6" gradientUnits="userSpaceOnUse">
<stop stop-color="#5B68F5"/>
<stop offset="1" stop-color="#010854"/>
</linearGradient>
<linearGradient id="paint13_linear" x1="31930.3" y1="31036.1" x2="34394" y2="36393.3" gradientUnits="userSpaceOnUse">
<stop stop-color="#5B68F5"/>
<stop offset="1" stop-color="#010854"/>
</linearGradient>
<linearGradient id="paint14_linear" x1="47520.2" y1="16221.8" x2="48342.1" y2="18375.8" gradientUnits="userSpaceOnUse">
<stop stop-color="#BCC0E5"/>
<stop offset="1" stop-color="white"/>
</linearGradient>
</defs>
</svg>
