<svg width="92" height="32" viewBox="0 0 92 32" fill="none" xmlns="http://www.w3.org/2000/svg">
<path d="M72.7474 0.0433018C74.263 8.05413 75.7785 15.9783 77.2508 23.8593C77.3374 23.8593 77.4673 23.8593 77.5539 23.8593C79.6757 15.935 81.7975 7.96752 83.876 0C86.4308 0 88.9423 0 91.5404 0C91.1939 1.34235 90.8475 2.59811 90.5011 3.89716C88.0762 12.9905 85.608 22.0839 83.1831 31.1773C83.0532 31.6969 82.8367 31.8701 82.2738 31.8701C78.6797 31.8268 75.0857 31.8701 71.535 31.8701C71.0153 31.8701 70.7988 31.7402 70.7122 31.2206C69.4132 23.5995 68.1141 15.9783 66.8151 8.35724C66.7718 8.09743 66.6852 7.88092 66.5986 7.66441C66.512 7.66441 66.4253 7.66441 66.382 7.66441C64.1737 15.7618 61.9653 23.816 59.7569 31.9134C57.2021 31.9134 54.6473 31.9134 52.0059 31.9134C52.3956 30.4411 52.7853 29.0122 53.175 27.5832C53.5647 26.0677 54.0843 24.5954 54.3875 23.0798C54.7339 21.2179 55.7731 19.7456 56.7258 18.1867C60.3631 12.3843 63.9571 6.62517 67.5512 0.822733C67.8976 0.216509 68.3306 0.0433018 68.9802 0.0433018C70.2359 0.0866035 71.4483 0.0433018 72.7474 0.0433018Z" fill="#57AE5B"/>
<path d="M43.0416 7.4479C43.2581 12.6874 43.4747 17.8836 43.6912 23.0798C43.7778 23.1231 43.8211 23.1231 43.9077 23.1664C44.0809 22.9499 44.2974 22.7334 44.4273 22.4736C48.8008 15.2422 53.2175 8.01083 57.591 0.779432C57.9374 0.216509 58.2839 0 58.9334 0C61.1851 0.0433018 63.3935 0 65.6452 0C65.905 0 66.1215 0 66.5112 0.0433018C65.6885 1.34235 64.9523 2.5548 64.1729 3.72395C58.3705 12.9039 52.568 22.0839 46.7656 31.2639C46.4192 31.7835 46.0728 31.9567 45.4665 31.9567C42.5653 31.9134 39.7074 31.9134 36.8062 31.9567C36.1567 31.9567 35.8968 31.8268 35.8102 31.0907C35.4638 26.544 35.0308 21.9973 34.6411 17.4506C34.3813 14.2896 34.0782 11.1286 33.8184 7.96752C33.8184 7.83762 33.8184 7.66441 33.8617 7.4479C36.8928 7.4479 39.9239 7.4479 43.0416 7.4479Z" fill="#57AE5B"/>
<path d="M2.85792 31.9569C5.10961 23.3398 7.3613 14.8527 9.65629 6.23561C6.40866 6.23561 3.24763 6.23561 0 6.23561C0.0433018 5.9758 0.0433018 5.75929 0.0866035 5.58608C0.519621 3.98392 0.99594 2.33845 1.42896 0.736285C1.55886 0.303268 1.68877 0.043457 2.25169 0.043457C11.3884 0.043457 20.4817 0.043457 29.6184 0.043457C29.8349 0.043457 30.0081 0.0867588 30.2679 0.0867588C29.7483 2.03534 29.2287 3.94061 28.6658 5.80259C28.6225 5.9758 28.1461 6.19231 27.8863 6.19231C25.0284 6.23561 22.1705 6.23561 19.3126 6.19231C18.6631 6.19231 18.4032 6.36551 18.2733 6.97174C16.1516 15.0259 13.9865 23.0367 11.8647 31.0908C11.6915 31.697 11.475 31.9569 10.7821 31.9569C8.44384 31.9136 6.10555 31.9569 3.76725 31.9569C3.50744 31.9569 3.24763 31.9569 2.85792 31.9569Z" fill="#57AE5B"/>
<path d="M17.5801 31.9565C18.0131 30.1812 18.4461 28.4491 18.8791 26.7603C20.4813 20.5682 22.0835 14.376 23.6423 8.18385C23.8155 7.53433 24.0753 7.36112 24.6816 7.40442C26.0239 7.44772 27.323 7.40442 28.6653 7.44772C29.2283 7.44772 29.4881 7.27452 29.6613 6.7549C30.2242 4.71971 30.8737 2.72783 31.4799 0.735952C31.6098 0.389538 31.6532 0.0864258 32.1728 0.0864258C36.1132 0.129728 40.0537 0.0864258 43.9942 0.0864258C44.0808 0.0864258 44.2107 0.129728 44.3839 0.129728C44.254 0.735952 44.1241 1.34218 43.9508 1.9484C43.691 3.07425 43.3446 4.20009 43.1281 5.32594C42.9982 6.01877 42.6951 6.14867 42.0456 6.14867C39.231 6.10537 36.373 6.14867 33.5584 6.10537C32.9089 6.10537 32.6491 6.27858 32.5192 6.9281C30.3974 15.0255 28.2756 23.123 26.1538 31.2204C25.9806 31.8266 25.7641 31.9998 25.1579 31.9998C22.9062 31.9565 20.6545 31.9998 18.3595 31.9998C18.1863 31.9565 17.9265 31.9565 17.5801 31.9565Z" fill="#57AE5B"/>
</svg>
