<svg width="138" height="48" viewBox="0 0 138 48" fill="none" xmlns="http://www.w3.org/2000/svg">
<path d="M109.121 0.0649527C111.394 12.0812 113.667 23.9675 115.876 35.7889C116.005 35.7889 116.2 35.7889 116.33 35.7889C119.513 23.9026 122.696 11.9513 125.813 0C129.646 0 133.413 0 137.31 0C136.79 2.01353 136.271 3.89716 135.751 5.84574C132.114 19.4858 128.411 33.1259 124.774 46.7659C124.579 47.5453 124.254 47.8052 123.41 47.8052C118.019 47.7402 112.628 47.8052 107.302 47.8052C106.522 47.8052 106.198 47.6103 106.068 46.8309C104.119 35.3992 102.171 23.9675 100.222 12.5359C100.157 12.1461 100.027 11.8214 99.8972 11.4966C99.7673 11.4966 99.6374 11.4966 99.5725 11.4966C96.2599 23.6428 92.9473 35.724 89.6347 47.8701C85.8025 47.8701 81.9703 47.8701 78.0082 47.8701C78.5928 45.6617 79.1773 43.5183 79.7619 41.3748C80.3465 39.1015 81.1259 36.8931 81.5806 34.6198C82.1002 31.8268 83.6591 29.6184 85.088 27.2801C90.544 18.5765 95.9351 9.93776 101.326 1.2341C101.846 0.324763 102.495 0.0649527 103.47 0.0649527C105.353 0.129905 107.172 0.0649527 109.121 0.0649527Z" fill="#57AE5B"/>
<path d="M64.5629 11.1719C64.8877 19.0311 65.2125 26.8254 65.5372 34.6198C65.6671 34.6847 65.7321 34.6847 65.862 34.7497C66.1218 34.4249 66.4466 34.1001 66.6414 33.7104C73.2016 22.8633 79.8268 12.0162 86.387 1.16915C86.9067 0.324763 87.4263 0 88.4006 0C91.7781 0.0649527 95.0907 0 98.4682 0C98.8579 0 99.1827 0 99.7673 0.0649527C98.5332 2.01353 97.429 3.83221 96.2598 5.58593C87.5562 19.3559 78.8525 33.1259 70.1489 46.8958C69.6293 47.6752 69.1096 47.9351 68.2003 47.9351C63.8485 47.8701 59.5616 47.8701 55.2098 47.9351C54.2355 47.9351 53.8458 47.7402 53.7158 46.636C53.1962 39.816 52.5467 32.9959 51.9621 26.1759C51.5724 21.4344 51.1177 16.6928 50.728 11.9513C50.728 11.7564 50.728 11.4966 50.793 11.1719C55.3397 11.1719 59.8864 11.1719 64.5629 11.1719Z" fill="#57AE5B"/>
<path d="M4.28688 47.9353C7.66441 35.0097 11.042 22.279 14.4844 9.35341C9.61299 9.35341 4.87145 9.35341 0 9.35341C0.0649527 8.9637 0.0649527 8.63894 0.129905 8.37912C0.779432 5.97588 1.49391 3.50768 2.14344 1.10443C2.3383 0.454901 2.53315 0.0651855 3.37754 0.0651855C17.0825 0.0651855 30.7226 0.0651855 44.4276 0.0651855C44.7524 0.0651855 45.0122 0.130138 45.4019 0.130138C44.6225 3.05301 43.843 5.91092 42.9987 8.70389C42.9337 8.9637 42.2192 9.28846 41.8295 9.28846C37.5426 9.35341 33.2558 9.35341 28.9689 9.28846C27.9946 9.28846 27.6049 9.54827 27.41 10.4576C24.2273 22.5388 20.9797 34.555 17.797 46.6362C17.5372 47.5456 17.2125 47.9353 16.1732 47.9353C12.6658 47.8703 9.15832 47.9353 5.65088 47.9353C5.26116 47.9353 4.87145 47.9353 4.28688 47.9353Z" fill="#57AE5B"/>
<path d="M26.3708 47.9348C27.0203 45.2717 27.6698 42.6736 28.3194 40.1405C30.7226 30.8522 33.1259 21.564 35.4642 12.2758C35.724 11.3015 36.1137 11.0417 37.023 11.1066C39.0366 11.1716 40.9851 11.1066 42.9987 11.1716C43.8431 11.1716 44.2328 10.9118 44.4926 10.1323C45.337 7.07957 46.3113 4.09175 47.2206 1.10393C47.4154 0.584307 47.4804 0.129639 48.2598 0.129639C54.1705 0.194591 60.0812 0.129639 65.9919 0.129639C66.1218 0.129639 66.3167 0.194591 66.5765 0.194591C66.3816 1.10393 66.1868 2.01327 65.927 2.9226C65.5372 4.61137 65.0176 6.30014 64.6929 7.98891C64.498 9.02815 64.0433 9.22301 63.069 9.22301C58.8471 9.15806 54.5602 9.22301 50.3383 9.15806C49.364 9.15806 48.9743 9.41787 48.7795 10.3922C45.5968 22.5383 42.4141 34.6845 39.2314 46.8306C38.9716 47.7399 38.6468 47.9997 37.7375 47.9997C34.36 47.9348 30.9824 47.9997 27.5399 47.9997C27.2801 47.9348 26.8904 47.9348 26.3708 47.9348Z" fill="#57AE5B"/>
</svg>
