<svg width="40" height="40" viewBox="0 0 40 40" fill="none" xmlns="http://www.w3.org/2000/svg">
<path d="M10 31.25V35C10 36.3787 8.87875 37.5 7.5 37.5C6.12125 37.5 5 36.3787 5 35V2.5H22.5V0H3.75C3.06 0 2.5 0.56 2.5 1.25V35C2.5 37.7575 4.7425 40 7.5 40H33.75C36.5075 40 38.75 37.7575 38.75 35V31.25H10Z" fill="white"/>
<path d="M31.25 19.9999C28.9388 19.9999 26.7887 19.2974 25 18.0974V28.2724L31.25 25.1474L37.5 28.2724V18.0974C35.7113 19.2974 33.5612 19.9999 31.25 19.9999Z" fill="white"/>
<path d="M31.25 17.5C36.0825 17.5 40 13.5825 40 8.75C40 3.91751 36.0825 0 31.25 0C26.4175 0 22.5 3.91751 22.5 8.75C22.5 13.5825 26.4175 17.5 31.25 17.5Z" fill="white"/>
</svg>
