<svg width="40" height="40" viewBox="0 0 40 40" fill="none" xmlns="http://www.w3.org/2000/svg">
<path d="M37.5 13.75H20C19.337 13.75 18.7011 14.0134 18.2322 14.4822C17.7634 14.9511 17.5 15.587 17.5 16.25V32.5C17.5 33.163 17.7634 33.7989 18.2322 34.2678C18.7011 34.7366 19.337 35 20 35H28.75L36.25 40V35H37.5C38.163 35 38.7989 34.7366 39.2678 34.2678C39.7366 33.7989 40 33.163 40 32.5V16.25C40 15.587 39.7366 14.9511 39.2678 14.4822C38.7989 14.0134 38.163 13.75 37.5 13.75ZM31.7062 30L30.865 27.2388H26.635L25.7938 30H23.1437L27.2388 18.3525H30.25L34.3563 30H31.7062Z" fill="white"/>
<path d="M28.75 20.1538C28.5758 20.8296 28.0758 22.5038 27.25 25.1763H30.2738C29.4963 22.6763 29.0588 21.2596 28.9613 20.9263C28.8638 20.593 28.7933 20.3355 28.75 20.1538Z" fill="white"/>
<path d="M20 0H2.5C1.83696 0 1.20107 0.263392 0.732233 0.732233C0.263392 1.20107 0 1.83696 0 2.5L0 18.75C0 19.413 0.263392 20.0489 0.732233 20.5178C1.20107 20.9866 1.83696 21.25 2.5 21.25H3.75V26.25L11.25 21.25H15V16.4412C13.7021 15.9505 12.4738 15.2924 11.3462 14.4837C9.68131 15.635 7.8305 16.4909 5.875 17.0138C5.57979 16.1319 5.1331 15.3084 4.555 14.58C6.27486 14.2681 7.92712 13.6585 9.4375 12.7787C8.73976 12.0193 8.14277 11.1732 7.66125 10.2612C7.26344 9.51278 6.94503 8.72474 6.71125 7.91C5.9 7.91 5.4325 7.9375 4.745 7.99375V5.5C5.40912 5.57248 6.07698 5.60504 6.745 5.5975H9.77875V4.775C9.7807 4.48875 9.75305 4.20306 9.69625 3.9225H12.46C12.4046 4.19863 12.377 4.47962 12.3775 4.76125V5.6H15.6512C16.3172 5.60688 16.983 5.57348 17.645 5.5V8C16.9956 7.93939 16.3435 7.91143 15.6913 7.91625C15.4979 8.83818 15.1835 9.7305 14.7563 10.57C14.3503 11.3783 13.8369 12.128 13.23 12.7987C13.9857 13.2457 14.789 13.6067 15.625 13.875C16.0501 13.0839 16.681 12.4223 17.4511 11.9602C18.2212 11.4981 19.1019 11.2527 20 11.25H22.5V2.5C22.5 1.83696 22.2366 1.20107 21.7678 0.732233C21.2989 0.263392 20.663 0 20 0V0Z" fill="white"/>
<path d="M11.2775 11.2374C12.1152 10.2858 12.7067 9.14327 13 7.90991H9.35254C9.70773 9.16181 10.3693 10.3054 11.2775 11.2374Z" fill="white"/>
</svg>
