<svg width="40" height="40" viewBox="0 0 40 40" fill="none" xmlns="http://www.w3.org/2000/svg">
<g clip-path="url(#clip0)">
<path d="M3.75 37.5H0V35H3.75C4.44 35 5 34.44 5 33.75V32.0225L2.66375 30.8538C1.38375 30.215 0.59 28.93 0.59 27.5C0.59 26.07 1.385 24.785 2.66375 24.145L5 22.9775V21.25C5 20.7388 5.31125 20.28 5.78625 20.0887L10.2762 18.2925L5.36625 13.3825C5.13125 13.15 5 12.8325 5 12.5V2.5H7.5V11.9825L12.0438 16.5262C12.64 17.1225 12.895 17.9712 12.725 18.7962C12.555 19.6225 11.9862 20.3025 11.2038 20.615L7.5 22.0963V23.75C7.5 24.2237 7.2325 24.6562 6.80875 24.8688L3.78125 26.3825C3.34875 26.5975 3.09 27.0163 3.09 27.5C3.09 27.9837 3.34875 28.4025 3.7825 28.6188L6.81 30.1325C7.2325 30.3438 7.5 30.7763 7.5 31.25V33.75C7.5 35.8175 5.8175 37.5 3.75 37.5Z" fill="white"/>
<path d="M35.0007 6.25H21.2507C18.4932 6.25 16.2507 8.4925 16.2507 11.25V22.0613L9.89941 30H35.0007C37.7582 30 40.0007 27.7575 40.0007 25V11.25C40.0007 8.4925 37.7582 6.25 35.0007 6.25ZM33.7507 22.5H22.5007V20H33.7507V22.5ZM33.7507 16.25H22.5007V13.75H33.7507V16.25Z" fill="white"/>
</g>
<defs>
<clipPath id="clip0">
<rect width="40" height="40" fill="white"/>
</clipPath>
</defs>
</svg>
