<svg width="40" height="40" viewBox="0 0 40 40" fill="none" xmlns="http://www.w3.org/2000/svg">
<path d="M39.6338 26.6162L34.8563 21.8388C35.73 20.6125 36.25 19.1175 36.25 17.5C36.25 13.3637 32.8862 10 28.75 10C24.6137 10 21.25 13.3637 21.25 17.5C21.25 21.6362 24.6137 25 28.75 25C30.3675 25 31.8625 24.48 33.0888 23.6063L37.8662 28.3838L39.6338 26.6162ZM23.75 17.5C23.75 14.7425 25.9925 12.5 28.75 12.5C31.5075 12.5 33.75 14.7425 33.75 17.5C33.75 20.2575 31.5075 22.5 28.75 22.5C25.9925 22.5 23.75 20.2575 23.75 17.5Z" fill="white"/>
<path d="M28.75 27.5C23.2275 27.5 18.75 23.0225 18.75 17.5C18.75 11.9775 23.2275 7.5 28.75 7.5C30.0775 7.5 31.3412 7.76375 32.5 8.23375V1.25C32.5 0.55875 31.9412 0 31.25 0H1.25C0.55875 0 0 0.55875 0 1.25V38.75C0 39.4412 0.55875 40 1.25 40H31.25C31.9412 40 32.5 39.4412 32.5 38.75V26.7663C31.3412 27.2362 30.0775 27.5 28.75 27.5ZM6.25 10H15V12.5H6.25V10ZM6.25 18.75H15V21.25H6.25V18.75ZM20 30H6.25V27.5H20V30Z" fill="white"/>
</svg>
