<svg width="142" height="160" viewBox="0 0 142 160" fill="none" xmlns="http://www.w3.org/2000/svg">
<path opacity="0.14" d="M47.9116 37.5064V48.6975C47.9116 49.612 47.9278 60.6544 47.9278 60.6544L47.052 59.4167L40.8764 51.7061H22.7116C20.5389 51.699 18.7793 49.9395 18.7722 47.7668V36.5757C18.6095 35.7633 18.8549 34.9227 19.429 34.3254C20.0032 33.728 20.8334 33.4496 21.6516 33.58H43.9723C46.14 33.5871 47.8975 35.3388 47.9116 37.5064Z" fill="url(#paint0_linear)"/>
<path d="M44.0274 41.3844V52.5754C44.0274 53.4867 44.0436 64.5162 44.0436 64.5162L43.1678 63.2785L36.9954 55.5711H18.8273C16.6554 55.5623 14.8969 53.8037 14.888 51.6318V40.4407C14.7253 39.6283 14.9707 38.7877 15.5448 38.1904C16.119 37.593 16.9492 37.3146 17.7674 37.445H40.0881C42.2615 37.4504 44.0221 39.2109 44.0274 41.3844Z" fill="url(#paint1_linear)"/>
<path d="M36.3882 48.9657C37.7946 48.9657 38.9347 47.8256 38.9347 46.4192C38.9347 45.0128 37.7946 43.8727 36.3882 43.8727C34.9818 43.8727 33.8417 45.0128 33.8417 46.4192C33.8417 47.8256 34.9818 48.9657 36.3882 48.9657Z" fill="white"/>
<path d="M28.9293 48.9657C30.3357 48.9657 31.4758 47.8256 31.4758 46.4192C31.4758 45.0128 30.3357 43.8727 28.9293 43.8727C27.5229 43.8727 26.3828 45.0128 26.3828 46.4192C26.3828 47.8256 27.5229 48.9657 28.9293 48.9657Z" fill="white"/>
<path d="M21.4673 48.9657C22.8737 48.9657 24.0138 47.8256 24.0138 46.4192C24.0138 45.0128 22.8737 43.8727 21.4673 43.8727C20.0609 43.8727 18.9208 45.0128 18.9208 46.4192C18.9208 47.8256 20.0609 48.9657 21.4673 48.9657Z" fill="white"/>
<path opacity="0.14" d="M93.5484 15.4496V28.0286C93.5484 29.0522 93.5484 41.4623 93.5484 41.4623L94.5361 40.0703L101.481 31.4011H121.905C124.349 31.3927 126.328 29.4134 126.337 26.9693V14.3698C126.517 13.4566 126.24 12.5129 125.594 11.8421C124.949 11.1713 124.017 10.8578 123.097 11.0024H98.0212C96.8365 10.9928 95.6971 11.4575 94.857 12.2928C94.0168 13.1282 93.5456 14.2648 93.5484 15.4496Z" fill="url(#paint2_linear)"/>
<path d="M98.2056 21.084V33.6682C98.2056 34.6917 98.2056 47.0968 98.2056 47.0968L99.1882 45.7048L106.133 37.0356H126.547C128.99 37.03 130.97 35.0522 130.979 32.6088V20.0247C131.161 19.111 130.885 18.1658 130.239 17.4943C129.593 16.8229 128.659 16.5102 127.739 16.6573H102.663C101.485 16.6519 100.352 17.1155 99.516 17.946C98.6798 18.7765 98.2083 19.9055 98.2056 21.084Z" fill="url(#paint3_linear)"/>
<path d="M123.839 28.3614C125.419 28.3614 126.7 27.0806 126.7 25.5006C126.7 23.9207 125.419 22.6399 123.839 22.6399C122.259 22.6399 120.978 23.9207 120.978 25.5006C120.978 27.0806 122.259 28.3614 123.839 28.3614Z" fill="white"/>
<path d="M115.447 28.3614C117.027 28.3614 118.308 27.0806 118.308 25.5006C118.308 23.9207 117.027 22.6399 115.447 22.6399C113.867 22.6399 112.586 23.9207 112.586 25.5006C112.586 27.0806 113.867 28.3614 115.447 28.3614Z" fill="white"/>
<path d="M107.058 28.3614C108.638 28.3614 109.919 27.0806 109.919 25.5006C109.919 23.9207 108.638 22.6399 107.058 22.6399C105.479 22.6399 104.198 23.9207 104.198 25.5006C104.198 27.0806 105.479 28.3614 107.058 28.3614Z" fill="white"/>
<path d="M73.1887 72.6569H40.05C39.0333 72.6569 38.209 73.4811 38.209 74.4979V144.273C38.209 145.29 39.0333 146.114 40.05 146.114H73.1887C74.2054 146.114 75.0297 145.29 75.0297 144.273V74.4979C75.0297 73.4811 74.2054 72.6569 73.1887 72.6569ZM63.9835 112.669H49.2552C48.2384 112.669 47.4142 111.844 47.4142 110.828C47.4142 109.811 48.2384 108.987 49.2552 108.987H63.9835C65.0003 108.987 65.8245 109.811 65.8245 110.828C65.8245 111.844 65.0003 112.669 63.9835 112.669ZM63.9835 101.868H49.2552C48.2384 101.868 47.4142 101.044 47.4142 100.027C47.4142 99.0101 48.2384 98.1859 49.2552 98.1859H63.9835C65.0003 98.1859 65.8245 99.0101 65.8245 100.027C65.8245 101.044 65.0003 101.868 63.9835 101.868ZM63.9835 91.0672H49.2552C48.2384 91.0672 47.4142 90.2429 47.4142 89.2262C47.4142 88.2094 48.2384 87.3851 49.2552 87.3851H63.9835C65.0003 87.3851 65.8245 88.2094 65.8245 89.2262C65.8245 90.2429 65.0003 91.0672 63.9835 91.0672ZM63.9835 123.132H49.2552C48.2384 123.132 47.4142 122.308 47.4142 121.291C47.4142 120.274 48.2384 119.45 49.2552 119.45H63.9835C65.0003 119.45 65.8245 120.274 65.8245 121.291C65.8245 122.308 65.0003 123.132 63.9835 123.132ZM63.9835 133.933H49.2552C48.2384 133.933 47.4142 133.108 47.4142 132.092C47.4142 131.075 48.2384 130.251 49.2552 130.251H63.9835C65.0003 130.251 65.8245 131.075 65.8245 132.092C65.8245 133.108 65.0003 133.933 63.9835 133.933Z" fill="url(#paint4_linear)"/>
<path d="M106.811 57.993L66.3087 46.9468C65.7551 46.7959 65.1628 46.9117 64.7068 47.2601C64.2508 47.6085 63.9835 48.1496 63.9835 48.7234V68.9748H73.1887C76.239 68.9748 78.7118 71.4475 78.7118 74.4979V146.288H106.327C107.344 146.288 108.168 145.464 108.168 144.447V59.7696C108.168 58.9392 107.613 58.2114 106.811 57.993ZM89.758 136.98C89.758 137.997 88.9337 138.821 87.9169 138.821C86.9002 138.821 86.0759 137.997 86.0759 136.98V70.8158C86.0759 69.799 86.9002 68.9748 87.9169 68.9748C88.9337 68.9748 89.758 69.799 89.758 70.8158V136.98ZM100.804 136.956C100.804 137.973 99.9799 138.797 98.9632 138.797C97.9464 138.797 97.1221 137.973 97.1221 136.956V74.4979C97.1221 73.4811 97.9464 72.6568 98.9632 72.6568C99.9799 72.6568 100.804 73.4811 100.804 74.4979V136.956Z" fill="url(#paint5_linear)"/>
<g filter="url(#filter0_d)">
<path d="M46.7829 130.819C46.7814 137.091 41.9896 142.323 35.742 142.874C35.3937 142.903 35.0378 142.918 34.6819 142.918C34.5862 142.918 34.4905 142.918 34.3948 142.909C33.6177 142.898 32.8437 142.807 32.0852 142.637C28.8735 141.929 26.0879 139.945 24.3683 137.141C22.6488 134.337 22.143 130.955 22.9673 127.771C23.0875 127.311 23.2371 126.859 23.4151 126.418C23.783 125.466 24.2724 124.566 24.8713 123.739C27.9409 119.477 33.4102 117.682 38.4087 119.296C43.4072 120.911 46.7928 125.566 46.7887 130.819H46.7829Z" fill="url(#paint6_linear)"/>
<path d="M38.2066 137.174H31.1572C30.5885 137.174 30.0428 136.949 29.6405 136.547C29.2382 136.145 29.0121 135.6 29.0121 135.031V134.771C29.0121 133.577 29.4863 132.432 30.3303 131.588C31.1743 130.744 32.3191 130.27 33.5127 130.27H35.853C37.0466 130.27 38.1913 130.744 39.0354 131.588C39.8794 132.432 40.3535 133.577 40.3535 134.771V135.029C40.3541 135.598 40.128 136.145 39.7252 136.547C39.3224 136.949 38.776 137.175 38.2066 137.174Z" fill="#FEFEFE"/>
<path d="M34.6819 128.789C36.4446 128.789 37.8736 127.36 37.8736 125.597C37.8736 123.835 36.4446 122.406 34.6819 122.406C32.9191 122.406 31.4901 123.835 31.4901 125.597C31.4901 127.36 32.9191 128.789 34.6819 128.789Z" fill="#FEFEFE"/>
</g>
<g filter="url(#filter1_d)">
<path d="M135.499 110.321C135.499 110.57 135.499 110.82 135.483 111.069C135.46 111.703 135.418 112.328 135.337 112.945C134.383 121.385 128.895 128.63 121.029 131.833C113.163 135.037 104.175 133.689 97.5961 128.318C96.4643 127.393 95.4205 126.366 94.4779 125.25C91.4808 121.696 89.6242 117.321 89.15 112.696C89.0771 111.908 89.0323 111.123 89.0323 110.321C89.0323 110.203 89.0323 110.077 89.0323 109.959C89.0323 109.283 89.0827 108.613 89.1416 107.943C89.9728 99.8546 94.971 92.789 102.321 89.3122C102.475 89.2393 102.638 89.1664 102.792 89.0991C105.765 87.7753 108.984 87.0931 112.239 87.0969C113.031 87.095 113.821 87.1344 114.609 87.2147C117.14 87.4719 119.611 88.1456 121.922 89.2084L122.085 89.2841C123.909 90.1437 125.616 91.2341 127.163 92.5285C132.429 96.9366 135.469 103.453 135.463 110.321H135.499Z" fill="url(#paint7_linear)"/>
<path d="M119.041 122.524H105.509C103.237 122.524 101.395 120.683 101.395 118.411V117.911C101.395 115.621 102.305 113.424 103.925 111.804C105.544 110.185 107.741 109.275 110.032 109.275H114.518C119.288 109.275 123.155 113.142 123.155 117.911V118.411C123.155 120.683 121.313 122.524 119.041 122.524Z" fill="#FEFEFE"/>
<path d="M112.276 106.434C115.66 106.434 118.403 103.691 118.403 100.307C118.403 96.9233 115.66 94.1802 112.276 94.1802C108.892 94.1802 106.149 96.9233 106.149 100.307C106.149 103.691 108.892 106.434 112.276 106.434Z" fill="#FEFEFE"/>
<g opacity="0.08">
<path opacity="0.08" d="M127.199 92.5284L94.4778 125.25C91.4807 121.696 89.624 117.321 89.1499 112.696L114.631 87.2146C117.162 87.4718 119.633 88.1455 121.944 89.2083L122.107 89.284C123.936 90.1426 125.648 91.233 127.199 92.5284Z" fill="url(#paint8_linear)"/>
<path opacity="0.08" d="M134.232 102.741L104.699 132.277C102.116 131.387 99.7111 130.046 97.5958 128.318L130.272 95.6411C132.002 97.7546 133.343 100.159 134.232 102.741Z" fill="url(#paint9_linear)"/>
</g>
</g>
<defs>
<filter id="filter0_d" x="22.5807" y="114.71" width="32.208" height="32.2087" filterUnits="userSpaceOnUse" color-interpolation-filters="sRGB">
<feFlood flood-opacity="0" result="BackgroundImageFix"/>
<feColorMatrix in="SourceAlpha" type="matrix" values="0 0 0 0 0 0 0 0 0 0 0 0 0 0 0 0 0 0 127 0"/>
<feOffset dx="4"/>
<feGaussianBlur stdDeviation="2"/>
<feColorMatrix type="matrix" values="0 0 0 0 0 0 0 0 0 0 0 0 0 0 0 0 0 0 0.0620356 0"/>
<feBlend mode="normal" in2="BackgroundImageFix" result="effect1_dropShadow"/>
<feBlend mode="normal" in="SourceGraphic" in2="effect1_dropShadow" result="shape"/>
</filter>
<filter id="filter1_d" x="77.0323" y="83.0968" width="58.4672" height="54.4516" filterUnits="userSpaceOnUse" color-interpolation-filters="sRGB">
<feFlood flood-opacity="0" result="BackgroundImageFix"/>
<feColorMatrix in="SourceAlpha" type="matrix" values="0 0 0 0 0 0 0 0 0 0 0 0 0 0 0 0 0 0 127 0"/>
<feOffset dx="-8"/>
<feGaussianBlur stdDeviation="2"/>
<feColorMatrix type="matrix" values="0 0 0 0 0.203922 0 0 0 0 0.756863 0 0 0 0 0.984314 0 0 0 0.1 0"/>
<feBlend mode="normal" in2="BackgroundImageFix" result="effect1_dropShadow"/>
<feBlend mode="normal" in="SourceGraphic" in2="effect1_dropShadow" result="shape"/>
</filter>
<linearGradient id="paint0_linear" x1="42.2337" y1="54.4225" x2="29.0683" y2="35.2159" gradientUnits="userSpaceOnUse">
<stop stop-color="#60B05B"/>
<stop offset="0.25" stop-color="#75BC60"/>
<stop offset="0.74" stop-color="#9AD069"/>
<stop offset="1" stop-color="#A8D86D"/>
</linearGradient>
<linearGradient id="paint1_linear" x1="38.3527" y1="58.3022" x2="25.1895" y2="39.0958" gradientUnits="userSpaceOnUse">
<stop stop-color="#60B05B"/>
<stop offset="0.25" stop-color="#75BC60"/>
<stop offset="0.74" stop-color="#9AD069"/>
<stop offset="1" stop-color="#A8D86D"/>
</linearGradient>
<linearGradient id="paint2_linear" x1="119.561" y1="37.4896" x2="101.253" y2="14.4307" gradientUnits="userSpaceOnUse">
<stop stop-color="#735CD2"/>
<stop offset="1" stop-color="#8F6ACC"/>
</linearGradient>
<linearGradient id="paint3_linear" x1="124.218" y1="43.1251" x2="105.915" y2="20.0673" gradientUnits="userSpaceOnUse">
<stop stop-color="#735CD2"/>
<stop offset="1" stop-color="#8F6ACC"/>
</linearGradient>
<linearGradient id="paint4_linear" x1="56.6193" y1="276.129" x2="56.6193" y2="72.6569" gradientUnits="userSpaceOnUse">
<stop stop-color="#FAFAFA"/>
<stop offset="1" stop-color="#EFEFEF"/>
</linearGradient>
<linearGradient id="paint5_linear" x1="86.0759" y1="322.231" x2="86.0759" y2="46.882" gradientUnits="userSpaceOnUse">
<stop stop-color="#FAFAFA"/>
<stop offset="1" stop-color="#EFEFEF"/>
</linearGradient>
<linearGradient id="paint6_linear" x1="34.259" y1="124.019" x2="36.7695" y2="164.356" gradientUnits="userSpaceOnUse">
<stop stop-color="#DEE1E2"/>
<stop offset="1" stop-color="#B4BCBE"/>
</linearGradient>
<linearGradient id="paint7_linear" x1="99.186" y1="131.55" x2="122.169" y2="94.2289" gradientUnits="userSpaceOnUse">
<stop stop-color="#2FA2FA"/>
<stop offset="1" stop-color="#37D3FB"/>
</linearGradient>
<linearGradient id="paint8_linear" x1="118.865" y1="91.5802" x2="75.2244" y2="136.693" gradientUnits="userSpaceOnUse">
<stop stop-color="#FEFEFC"/>
<stop offset="0.09" stop-color="#FEFEFC" stop-opacity="0.96"/>
<stop offset="0.25" stop-color="#FEFEFC" stop-opacity="0.86"/>
<stop offset="0.44" stop-color="#FEFEFD" stop-opacity="0.7"/>
<stop offset="0.68" stop-color="#FFFFFE" stop-opacity="0.47"/>
<stop offset="0.93" stop-color="white" stop-opacity="0.18"/>
<stop offset="1" stop-color="white" stop-opacity="0.1"/>
</linearGradient>
<linearGradient id="paint9_linear" x1="129.313" y1="101.678" x2="85.6558" y2="146.808" gradientUnits="userSpaceOnUse">
<stop stop-color="#FEFEFC"/>
<stop offset="0.09" stop-color="#FEFEFC" stop-opacity="0.96"/>
<stop offset="0.25" stop-color="#FEFEFC" stop-opacity="0.86"/>
<stop offset="0.44" stop-color="#FEFEFD" stop-opacity="0.7"/>
<stop offset="0.68" stop-color="#FFFFFE" stop-opacity="0.47"/>
<stop offset="0.93" stop-color="white" stop-opacity="0.18"/>
<stop offset="1" stop-color="white" stop-opacity="0.1"/>
</linearGradient>
</defs>
</svg>
