<svg width="142" height="160" viewBox="0 0 142 160" fill="none" xmlns="http://www.w3.org/2000/svg">
<g clip-path="url(#clip0)">
<path d="M77.4722 119.978C94.7573 119.978 108.77 105.965 108.77 88.6801C108.77 71.3949 94.7573 57.3826 77.4722 57.3826C60.187 57.3826 46.1747 71.3949 46.1747 88.6801C46.1747 105.965 60.187 119.978 77.4722 119.978Z" fill="white"/>
<path d="M77.4722 102.067C84.8655 102.067 90.8589 96.0734 90.8589 88.6801C90.8589 81.2868 84.8655 75.2934 77.4722 75.2934C70.0789 75.2934 64.0855 81.2868 64.0855 88.6801C64.0855 96.0734 70.0789 102.067 77.4722 102.067Z" fill="white"/>
<g opacity="0.19">
<path opacity="0.19" d="M129.133 54.2736L125.483 67.2601C125.42 67.4872 125.211 67.6426 124.975 67.6374C124.739 67.632 124.537 67.4674 124.484 67.2377L122.819 60.0496L115.67 58.628C115.439 58.58 115.269 58.3822 115.257 58.1467C115.245 57.9112 115.394 57.6972 115.618 57.6259L128.483 53.6428C128.663 53.5866 128.86 53.6335 128.996 53.765C129.131 53.8965 129.184 54.0917 129.133 54.2736Z" fill="url(#paint0_linear)"/>
<path opacity="0.19" d="M16.6061 131.053C18.4631 129.065 20.333 127.091 22.2157 125.129C24.0887 123.16 25.9842 121.213 27.8732 119.26C29.7623 117.307 31.6641 115.364 33.5692 113.427C35.4743 111.49 37.3665 109.54 39.2876 107.619C43.1298 103.777 46.9367 99.8992 50.8141 96.0922C54.6914 92.2853 58.5208 88.4303 62.4174 84.6458C62.9773 84.1046 63.8698 84.1189 64.4121 84.6778C64.5243 84.7898 64.6154 84.921 64.681 85.0652L69.3236 95.1957C70.1017 96.8799 70.8509 98.58 71.6161 100.274L73.9022 105.355L71.6609 104.897L77.8628 99.23L84.0999 93.6076C88.2622 89.8455 92.4246 86.1314 96.6253 82.4014C98.7097 80.5347 100.823 78.6969 102.926 76.8494C105.03 75.002 107.134 73.1514 109.256 71.3231C113.489 67.6539 117.751 64.0167 122.041 60.4114C118.109 64.4073 114.12 68.3423 110.118 72.2581C108.123 74.224 106.106 76.1675 104.092 78.1142C102.078 80.0608 100.07 82.0139 98.0405 83.9414C93.9902 87.806 89.9432 91.6802 85.8545 95.5031L79.7391 101.266L73.5852 106.982C73.3102 107.237 72.9447 107.373 72.5694 107.359C72.194 107.346 71.8396 107.183 71.5841 106.908C71.4836 106.798 71.4004 106.674 71.3376 106.54L69.0163 101.474C68.2446 99.7839 67.4602 98.1029 66.7014 96.406L62.1196 86.2403L64.3865 86.6693C60.4867 90.4507 56.5325 94.1776 52.5975 97.9204C48.6625 101.663 44.6826 105.368 40.722 109.088C38.7433 110.952 36.7358 112.783 34.7443 114.631C32.7528 116.478 30.7548 118.319 28.7441 120.144C26.7334 121.969 24.7291 123.81 22.7055 125.626C20.682 127.441 18.6489 129.256 16.6061 131.053Z" fill="url(#paint1_linear)"/>
</g>
<path d="M101.239 47.409H53.8525C49.6086 47.409 46.1682 50.8494 46.1682 55.0933V136.739C46.1682 140.983 49.6086 144.423 53.8525 144.423H101.239C105.483 144.423 108.923 140.983 108.923 136.739V55.0933C108.923 50.8494 105.483 47.409 101.239 47.409Z" fill="url(#paint2_linear)"/>
<path d="M96.1162 60.2161H58.9754C56.1462 60.2161 53.8526 62.5097 53.8526 65.339V100.239C53.8526 103.068 56.1462 105.361 58.9754 105.361H96.1162C98.9455 105.361 101.239 103.068 101.239 100.239V65.339C101.239 62.5097 98.9455 60.2161 96.1162 60.2161Z" fill="#FEFEFE"/>
<path d="M97.397 110.484H57.6947C55.5728 110.484 53.8526 112.205 53.8526 114.326C53.8526 116.448 55.5728 118.169 57.6947 118.169H97.397C99.5189 118.169 101.239 116.448 101.239 114.326C101.239 112.205 99.5189 110.484 97.397 110.484Z" fill="#FEFEFE"/>
<path d="M97.397 123.291H57.6947C55.5728 123.291 53.8526 125.012 53.8526 127.134C53.8526 129.256 55.5728 130.976 57.6947 130.976H97.397C99.5189 130.976 101.239 129.256 101.239 127.134C101.239 125.012 99.5189 123.291 97.397 123.291Z" fill="#FEFEFE"/>
<path d="M17.9509 124.172C19.7738 122.148 21.6127 120.143 23.4676 118.156C25.315 116.158 27.188 114.189 29.0547 112.213L31.8627 109.255L34.6898 106.319C36.5821 104.366 38.4552 102.397 40.357 100.456C42.2589 98.516 44.1543 96.5693 46.0658 94.6386C47.9773 92.7079 49.8888 90.7773 51.8066 88.853C55.6488 85.0108 59.5048 81.1836 63.3747 77.3714C63.7429 77.0081 64.2405 76.8063 64.7577 76.8105C65.2749 76.8147 65.7692 77.0246 66.1315 77.3938C66.2873 77.5494 66.4142 77.7315 66.5061 77.9317V77.9669C68.0749 81.3352 69.6054 84.7195 71.1519 88.0942L75.7368 98.2534L72.5959 97.6131L78.817 91.9715L85.0669 86.3588C89.2484 82.6362 93.447 78.9306 97.6627 75.2422C99.7663 73.3915 101.895 71.5729 104.018 69.7447C106.141 67.9165 108.257 66.0818 110.406 64.2824C112.554 62.483 114.68 60.658 116.845 58.8778C119.009 57.0976 121.164 55.3014 123.354 53.5468C121.433 55.5874 119.484 57.6046 117.507 59.5982C115.554 61.6089 113.569 63.5844 111.594 65.5727C109.618 67.5611 107.62 69.5238 105.626 71.4897C103.631 73.4556 101.639 75.4279 99.6254 77.3746C95.6125 81.2807 91.575 85.1602 87.513 89.0131L81.4072 94.7763L75.2758 100.514C74.8143 100.945 74.1739 101.129 73.5539 101.008C72.934 100.887 72.4098 100.476 72.1444 99.9024V99.8768L67.5146 89.7431C65.9906 86.3524 64.4505 82.9745 62.9457 79.5774L66.0962 80.1729C62.1751 83.9318 58.2326 87.6673 54.2688 91.3792C52.2901 93.2384 50.305 95.0922 48.3135 96.9407C46.3252 98.7945 44.3272 100.632 42.3261 102.473C40.325 104.314 38.3047 106.13 36.2939 107.958L33.2746 110.699L30.2329 113.414C28.203 115.223 26.1763 117.035 24.1239 118.819C22.0716 120.602 20.0288 122.414 17.9509 124.172Z" fill="url(#paint3_linear)"/>
<path d="M127.116 50.1529L123.376 63.1137C123.309 63.3391 123.098 63.4907 122.863 63.4832C122.628 63.4757 122.427 63.3109 122.374 63.0817L120.773 55.8841L113.636 54.4113C113.406 54.3615 113.238 54.1628 113.228 53.9275C113.217 53.6921 113.367 53.4792 113.592 53.4091L126.485 49.5157C126.664 49.4673 126.856 49.5189 126.986 49.6507C127.117 49.7825 127.166 49.9743 127.116 50.1529Z" fill="url(#paint4_linear)"/>
<path opacity="0.13" d="M105.737 142.374C101.423 141.179 97.6318 138.578 94.9642 134.983C93.6215 133.172 92.585 131.153 91.8959 129.006L91.6632 128.192C91.4184 127.28 91.2356 126.353 91.1159 125.417C90.982 124.333 90.9387 123.241 90.9866 122.15C91.0125 121.654 91.047 121.159 91.103 120.65C92.2123 110.8 100.321 103.22 110.223 102.775C110.674 102.758 111.109 102.939 111.414 103.271C111.72 103.603 111.864 104.052 111.809 104.499L111.499 107.21L110.297 117.836L109.469 125.085L108.698 131.924L107.664 141.064C107.611 141.507 107.369 141.907 106.999 142.158C106.63 142.409 106.169 142.488 105.737 142.374Z" fill="url(#paint5_linear)"/>
<path d="M112.163 142.861C107.85 141.662 104.06 139.062 101.39 135.47C100.049 133.658 99.014 131.639 98.3256 129.493L98.0929 128.679C97.8464 127.767 97.6636 126.84 97.5456 125.904C97.4094 124.819 97.3661 123.725 97.4163 122.633C97.4163 122.141 97.4767 121.642 97.5284 121.137C98.6446 111.288 106.751 103.709 116.653 103.258C117.103 103.241 117.538 103.422 117.843 103.754C118.147 104.086 118.291 104.535 118.235 104.982L117.929 107.697L116.722 118.332L115.895 125.585L115.123 132.419L114.085 141.559C114.03 142 113.787 142.397 113.419 142.646C113.051 142.895 112.593 142.973 112.163 142.861Z" fill="url(#paint6_linear)"/>
<path opacity="0.13" d="M122.548 146.45C122.097 146.469 121.661 146.288 121.356 145.956C121.05 145.624 120.906 145.174 120.962 144.727L122.113 134.608L122.884 127.774V127.7C122.959 127.059 123.425 126.531 124.052 126.377L139.781 122.663C140.205 122.56 140.652 122.642 141.011 122.889C141.371 123.135 141.608 123.523 141.664 123.956C141.843 125.48 141.843 127.02 141.664 128.545C141.595 129.135 141.505 129.709 141.384 130.269C139.573 139.352 131.801 146.029 122.548 146.45Z" fill="url(#paint7_linear)"/>
<path d="M118.493 143.567C118.042 143.586 117.606 143.405 117.301 143.073C116.995 142.741 116.851 142.291 116.907 141.844L118.054 131.725L118.829 124.891V124.818C118.904 124.176 119.37 123.649 119.997 123.495L135.726 119.78C136.15 119.677 136.597 119.759 136.956 120.006C137.316 120.253 137.553 120.641 137.61 121.073C137.79 122.597 137.79 124.138 137.61 125.662C137.541 126.253 137.454 126.826 137.334 127.386C135.522 136.47 127.747 143.148 118.493 143.567Z" fill="url(#paint8_linear)"/>
<path opacity="0.13" d="M137.454 113.161L124.03 116.328C123.544 116.446 123.03 116.318 122.655 115.985C122.28 115.653 122.092 115.158 122.152 114.66L122.264 113.717L123.466 103.094L123.66 101.345C123.716 100.904 123.959 100.51 124.327 100.262C124.696 100.014 125.153 99.9376 125.582 100.052C127.018 100.449 128.404 101.007 129.714 101.715C133.29 103.637 136.203 106.59 138.075 110.192C138.225 110.472 138.368 110.765 138.506 111.054C138.688 111.47 138.676 111.946 138.473 112.353C138.27 112.76 137.896 113.056 137.454 113.161Z" fill="url(#paint9_linear)"/>
<path d="M134.851 117.108L121.428 120.275C120.94 120.392 120.427 120.262 120.053 119.929C119.678 119.596 119.49 119.101 119.549 118.603L119.661 117.664L120.859 107.037L121.053 105.292C121.111 104.852 121.356 104.458 121.724 104.211C122.093 103.964 122.55 103.887 122.979 103.999C124.413 104.397 125.798 104.955 127.107 105.663C130.684 107.584 133.599 110.537 135.472 114.139C135.623 114.419 135.765 114.712 135.903 115.001C136.083 115.418 136.071 115.893 135.868 116.299C135.665 116.706 135.293 117.002 134.851 117.108Z" fill="url(#paint10_linear)"/>
<path opacity="0.14" d="M41.2903 29.0338C41.2903 29.4754 41.2903 29.9046 41.2409 30.3308C40.6121 40.4957 32.6539 48.6783 22.5091 49.591C21.8914 49.6527 21.2737 49.6774 20.656 49.6774C20.4645 49.6774 20.2761 49.6774 20.0877 49.6774C16.8776 49.5979 13.7308 48.7677 10.8994 47.2533C7.89893 45.6317 5.34209 43.299 3.45297 40.4596C1.85599 38.0648 0.784443 35.359 0.308863 32.5202C0.104184 31.4089 0.000809644 30.2812 5.76901e-06 29.1512V29.04C-0.00408573 23.5645 2.1683 18.3118 6.03893 14.4382C9.90955 10.5647 15.1611 8.38795 20.6374 8.38711C22.431 8.3843 24.2172 8.61792 25.9497 9.08195C34.9866 11.4959 41.2726 19.6813 41.2718 29.0338H41.2903Z" fill="url(#paint11_linear)"/>
<path d="M37.4467 29.0346C37.4467 29.3937 37.4467 29.7431 37.4079 30.0925C36.8945 38.3686 30.4148 45.0298 22.156 45.7714C21.6514 45.8224 21.1444 45.8467 20.6371 45.8444C20.4819 45.8444 20.3266 45.8444 20.1519 45.8444C17.5394 45.7776 14.9786 45.1013 12.6739 43.8692C10.2325 42.5477 8.1503 40.6504 6.60814 38.342C5.30949 36.3918 4.43798 34.1891 4.0508 31.8783C3.88489 30.9738 3.80205 30.0561 3.8033 29.1365V29.0443C3.79815 24.5807 5.56903 20.2984 8.72529 17.1422C11.8815 13.9859 16.1638 12.215 20.6274 12.2202C22.0874 12.2177 23.5413 12.4086 24.9511 12.788C32.3114 14.75 37.4314 21.4174 37.4273 29.0346H37.4467Z" fill="url(#paint12_linear)"/>
<path d="M28.8094 24.9827L19.0216 34.4988C18.7629 34.7506 18.4067 34.8764 18.0472 34.8427C17.6876 34.8091 17.3609 34.6195 17.1534 34.3241L12.8636 28.1806" stroke="white" stroke-width="4.37717" stroke-linecap="square" stroke-linejoin="round"/>
<path opacity="0.21" d="M31.1683 15.9326L6.62848 38.3324C5.32983 36.3822 4.45831 34.1795 4.07114 31.8687L24.9375 12.7881C27.2132 13.3846 29.3367 14.4562 31.1683 15.9326Z" fill="url(#paint13_linear)"/>
<path opacity="0.21" d="M37.4471 29.0345C37.4471 29.3936 37.4471 29.743 37.4082 30.0924L20.1716 45.8344C17.5591 45.7678 14.9983 45.0915 12.6937 43.8594L36.1126 22.4641C36.9988 24.5409 37.4529 26.7765 37.4471 29.0345Z" fill="url(#paint14_linear)"/>
</g>
<defs>
<linearGradient id="paint0_linear" x1="115.33" y1="60.1319" x2="128.803" y2="60.6848" gradientUnits="userSpaceOnUse">
<stop stop-color="#735CD2"/>
<stop offset="1" stop-color="#8F6ACC"/>
</linearGradient>
<linearGradient id="paint1_linear" x1="16.6894" y1="94.7655" x2="121.844" y2="99.0871" gradientUnits="userSpaceOnUse">
<stop stop-color="#735CD2"/>
<stop offset="1" stop-color="#8F6ACC"/>
</linearGradient>
<linearGradient id="paint2_linear" x1="77.5458" y1="316.133" x2="77.5458" y2="47.409" gradientUnits="userSpaceOnUse">
<stop stop-color="#FAFAFA"/>
<stop offset="1" stop-color="#EFEFEF"/>
</linearGradient>
<linearGradient id="paint3_linear" x1="17.4834" y1="87.879" x2="123.739" y2="92.2454" gradientUnits="userSpaceOnUse">
<stop stop-color="#735CD2"/>
<stop offset="1" stop-color="#8F6ACC"/>
</linearGradient>
<linearGradient id="paint4_linear" x1="113.214" y1="55.9233" x2="126.77" y2="56.5768" gradientUnits="userSpaceOnUse">
<stop stop-color="#735CD2"/>
<stop offset="1" stop-color="#8F6ACC"/>
</linearGradient>
<linearGradient id="paint5_linear" x1="103.848" y1="122.207" x2="98.2967" y2="123.182" gradientUnits="userSpaceOnUse">
<stop stop-color="#2FA2FA"/>
<stop offset="1" stop-color="#37D3FB"/>
</linearGradient>
<linearGradient id="paint6_linear" x1="120.046" y1="108.122" x2="89.2956" y2="125.817" gradientUnits="userSpaceOnUse">
<stop stop-color="#2FA2FA"/>
<stop offset="1" stop-color="#37D3FB"/>
</linearGradient>
<linearGradient id="paint7_linear" x1="128.665" y1="125.03" x2="135.187" y2="142.565" gradientUnits="userSpaceOnUse">
<stop stop-color="#735CD2"/>
<stop offset="1" stop-color="#8F6ACC"/>
</linearGradient>
<linearGradient id="paint8_linear" x1="124.61" y1="122.147" x2="131.131" y2="139.683" gradientUnits="userSpaceOnUse">
<stop stop-color="#735CD2"/>
<stop offset="1" stop-color="#8F6ACC"/>
</linearGradient>
<linearGradient id="paint9_linear" x1="124.089" y1="121.95" x2="132.322" y2="103.969" gradientUnits="userSpaceOnUse">
<stop stop-color="#FB9835"/>
<stop offset="1" stop-color="#FBBB3C"/>
</linearGradient>
<linearGradient id="paint10_linear" x1="121.486" y1="125.901" x2="129.718" y2="107.921" gradientUnits="userSpaceOnUse">
<stop stop-color="#FB9835"/>
<stop offset="1" stop-color="#FBBB3C"/>
</linearGradient>
<linearGradient id="paint11_linear" x1="20.6436" y1="76.5157" x2="20.6436" y2="2.26968" gradientUnits="userSpaceOnUse">
<stop stop-color="#60B05B"/>
<stop offset="0.25" stop-color="#75BC60"/>
<stop offset="0.74" stop-color="#9AD069"/>
<stop offset="1" stop-color="#A8D86D"/>
</linearGradient>
<linearGradient id="paint12_linear" x1="20.6371" y1="67.7008" x2="20.6371" y2="7.24134" gradientUnits="userSpaceOnUse">
<stop stop-color="#60B05B"/>
<stop offset="0.25" stop-color="#75BC60"/>
<stop offset="0.74" stop-color="#9AD069"/>
<stop offset="1" stop-color="#A8D86D"/>
</linearGradient>
<linearGradient id="paint13_linear" x1="32.6678" y1="10.5488" x2="8.9243" y2="34.5807" gradientUnits="userSpaceOnUse">
<stop stop-color="#FEFEFC"/>
<stop offset="1" stop-color="#C4EAFC" stop-opacity="0.1"/>
</linearGradient>
<linearGradient id="paint14_linear" x1="41.9407" y1="21.4278" x2="19.2404" y2="44.4033" gradientUnits="userSpaceOnUse">
<stop stop-color="#FEFEFC"/>
<stop offset="1" stop-color="#C4EAFC" stop-opacity="0.1"/>
</linearGradient>
<clipPath id="clip0">
<rect width="141.935" height="160" fill="white"/>
</clipPath>
</defs>
</svg>
