<svg width="45" height="42" viewBox="0 0 45 42" fill="none" xmlns="http://www.w3.org/2000/svg">
<path d="M33.99 25.3727L36.7797 28.1603C37.3188 28.6997 37.6216 29.4309 37.6216 30.1932C37.6216 30.9556 37.3188 31.6868 36.7797 32.2262V32.2262C36.2402 32.7654 35.5085 33.0684 34.7455 33.0684C33.9825 33.0684 33.2508 32.7654 32.7113 32.2262L29.923 29.44" stroke="#57AE5B" stroke-width="2" stroke-miterlimit="10" stroke-linecap="round" stroke-linejoin="round"/>
<path d="M25.8824 33.4789L27.1912 34.7878C27.7267 35.3232 28.0276 36.0493 28.0276 36.8065C28.0276 37.5636 27.7267 38.2897 27.1912 38.8251V38.8251C26.9259 39.0909 26.6107 39.3016 26.2637 39.445C25.9166 39.5885 25.5446 39.6619 25.169 39.6611" stroke="#57AE5B" stroke-width="2" stroke-miterlimit="10" stroke-linecap="round" stroke-linejoin="round"/>
<path d="M3.92958 18.6592V14.2668L1 11.3386L11.2535 1.08984L13.4507 3.28601H17.1127" stroke="#57AE5B" stroke-width="2" stroke-miterlimit="10" stroke-linecap="round" stroke-linejoin="round"/>
<path d="M8.06601 26.9806L7.31198 27.7343C6.1885 28.8572 6.18839 30.6778 7.31172 31.8006C8.43506 32.9234 10.2565 32.9233 11.3799 31.8004L12.134 31.0467C13.2575 29.9237 13.2576 28.1032 12.1342 26.9803C11.0109 25.8575 9.18949 25.8576 8.06601 26.9806Z" stroke="#57AE5B" stroke-width="2" stroke-miterlimit="10" stroke-linecap="round" stroke-linejoin="round"/>
<path d="M16.6311 34.6297L16.2458 35.0149C15.1303 36.1298 15.1303 37.9376 16.2458 39.0525C17.3613 40.1675 19.1698 40.1675 20.2853 39.0525L20.6706 38.6674C21.786 37.5524 21.786 35.7447 20.6706 34.6297C19.5551 33.5148 17.7466 33.5148 16.6311 34.6297Z" stroke="#57AE5B" stroke-width="2" stroke-miterlimit="10" stroke-linecap="round" stroke-linejoin="round"/>
<path d="M8.0537 26.9923L7.62891 27.4169C7.36264 27.6835 7.04488 27.8933 6.69495 28.0333C6.34502 28.1734 5.97025 28.2408 5.59344 28.2315C5.21662 28.2221 4.84564 28.1363 4.50307 27.9791C4.16049 27.822 3.85349 27.5968 3.60073 27.3173V27.3173C3.12679 26.7933 2.87003 26.1087 2.88255 25.4024C2.89506 24.6961 3.17591 24.0211 3.66811 23.5142L4.0929 23.0801C4.60506 22.5563 5.30319 22.2556 6.0358 22.2431C6.76841 22.2306 7.47639 22.5074 8.00609 23.0134V23.0134C8.27441 23.2693 8.48885 23.5763 8.63681 23.9162C8.78478 24.2561 8.86329 24.6222 8.86772 24.9928C8.87216 25.3635 8.80243 25.7313 8.66264 26.0747C8.52285 26.418 8.31581 26.73 8.0537 26.9923V26.9923Z" stroke="#57AE5B" stroke-width="2" stroke-miterlimit="10" stroke-linecap="round" stroke-linejoin="round"/>
<path d="M12.1507 31.0328L11.9373 31.2461C10.8219 32.361 10.8219 34.1688 11.9373 35.2837C13.0528 36.3987 14.8614 36.3987 15.9768 35.2837L16.1902 35.0704C17.3057 33.9555 17.3057 32.1478 16.1902 31.0328C15.0747 29.9178 13.2662 29.9178 12.1507 31.0328Z" stroke="#57AE5B" stroke-width="2" stroke-miterlimit="10" stroke-linecap="round" stroke-linejoin="round"/>
<path d="M32.1539 31.672C32.4192 31.9371 32.6296 32.2519 32.7732 32.5983C32.9168 32.9447 32.9907 33.316 32.9907 33.691C32.9907 34.066 32.9168 34.4373 32.7732 34.7837C32.6296 35.1301 32.4192 35.4449 32.1539 35.71V35.71C31.6182 36.2453 30.8917 36.546 30.1343 36.546C29.3768 36.546 28.6504 36.2453 28.1147 35.71L27.1685 34.7642" stroke="#57AE5B" stroke-width="2" stroke-miterlimit="10" stroke-linecap="round" stroke-linejoin="round"/>
<path d="M35.9909 27.3706C36.2575 27.6367 36.5753 27.846 36.9252 27.9856C37.2751 28.1253 37.6497 28.1925 38.0263 28.1832C38.403 28.1739 38.7738 28.0883 39.1163 27.9315C39.4589 27.7747 39.766 27.55 40.0191 27.2711V27.2711C40.493 26.7471 40.7498 26.0625 40.7373 25.3562C40.7248 24.6499 40.4439 23.9749 39.9517 23.468L30.6444 13.908" stroke="#57AE5B" stroke-width="2" stroke-miterlimit="10" stroke-linecap="round" stroke-linejoin="round"/>
<path d="M40.5493 18.6592V14.2668L43.4789 11.3386L33.2254 1.08984L31.0282 3.28601H26.2288C25.068 3.28594 23.9186 3.51445 22.8462 3.95847C21.7737 4.40249 20.7993 5.05334 19.9786 5.87383L13.2361 12.8803C12.8035 13.3219 12.5508 13.9085 12.527 14.526C12.5032 15.1435 12.7101 15.7478 13.1074 16.2213C13.5047 16.6948 14.0641 17.0036 14.6766 17.0877C15.2891 17.1717 15.911 17.025 16.4213 16.676L23.5988 12.0509C24.2186 12.7534 24.9825 13.3142 25.8385 13.6951C26.6946 14.076 27.6227 14.2681 28.5597 14.2584C29.4967 14.2487 30.4206 14.0373 31.2686 13.6387C32.1165 13.2401 32.8686 12.6636 33.4737 11.9484" stroke="#57AE5B" stroke-width="2" stroke-miterlimit="10" stroke-linecap="round" stroke-linejoin="round"/>
</svg>
