<svg width="142" height="160" viewBox="0 0 142 160" fill="none" xmlns="http://www.w3.org/2000/svg">
<path d="M101.33 141.252H82.9957V113.751H73.8287V141.252H55.4948C54.2281 141.252 53.2031 142.278 53.2031 143.544C53.2031 144.809 54.2281 145.835 55.4948 145.835H101.33C102.596 145.835 103.621 144.809 103.621 143.544C103.621 142.278 102.596 141.252 101.33 141.252Z" fill="#EFEFEF"/>
<path d="M80.0005 63.3328H106.049L102.913 51.1489C102.673 50.2135 101.997 49.5823 101.235 49.5823H80.0005V63.3328Z" fill="#EFEFEF"/>
<path d="M45.8065 83.9584H76.9378V67.9163H49.9058L45.8065 83.9584Z" fill="#EFEFEF"/>
<path d="M107.35 67.9163H80.3182V83.9584H111.45L107.35 67.9163Z" fill="#EFEFEF"/>
<path d="M117.077 106.151L112.582 88.5419H80.3182V109.168H115.413C115.977 109.168 116.506 108.814 116.837 108.215C117.166 107.618 117.257 106.85 117.077 106.151Z" fill="#EFEFEF"/>
<path d="M76.5062 88.5419H44.242L39.7478 106.151C39.5679 106.85 39.6587 107.618 39.9877 108.215C40.3184 108.814 40.8479 109.168 41.4117 109.168H76.5062V88.5419Z" fill="#EFEFEF"/>
<path d="M77.0167 63.3328V49.5823H55.7819C55.0198 49.5823 54.3441 50.2135 54.1039 51.1489L50.968 63.3328H77.0167Z" fill="#EFEFEF"/>
<path d="M13.0487 118.301C14.221 115.034 15.6463 111.864 17.3117 108.818C17.5182 108.434 17.7533 108.069 17.9725 107.691C18.1917 107.313 18.4141 106.938 18.6587 106.579C19.1542 105.858 19.6117 105.121 20.1707 104.438C20.7298 103.755 21.2762 103.075 21.8544 102.411L22.7883 101.474C23.106 101.156 23.4522 100.886 23.7826 100.591C25.1511 99.4277 26.7193 98.5225 28.411 97.9194C30.1467 97.3309 31.9944 97.1494 33.8114 97.3889C34.7051 97.5284 35.5844 97.7485 36.4385 98.0464C37.2803 98.3323 38.0935 98.6627 38.8877 98.9581C39.6615 99.2637 40.4581 99.508 41.2702 99.6888C41.6627 99.7767 42.0607 99.8383 42.4614 99.873C42.6599 99.8925 42.8592 99.901 43.0586 99.8984C43.2586 99.9111 43.4591 99.9111 43.659 99.8984C44.058 99.8783 44.4551 99.8295 44.8471 99.7523L45.438 99.6348C45.6349 99.5966 45.8255 99.5236 46.0193 99.4696C46.4047 99.3544 46.7833 99.2176 47.1534 99.0598C47.5123 98.8787 47.8808 98.7199 48.2239 98.5039C48.567 98.2878 48.8973 98.0687 49.2309 97.8399C49.5644 97.6112 49.8662 97.3444 50.1839 97.0648C50.7914 96.5093 51.3534 95.9059 51.8644 95.2605C52.9001 93.9225 53.8447 92.5163 54.6916 91.0514C55.5672 89.5206 56.5215 88.0362 57.5506 86.6041C58.1014 85.856 58.7296 85.1682 59.4248 84.5519C60.1601 83.906 61.0074 83.3999 61.9249 83.0589C62.8625 82.7215 63.8591 82.5789 64.8537 82.6396C65.8569 82.7073 66.8329 82.9947 67.7127 83.4814C68.5408 83.9404 69.3064 84.5041 69.9904 85.1587C70.6575 85.794 71.2611 86.4294 71.8488 87.0869C73.0146 88.3798 74.1137 89.6759 75.3749 90.6416C75.9749 91.114 76.6461 91.4883 77.3635 91.7503C78.06 91.9955 78.8 92.0929 79.5363 92.0362C81.0071 91.9409 82.3953 91.1689 83.5484 90.073C84.7311 88.9134 85.7709 87.6166 86.6457 86.2102C87.5701 84.7965 88.4087 83.3035 89.2474 81.8009C90.9119 78.7895 92.5098 75.7017 94.2951 72.703C96.047 69.6567 98.093 66.7893 100.404 64.1419C102.755 61.5179 105.512 59.1831 108.689 57.5725C109.478 57.1677 110.293 56.8154 111.128 56.5179L111.764 56.2828C111.971 56.2 112.183 56.1299 112.399 56.0731L113.67 55.711C115.381 55.276 117.134 55.0195 118.898 54.9454L119.556 54.9105C119.775 54.9105 119.994 54.9105 120.214 54.9105L121.532 54.9295L122.841 55.0216C123.06 55.0216 123.279 55.0502 123.495 55.0725L124.146 55.1551C125.879 55.3635 127.595 55.6915 129.283 56.1367C130.97 56.5719 132.618 57.1214 134.251 57.725C135.884 58.3286 137.463 59.0306 139.016 59.7644C137.413 59.1164 135.789 58.5266 134.143 57.995C132.495 57.4836 130.833 57.0134 129.149 56.6608C127.473 56.301 125.775 56.0474 124.067 55.9016L123.431 55.8444C123.219 55.8444 123.006 55.8285 122.796 55.819L121.525 55.7777L120.255 55.8095C120.042 55.8095 119.826 55.8095 119.619 55.8317L118.984 55.8889C117.291 56.018 115.615 56.3171 113.981 56.7815L112.774 57.1627C112.571 57.2216 112.372 57.2948 112.18 57.3819L111.595 57.6202C110.809 57.9258 110.044 58.2834 109.305 58.6907C106.353 60.3513 103.729 62.5354 101.56 65.1362C99.3803 67.7612 97.4451 70.58 95.7786 73.5575C94.06 76.5277 92.5162 79.6122 90.8706 82.6777C90.0511 84.212 89.187 85.7368 88.2308 87.2267C87.279 88.7637 86.1463 90.181 84.8572 91.4485C84.169 92.1086 83.3916 92.6689 82.5478 93.1131C81.6679 93.5738 80.7042 93.8526 79.7142 93.9326C78.7204 94.0107 77.7212 93.883 76.779 93.5578C75.8621 93.2346 75.0038 92.7647 74.2376 92.1664C72.7509 91.0101 71.6105 89.6251 70.4669 88.3544C69.3233 87.0837 68.1861 85.8512 66.8519 85.1301C66.2113 84.7677 65.4987 84.5507 64.7648 84.4948C64.0266 84.4553 63.288 84.5633 62.592 84.8124C61.1942 85.2985 60.0284 86.423 59.0246 87.7223C58.0164 89.0905 57.0802 90.5103 56.2196 91.9758C55.3132 93.4951 54.305 94.9512 53.2017 96.3342C52.6296 97.0389 52.0006 97.6955 51.3211 98.2974C50.6375 98.9186 49.8838 99.458 49.0752 99.9048C48.2711 100.367 47.4105 100.724 46.5148 100.966C46.2925 101.023 46.0733 101.099 45.8446 101.137L45.1616 101.261C44.7024 101.338 44.2387 101.385 43.7734 101.401C41.8991 101.471 40.0662 100.921 38.4556 100.261C37.6329 99.9429 36.8673 99.5998 36.0604 99.3076C35.2864 99.0187 34.4894 98.7956 33.6779 98.6405C32.0312 98.366 30.3432 98.4791 28.7477 98.9708C27.157 99.4889 25.6722 100.288 24.3639 101.331C24.0463 101.601 23.6937 101.843 23.3887 102.135L22.4548 103.002C21.8734 103.637 21.2762 104.231 20.7489 104.908C20.2216 105.585 19.7006 106.261 19.1892 106.947C18.9318 107.294 18.7127 107.662 18.4712 108.018C18.2298 108.374 17.9852 108.73 17.766 109.098L17.1053 110.207C16.8861 110.578 16.6574 110.944 16.4699 111.328L15.8568 112.468C15.6504 112.847 15.447 113.228 15.2628 113.618C14.8848 114.394 14.4845 115.162 14.1256 115.947L13.0487 118.301Z" fill="#735CD2"/>
<path opacity="0.1" d="M13.699 122.503C14.8713 119.236 16.2966 116.066 17.9621 113.02C18.1685 112.636 18.4036 112.271 18.6228 111.893C18.842 111.515 19.0644 111.14 19.309 110.781C19.8045 110.06 20.262 109.323 20.8211 108.64C21.3802 107.957 21.9265 107.277 22.5047 106.613L23.4386 105.676C23.7563 105.358 24.1026 105.088 24.4329 104.793C25.8014 103.63 27.3696 102.724 29.0613 102.121C30.797 101.533 32.6447 101.351 34.4617 101.591C35.3554 101.73 36.2347 101.95 37.0888 102.248C37.9306 102.534 38.7438 102.865 39.538 103.16C40.3118 103.466 41.1084 103.71 41.9205 103.891C42.313 103.979 42.711 104.04 43.1117 104.075C43.3102 104.094 43.5096 104.103 43.709 104.1C43.9089 104.113 44.1094 104.113 44.3093 104.1C44.7084 104.08 45.1054 104.031 45.4974 103.954L46.0883 103.837C46.2852 103.799 46.4758 103.725 46.6696 103.671C47.055 103.556 47.4337 103.419 47.8037 103.262C48.1626 103.081 48.5311 102.922 48.8742 102.706C49.2173 102.49 49.5477 102.271 49.8812 102.042C50.2148 101.813 50.5165 101.546 50.8342 101.267C51.4417 100.711 52.0037 100.108 52.5147 99.4624C53.5505 98.1244 54.495 96.7182 55.3419 95.2533C56.2175 93.7225 57.1718 92.2381 58.2009 90.806C58.7517 90.0579 59.38 89.3701 60.0751 88.7539C60.8105 88.1079 61.6577 87.6019 62.5752 87.2608C63.5128 86.9235 64.5094 86.7808 65.5041 86.8415C66.5072 86.9092 67.4832 87.1966 68.3631 87.6833C69.1911 88.1423 69.9567 88.706 70.6407 89.3606C71.3078 89.9959 71.9114 90.6313 72.4991 91.2888C73.6649 92.5817 74.764 93.8778 76.0252 94.8435C76.6252 95.316 77.2964 95.6902 78.0138 95.9522C78.7103 96.1974 79.4503 96.2948 80.1866 96.2381C81.6574 96.1428 83.0456 95.3709 84.1988 94.2749C85.3814 93.1153 86.4212 91.8185 87.296 90.4121C88.2204 88.9985 89.0591 87.5054 89.8977 86.0029C91.5623 82.9914 93.1601 79.9037 94.9454 76.9049C96.6974 73.8586 98.7434 70.9913 101.054 68.3438C103.405 65.7198 106.162 63.385 109.339 61.7744C110.128 61.3696 110.943 61.0173 111.779 60.7198L112.414 60.4847C112.621 60.4019 112.833 60.3319 113.049 60.275L114.32 59.9129C116.032 59.4779 117.784 59.2214 119.549 59.1473L120.206 59.1124C120.425 59.1124 120.645 59.1124 120.864 59.1124L122.182 59.1314L123.491 59.2235C123.71 59.2235 123.929 59.2521 124.145 59.2744L124.797 59.357C126.529 59.5654 128.246 59.8934 129.933 60.3386C131.62 60.7738 133.269 61.3233 134.902 61.9269C136.534 62.5305 138.113 63.2325 139.667 63.9663C138.063 63.3183 136.439 62.7285 134.794 62.1969C133.145 61.6855 131.483 61.2153 129.8 60.8627C128.123 60.5029 126.426 60.2493 124.717 60.1035L124.082 60.0463C123.869 60.0463 123.656 60.0304 123.446 60.0209L122.176 59.9796L120.905 60.0114C120.692 60.0114 120.476 60.0114 120.27 60.0336L119.634 60.0908C117.941 60.2199 116.265 60.519 114.631 60.9834L113.424 61.3646C113.221 61.4235 113.023 61.4967 112.83 61.5838L112.246 61.8221C111.459 62.1277 110.694 62.4853 109.955 62.8926C107.004 64.5532 104.379 66.7373 102.21 69.3381C100.031 71.9631 98.0954 74.7819 96.4289 77.7594C94.7103 80.7296 93.1665 83.8141 91.521 86.8796C90.7014 88.4139 89.8373 89.9388 88.8812 91.4286C87.9293 92.9656 86.7967 94.3829 85.5075 95.6504C84.8193 96.3105 84.0419 96.8708 83.1981 97.315C82.3182 97.7758 81.3545 98.0545 80.3645 98.1346C79.3707 98.2126 78.3716 98.085 77.4293 97.7597C76.5124 97.4365 75.6542 96.9666 74.8879 96.3683C73.4013 95.212 72.2608 93.827 71.1172 92.5563C69.9736 91.2857 68.8364 90.0531 67.5022 89.332C66.8616 88.9696 66.149 88.7527 65.4151 88.6967C64.6769 88.6572 63.9383 88.7652 63.2423 89.0143C61.8445 89.5004 60.6787 90.6249 59.6749 91.9242C58.6668 93.2924 57.7305 94.7122 56.8699 96.1777C55.9635 97.697 54.9553 99.1532 53.852 100.536C53.2799 101.241 52.6509 101.897 51.9715 102.499C51.2878 103.121 50.5341 103.66 49.7256 104.107C48.9214 104.569 48.0608 104.926 47.1652 105.168C46.9428 105.225 46.7236 105.301 46.4949 105.339L45.8119 105.463C45.3527 105.54 44.889 105.587 44.4237 105.603C42.5495 105.673 40.7165 105.123 39.106 104.462C38.2832 104.145 37.5176 103.802 36.7108 103.509C35.9367 103.221 35.1397 102.997 34.3283 102.842C32.6815 102.568 30.9935 102.681 29.3981 103.173C27.8073 103.691 26.3225 104.49 25.0143 105.533C24.6966 105.803 24.344 106.044 24.039 106.337L23.1051 107.204C22.5238 107.839 21.9265 108.433 21.3992 109.11C20.8719 109.787 20.3509 110.463 19.8395 111.149C19.5822 111.496 19.363 111.864 19.1215 112.22C18.8801 112.576 18.6355 112.931 18.4163 113.3L17.7556 114.409C17.5364 114.78 17.3077 115.146 17.1202 115.53L16.5071 116.67C16.3007 117.048 16.0974 117.43 15.9131 117.82C15.5351 118.595 15.1348 119.364 14.7759 120.149L13.699 122.503Z" fill="#735CD2"/>
<path opacity="0.11" d="M113.149 45.1613C122.906 45.1613 130.815 37.2522 130.815 27.4957C130.815 17.7393 122.906 9.83008 113.149 9.83008C103.393 9.83008 95.4839 17.7393 95.4839 27.4957C95.4839 37.2522 103.393 45.1613 113.149 45.1613Z" fill="url(#paint0_linear)"/>
<path d="M122.156 44.3636C131.912 44.3636 139.822 36.4544 139.822 26.6979C139.822 16.9415 131.912 9.03229 122.156 9.03229C112.4 9.03229 104.49 16.9415 104.49 26.6979C104.49 36.4544 112.4 44.3636 122.156 44.3636Z" fill="url(#paint1_linear)"/>
<path d="M114.355 26.1874H112.639C112.402 26.1874 112.21 26.3796 112.21 26.6163C112.21 26.8531 112.402 27.0452 112.639 27.0452H114.355C114.592 27.0452 114.784 26.8531 114.784 26.6163C114.784 26.3796 114.592 26.1874 114.355 26.1874Z" fill="#FAFAFD"/>
<path d="M116.312 21.4609C116.396 21.5445 116.506 21.5866 116.616 21.5866C116.725 21.5866 116.835 21.5445 116.919 21.4609C117.087 21.2932 117.087 21.0217 116.919 20.8545L115.706 19.6416C115.538 19.4739 115.267 19.4739 115.099 19.6416C114.931 19.8093 114.931 20.0808 115.099 20.248L116.312 21.4609Z" fill="#FAFAFD"/>
<path d="M122.074 19.3254C122.311 19.3254 122.503 19.1333 122.503 18.8965V17.181C122.503 16.9443 122.311 16.7521 122.074 16.7521C121.837 16.7521 121.645 16.9443 121.645 17.181V18.8965C121.645 19.1333 121.837 19.3254 122.074 19.3254Z" fill="#FAFAFD"/>
<path d="M128.444 19.6416L127.23 20.8545C127.063 21.0217 127.063 21.2932 127.23 21.4609C127.314 21.5445 127.424 21.5866 127.534 21.5866C127.643 21.5866 127.753 21.5445 127.837 21.4609L129.05 20.248C129.218 20.0808 129.218 19.8093 129.05 19.6416C128.882 19.4739 128.611 19.4739 128.444 19.6416Z" fill="#FAFAFD"/>
<path d="M131.51 26.1874H129.794C129.557 26.1874 129.366 26.3796 129.366 26.6163C129.366 26.8531 129.557 27.0452 129.794 27.0452H131.51C131.747 27.0452 131.939 26.8531 131.939 26.6163C131.939 26.3796 131.747 26.1874 131.51 26.1874Z" fill="#FAFAFD"/>
<path d="M127.837 31.7719C127.669 31.6043 127.398 31.6043 127.23 31.7719C127.063 31.9396 127.063 32.2111 127.23 32.3784L128.444 33.5913C128.527 33.6749 128.637 33.7169 128.747 33.7169C128.857 33.7169 128.966 33.6749 129.05 33.5913C129.218 33.4236 129.218 33.1521 129.05 32.9848L127.837 31.7719Z" fill="#FAFAFD"/>
<path d="M122.074 33.9073C121.837 33.9073 121.645 34.0995 121.645 34.3362V36.0518C121.645 36.2885 121.837 36.4806 122.074 36.4806C122.311 36.4806 122.503 36.2885 122.503 36.0518V34.3362C122.503 34.0995 122.311 33.9073 122.074 33.9073Z" fill="#FAFAFD"/>
<path d="M116.312 31.7719L115.099 32.9848C114.931 33.1521 114.931 33.4236 115.099 33.5913C115.183 33.6749 115.293 33.7169 115.402 33.7169C115.512 33.7169 115.622 33.6749 115.706 33.5913L116.919 32.3784C117.087 32.2111 117.087 31.9396 116.919 31.7719C116.751 31.6043 116.48 31.6043 116.312 31.7719Z" fill="#FAFAFD"/>
<path d="M122.075 21.041C119.001 21.041 116.499 23.5422 116.499 26.6164C116.499 29.6906 119.001 32.1919 122.075 32.1919C125.149 32.1919 127.65 29.6906 127.65 26.6164C127.65 23.5422 125.149 21.041 122.075 21.041Z" fill="#FAFAFD"/>
<path opacity="0.1" d="M31.1389 119.787H6.59913C4.37978 119.787 2.58064 121.586 2.58064 123.805V136.442C2.58064 138.661 4.37978 140.46 6.59913 140.46H31.1389C33.3582 140.46 35.1574 138.661 35.1574 136.442V123.805C35.1574 121.586 33.3582 119.787 31.1389 119.787Z" fill="url(#paint2_linear)"/>
<path d="M37.3175 125.187H12.9524C10.7331 125.187 8.93396 126.986 8.93396 129.205V141.817C8.93396 144.036 10.7331 145.835 12.9524 145.835H37.3175C39.5368 145.835 41.336 144.036 41.336 141.817V129.205C41.336 126.986 39.5368 125.187 37.3175 125.187Z" fill="url(#paint3_linear)"/>
<path d="M18.7816 128.999H14.9696C14.2679 128.999 13.699 129.568 13.699 130.27V140.753C13.699 141.454 14.2679 142.023 14.9696 142.023H18.7816C19.4834 142.023 20.0523 141.454 20.0523 140.753V130.27C20.0523 129.568 19.4834 128.999 18.7816 128.999Z" fill="#FAFAFD"/>
<path d="M27.041 128.999H23.229C22.5272 128.999 21.9583 129.568 21.9583 130.27V140.753C21.9583 141.454 22.5272 142.023 23.229 142.023H27.041C27.7427 142.023 28.3116 141.454 28.3116 140.753V130.27C28.3116 129.568 27.7427 128.999 27.041 128.999Z" fill="#FAFAFD"/>
<path opacity="0.24" d="M35.3003 128.999H31.4883C30.7865 128.999 30.2176 129.568 30.2176 130.27V140.753C30.2176 141.454 30.7865 142.023 31.4883 142.023H35.3003C36.0021 142.023 36.571 141.454 36.571 140.753V130.27C36.571 129.568 36.0021 128.999 35.3003 128.999Z" fill="white"/>
<path d="M105.664 63.5597C107.33 63.5597 108.681 62.2086 108.681 60.5419C108.681 58.8752 107.33 57.524 105.664 57.524C103.997 57.524 102.646 58.8752 102.646 60.5419C102.646 62.2086 103.997 63.5597 105.664 63.5597Z" fill="url(#paint4_linear)"/>
<path d="M62.7785 86.7493C64.4452 86.7493 65.7963 85.3982 65.7963 83.7315C65.7963 82.0648 64.4452 80.7137 62.7785 80.7137C61.1118 80.7137 59.7607 82.0648 59.7607 83.7315C59.7607 85.3982 61.1118 86.7493 62.7785 86.7493Z" fill="url(#paint5_linear)"/>
<defs>
<linearGradient id="paint0_linear" x1="113.587" y1="15.3241" x2="112.549" y2="44.1406" gradientUnits="userSpaceOnUse">
<stop stop-color="#FB9835"/>
<stop offset="1" stop-color="#FBBB3C"/>
</linearGradient>
<linearGradient id="paint1_linear" x1="157.487" y1="26.6979" x2="122.156" y2="-8.63335" gradientUnits="userSpaceOnUse">
<stop stop-color="#FF8359"/>
<stop offset="1" stop-color="#FFDF40"/>
</linearGradient>
<linearGradient id="paint2_linear" x1="18.8808" y1="153.899" x2="18.8808" y2="116.725" gradientUnits="userSpaceOnUse">
<stop stop-color="#60B05B"/>
<stop offset="0.25" stop-color="#75BC60"/>
<stop offset="0.74" stop-color="#9AD069"/>
<stop offset="1" stop-color="#A8D86D"/>
</linearGradient>
<linearGradient id="paint3_linear" x1="25.1467" y1="159.257" x2="25.1467" y2="122.129" gradientUnits="userSpaceOnUse">
<stop stop-color="#60B05B"/>
<stop offset="0.25" stop-color="#75BC60"/>
<stop offset="0.74" stop-color="#9AD069"/>
<stop offset="1" stop-color="#A8D86D"/>
</linearGradient>
<linearGradient id="paint4_linear" x1="102.644" y1="60.5419" x2="108.681" y2="60.5419" gradientUnits="userSpaceOnUse">
<stop stop-color="#FB9835"/>
<stop offset="1" stop-color="#FBBB3C"/>
</linearGradient>
<linearGradient id="paint5_linear" x1="59.7585" y1="83.7315" x2="65.7963" y2="83.7315" gradientUnits="userSpaceOnUse">
<stop stop-color="#FB9835"/>
<stop offset="1" stop-color="#FBBB3C"/>
</linearGradient>
</defs>
</svg>
