<svg width="1213" height="731" viewBox="0 0 1213 731" fill="none" xmlns="http://www.w3.org/2000/svg">
<path d="M197.247 1646.08C352.59 1063.64 507.932 489.978 666.263 -92.4622C442.21 -92.4622 224.133 -92.4622 0.0810547 -92.4622C3.06842 -110.023 3.06842 -124.657 6.05578 -136.365C35.9294 -244.658 68.7904 -355.878 98.664 -464.171C107.626 -493.439 116.588 -511 155.424 -511C785.757 -511 1413.1 -511 2043.44 -511C2058.37 -511 2070.32 -508.073 2088.25 -508.073C2052.4 -376.365 2016.55 -247.585 1977.71 -121.731C1974.73 -110.023 1941.87 -95.389 1923.94 -95.389C1726.78 -92.4622 1529.61 -92.4622 1332.44 -95.389C1287.63 -95.389 1269.71 -83.6817 1260.75 -42.706C1114.37 501.686 964.999 1043.15 818.618 1587.54C806.668 1628.52 791.732 1646.08 743.934 1646.08C582.616 1643.15 421.299 1646.08 259.981 1646.08C242.057 1646.08 224.133 1646.08 197.247 1646.08Z" fill="rgba(0, 74, 116, .1)"/>
</svg>
