<svg width="1773" height="929" viewBox="0 0 1773 929" fill="none" xmlns="http://www.w3.org/2000/svg">
<path d="M197.247 1646.08C352.59 1063.64 507.932 489.978 666.263 -92.4622C442.21 -92.4622 224.133 -92.4622 0.0810547 -92.4622C3.06842 -110.023 3.06842 -124.657 6.05578 -136.365C35.9294 -244.658 68.7904 -355.878 98.664 -464.171C107.626 -493.439 116.588 -511 155.424 -511C785.757 -511 1413.1 -511 2043.44 -511C2058.37 -511 2070.32 -508.073 2088.25 -508.073C2052.4 -376.365 2016.55 -247.585 1977.71 -121.731C1974.73 -110.023 1941.87 -95.389 1923.94 -95.389C1726.78 -92.4622 1529.61 -92.4622 1332.44 -95.389C1287.63 -95.389 1269.71 -83.6817 1260.75 -42.706C1114.37 501.686 964.999 1043.15 818.618 1587.54C806.668 1628.52 791.732 1646.08 743.934 1646.08C582.616 1643.15 421.299 1646.08 259.981 1646.08C242.057 1646.08 224.133 1646.08 197.247 1646.08Z" fill="rgba(0, 74, 116, .1)"/>
<path d="M1212.94 1646.06C1242.81 1526.06 1272.69 1408.98 1302.56 1294.84C1413.09 876.298 1523.63 457.76 1631.17 39.2227C1643.12 -4.6799 1661.05 -16.3872 1702.87 -13.4604C1795.48 -10.5335 1885.1 -13.4604 1977.71 -10.5335C2016.54 -10.5335 2034.47 -22.2409 2046.41 -57.3629C2085.25 -194.924 2130.06 -329.559 2171.88 -464.193C2180.85 -487.608 2183.83 -508.096 2219.68 -508.096C2491.53 -505.169 2763.38 -508.096 3035.23 -508.096C3041.21 -508.096 3050.17 -505.169 3062.12 -505.169C3053.16 -464.193 3044.19 -423.218 3032.24 -382.242C3014.32 -306.144 2990.42 -230.046 2975.48 -153.949C2966.52 -107.119 2945.61 -98.3387 2900.8 -98.3387C2706.62 -101.266 2509.46 -98.3387 2315.28 -101.265C2270.47 -101.265 2252.54 -89.5581 2243.58 -45.6556C2097.2 501.663 1950.82 1048.98 1804.44 1596.3C1792.49 1637.28 1777.55 1648.98 1735.73 1648.98C1580.39 1646.06 1425.04 1648.98 1266.71 1648.98C1254.76 1646.06 1236.84 1646.06 1212.94 1646.06Z" fill="rgba(0, 74, 116, .1)"/>
</svg>
