<svg width="88" height="88" viewBox="0 0 88 88" fill="none" xmlns="http://www.w3.org/2000/svg">
<path d="M44 1.375C20.4958 1.375 1.375 20.4971 1.375 44C1.375 67.5029 20.4958 86.625 44 86.625C67.5042 86.625 86.625 67.5029 86.625 44C86.625 20.4971 67.5042 1.375 44 1.375ZM76.868 61.2329H65.7718C67.0752 56.3778 67.8439 51.0194 67.9525 45.375H81.092C80.8816 51.0812 79.3801 56.4616 76.868 61.2329ZM50.7334 80.5021C48.9857 80.8239 47.1982 81.0232 45.375 81.0906V63.9829H62.1321C59.5471 71.6732 55.517 77.5899 50.7334 80.5021ZM25.8679 63.9829H42.625V81.0892C40.8018 81.0219 39.0143 80.8225 37.2666 80.5008C32.483 77.5899 28.4529 71.6732 25.8679 63.9829ZM6.90938 45.375H20.0489C20.1575 51.0194 20.9261 56.3791 22.2296 61.2329H11.1334C8.61988 56.4616 7.11838 51.0812 6.90938 45.375ZM11.132 26.7671H22.2283C20.9261 31.6209 20.1575 36.9806 20.0489 42.625H6.90938C7.11838 36.9188 8.61987 31.5384 11.132 26.7671ZM37.2666 7.49788C39.0143 7.17613 40.8018 6.97675 42.625 6.90938V24.0157H25.8679C28.4529 16.3267 32.483 10.4101 37.2666 7.49788ZM62.1321 24.0171H45.375V6.90938C47.1982 6.97675 48.9857 7.17613 50.7334 7.49788C55.517 10.4101 59.5471 16.3267 62.1321 24.0171ZM62.9681 26.7671C64.2991 31.57 65.0911 36.9408 65.2025 42.625H45.375V26.7671H62.9681ZM42.625 26.7671V42.625H22.7975C22.9089 36.9408 23.7009 31.57 25.0319 26.7671H42.625ZM22.7975 45.375H42.625V61.2329H25.0319C23.7009 56.43 22.9089 51.0592 22.7975 45.375ZM45.375 61.2329V45.375H65.2025C65.0911 51.0592 64.2991 56.43 62.9681 61.2329H45.375ZM67.9511 42.625C67.8425 36.9806 67.0739 31.6209 65.7704 26.7671H76.8666C79.3788 31.5384 80.8802 36.9188 81.0892 42.625H67.9511ZM75.2634 24.0171H64.9619C63.0066 17.9657 60.1906 12.8507 56.8026 9.152C64.4545 11.9721 70.9225 17.2494 75.2634 24.0171ZM31.1988 9.152C27.8108 12.8507 24.9961 17.9671 23.0395 24.0171H12.7366C17.0775 17.2494 23.5455 11.9721 31.1988 9.152ZM12.7366 63.9829H23.0381C24.9934 70.0342 27.8094 75.1493 31.1974 78.848C23.5455 76.0279 17.0775 70.7506 12.7366 63.9829ZM56.8013 78.848C60.1893 75.1493 63.0039 70.0329 64.9605 63.9829H75.262C70.9225 70.7506 64.4545 76.0279 56.8013 78.848Z" fill="#57AE5B"/>
</svg>
