<svg width="88" height="88" viewBox="0 0 88 88" fill="none" xmlns="http://www.w3.org/2000/svg">
<path d="M44 49.5C49.3157 49.5 53.625 45.1907 53.625 39.875C53.625 34.5593 49.3157 30.25 44 30.25C38.6843 30.25 34.375 34.5593 34.375 39.875C34.375 45.1907 38.6843 49.5 44 49.5Z" fill="#57AE5B"/>
<path d="M44 27.5C46.5425 27.5 48.9071 28.2724 50.875 29.5925V8.25C50.875 4.45935 47.7907 1.375 44 1.375C40.2093 1.375 37.125 4.45935 37.125 8.25V29.5925C39.0929 28.2724 41.4575 27.5 44 27.5Z" fill="#A3D9A5"/>
<path d="M31.6252 39.8751C31.6252 39.5988 31.6488 39.3285 31.6667 39.0566L13.1748 49.7337C9.89177 51.6297 8.76249 55.842 10.6578 59.1251C11.9301 61.3285 14.2457 62.5612 16.6238 62.5612C17.7893 62.5612 18.9696 62.2645 20.0499 61.6414L38.5429 50.9648C34.4523 48.9433 31.6252 44.7386 31.6252 39.8751Z" fill="#A3D9A5"/>
<path d="M74.826 49.7337L56.3342 39.0566C56.3521 39.3285 56.3756 39.5988 56.3756 39.8751C56.3756 44.7386 53.5486 48.9433 49.458 50.9649L67.951 61.6414C69.0313 62.2645 70.2116 62.5612 71.3771 62.5612C73.7552 62.5612 76.0708 61.3286 77.3431 59.1251C79.2384 55.842 78.1091 51.6297 74.826 49.7337Z" fill="#A3D9A5"/>
<path d="M45.9026 52.0879C45.2807 52.1845 44.6485 52.2498 44 52.2498C43.3514 52.2498 42.7194 52.1846 42.0975 52.088L37.525 54.7279L34.3824 85.1088C34.3421 85.4955 34.4683 85.8822 34.7288 86.1709C34.9893 86.4596 35.3606 86.6248 35.75 86.6248H52.25C52.6394 86.6248 53.0107 86.4596 53.2712 86.1709C53.5317 85.8822 53.6579 85.4955 53.6176 85.1088L50.4749 54.7275L45.9026 52.0879Z" fill="#57AE5B"/>
<path d="M16.5349 39.8762C16.512 39.8762 16.4892 39.8762 16.4657 39.8748C15.7077 39.8372 15.1229 39.1927 15.1599 38.434C15.6104 29.2898 20.4537 20.8128 28.117 15.7573C28.7534 15.3424 29.6047 15.5156 30.0223 16.148C30.4399 16.7818 30.2654 17.6345 29.6316 18.0534C22.6968 22.6283 18.314 30.2968 17.9072 38.5683C17.8709 39.3042 17.2626 39.8762 16.5349 39.8762Z" fill="#2F8132"/>
<path d="M71.4656 39.8762C70.7371 39.8762 70.1295 39.3042 70.0932 38.5683C69.6864 30.2968 65.3036 22.6283 58.3688 18.0534C57.735 17.6345 57.5605 16.7818 57.9781 16.148C58.3963 15.5156 59.249 15.3424 59.8835 15.7573C67.5467 20.8128 72.39 29.2898 72.8405 38.4341C72.8775 39.1927 72.2927 39.8372 71.5347 39.8748C71.5112 39.8762 71.4884 39.8762 71.4656 39.8762Z" fill="#2F8132"/>
</svg>
