<svg width="213" height="213" viewBox="0 0 213 213" fill="none" xmlns="http://www.w3.org/2000/svg">
<path d="M153.061 204.94H124.643V162.314H110.435V204.94H82.017C80.0536 204.94 78.4648 206.531 78.4648 208.492C78.4648 210.454 80.0536 212.045 82.017 212.045H153.061C155.024 212.045 156.613 210.454 156.613 208.492C156.613 206.531 155.024 204.94 153.061 204.94Z" fill="#EFEFEF"/>
<path d="M120 84.1657H160.375L155.515 65.2808C155.142 63.8308 154.095 62.8525 152.914 62.8525H120V84.1657Z" fill="#EFEFEF"/>
<path d="M67 116.136H115.254V91.2701H73.3539L67 116.136Z" fill="#EFEFEF"/>
<path d="M162.393 91.2701H120.493V116.136H168.747L162.393 91.2701Z" fill="#EFEFEF"/>
<path d="M177.469 150.533L170.503 123.24H120.493V155.21H174.89C175.764 155.21 176.584 154.662 177.097 153.734C177.607 152.807 177.748 151.618 177.469 150.533Z" fill="#EFEFEF"/>
<path d="M114.584 123.24H64.5748L57.6087 150.533C57.3298 151.618 57.4706 152.807 57.9805 153.734C58.4931 154.662 59.3139 155.21 60.1877 155.21H114.584V123.24Z" fill="#EFEFEF"/>
<path d="M115.375 84.1657V62.8525H82.4616C81.2804 62.8525 80.233 63.8308 79.8607 65.2808L75 84.1657H115.375Z" fill="#EFEFEF"/>
<path d="M16.2256 169.366C18.0426 164.303 20.2519 159.389 22.8334 154.669C23.1534 154.073 23.5178 153.507 23.8575 152.921C24.1973 152.335 24.5419 151.754 24.9211 151.197C25.6892 150.08 26.3982 148.937 27.2648 147.879C28.1314 146.82 28.9783 145.766 29.8745 144.737L31.3221 143.285C31.8144 142.792 32.3511 142.374 32.8632 141.916C34.9843 140.113 37.415 138.71 40.0373 137.775C42.7275 136.863 45.5915 136.582 48.4078 136.953C49.7931 137.169 51.156 137.51 52.4798 137.972C53.7846 138.415 55.0451 138.927 56.2761 139.385C57.4755 139.859 58.7102 140.237 59.9689 140.518C60.5773 140.654 61.1942 140.749 61.8154 140.803C62.123 140.833 62.432 140.847 62.7411 140.843C63.0509 140.862 63.3618 140.862 63.6717 140.843C64.2901 140.811 64.9056 140.736 65.5132 140.616L66.429 140.434C66.7343 140.375 67.0297 140.262 67.3301 140.178C67.9275 139.999 68.5143 139.787 69.0879 139.543C69.6443 139.262 70.2154 139.016 70.7472 138.681C71.279 138.346 71.7911 138.006 72.3081 137.652C72.8251 137.297 73.2928 136.884 73.7852 136.45C74.7268 135.589 75.5979 134.654 76.3899 133.654C77.9954 131.58 79.4594 129.4 80.7721 127.13C82.1294 124.757 83.6085 122.456 85.2036 120.236C86.0574 119.077 87.0311 118.011 88.1086 117.056C89.2484 116.054 90.5617 115.27 91.9837 114.741C93.4371 114.218 94.9818 113.997 96.5235 114.091C98.0784 114.196 99.5912 114.642 100.955 115.396C102.238 116.108 103.425 116.981 104.485 117.996C105.519 118.981 106.455 119.965 107.366 120.985C109.173 122.989 110.876 124.998 112.831 126.494C113.761 127.227 114.802 127.807 115.914 128.213C116.993 128.593 118.14 128.744 119.281 128.656C121.561 128.508 123.713 127.312 125.5 125.613C127.333 123.816 128.945 121.806 130.301 119.626C131.734 117.435 133.034 115.12 134.334 112.791C136.914 108.124 139.39 103.338 142.158 98.6896C144.873 93.9679 148.044 89.5235 151.626 85.4199C155.27 81.3528 159.544 77.7338 164.467 75.2374C165.691 74.61 166.954 74.0639 168.249 73.6027L169.234 73.2383C169.555 73.1099 169.884 73.0014 170.219 72.9133L172.188 72.352C174.841 71.6778 177.557 71.2801 180.293 71.1654L181.312 71.1112C181.652 71.1112 181.991 71.1112 182.331 71.1112L184.375 71.1408L186.403 71.2835C186.743 71.2835 187.083 71.3279 187.417 71.3623L188.427 71.4903C191.113 71.8134 193.773 72.3218 196.389 73.0118C199.003 73.6864 201.559 74.5382 204.09 75.4737C206.62 76.4093 209.068 77.4974 211.475 78.6348C208.99 77.6304 206.473 76.7162 203.922 75.8923C201.367 75.0995 198.792 74.3708 196.182 73.8242C193.583 73.2665 190.952 72.8734 188.304 72.6474L187.319 72.5588C186.989 72.5588 186.659 72.5342 186.334 72.5194L184.365 72.4554L182.395 72.5047C182.065 72.5047 181.73 72.5047 181.41 72.5391L180.426 72.6277C177.801 72.8279 175.203 73.2914 172.671 74.0113L170.8 74.6022C170.485 74.6934 170.177 74.807 169.879 74.9419L168.973 75.3112C167.754 75.7849 166.568 76.3393 165.423 76.9706C160.848 79.5445 156.78 82.9299 153.418 86.961C150.04 91.0298 147.04 95.3991 144.457 100.014C141.793 104.618 139.4 109.399 136.85 114.15C135.579 116.529 134.24 118.892 132.758 121.201C131.283 123.584 129.527 125.781 127.529 127.745C126.462 128.768 125.257 129.637 123.949 130.325C122.585 131.039 121.092 131.472 119.557 131.596C118.017 131.717 116.468 131.519 115.008 131.015C113.586 130.514 112.256 129.785 111.068 128.858C108.764 127.066 106.996 124.919 105.224 122.949C103.451 120.98 101.689 119.069 99.6206 117.952C98.6276 117.39 97.5232 117.054 96.3856 116.967C95.2414 116.906 94.0965 117.073 93.0177 117.459C90.8512 118.213 89.0442 119.956 87.4882 121.969C85.9257 124.09 84.4745 126.291 83.1405 128.563C81.7357 130.917 80.1729 133.174 78.4629 135.318C77.576 136.41 76.6011 137.428 75.5479 138.361C74.4883 139.324 73.32 140.16 72.0668 140.852C70.8204 141.569 69.4865 142.122 68.0982 142.497C67.7535 142.586 67.4138 142.704 67.0592 142.763L66.0006 142.955C65.2889 143.074 64.5701 143.147 63.8489 143.172C60.9438 143.28 58.1028 142.428 55.6064 141.404C54.3311 140.911 53.1445 140.38 51.8938 139.927C50.6941 139.479 49.4588 139.133 48.201 138.893C45.6485 138.467 43.0321 138.643 40.5592 139.405C38.0935 140.208 35.7921 141.447 33.7643 143.063C33.2719 143.482 32.7254 143.856 32.2527 144.309L30.8051 145.653C29.904 146.638 28.9783 147.559 28.161 148.607C27.3436 149.656 26.5361 150.705 25.7434 151.769C25.3445 152.305 25.0048 152.876 24.6306 153.428C24.2564 153.979 23.8772 154.531 23.5375 155.102L22.5133 156.82C22.1736 157.396 21.8191 157.963 21.5286 158.559L20.5783 160.326C20.2582 160.912 19.9431 161.503 19.6575 162.109C19.0716 163.31 18.4512 164.502 17.8948 165.718L16.2256 169.366Z" fill="#735CD2"/>
<path opacity="0.1" d="M17.2334 175.879C19.0505 170.816 21.2598 165.902 23.8412 161.182C24.1612 160.586 24.5256 160.02 24.8653 159.434C25.2051 158.848 25.5498 158.267 25.9289 157.71C26.697 156.593 27.406 155.45 28.2726 154.392C29.1392 153.333 29.9861 152.279 30.8823 151.25L32.3299 149.798C32.8223 149.305 33.359 148.887 33.871 148.429C35.9921 146.626 38.4229 145.223 41.0451 144.288C43.7353 143.376 46.5993 143.094 49.4156 143.466C50.8009 143.682 52.1638 144.023 53.4876 144.485C54.7924 144.928 56.0529 145.44 57.2839 145.898C58.4833 146.372 59.718 146.75 60.9767 147.031C61.5851 147.167 62.202 147.262 62.8232 147.316C63.1308 147.346 63.4398 147.359 63.7489 147.355C64.0588 147.375 64.3696 147.375 64.6795 147.355C65.298 147.324 65.9134 147.249 66.521 147.129L67.4368 146.947C67.7421 146.888 68.0375 146.774 68.3379 146.691C68.9353 146.512 69.5222 146.3 70.0957 146.056C70.6521 145.775 71.2232 145.529 71.755 145.194C72.2868 144.859 72.7989 144.519 73.3159 144.165C73.8329 143.81 74.3006 143.397 74.793 142.963C75.7347 142.102 76.6057 141.167 77.3977 140.167C79.0032 138.093 80.4673 135.913 81.7799 133.643C83.1372 131.27 84.6163 128.969 86.2114 126.749C87.0652 125.59 88.0389 124.524 89.1165 123.568C90.2562 122.567 91.5695 121.783 92.9915 121.254C94.4449 120.731 95.9896 120.51 97.5313 120.604C99.0862 120.709 100.599 121.155 101.963 121.909C103.246 122.621 104.433 123.494 105.493 124.509C106.527 125.494 107.463 126.478 108.374 127.498C110.181 129.502 111.884 131.511 113.839 133.007C114.769 133.74 115.809 134.32 116.921 134.726C118.001 135.106 119.148 135.257 120.289 135.169C122.569 135.021 124.721 133.825 126.508 132.126C128.341 130.329 129.953 128.319 131.309 126.139C132.742 123.948 134.042 121.633 135.341 119.304C137.921 114.637 140.398 109.851 143.165 105.203C145.881 100.481 149.052 96.0364 152.634 91.9328C156.278 87.8657 160.551 84.2467 165.475 81.7503C166.699 81.1229 167.962 80.5768 169.257 80.1156L170.242 79.7512C170.563 79.6229 170.892 79.5144 171.226 79.4263L173.196 78.865C175.849 78.1907 178.565 77.7931 181.3 77.6783L182.32 77.6241C182.659 77.6241 182.999 77.6241 183.339 77.6241L185.382 77.6537L187.411 77.7965C187.751 77.7965 188.09 77.8408 188.425 77.8753L189.435 78.0033C192.12 78.3263 194.781 78.8347 197.397 79.5247C200.011 80.1993 202.567 81.0511 205.097 81.9867C207.628 82.9222 210.075 84.0104 212.483 85.1478C209.998 84.1433 207.481 83.2291 204.93 82.4052C202.374 81.6125 199.799 80.8837 197.19 80.3372C194.591 79.7794 191.96 79.3864 189.312 79.1604L188.327 79.0718C187.997 79.0718 187.667 79.0471 187.342 79.0324L185.372 78.9684L183.403 79.0176C183.073 79.0176 182.738 79.0176 182.418 79.0521L181.433 79.1407C178.809 79.3408 176.21 79.8044 173.678 80.5243L171.807 81.1151C171.493 81.2064 171.185 81.3199 170.887 81.4549L169.981 81.8242C168.762 82.2979 167.576 82.8522 166.431 83.4835C161.856 86.0575 157.788 89.4428 154.426 93.474C151.047 97.5428 148.048 101.912 145.465 106.527C142.801 111.131 140.408 115.912 137.857 120.663C136.587 123.042 135.248 125.405 133.766 127.714C132.29 130.097 130.535 132.294 128.537 134.258C127.47 135.281 126.265 136.15 124.957 136.838C123.593 137.552 122.099 137.984 120.565 138.109C119.025 138.229 117.476 138.032 116.015 137.528C114.594 137.027 113.264 136.298 112.076 135.371C109.772 133.579 108.004 131.432 106.232 129.462C104.459 127.493 102.696 125.582 100.628 124.465C99.6354 123.903 98.531 123.567 97.3934 123.48C96.2492 123.419 95.1043 123.586 94.0255 123.972C91.859 124.726 90.052 126.469 88.4961 128.482C86.9335 130.603 85.4823 132.804 84.1483 135.075C82.7435 137.43 81.1807 139.687 79.4707 141.831C78.5838 142.923 77.6089 143.941 76.5558 144.874C75.4961 145.837 74.3278 146.673 73.0746 147.365C71.8282 148.082 70.4943 148.635 69.106 149.01C68.7613 149.099 68.4216 149.217 68.0671 149.276L67.0084 149.468C66.2967 149.587 65.5779 149.66 64.8567 149.684C61.9517 149.793 59.1106 148.941 56.6142 147.917C55.339 147.424 54.1523 146.893 52.9017 146.44C51.7019 145.992 50.4666 145.646 49.2088 145.406C46.6563 144.98 44.0399 145.156 41.567 145.918C39.1013 146.721 36.7999 147.96 34.7721 149.576C34.2797 149.995 33.7332 150.369 33.2605 150.822L31.8129 152.166C30.9118 153.151 29.9861 154.072 29.1688 155.12C28.3514 156.169 27.5439 157.218 26.7512 158.281C26.3523 158.818 26.0126 159.389 25.6384 159.941C25.2642 160.492 24.885 161.044 24.5453 161.615L23.5211 163.333C23.1814 163.909 22.8269 164.476 22.5364 165.071L21.5861 166.839C21.266 167.425 20.9509 168.016 20.6653 168.622C20.0794 169.823 19.459 171.015 18.9026 172.231L17.2334 175.879Z" fill="#735CD2"/>
<path opacity="0.11" d="M171.382 56C186.504 56 198.763 43.7408 198.763 28.6183C198.763 13.4958 186.504 1.23657 171.382 1.23657C156.259 1.23657 144 13.4958 144 28.6183C144 43.7408 156.259 56 171.382 56Z" fill="url(#paint0_linear)"/>
<path d="M185.342 54.7635C200.464 54.7635 212.723 42.5042 212.723 27.3817C212.723 12.2592 200.464 0 185.342 0C170.219 0 157.96 12.2592 157.96 27.3817C157.96 42.5042 170.219 54.7635 185.342 54.7635Z" fill="url(#paint1_linear)"/>
<path d="M173.25 26.5905H170.591C170.223 26.5905 169.926 26.8883 169.926 27.2552C169.926 27.6222 170.223 27.92 170.591 27.92H173.25C173.617 27.92 173.914 27.6222 173.914 27.2552C173.914 26.8883 173.617 26.5905 173.25 26.5905Z" fill="#FAFAFD"/>
<path d="M176.284 19.2643C176.413 19.3939 176.583 19.459 176.754 19.459C176.924 19.459 177.094 19.3939 177.224 19.2643C177.483 19.0043 177.483 18.5836 177.224 18.3243L175.343 16.4443C175.083 16.1844 174.663 16.1844 174.403 16.4443C174.143 16.7043 174.143 17.1251 174.403 17.3843L176.284 19.2643Z" fill="#FAFAFD"/>
<path d="M185.215 15.9543C185.582 15.9543 185.879 15.6565 185.879 15.2895V12.6305C185.879 12.2635 185.582 11.9657 185.215 11.9657C184.847 11.9657 184.55 12.2635 184.55 12.6305V15.2895C184.55 15.6565 184.847 15.9543 185.215 15.9543Z" fill="#FAFAFD"/>
<path d="M195.087 16.4443L193.207 18.3243C192.947 18.5836 192.947 19.0043 193.207 19.2643C193.336 19.3939 193.506 19.459 193.677 19.459C193.847 19.459 194.017 19.3939 194.147 19.2643L196.027 17.3843C196.287 17.1251 196.287 16.7043 196.027 16.4443C195.767 16.1844 195.347 16.1844 195.087 16.4443Z" fill="#FAFAFD"/>
<path d="M199.84 26.5905H197.181C196.814 26.5905 196.517 26.8883 196.517 27.2552C196.517 27.6222 196.814 27.92 197.181 27.92H199.84C200.208 27.92 200.505 27.6222 200.505 27.2552C200.505 26.8883 200.208 26.5905 199.84 26.5905Z" fill="#FAFAFD"/>
<path d="M194.147 35.2465C193.887 34.9865 193.467 34.9865 193.207 35.2465C192.947 35.5064 192.947 35.9272 193.207 36.1864L195.087 38.0664C195.217 38.196 195.387 38.2612 195.557 38.2612C195.727 38.2612 195.898 38.196 196.027 38.0664C196.287 37.8065 196.287 37.3857 196.027 37.1264L194.147 35.2465Z" fill="#FAFAFD"/>
<path d="M185.215 38.5563C184.847 38.5563 184.55 38.8541 184.55 39.221V41.8801C184.55 42.2471 184.847 42.5449 185.215 42.5449C185.582 42.5449 185.879 42.2471 185.879 41.8801V39.221C185.879 38.8541 185.582 38.5563 185.215 38.5563Z" fill="#FAFAFD"/>
<path d="M176.284 35.2465L174.403 37.1264C174.143 37.3857 174.143 37.8065 174.403 38.0664C174.533 38.196 174.703 38.2612 174.873 38.2612C175.043 38.2612 175.213 38.196 175.343 38.0664L177.224 36.1864C177.483 35.9272 177.483 35.5064 177.224 35.2465C176.964 34.9865 176.543 34.9865 176.284 35.2465Z" fill="#FAFAFD"/>
<path d="M185.215 18.6134C180.45 18.6134 176.573 22.4903 176.573 27.2554C176.573 32.0204 180.45 35.8973 185.215 35.8973C189.98 35.8973 193.857 32.0204 193.857 27.2554C193.857 22.4903 189.98 18.6134 185.215 18.6134Z" fill="#FAFAFD"/>
<path opacity="0.1" d="M44.2653 171.669H6.22865C2.78866 171.669 0 174.458 0 177.898V197.485C0 200.925 2.78866 203.714 6.22865 203.714H44.2653C47.7053 203.714 50.4939 200.925 50.4939 197.485V177.898C50.4939 174.458 47.7053 171.669 44.2653 171.669Z" fill="url(#paint2_linear)"/>
<path d="M53.8421 180.04H16.0763C12.6363 180.04 9.84766 182.828 9.84766 186.268V205.816C9.84766 209.256 12.6363 212.045 16.0763 212.045H53.8421C57.2821 212.045 60.0708 209.256 60.0708 205.816V186.268C60.0708 182.828 57.2821 180.04 53.8421 180.04Z" fill="url(#paint3_linear)"/>
<path d="M25.1115 185.948H19.2029C18.1152 185.948 17.2334 186.83 17.2334 187.918V204.167C17.2334 205.254 18.1152 206.136 19.2029 206.136H25.1115C26.1993 206.136 27.0811 205.254 27.0811 204.167V187.918C27.0811 186.83 26.1993 185.948 25.1115 185.948Z" fill="#FAFAFD"/>
<path d="M37.9133 185.948H32.0047C30.9169 185.948 30.0352 186.83 30.0352 187.918V204.167C30.0352 205.254 30.9169 206.136 32.0047 206.136H37.9133C39.001 206.136 39.8828 205.254 39.8828 204.167V187.918C39.8828 186.83 39.001 185.948 37.9133 185.948Z" fill="#FAFAFD"/>
<path opacity="0.24" d="M50.715 185.948H44.8064C43.7187 185.948 42.8369 186.83 42.8369 187.918V204.167C42.8369 205.254 43.7187 206.136 44.8064 206.136H50.715C51.8028 206.136 52.6846 205.254 52.6846 204.167V187.918C52.6846 186.83 51.8028 185.948 50.715 185.948Z" fill="white"/>
<path d="M159.778 84.5175C162.362 84.5175 164.456 82.4233 164.456 79.8399C164.456 77.2565 162.362 75.1622 159.778 75.1622C157.195 75.1622 155.101 77.2565 155.101 79.8399C155.101 82.4233 157.195 84.5175 159.778 84.5175Z" fill="url(#paint4_linear)"/>
<path d="M93.3065 120.461C95.8899 120.461 97.9842 118.367 97.9842 115.784C97.9842 113.2 95.8899 111.106 93.3065 111.106C90.7232 111.106 88.6289 113.2 88.6289 115.784C88.6289 118.367 90.7232 120.461 93.3065 120.461Z" fill="url(#paint5_linear)"/>
<defs>
<linearGradient id="paint0_linear" x1="172.06" y1="9.75223" x2="170.451" y2="54.4179" gradientUnits="userSpaceOnUse">
<stop stop-color="#FB9835"/>
<stop offset="1" stop-color="#FBBB3C"/>
</linearGradient>
<linearGradient id="paint1_linear" x1="240.105" y1="27.3817" x2="185.342" y2="-27.3817" gradientUnits="userSpaceOnUse">
<stop stop-color="#FF8359"/>
<stop offset="1" stop-color="#FFDF40"/>
</linearGradient>
<linearGradient id="paint2_linear" x1="25.2652" y1="224.543" x2="25.2652" y2="166.924" gradientUnits="userSpaceOnUse">
<stop stop-color="#60B05B"/>
<stop offset="0.25" stop-color="#75BC60"/>
<stop offset="0.74" stop-color="#9AD069"/>
<stop offset="1" stop-color="#A8D86D"/>
</linearGradient>
<linearGradient id="paint3_linear" x1="34.9773" y1="232.848" x2="34.9773" y2="175.301" gradientUnits="userSpaceOnUse">
<stop stop-color="#60B05B"/>
<stop offset="0.25" stop-color="#75BC60"/>
<stop offset="0.74" stop-color="#9AD069"/>
<stop offset="1" stop-color="#A8D86D"/>
</linearGradient>
<linearGradient id="paint4_linear" x1="155.097" y1="79.8399" x2="164.456" y2="79.8399" gradientUnits="userSpaceOnUse">
<stop stop-color="#FB9835"/>
<stop offset="1" stop-color="#FBBB3C"/>
</linearGradient>
<linearGradient id="paint5_linear" x1="88.6255" y1="115.784" x2="97.9842" y2="115.784" gradientUnits="userSpaceOnUse">
<stop stop-color="#FB9835"/>
<stop offset="1" stop-color="#FBBB3C"/>
</linearGradient>
</defs>
</svg>
