<svg width="508" height="414" viewBox="0 0 508 414" fill="none" xmlns="http://www.w3.org/2000/svg">
<path opacity="0.3" d="M13.62 397.857C21.1421 397.857 27.24 394.348 27.24 390.02C27.24 385.692 21.1421 382.183 13.62 382.183C6.09788 382.183 0 385.692 0 390.02C0 394.348 6.09788 397.857 13.62 397.857Z" fill="#FF5A6F"/>
<path opacity="0.3" d="M41.33 413.812C48.8521 413.812 54.95 410.303 54.95 405.974C54.95 401.646 48.8521 398.137 41.33 398.137C33.8078 398.137 27.71 401.646 27.71 405.974C27.71 410.303 33.8078 413.812 41.33 413.812Z" fill="#FFAD6F"/>
<path d="M42.8301 405.974H39.8301V372.071C39.8382 366.944 41.1955 361.908 43.7662 357.467C46.337 353.027 50.0313 349.336 54.4801 346.764L241.19 239.284L242.69 241.866L55.9801 349.357C51.9876 351.666 48.6722 354.978 46.3647 358.964C44.0573 362.95 42.8385 367.469 42.8301 372.071V405.974Z" fill="#FFAD6F"/>
<path d="M15.1006 390.02H12.1006V356.117C12.1095 350.991 13.4671 345.957 16.0378 341.518C18.6086 337.079 22.3026 333.39 26.7506 330.82L213.461 223.33L214.961 225.922L28.2706 333.403C24.2751 335.71 20.9562 339.021 18.6453 343.007C16.3343 346.993 15.1121 351.513 15.1006 356.117V390.02Z" fill="#FF5A6F"/>
<path d="M18.2708 390.02C18.2708 391.495 16.1907 392.692 13.6207 392.692C11.0507 392.692 8.9707 391.495 8.9707 390.02C8.9707 388.544 11.0507 387.348 13.6207 387.348C16.1907 387.348 18.2708 388.544 18.2708 390.02Z" fill="#FF5A6F"/>
<path d="M45.9807 405.974C45.9807 407.45 43.9007 408.646 41.3307 408.646C38.7607 408.646 36.6807 407.45 36.6807 405.974C36.6807 404.498 38.7607 403.292 41.3307 403.292C43.9007 403.292 45.9807 404.488 45.9807 405.974Z" fill="#FFAD6F"/>
<path style="mix-blend-mode:multiply" d="M293.124 120.2H224.85L426.367 236.21C428.44 237.403 430.161 239.12 431.357 241.187C432.554 243.254 433.184 245.599 433.184 247.986C433.184 250.372 432.554 252.717 431.357 254.784C430.161 256.851 428.44 258.567 426.367 259.761L224.85 375.793H293.124C299.772 375.794 306.303 374.047 312.058 370.729L498.997 263.122C501.661 261.59 503.873 259.386 505.411 256.73C506.95 254.075 507.76 251.063 507.76 247.996C507.76 244.93 506.95 241.918 505.411 239.262C503.873 236.607 501.661 234.402 498.997 232.87L312.058 125.263C306.303 121.946 299.772 120.199 293.124 120.2Z" fill="url(#paint0_linear)"/>
<g style="mix-blend-mode:multiply">
<path d="M442.674 250.354C442.323 245.137 438.296 239.68 430.897 235.402L250.613 131.724C236.341 123.517 214.758 122.622 202.456 129.738L15.3422 237.563C9.45386 240.968 6.71756 245.573 7.0459 250.354C7.37425 255.592 11.4239 261.027 18.8226 265.327L199.085 369.005C213.357 377.212 234.94 378.085 247.242 370.969L434.355 263.144C440.266 259.761 442.936 255.134 442.674 250.354Z" fill="#9295B2"/>
</g>
<path d="M442.674 247.08V229.247L369.519 264.694L250.592 196.31C236.32 188.103 214.736 187.208 202.434 194.324L80.2676 264.738L7.02463 229.247V245.748C6.99179 246.192 6.99179 246.637 7.02463 247.08C7.35297 252.296 11.4026 257.731 18.8013 262.031L199.063 365.709C206.987 370.021 215.845 372.343 224.871 372.475C232.631 372.885 240.36 371.227 247.265 367.674L434.378 259.87C440.245 256.465 442.937 251.969 442.674 247.08Z" fill="url(#paint1_linear)"/>
<path d="M442.674 229.247C442.323 224.009 438.296 218.574 430.897 214.296L250.613 110.618C236.341 102.411 214.758 101.516 202.456 108.632L15.3422 216.457C9.45386 219.862 6.71756 224.467 7.0459 229.247C7.37425 234.486 11.4239 239.92 18.8226 244.199L199.085 347.898C213.357 356.105 234.94 356.978 247.242 349.863L434.355 242.038C440.266 238.633 442.936 234.027 442.674 229.247Z" fill="white"/>
<path d="M442.674 227.108C442.323 221.87 438.296 216.435 430.897 212.157L250.613 108.457C236.341 100.25 214.758 99.377 202.456 106.493L15.3422 214.318C9.45386 217.723 6.71756 222.328 7.0459 227.108C7.37425 232.347 11.4239 237.781 18.8226 242.059L199.085 345.737C213.357 353.944 234.94 354.839 247.242 347.724L434.355 239.899C440.266 236.494 442.936 231.888 442.674 227.108Z" fill="url(#paint2_linear)"/>
<path d="M224.43 316.136C227.59 317.951 228.66 319.387 227.65 321.72C226.952 323.12 225.824 324.263 224.43 324.981C219.64 327.733 211.88 327.733 207.09 324.981C205.697 324.263 204.569 323.12 203.87 321.72C202.87 319.387 203.93 317.951 207.09 316.136C211.89 313.374 219.64 313.374 224.43 316.136Z" fill="#FE5F70"/>
<path d="M207.09 318.45C211.88 315.688 219.64 315.688 224.43 318.45C225.821 319.168 226.945 320.31 227.64 321.71C228.64 319.387 227.64 316.824 224.43 315C219.64 312.248 211.88 312.248 207.09 315C203.93 316.824 202.87 319.387 203.88 321.71C204.568 320.306 205.695 319.162 207.09 318.45Z" fill="#44CBCF"/>
<path d="M290.2 148.369H216.61V162.728H290.2V148.369Z" fill="url(#paint3_linear)"/>
<path d="M219.19 48.7358C218.995 48.7345 218.806 48.6691 218.651 48.5498C218.497 48.4306 218.386 48.264 218.336 48.0758C218.286 47.8876 218.3 47.6882 218.375 47.5084C218.449 47.3285 218.581 47.1782 218.75 47.0806L258.06 24.6549C258.265 24.5394 258.507 24.5092 258.733 24.5708C258.96 24.6325 259.153 24.781 259.27 24.984C259.329 25.0846 259.367 25.1958 259.382 25.3112C259.397 25.4266 259.389 25.5439 259.359 25.6562C259.328 25.7684 259.275 25.8735 259.203 25.9653C259.132 26.057 259.042 26.1336 258.94 26.1905L219.64 48.6162C219.503 48.6939 219.348 48.7351 219.19 48.7358Z" fill="#020256"/>
<path d="M272.16 24.2862L247.36 38.5652V25.9514L261.79 9.56853L272.16 3.5957V24.2862Z" fill="url(#paint4_linear)"/>
<path d="M225.06 154.721C224.823 154.548 224.576 154.388 224.32 154.242C222.287 153.21 220.037 152.672 217.755 152.672C215.473 152.672 213.224 153.21 211.19 154.242C210.933 154.386 210.686 154.545 210.45 154.721H208.45V158.021C208.45 159.388 209.36 160.754 211.17 161.801C213.205 162.828 215.454 163.364 217.735 163.364C220.016 163.364 222.265 162.828 224.3 161.801C226.11 160.803 227.02 159.388 227.02 158.021V154.721H225.06Z" fill="#42E1BE"/>
<path d="M227.03 154.581L223.71 52.8242H211.79L208.47 154.581C208.41 155.997 209.31 157.423 211.19 158.5C213.225 159.528 215.474 160.063 217.755 160.063C220.036 160.063 222.285 159.528 224.32 158.5C226.19 157.423 227.1 155.997 227.03 154.581Z" fill="url(#paint5_linear)"/>
<path d="M217.75 56.3438C221.042 56.3438 223.71 54.808 223.71 52.9136C223.71 51.0191 221.042 49.4834 217.75 49.4834C214.458 49.4834 211.79 51.0191 211.79 52.9136C211.79 54.808 214.458 56.3438 217.75 56.3438Z" fill="#D2D4F8"/>
<path d="M229.07 49.6131C229.07 46.2827 226.37 42.0249 223.07 40.1005C221.24 39.1034 219.6 38.9239 218.49 39.562L206.86 46.2627L216 59.4248L227.64 52.7241C228.138 52.3823 228.534 51.9127 228.785 51.3651C229.037 50.8174 229.136 50.212 229.07 49.6131Z" fill="url(#paint6_linear)"/>
<path d="M216.456 60.141C218.466 58.6376 217.936 54.5474 215.272 51.0053C212.608 47.4633 208.818 45.8106 206.808 47.314C204.798 48.8174 205.328 52.9075 207.992 56.4496C210.656 59.9917 214.446 61.6444 216.456 60.141Z" fill="#D2D4F8"/>
<path d="M212.33 52.1855L258.65 105.522L258.2 106.041C258.067 106.178 257.904 106.285 257.725 106.352C257.546 106.42 257.353 106.447 257.162 106.431C256.971 106.416 256.786 106.359 256.619 106.264C256.453 106.169 256.31 106.038 256.2 105.881L214.01 61.4091L210.63 54.1L212.33 52.1855Z" fill="url(#paint7_linear)"/>
<path d="M209.01 50.2715H162.68L163.14 51.2686C163.62 52.3854 164.49 53.2628 165.14 53.3626L207.33 57.4707L210.71 54.0506L209.01 50.2715Z" fill="url(#paint8_linear)"/>
<path d="M212.62 55.197V1.87071L211.72 1.34224C210.72 0.783846 209.95 0.863614 209.89 1.51175L206.33 45.9836L209.33 53.2825L212.62 55.197Z" fill="url(#paint9_linear)"/>
<path d="M214.41 54.5688C214.41 56.234 213.06 56.8024 211.41 55.8452C210.573 55.3423 209.866 54.6512 209.345 53.827C208.824 53.0029 208.504 52.0686 208.41 51.0989C208.41 49.4337 209.76 48.8653 211.41 49.8226C212.247 50.3254 212.954 51.0165 213.475 51.8407C213.996 52.6649 214.316 53.5992 214.41 54.5688Z" fill="url(#paint10_linear)"/>
<path d="M214.41 54.5688C214.41 56.234 213.06 56.8024 211.41 55.8452C210.573 55.3423 209.866 54.6512 209.345 53.827C208.824 53.0029 208.504 52.0686 208.41 51.0989C208.41 49.4337 209.76 48.8653 211.41 49.8226C212.247 50.3254 212.954 51.0165 213.475 51.8407C213.996 52.6649 214.316 53.5992 214.41 54.5688Z" fill="#020256"/>
<path d="M165.53 221.499H91.9395V235.857H165.53V221.499Z" fill="url(#paint11_linear)"/>
<path d="M95.5105 121.227C95.3535 121.228 95.199 121.188 95.0634 121.109C94.9278 121.03 94.8163 120.915 94.7405 120.778C94.6818 120.678 94.6437 120.566 94.6286 120.451C94.6134 120.336 94.6214 120.218 94.6521 120.106C94.6828 119.994 94.7356 119.889 94.8074 119.797C94.8793 119.705 94.9687 119.629 95.0705 119.572L134.38 97.1464C134.481 97.0878 134.593 97.0499 134.709 97.0348C134.824 97.0197 134.942 97.0276 135.055 97.0583C135.167 97.0889 135.273 97.1416 135.365 97.2132C135.457 97.2848 135.533 97.3739 135.59 97.4754C135.706 97.6793 135.737 97.9205 135.675 98.1465C135.613 98.3725 135.464 98.565 135.26 98.682L95.9505 121.107C95.8169 121.185 95.6651 121.226 95.5105 121.227Z" fill="#020256"/>
<path d="M148.48 96.7777L123.68 111.047V98.4428L138.11 82.05L148.48 76.0771V96.7777Z" fill="url(#paint12_linear)"/>
<path d="M101.38 227.212C101.15 227.042 100.9 226.883 100.64 226.723C98.6046 225.696 96.3556 225.16 94.0746 225.16C91.7935 225.16 89.5445 225.696 87.5095 226.723C87.2546 226.873 87.0076 227.037 86.7695 227.212H84.7695V230.502C84.7695 231.878 85.6695 233.245 87.4895 234.282C89.5231 235.314 91.7727 235.852 94.0546 235.852C96.3365 235.852 98.586 235.314 100.62 234.282C102.43 233.284 103.34 231.878 103.34 230.502V227.212H101.38Z" fill="#42E1BE"/>
<path d="M103.35 227.063L100.03 125.355H88.1099L84.7899 227.063C84.7299 228.479 85.6299 229.905 87.5099 230.991C89.5448 232.019 91.7938 232.555 94.0749 232.555C96.3559 232.555 98.6049 232.019 100.64 230.991C102.51 229.905 103.41 228.459 103.35 227.063Z" fill="url(#paint13_linear)"/>
<path d="M94.0704 128.835C97.362 128.835 100.03 127.299 100.03 125.405C100.03 123.51 97.362 121.975 94.0704 121.975C90.7787 121.975 88.1104 123.51 88.1104 125.405C88.1104 127.299 90.7787 128.835 94.0704 128.835Z" fill="#D2D4F8"/>
<path d="M105.39 122.104C105.39 118.774 102.69 114.516 99.3896 112.592C97.5596 111.545 95.9196 111.405 94.8096 112.043L83.1396 118.774L92.2796 131.926L103.89 125.205C104.399 124.874 104.808 124.41 105.073 123.863C105.337 123.316 105.447 122.708 105.39 122.104Z" fill="url(#paint14_linear)"/>
<path d="M92.5424 131.725C94.5506 130.218 94.0148 126.129 91.3456 122.591C88.6764 119.052 84.8846 117.405 82.8764 118.911C80.8682 120.417 81.404 124.507 84.0732 128.045C86.7424 131.583 90.5342 133.231 92.5424 131.725Z" fill="#D2D4F8"/>
<path d="M88.65 124.677L134.97 178.014L134.52 178.532C134.386 178.668 134.223 178.773 134.044 178.839C133.865 178.906 133.673 178.932 133.483 178.917C133.292 178.902 133.107 178.845 132.941 178.751C132.774 178.657 132.631 178.528 132.52 178.372L90.34 133.9L86.96 126.591L88.65 124.677Z" fill="url(#paint15_linear)"/>
<path d="M85.32 122.763H39L39.45 123.76C39.94 124.877 40.8 125.754 41.45 125.864L83.64 129.972L87.02 126.552L85.32 122.763Z" fill="url(#paint16_linear)"/>
<path d="M88.9403 127.688V74.3523L88.0403 73.8338C87.0403 73.2754 86.2604 73.3452 86.2104 73.9933L82.6504 118.465L85.6504 125.774L88.9403 127.688Z" fill="url(#paint17_linear)"/>
<path d="M90.7305 127.06C90.7305 128.725 89.3805 129.294 87.7305 128.336C86.8934 127.831 86.1863 127.138 85.6654 126.312C85.1446 125.487 84.8244 124.551 84.7305 123.58C84.7305 121.915 86.0805 121.346 87.7305 122.313C88.5683 122.815 89.2763 123.506 89.7974 124.33C90.3185 125.155 90.6381 126.09 90.7305 127.06Z" fill="url(#paint18_linear)"/>
<path d="M90.7305 127.06C90.7305 128.725 89.3805 129.294 87.7305 128.336C86.8934 127.831 86.1863 127.138 85.6654 126.312C85.1446 125.487 84.8244 124.551 84.7305 123.58C84.7305 121.915 86.0805 121.346 87.7305 122.313C88.5683 122.815 89.2763 123.506 89.7974 124.33C90.3185 125.155 90.6381 126.09 90.7305 127.06Z" fill="#020256"/>
<path d="M411 223.662H337.41V238.021H411V223.662Z" fill="url(#paint19_linear)"/>
<path d="M340.69 124.059C340.495 124.058 340.306 123.992 340.151 123.873C339.997 123.754 339.886 123.587 339.836 123.399C339.786 123.211 339.8 123.011 339.875 122.832C339.949 122.652 340.081 122.502 340.25 122.404L379.55 99.9785C379.652 99.9148 379.765 99.8722 379.883 99.8532C380.001 99.8341 380.122 99.839 380.238 99.8677C380.355 99.8963 380.464 99.948 380.56 100.02C380.655 100.092 380.736 100.182 380.796 100.285C380.856 100.389 380.894 100.503 380.908 100.621C380.923 100.74 380.913 100.86 380.88 100.975C380.847 101.09 380.791 101.197 380.715 101.289C380.64 101.382 380.546 101.458 380.44 101.514L341.13 123.939C340.997 124.017 340.845 124.058 340.69 124.059Z" fill="#020256"/>
<path d="M393.66 99.5996L368.86 113.878V101.275L383.29 84.882L393.66 78.9092V99.5996Z" fill="url(#paint20_linear)"/>
<path d="M346.55 230.044C346.314 229.866 346.067 229.703 345.81 229.555C343.775 228.528 341.526 227.992 339.245 227.992C336.964 227.992 334.715 228.528 332.68 229.555C332.428 229.705 332.185 229.869 331.95 230.044H329.95V233.335C329.95 234.711 330.85 236.077 332.66 237.114C334.694 238.146 336.943 238.684 339.225 238.684C341.507 238.684 343.757 238.146 345.79 237.114C347.61 236.116 348.51 234.711 348.51 233.335V230.044H346.55Z" fill="#42E1BE"/>
<path d="M348.53 229.894L345.21 128.187H333.29L329.97 229.894C329.91 231.31 330.81 232.736 332.68 233.823C334.714 234.851 336.963 235.386 339.245 235.386C341.526 235.386 343.775 234.851 345.81 233.823C347.69 232.736 348.59 231.31 348.53 229.894Z" fill="url(#paint21_linear)"/>
<path d="M339.25 131.667C342.542 131.667 345.21 130.131 345.21 128.237C345.21 126.342 342.542 124.807 339.25 124.807C335.958 124.807 333.29 126.342 333.29 128.237C333.29 130.131 335.958 131.667 339.25 131.667Z" fill="#D2D4F8"/>
<path d="M350.57 124.936C350.57 121.606 347.86 117.348 344.57 115.424C342.75 114.377 341.11 114.237 340 114.875L328.36 121.576L337.46 134.728L349.1 128.037C349.603 127.701 350.005 127.235 350.264 126.689C350.522 126.143 350.628 125.537 350.57 124.936Z" fill="url(#paint22_linear)"/>
<path d="M337.718 134.554C339.726 133.048 339.19 128.959 336.521 125.42C333.852 121.882 330.06 120.234 328.052 121.741C326.044 123.247 326.58 127.336 329.249 130.875C331.918 134.413 335.71 136.06 337.718 134.554Z" fill="#D2D4F8"/>
<path d="M333.83 127.509L380.15 180.845L379.7 181.364C379.566 181.499 379.403 181.604 379.224 181.671C379.045 181.737 378.853 181.764 378.663 181.749C378.472 181.733 378.287 181.677 378.121 181.583C377.954 181.489 377.811 181.359 377.7 181.204L335.54 136.722L332.17 129.413L333.83 127.509Z" fill="url(#paint23_linear)"/>
<path d="M330.5 125.595H284.18L284.63 126.592C285.12 127.709 285.98 128.636 286.63 128.696L328.82 132.804L332.2 129.384L330.5 125.595Z" fill="url(#paint24_linear)"/>
<path d="M334.12 130.521V77.1839L333.22 76.6653C332.22 76.1069 331.44 76.1767 331.39 76.8249L327.82 121.297L330.82 128.606L334.12 130.521Z" fill="url(#paint25_linear)"/>
<path d="M335.301 131.341C336.303 130.589 336.034 128.546 334.699 126.777C333.364 125.007 331.47 124.182 330.468 124.934C329.467 125.685 329.736 127.729 331.071 129.498C332.405 131.267 334.299 132.092 335.301 131.341Z" fill="url(#paint26_linear)"/>
<path d="M335.301 131.341C336.303 130.589 336.034 128.546 334.699 126.777C333.364 125.007 331.47 124.182 330.468 124.934C329.467 125.685 329.736 127.729 331.071 129.498C332.405 131.267 334.299 132.092 335.301 131.341Z" fill="#020256"/>
<path d="M196.2 187.766V171.144H194.2V187.766C194.209 187.856 194.242 187.942 194.294 188.015C194.347 188.089 194.418 188.147 194.5 188.185C194.723 188.298 194.97 188.357 195.22 188.357C195.47 188.357 195.717 188.298 195.94 188.185C196.015 188.142 196.078 188.081 196.123 188.008C196.169 187.935 196.195 187.852 196.2 187.766Z" fill="#0075C7"/>
<path d="M195.18 171.731C195.743 171.731 196.2 171.468 196.2 171.143C196.2 170.818 195.743 170.555 195.18 170.555C194.617 170.555 194.16 170.818 194.16 171.143C194.16 171.468 194.617 171.731 195.18 171.731Z" fill="#0075C7"/>
<path d="M202.758 178.115C206.945 173.94 206.945 167.172 202.758 162.998C198.572 158.823 191.784 158.823 187.598 162.998C183.411 167.172 183.411 173.94 187.598 178.115C191.784 182.289 198.572 182.289 202.758 178.115Z" fill="url(#paint27_linear)"/>
<path style="mix-blend-mode:multiply" d="M201.03 184.345C204.19 186.17 204.19 189.112 201.03 190.936C199.255 191.831 197.294 192.297 195.305 192.297C193.316 192.297 191.355 191.831 189.58 190.936C186.42 189.112 186.42 186.17 189.58 184.345C191.355 183.451 193.316 182.984 195.305 182.984C197.294 182.984 199.255 183.451 201.03 184.345Z" fill="url(#paint28_linear)"/>
<path d="M299.439 268.783V252.16H297.439V268.783C297.447 268.872 297.479 268.957 297.532 269.029C297.585 269.101 297.657 269.157 297.739 269.191C297.963 269.304 298.209 269.363 298.459 269.363C298.71 269.363 298.956 269.304 299.179 269.191C299.255 269.152 299.318 269.093 299.364 269.021C299.409 268.95 299.435 268.867 299.439 268.783Z" fill="#0075C7"/>
<path d="M298.42 252.749C298.984 252.749 299.44 252.485 299.44 252.16C299.44 251.835 298.984 251.572 298.42 251.572C297.857 251.572 297.4 251.835 297.4 252.16C297.4 252.485 297.857 252.749 298.42 252.749Z" fill="#0075C7"/>
<path d="M308.71 254.659C310.407 249.003 307.185 243.046 301.513 241.354C295.841 239.661 289.867 242.874 288.17 248.53C286.473 254.185 289.695 260.142 295.367 261.835C301.039 263.527 307.013 260.314 308.71 254.659Z" fill="url(#paint29_linear)"/>
<path style="mix-blend-mode:multiply" d="M304.27 265.352C307.43 267.167 307.43 270.119 304.27 271.933C302.498 272.833 300.538 273.301 298.55 273.301C296.562 273.301 294.602 272.833 292.83 271.933C289.67 270.119 289.67 267.167 292.83 265.352C294.602 264.453 296.562 263.984 298.55 263.984C300.538 263.984 302.498 264.453 304.27 265.352Z" fill="url(#paint30_linear)"/>
<path d="M235.68 292.205V275.583H233.68V292.205C233.689 292.295 233.721 292.381 233.774 292.454C233.827 292.528 233.897 292.586 233.98 292.624C234.203 292.737 234.449 292.796 234.7 292.796C234.95 292.796 235.197 292.737 235.42 292.624C235.495 292.581 235.557 292.52 235.603 292.447C235.648 292.374 235.675 292.291 235.68 292.205Z" fill="#0075C7"/>
<path d="M235.38 275.174C235.466 275.204 235.541 275.26 235.593 275.334C235.646 275.408 235.674 275.497 235.674 275.588C235.674 275.678 235.646 275.767 235.593 275.841C235.541 275.915 235.466 275.971 235.38 276.001C235.157 276.114 234.91 276.173 234.66 276.173C234.41 276.173 234.163 276.114 233.94 276.001C233.854 275.971 233.78 275.915 233.727 275.841C233.675 275.767 233.646 275.678 233.646 275.588C233.646 275.497 233.675 275.408 233.727 275.334C233.78 275.26 233.854 275.204 233.94 275.174C234.163 275.061 234.41 275.002 234.66 275.002C234.91 275.002 235.157 275.061 235.38 275.174Z" fill="#0075C7"/>
<path d="M234.66 285.684C240.58 285.684 245.38 280.898 245.38 274.995C245.38 269.091 240.58 264.305 234.66 264.305C228.739 264.305 223.939 269.091 223.939 274.995C223.939 280.898 228.739 285.684 234.66 285.684Z" fill="url(#paint31_linear)"/>
<path style="mix-blend-mode:multiply" d="M240.51 288.785C243.67 290.609 243.67 293.551 240.51 295.376C238.737 296.27 236.778 296.736 234.79 296.736C232.803 296.736 230.843 296.27 229.07 295.376C225.91 293.551 225.91 290.609 229.07 288.785C230.843 287.89 232.803 287.424 234.79 287.424C236.778 287.424 238.737 287.89 240.51 288.785Z" fill="url(#paint32_linear)"/>
<path d="M271.959 223.074V186.888H267.52V223.074C267.538 223.269 267.607 223.456 267.722 223.615C267.836 223.774 267.99 223.901 268.17 223.981C268.656 224.227 269.194 224.355 269.739 224.355C270.285 224.355 270.823 224.227 271.309 223.981C271.489 223.901 271.643 223.774 271.757 223.615C271.872 223.456 271.941 223.269 271.959 223.074Z" fill="#0075C7"/>
<path d="M271.31 185.981C271.485 186.06 271.633 186.188 271.737 186.349C271.841 186.51 271.896 186.697 271.896 186.888C271.896 187.079 271.841 187.267 271.737 187.428C271.633 187.589 271.485 187.716 271.31 187.796C270.824 188.042 270.286 188.17 269.74 188.17C269.195 188.17 268.657 188.042 268.17 187.796C267.996 187.716 267.848 187.589 267.744 187.428C267.64 187.267 267.585 187.079 267.585 186.888C267.585 186.697 267.64 186.51 267.744 186.349C267.848 186.188 267.996 186.06 268.17 185.981C268.657 185.735 269.195 185.606 269.74 185.606C270.286 185.606 270.824 185.735 271.31 185.981Z" fill="#0075C7"/>
<path d="M269.74 208.875C282.625 208.875 293.07 198.46 293.07 185.612C293.07 172.764 282.625 162.349 269.74 162.349C256.855 162.349 246.41 172.764 246.41 185.612C246.41 198.46 256.855 208.875 269.74 208.875Z" fill="url(#paint33_linear)"/>
<path style="mix-blend-mode:multiply" d="M270.02 232.946C279.752 232.946 287.64 228.406 287.64 222.805C287.64 217.204 279.752 212.664 270.02 212.664C260.289 212.664 252.4 217.204 252.4 222.805C252.4 228.406 260.289 232.946 270.02 232.946Z" fill="url(#paint34_linear)"/>
<path d="M169.59 268.723V232.527H165.15V268.723C165.17 268.916 165.241 269.101 165.355 269.258C165.469 269.416 165.623 269.54 165.8 269.62C166.287 269.866 166.825 269.994 167.37 269.994C167.916 269.994 168.454 269.866 168.94 269.62C169.118 269.54 169.272 269.416 169.386 269.258C169.5 269.101 169.571 268.916 169.59 268.723Z" fill="#0075C7"/>
<path d="M168.94 231.629C169.112 231.71 169.257 231.838 169.359 231.997C169.461 232.157 169.515 232.343 169.515 232.532C169.515 232.721 169.461 232.907 169.359 233.066C169.257 233.226 169.112 233.354 168.94 233.434C168.454 233.681 167.916 233.809 167.37 233.809C166.825 233.809 166.287 233.681 165.8 233.434C165.628 233.354 165.483 233.226 165.381 233.066C165.28 232.907 165.226 232.721 165.226 232.532C165.226 232.343 165.28 232.157 165.381 231.997C165.483 231.838 165.628 231.71 165.8 231.629C166.287 231.383 166.825 231.255 167.37 231.255C167.916 231.255 168.454 231.383 168.94 231.629Z" fill="#0075C7"/>
<path d="M167.37 254.514C180.255 254.514 190.7 244.098 190.7 231.25C190.7 218.403 180.255 207.987 167.37 207.987C154.485 207.987 144.04 218.403 144.04 231.25C144.04 244.098 154.485 254.514 167.37 254.514Z" fill="url(#paint35_linear)"/>
<path style="mix-blend-mode:multiply" d="M167.65 278.584C177.382 278.584 185.27 274.044 185.27 268.443C185.27 262.843 177.382 258.302 167.65 258.302C157.919 258.302 150.03 262.843 150.03 268.443C150.03 274.044 157.919 278.584 167.65 278.584Z" fill="url(#paint36_linear)"/>
<defs>
<linearGradient id="paint0_linear" x1="345480" y1="333204" x2="382043" y2="333204" gradientUnits="userSpaceOnUse">
<stop stop-color="#BCC0E5"/>
<stop offset="1" stop-color="#BCC0E5"/>
</linearGradient>
<linearGradient id="paint1_linear" x1="574811" y1="241459" x2="488466" y2="241459" gradientUnits="userSpaceOnUse">
<stop offset="0.4" stop-color="#BCC0E5"/>
<stop offset="0.61" stop-color="#D0D3F5"/>
</linearGradient>
<linearGradient id="paint2_linear" x1="488325" y1="324600" x2="575046" y2="324600" gradientUnits="userSpaceOnUse">
<stop stop-color="#F7F8FF"/>
<stop offset="1" stop-color="#F2F3FA"/>
</linearGradient>
<linearGradient id="paint3_linear" x1="214.247" y1="148.369" x2="273.365" y2="187.903" gradientUnits="userSpaceOnUse">
<stop stop-color="#B6BBE5"/>
<stop offset="1" stop-color="white" stop-opacity="0"/>
</linearGradient>
<linearGradient id="paint4_linear" x1="242.24" y1="30.4685" x2="275.747" y2="12.4099" gradientUnits="userSpaceOnUse">
<stop stop-color="#F5F5FD"/>
<stop offset="0.2" stop-color="#F0F4FD"/>
<stop offset="0.41" stop-color="#E3F2FD"/>
<stop offset="0.64" stop-color="#CDEDFE"/>
<stop offset="0.88" stop-color="#AEE8FF"/>
<stop offset="1" stop-color="#9BE4FF"/>
</linearGradient>
<linearGradient id="paint5_linear" x1="208.47" y1="106.45" x2="227.03" y2="106.45" gradientUnits="userSpaceOnUse">
<stop stop-color="#EFEFFC"/>
<stop offset="0.4" stop-color="#EAEBFC"/>
<stop offset="0.85" stop-color="#DDDFFB"/>
<stop offset="1" stop-color="#D7DAFB"/>
</linearGradient>
<linearGradient id="paint6_linear" x1="14097.5" y1="4904.61" x2="14178.7" y2="5048.85" gradientUnits="userSpaceOnUse">
<stop stop-color="#EFEFFC"/>
<stop offset="0.4" stop-color="#EAEBFC"/>
<stop offset="0.85" stop-color="#DDDFFB"/>
<stop offset="1" stop-color="#D7DAFB"/>
</linearGradient>
<linearGradient id="paint7_linear" x1="238.165" y1="77.2888" x2="232.089" y2="88.5085" gradientUnits="userSpaceOnUse">
<stop stop-color="#F5F5FD"/>
<stop offset="0.18" stop-color="#F0F4FD"/>
<stop offset="0.37" stop-color="#E3F0FD"/>
<stop offset="0.58" stop-color="#CDE9FE"/>
<stop offset="0.79" stop-color="#AEDFFE"/>
<stop offset="1" stop-color="#88D4FF"/>
</linearGradient>
<linearGradient id="paint8_linear" x1="-108110" y1="2024.78" x2="-108126" y2="2157.41" gradientUnits="userSpaceOnUse">
<stop stop-color="#F5F5FD"/>
<stop offset="0.18" stop-color="#F0F4FD"/>
<stop offset="0.37" stop-color="#E3F0FD"/>
<stop offset="0.58" stop-color="#CDE9FE"/>
<stop offset="0.79" stop-color="#AEDFFE"/>
<stop offset="1" stop-color="#88D4FF"/>
</linearGradient>
<linearGradient id="paint9_linear" x1="-33901" y1="-29221" x2="-33842.1" y2="-29370.9" gradientUnits="userSpaceOnUse">
<stop stop-color="#F5F5FD"/>
<stop offset="0.18" stop-color="#F0F4FD"/>
<stop offset="0.37" stop-color="#E3F0FD"/>
<stop offset="0.58" stop-color="#CDE9FE"/>
<stop offset="0.79" stop-color="#AEDFFE"/>
<stop offset="1" stop-color="#88D4FF"/>
</linearGradient>
<linearGradient id="paint10_linear" x1="3901.29" y1="1765.57" x2="3937.53" y2="1765.57" gradientUnits="userSpaceOnUse">
<stop stop-color="#F5F5FD"/>
<stop offset="0.2" stop-color="#F0F4FD"/>
<stop offset="0.41" stop-color="#E3F2FD"/>
<stop offset="0.64" stop-color="#CDEDFE"/>
<stop offset="0.88" stop-color="#AEE8FF"/>
<stop offset="1" stop-color="#9BE4FF"/>
</linearGradient>
<linearGradient id="paint11_linear" x1="89.5765" y1="221.499" x2="148.694" y2="261.032" gradientUnits="userSpaceOnUse">
<stop stop-color="#B6BBE5"/>
<stop offset="1" stop-color="white" stop-opacity="0"/>
</linearGradient>
<linearGradient id="paint12_linear" x1="13160.3" y1="10466.9" x2="14096.4" y2="10110" gradientUnits="userSpaceOnUse">
<stop stop-color="#F5F5FD"/>
<stop offset="0.2" stop-color="#F0F4FD"/>
<stop offset="0.41" stop-color="#E3F2FD"/>
<stop offset="0.64" stop-color="#CDEDFE"/>
<stop offset="0.88" stop-color="#AEE8FF"/>
<stop offset="1" stop-color="#9BE4FF"/>
</linearGradient>
<linearGradient id="paint13_linear" x1="9217.18" y1="40146" x2="9561.76" y2="40146" gradientUnits="userSpaceOnUse">
<stop stop-color="#EFEFFC"/>
<stop offset="0.4" stop-color="#EAEBFC"/>
<stop offset="0.85" stop-color="#DDDFFB"/>
<stop offset="1" stop-color="#D7DAFB"/>
</linearGradient>
<linearGradient id="paint14_linear" x1="11242" y1="6457.74" x2="11323.3" y2="6602.2" gradientUnits="userSpaceOnUse">
<stop stop-color="#EFEFFC"/>
<stop offset="0.4" stop-color="#EAEBFC"/>
<stop offset="0.85" stop-color="#DDDFFB"/>
<stop offset="1" stop-color="#D7DAFB"/>
</linearGradient>
<linearGradient id="paint15_linear" x1="42302.6" y1="58397.2" x2="42738.6" y2="59019.4" gradientUnits="userSpaceOnUse">
<stop stop-color="#F5F5FD"/>
<stop offset="0.18" stop-color="#F0F4FD"/>
<stop offset="0.37" stop-color="#E3F0FD"/>
<stop offset="0.58" stop-color="#CDE9FE"/>
<stop offset="0.79" stop-color="#AEDFFE"/>
<stop offset="1" stop-color="#88D4FF"/>
</linearGradient>
<linearGradient id="paint16_linear" x1="-115199" y1="2632.78" x2="-115215" y2="2765.52" gradientUnits="userSpaceOnUse">
<stop stop-color="#F5F5FD"/>
<stop offset="0.18" stop-color="#F0F4FD"/>
<stop offset="0.37" stop-color="#E3F0FD"/>
<stop offset="0.58" stop-color="#CDE9FE"/>
<stop offset="0.79" stop-color="#AEDFFE"/>
<stop offset="1" stop-color="#88D4FF"/>
</linearGradient>
<linearGradient id="paint17_linear" x1="-40702.9" y1="-32127.7" x2="-40644.1" y2="-32277.5" gradientUnits="userSpaceOnUse">
<stop stop-color="#F5F5FD"/>
<stop offset="0.18" stop-color="#F0F4FD"/>
<stop offset="0.37" stop-color="#E3F0FD"/>
<stop offset="0.58" stop-color="#CDE9FE"/>
<stop offset="0.79" stop-color="#AEDFFE"/>
<stop offset="1" stop-color="#88D4FF"/>
</linearGradient>
<linearGradient id="paint18_linear" x1="3035.53" y1="2345.8" x2="3071.77" y2="2345.8" gradientUnits="userSpaceOnUse">
<stop stop-color="#F5F5FD"/>
<stop offset="0.2" stop-color="#F0F4FD"/>
<stop offset="0.41" stop-color="#E3F2FD"/>
<stop offset="0.64" stop-color="#CDEDFE"/>
<stop offset="0.88" stop-color="#AEE8FF"/>
<stop offset="1" stop-color="#9BE4FF"/>
</linearGradient>
<linearGradient id="paint19_linear" x1="335.047" y1="223.662" x2="394.166" y2="263.195" gradientUnits="userSpaceOnUse">
<stop stop-color="#B6BBE5"/>
<stop offset="1" stop-color="white" stop-opacity="0"/>
</linearGradient>
<linearGradient id="paint20_linear" x1="19486" y1="10569" x2="20422.1" y2="10212.1" gradientUnits="userSpaceOnUse">
<stop stop-color="#F5F5FD"/>
<stop offset="0.2" stop-color="#F0F4FD"/>
<stop offset="0.41" stop-color="#E3F2FD"/>
<stop offset="0.64" stop-color="#CDEDFE"/>
<stop offset="0.88" stop-color="#AEE8FF"/>
<stop offset="1" stop-color="#9BE4FF"/>
</linearGradient>
<linearGradient id="paint21_linear" x1="14014.3" y1="40453.3" x2="14358.8" y2="40453.3" gradientUnits="userSpaceOnUse">
<stop stop-color="#EFEFFC"/>
<stop offset="0.4" stop-color="#EAEBFC"/>
<stop offset="0.85" stop-color="#DDDFFB"/>
<stop offset="1" stop-color="#D7DAFB"/>
</linearGradient>
<linearGradient id="paint22_linear" x1="16916.6" y1="6508.72" x2="16998" y2="6652.97" gradientUnits="userSpaceOnUse">
<stop stop-color="#EFEFFC"/>
<stop offset="0.4" stop-color="#EAEBFC"/>
<stop offset="0.85" stop-color="#DDDFFB"/>
<stop offset="1" stop-color="#D7DAFB"/>
</linearGradient>
<linearGradient id="paint23_linear" x1="49382.1" y1="45234" x2="49817.7" y2="45856" gradientUnits="userSpaceOnUse">
<stop stop-color="#F5F5FD"/>
<stop offset="0.18" stop-color="#F0F4FD"/>
<stop offset="0.37" stop-color="#E3F0FD"/>
<stop offset="0.58" stop-color="#CDE9FE"/>
<stop offset="0.79" stop-color="#AEDFFE"/>
<stop offset="1" stop-color="#88D4FF"/>
</linearGradient>
<linearGradient id="paint24_linear" x1="-103634" y1="2656.52" x2="-103650" y2="2789.18" gradientUnits="userSpaceOnUse">
<stop stop-color="#F5F5FD"/>
<stop offset="0.18" stop-color="#F0F4FD"/>
<stop offset="0.37" stop-color="#E3F0FD"/>
<stop offset="0.58" stop-color="#CDE9FE"/>
<stop offset="0.79" stop-color="#AEDFFE"/>
<stop offset="1" stop-color="#88D4FF"/>
</linearGradient>
<linearGradient id="paint25_linear" x1="-27371.2" y1="-25548.9" x2="-27312.3" y2="-25699.2" gradientUnits="userSpaceOnUse">
<stop stop-color="#F5F5FD"/>
<stop offset="0.18" stop-color="#F0F4FD"/>
<stop offset="0.37" stop-color="#E3F0FD"/>
<stop offset="0.58" stop-color="#CDE9FE"/>
<stop offset="0.79" stop-color="#AEDFFE"/>
<stop offset="1" stop-color="#88D4FF"/>
</linearGradient>
<linearGradient id="paint26_linear" x1="3680.55" y1="2703.2" x2="3707.98" y2="2703.16" gradientUnits="userSpaceOnUse">
<stop stop-color="#F5F5FD"/>
<stop offset="0.2" stop-color="#F0F4FD"/>
<stop offset="0.41" stop-color="#E3F2FD"/>
<stop offset="0.64" stop-color="#CDEDFE"/>
<stop offset="0.88" stop-color="#AEE8FF"/>
<stop offset="1" stop-color="#9BE4FF"/>
</linearGradient>
<linearGradient id="paint27_linear" x1="184.456" y1="170.555" x2="205.896" y2="170.555" gradientUnits="userSpaceOnUse">
<stop stop-color="#00B3FF"/>
<stop offset="0.15" stop-color="#0BB8F2"/>
<stop offset="0.71" stop-color="#30CAC7"/>
<stop offset="1" stop-color="#3ED1B7"/>
</linearGradient>
<linearGradient id="paint28_linear" x1="187.21" y1="187.636" x2="203.4" y2="187.636" gradientUnits="userSpaceOnUse">
<stop stop-color="#EFEFFC"/>
<stop offset="0.05" stop-color="#EDEDFC"/>
<stop offset="0.59" stop-color="#DDDFFB"/>
<stop offset="1" stop-color="#D7DAFB"/>
</linearGradient>
<linearGradient id="paint29_linear" x1="15184.7" y1="9779.44" x2="15644.1" y2="9779.44" gradientUnits="userSpaceOnUse">
<stop stop-color="#00B3FF"/>
<stop offset="0.15" stop-color="#0BB8F2"/>
<stop offset="0.71" stop-color="#30CAC7"/>
<stop offset="1" stop-color="#3ED1B7"/>
</linearGradient>
<linearGradient id="paint30_linear" x1="11577.2" y1="4580.59" x2="11839" y2="4580.59" gradientUnits="userSpaceOnUse">
<stop stop-color="#EFEFFC"/>
<stop offset="0.05" stop-color="#EDEDFC"/>
<stop offset="0.59" stop-color="#DDDFFB"/>
<stop offset="1" stop-color="#D7DAFB"/>
</linearGradient>
<linearGradient id="paint31_linear" x1="13753.7" y1="10305.2" x2="14213.4" y2="10305.2" gradientUnits="userSpaceOnUse">
<stop stop-color="#00B3FF"/>
<stop offset="0.15" stop-color="#0BB8F2"/>
<stop offset="0.71" stop-color="#30CAC7"/>
<stop offset="1" stop-color="#3ED1B7"/>
</linearGradient>
<linearGradient id="paint32_linear" x1="10481.8" y1="4820.75" x2="10743.6" y2="4820.75" gradientUnits="userSpaceOnUse">
<stop stop-color="#EFEFFC"/>
<stop offset="0.05" stop-color="#EDEDFC"/>
<stop offset="0.59" stop-color="#DDDFFB"/>
<stop offset="1" stop-color="#D7DAFB"/>
</linearGradient>
<linearGradient id="paint33_linear" x1="296.77" y1="189.74" x2="248.017" y2="182.249" gradientUnits="userSpaceOnUse">
<stop stop-color="#3ED1B7"/>
<stop offset="0.29" stop-color="#30CAC7"/>
<stop offset="0.85" stop-color="#0BB8F2"/>
<stop offset="1" stop-color="#00B3FF"/>
</linearGradient>
<linearGradient id="paint34_linear" x1="23493.5" y1="8676.84" x2="24735" y2="8676.84" gradientUnits="userSpaceOnUse">
<stop stop-color="#EFEFFC"/>
<stop offset="0.05" stop-color="#EDEDFC"/>
<stop offset="0.59" stop-color="#DDDFFB"/>
<stop offset="1" stop-color="#D7DAFB"/>
</linearGradient>
<linearGradient id="paint35_linear" x1="25860.2" y1="20018.9" x2="28037.8" y2="20018.9" gradientUnits="userSpaceOnUse">
<stop stop-color="#00B3FF"/>
<stop offset="0.15" stop-color="#0BB8F2"/>
<stop offset="0.71" stop-color="#30CAC7"/>
<stop offset="1" stop-color="#3ED1B7"/>
</linearGradient>
<linearGradient id="paint36_linear" x1="19783.6" y1="9650.89" x2="21025.1" y2="9650.89" gradientUnits="userSpaceOnUse">
<stop stop-color="#EFEFFC"/>
<stop offset="0.05" stop-color="#EDEDFC"/>
<stop offset="0.59" stop-color="#DDDFFB"/>
<stop offset="1" stop-color="#D7DAFB"/>
</linearGradient>
</defs>
</svg>
