<svg width="220" height="214" viewBox="0 0 220 214" fill="none" xmlns="http://www.w3.org/2000/svg">
<path d="M120.081 172.965C146.873 172.965 168.593 151.246 168.593 124.454C168.593 97.6622 146.873 75.943 120.081 75.943C93.2895 75.943 71.5703 97.6622 71.5703 124.454C71.5703 151.246 93.2895 172.965 120.081 172.965Z" fill="white"/>
<path d="M120.081 145.203C131.541 145.203 140.831 135.914 140.831 124.454C140.831 112.995 131.541 103.705 120.081 103.705C108.622 103.705 99.332 112.995 99.332 124.454C99.332 135.914 108.622 145.203 120.081 145.203Z" fill="white"/>
<g opacity="0.19">
<path opacity="0.19" d="M200.156 71.1241L194.498 91.2532C194.4 91.6053 194.076 91.846 193.711 91.8381C193.345 91.8297 193.032 91.5746 192.95 91.2184L190.369 80.077L179.288 77.8735C178.93 77.799 178.667 77.4925 178.649 77.1275C178.63 76.7625 178.86 76.4308 179.208 76.3202L199.149 70.1465C199.428 70.0593 199.733 70.132 199.943 70.3359C200.153 70.5397 200.235 70.8422 200.156 71.1241Z" fill="url(#paint0_linear)"/>
<path opacity="0.19" d="M25.7393 190.132C28.6177 187.051 31.5159 183.991 34.434 180.95C37.3373 177.898 40.2752 174.881 43.2033 171.854C46.1313 168.826 49.0792 165.814 52.0321 162.812C54.9849 159.809 57.9179 156.787 60.8956 153.809C66.8509 147.854 72.7517 141.844 78.7616 135.943C84.7715 130.042 90.707 124.067 96.7467 118.201C97.6146 117.362 98.9979 117.384 99.8385 118.251C100.012 118.424 100.154 118.628 100.255 118.851L107.451 134.553C108.657 137.164 109.819 139.799 111.005 142.424L114.548 150.3L111.074 149.591L120.687 140.807L130.355 132.092C136.806 126.261 143.258 120.504 149.769 114.722C153 111.829 156.275 108.98 159.536 106.117C162.796 103.253 166.057 100.385 169.347 97.551C175.908 91.8636 182.513 86.2259 189.164 80.6378C183.069 86.8314 176.886 92.9306 170.682 99.0001C167.59 102.047 164.464 105.06 161.342 108.077C158.221 111.094 155.109 114.122 151.963 117.109C145.685 123.099 139.412 129.104 133.074 135.03L123.595 143.963L114.057 152.821C113.631 153.218 113.064 153.429 112.482 153.407C111.901 153.386 111.351 153.134 110.955 152.707C110.799 152.538 110.67 152.345 110.573 152.137L106.975 144.285C105.779 141.665 104.563 139.06 103.387 136.429L96.2852 120.673L99.7988 121.338C93.7542 127.199 87.6251 132.975 81.5259 138.777C75.4266 144.578 69.2579 150.32 63.1189 156.087C60.0519 158.975 56.9403 161.814 53.8534 164.678C50.7666 167.541 47.6698 170.395 44.5532 173.223C41.4365 176.052 38.3298 178.906 35.1934 181.72C32.0569 184.534 28.9055 187.347 25.7393 190.132Z" fill="url(#paint1_linear)"/>
</g>
<path d="M156.92 60.4839H83.4712C76.8931 60.4839 71.5605 65.8165 71.5605 72.3946V198.945C71.5605 205.523 76.8931 210.856 83.4712 210.856H156.92C163.498 210.856 168.831 205.523 168.831 198.945V72.3946C168.831 65.8165 163.498 60.4839 156.92 60.4839Z" fill="url(#paint2_linear)"/>
<path d="M148.98 80.3351H91.4121C87.0267 80.3351 83.4717 83.8901 83.4717 88.2755V142.37C83.4717 146.755 87.0267 150.31 91.4121 150.31H148.98C153.366 150.31 156.921 146.755 156.921 142.37V88.2755C156.921 83.8901 153.366 80.3351 148.98 80.3351Z" fill="#FEFEFE"/>
<path d="M150.965 158.251H89.427C86.138 158.251 83.4717 160.917 83.4717 164.206C83.4717 167.495 86.138 170.161 89.427 170.161H150.965C154.255 170.161 156.921 167.495 156.921 164.206C156.921 160.917 154.255 158.251 150.965 158.251Z" fill="#FEFEFE"/>
<path d="M150.965 178.102H89.427C86.138 178.102 83.4717 180.768 83.4717 184.057C83.4717 187.346 86.138 190.012 89.427 190.012H150.965C154.255 190.012 156.921 187.346 156.921 184.057C156.921 180.768 154.255 178.102 150.965 178.102Z" fill="#FEFEFE"/>
<path d="M27.8242 179.467C30.6497 176.33 33.5 173.222 36.3751 170.141C39.2386 167.045 42.1418 163.993 45.0351 160.931L49.3875 156.345L53.7696 151.794C56.7026 148.767 59.6059 145.715 62.5537 142.707C65.5016 139.7 68.4396 136.682 71.4024 133.69C74.3652 130.697 77.3279 127.705 80.3006 124.722C86.256 118.767 92.2328 112.835 98.2312 106.926C98.8019 106.363 99.5732 106.05 100.375 106.056C101.177 106.063 101.943 106.388 102.504 106.96C102.746 107.201 102.942 107.484 103.085 107.794V107.849C105.517 113.07 107.889 118.315 110.286 123.546L117.392 139.293L112.524 138.3L122.167 129.556L131.854 120.856C138.335 115.086 144.843 109.342 151.378 103.625C154.638 100.757 157.938 97.938 161.229 95.1043C164.519 92.2705 167.799 89.4268 171.129 86.6378C174.459 83.8487 177.755 81.0199 181.11 78.2606C184.464 75.5013 187.804 72.7172 191.199 69.9976C188.221 73.1605 185.201 76.2871 182.137 79.3772C179.11 82.4938 176.033 85.5559 172.971 88.6378C169.909 91.7196 166.812 94.7618 163.72 97.809C160.628 100.856 157.541 103.913 154.42 106.931C148.2 112.985 141.942 118.998 135.646 124.97L126.182 133.903L116.678 142.797C115.962 143.465 114.97 143.75 114.009 143.562C113.048 143.374 112.235 142.737 111.824 141.849V141.809L104.648 126.102C102.286 120.846 99.8987 115.61 97.5662 110.345L102.45 111.268C96.3718 117.094 90.2609 122.884 84.117 128.638C81.05 131.519 77.9731 134.393 74.8863 137.258C71.8044 140.132 68.7076 142.98 65.6059 145.834C62.5041 148.687 59.3726 151.501 56.256 154.335L51.5761 158.583L46.8614 162.792C43.715 165.596 40.5736 168.405 37.3925 171.169C34.2113 173.933 31.0451 176.742 27.8242 179.467Z" fill="url(#paint3_linear)"/>
<path d="M197.029 64.737L191.233 84.8263C191.128 85.1755 190.802 85.4106 190.437 85.3989C190.073 85.3873 189.762 85.1319 189.68 84.7767L187.198 73.6203L176.136 71.3375C175.779 71.2603 175.519 70.9524 175.503 70.5876C175.486 70.2228 175.718 69.8928 176.067 69.7841L196.052 63.7494C196.329 63.6744 196.626 63.7542 196.828 63.9586C197.03 64.1629 197.107 64.4602 197.029 64.737Z" fill="url(#paint4_linear)"/>
<path opacity="0.13" d="M163.893 207.679C157.206 205.827 151.329 201.796 147.194 196.224C145.113 193.417 143.507 190.287 142.439 186.96L142.078 185.697C141.699 184.284 141.415 182.847 141.23 181.396C141.022 179.716 140.955 178.023 141.029 176.333C141.069 175.564 141.123 174.796 141.21 174.008C142.929 158.74 155.497 146.99 170.846 146.302C171.545 146.275 172.219 146.556 172.692 147.07C173.165 147.584 173.389 148.28 173.304 148.973L172.824 153.175L170.96 169.646L169.677 180.881L168.482 191.482L166.879 205.649C166.797 206.336 166.422 206.955 165.849 207.345C165.276 207.734 164.563 207.856 163.893 207.679Z" fill="url(#paint5_linear)"/>
<path d="M173.852 208.434C167.168 206.577 161.293 202.546 157.154 196.979C155.076 194.17 153.472 191.041 152.405 187.714L152.044 186.452C151.662 185.04 151.378 183.602 151.196 182.15C150.984 180.469 150.917 178.773 150.995 177.081C150.995 176.319 151.089 175.544 151.169 174.763C152.899 159.497 165.464 147.75 180.812 147.05C181.51 147.023 182.184 147.304 182.656 147.818C183.128 148.333 183.351 149.029 183.264 149.722L182.789 153.93L180.919 170.415L179.637 181.656L178.441 192.25L176.831 206.417C176.746 207.101 176.37 207.715 175.799 208.101C175.229 208.487 174.519 208.609 173.852 208.434Z" fill="url(#paint6_linear)"/>
<path opacity="0.13" d="M189.95 213.998C189.251 214.027 188.575 213.747 188.102 213.232C187.628 212.717 187.405 212.02 187.492 211.326L189.276 195.643L190.471 185.049V184.936C190.587 183.941 191.309 183.124 192.281 182.885L216.661 177.127C217.318 176.968 218.011 177.095 218.568 177.478C219.125 177.86 219.493 178.461 219.58 179.131C219.857 181.494 219.857 183.882 219.58 186.245C219.473 187.16 219.333 188.048 219.146 188.917C216.338 202.995 204.291 213.345 189.95 213.998Z" fill="url(#paint7_linear)"/>
<path d="M183.665 209.53C182.966 209.559 182.29 209.278 181.816 208.764C181.343 208.249 181.12 207.552 181.207 206.858L182.984 191.174L184.186 180.581V180.467C184.302 179.473 185.024 178.655 185.996 178.417L210.376 172.659C211.033 172.5 211.726 172.627 212.283 173.009C212.84 173.392 213.208 173.993 213.295 174.663C213.576 177.026 213.576 179.413 213.295 181.776C213.188 182.691 213.055 183.58 212.868 184.448C210.059 198.529 198.009 208.879 183.665 209.53Z" fill="url(#paint8_linear)"/>
<path opacity="0.13" d="M213.054 162.399L192.247 167.309C191.493 167.491 190.696 167.293 190.116 166.777C189.535 166.262 189.243 165.495 189.335 164.724L189.509 163.261L191.372 146.796L191.673 144.084C191.759 143.402 192.137 142.79 192.707 142.406C193.278 142.022 193.987 141.903 194.652 142.08C196.877 142.696 199.026 143.561 201.057 144.659C206.599 147.637 211.114 152.215 214.016 157.797C214.249 158.231 214.47 158.685 214.684 159.133C214.966 159.779 214.947 160.517 214.633 161.147C214.318 161.778 213.74 162.236 213.054 162.399Z" fill="url(#paint9_linear)"/>
<path d="M209.019 168.518L188.213 173.427C187.457 173.607 186.661 173.406 186.081 172.89C185.501 172.374 185.21 171.607 185.301 170.835L185.474 169.379L187.331 152.908L187.632 150.202C187.722 149.521 188.101 148.91 188.672 148.527C189.244 148.144 189.952 148.024 190.617 148.199C192.841 148.815 194.987 149.68 197.016 150.777C202.56 153.755 207.077 158.333 209.981 163.915C210.215 164.35 210.435 164.804 210.649 165.251C210.929 165.897 210.909 166.634 210.595 167.264C210.28 167.894 209.704 168.353 209.019 168.518Z" fill="url(#paint10_linear)"/>
<path opacity="0.14" d="M64 32.0024C64 32.6869 64 33.3522 63.9234 34.0128C62.9487 49.7683 50.6136 62.4514 34.8891 63.866C33.9316 63.9617 32.9742 64 32.0168 64C31.72 64 31.4279 64 31.1359 64C26.1603 63.8767 21.2827 62.5899 16.894 60.2426C12.2433 57.7291 8.28024 54.1134 5.3521 49.7124C2.87679 46.0005 1.21589 41.8064 0.478737 37.4064C0.161485 35.6837 0.00125495 33.9359 8.94197e-06 32.1843V32.012C-0.00633288 23.5249 3.36087 15.3832 9.36034 9.3793C15.3598 3.37535 23.4997 0.00134568 31.988 3.87041e-05C34.7681 -0.00430987 37.5366 0.357796 40.222 1.07703C54.2293 4.81873 63.9726 17.5061 63.9713 32.0024H64Z" fill="url(#paint11_linear)"/>
<path d="M58.0428 32.0037C58.0428 32.5603 58.0428 33.1019 57.9826 33.6434C57.187 46.4714 47.1434 56.7962 34.3422 57.9457C33.56 58.0247 32.7742 58.0624 31.988 58.0588C31.7473 58.0588 31.5066 58.0588 31.2358 58.0588C27.1864 57.9554 23.2172 56.9071 19.645 54.9972C15.8607 52.949 12.6334 50.0082 10.243 46.4301C8.23013 43.4074 6.87928 39.9931 6.27915 36.4114C6.022 35.0094 5.8936 33.587 5.89553 32.1617V32.0187C5.88756 25.1001 8.63242 18.4626 13.5246 13.5704C18.4168 8.67822 25.0543 5.93336 31.9729 5.94132C34.2359 5.93751 36.4894 6.23342 38.6747 6.82138C50.083 9.86257 58.019 20.1969 58.0127 32.0037H58.0428Z" fill="url(#paint12_linear)"/>
<path d="M44.6545 25.7233L29.4834 40.4731C29.0823 40.8635 28.5302 41.0584 27.973 41.0063C27.4157 40.9542 26.9093 40.6603 26.5876 40.2023L19.9385 30.68" stroke="white" stroke-width="4.37717" stroke-linecap="square" stroke-linejoin="round"/>
<path opacity="0.21" d="M48.3112 11.6955L10.2744 46.4152C8.26153 43.3925 6.91067 39.9782 6.31055 36.3965L38.6534 6.82153C42.1807 7.74606 45.4722 9.40718 48.3112 11.6955Z" fill="url(#paint13_linear)"/>
<path opacity="0.21" d="M58.0426 32.0036C58.0426 32.5602 58.0426 33.1017 57.9823 33.6433L31.2656 58.0434C27.2162 57.9402 23.247 56.8919 19.6748 54.9821L55.974 21.8193C57.3478 25.0385 58.0516 28.5036 58.0426 32.0036Z" fill="url(#paint14_linear)"/>
<defs>
<linearGradient id="paint0_linear" x1="178.761" y1="80.2045" x2="199.645" y2="81.0615" gradientUnits="userSpaceOnUse">
<stop stop-color="#735CD2"/>
<stop offset="1" stop-color="#8F6ACC"/>
</linearGradient>
<linearGradient id="paint1_linear" x1="25.8683" y1="133.887" x2="188.858" y2="140.585" gradientUnits="userSpaceOnUse">
<stop stop-color="#735CD2"/>
<stop offset="1" stop-color="#8F6ACC"/>
</linearGradient>
<linearGradient id="paint2_linear" x1="120.196" y1="477.005" x2="120.196" y2="60.4839" gradientUnits="userSpaceOnUse">
<stop stop-color="#FAFAFA"/>
<stop offset="1" stop-color="#EFEFEF"/>
</linearGradient>
<linearGradient id="paint3_linear" x1="27.0997" y1="123.212" x2="191.795" y2="129.98" gradientUnits="userSpaceOnUse">
<stop stop-color="#735CD2"/>
<stop offset="1" stop-color="#8F6ACC"/>
</linearGradient>
<linearGradient id="paint4_linear" x1="175.481" y1="73.6811" x2="196.492" y2="74.694" gradientUnits="userSpaceOnUse">
<stop stop-color="#735CD2"/>
<stop offset="1" stop-color="#8F6ACC"/>
</linearGradient>
<linearGradient id="paint5_linear" x1="160.964" y1="176.421" x2="152.36" y2="177.932" gradientUnits="userSpaceOnUse">
<stop stop-color="#2FA2FA"/>
<stop offset="1" stop-color="#37D3FB"/>
</linearGradient>
<linearGradient id="paint6_linear" x1="186.072" y1="154.589" x2="138.408" y2="182.017" gradientUnits="userSpaceOnUse">
<stop stop-color="#2FA2FA"/>
<stop offset="1" stop-color="#37D3FB"/>
</linearGradient>
<linearGradient id="paint7_linear" x1="199.432" y1="180.796" x2="209.54" y2="207.976" gradientUnits="userSpaceOnUse">
<stop stop-color="#735CD2"/>
<stop offset="1" stop-color="#8F6ACC"/>
</linearGradient>
<linearGradient id="paint8_linear" x1="193.145" y1="176.328" x2="203.254" y2="203.509" gradientUnits="userSpaceOnUse">
<stop stop-color="#735CD2"/>
<stop offset="1" stop-color="#8F6ACC"/>
</linearGradient>
<linearGradient id="paint9_linear" x1="192.339" y1="176.022" x2="205.099" y2="148.152" gradientUnits="userSpaceOnUse">
<stop stop-color="#FB9835"/>
<stop offset="1" stop-color="#FBBB3C"/>
</linearGradient>
<linearGradient id="paint10_linear" x1="188.303" y1="182.147" x2="201.062" y2="154.278" gradientUnits="userSpaceOnUse">
<stop stop-color="#FB9835"/>
<stop offset="1" stop-color="#FBBB3C"/>
</linearGradient>
<linearGradient id="paint11_linear" x1="31.9976" y1="105.599" x2="31.9976" y2="-9.48197" gradientUnits="userSpaceOnUse">
<stop stop-color="#60B05B"/>
<stop offset="0.25" stop-color="#75BC60"/>
<stop offset="0.74" stop-color="#9AD069"/>
<stop offset="1" stop-color="#A8D86D"/>
</linearGradient>
<linearGradient id="paint12_linear" x1="31.988" y1="91.9362" x2="31.988" y2="-1.77588" gradientUnits="userSpaceOnUse">
<stop stop-color="#60B05B"/>
<stop offset="0.25" stop-color="#75BC60"/>
<stop offset="0.74" stop-color="#9AD069"/>
<stop offset="1" stop-color="#A8D86D"/>
</linearGradient>
<linearGradient id="paint13_linear" x1="50.6353" y1="3.35059" x2="13.8329" y2="40.6001" gradientUnits="userSpaceOnUse">
<stop stop-color="#FEFEFC"/>
<stop offset="1" stop-color="#C4EAFC" stop-opacity="0.1"/>
</linearGradient>
<linearGradient id="paint14_linear" x1="65.0076" y1="20.2132" x2="29.8222" y2="55.8252" gradientUnits="userSpaceOnUse">
<stop stop-color="#FEFEFC"/>
<stop offset="1" stop-color="#C4EAFC" stop-opacity="0.1"/>
</linearGradient>
</defs>
</svg>
