<svg id="Layer_1" data-name="Layer 1" xmlns="http://www.w3.org/2000/svg" xmlns:xlink="http://www.w3.org/1999/xlink" viewBox="0 0 1140.19 892.7"><defs><style>.cls-1{opacity:0.25;}.cls-2,.cls-3,.cls-5,.cls-6,.cls-7{opacity:0.5;}.cls-3,.cls-5,.cls-58,.cls-59,.cls-6,.cls-60,.cls-7{isolation:isolate;}.cls-3{fill:url(#linear-gradient);}.cls-4{fill:#bcc0e5;}.cls-5{fill:url(#linear-gradient-2);}.cls-6,.cls-60,.cls-9{fill:#fff;}.cls-7{fill:url(#linear-gradient-3);}.cls-8{fill:url(#linear-gradient-4);}.cls-10{fill:url(#linear-gradient-5);}.cls-11{fill:url(#linear-gradient-6);}.cls-12{fill:url(#linear-gradient-7);}.cls-13{fill:#001370;}.cls-14{fill:#020c82;}.cls-15{fill:#f5d5d5;}.cls-16{fill:url(#linear-gradient-8);}.cls-17,.cls-59{fill:#ffad6f;}.cls-18{fill:url(#linear-gradient-9);}.cls-19{fill:url(#linear-gradient-10);}.cls-20,.cls-58{fill:#ff5a6f;}.cls-21{fill:#dcdefa;}.cls-22{fill:#e6e7f5;}.cls-23{fill:url(#linear-gradient-11);}.cls-24{fill:url(#linear-gradient-12);}.cls-25{fill:url(#linear-gradient-13);}.cls-26{fill:url(#linear-gradient-14);}.cls-27{fill:url(#linear-gradient-15);}.cls-28{fill:url(#linear-gradient-16);}.cls-29{fill:#d0d3f5;}.cls-30{fill:url(#linear-gradient-17);}.cls-31{fill:url(#linear-gradient-18);}.cls-32{fill:url(#linear-gradient-19);}.cls-33{fill:url(#linear-gradient-20);}.cls-34{fill:url(#linear-gradient-21);}.cls-35{fill:url(#linear-gradient-22);}.cls-36{fill:url(#linear-gradient-23);}.cls-37{fill:url(#linear-gradient-24);}.cls-38{fill:url(#linear-gradient-25);}.cls-39{fill:url(#linear-gradient-26);}.cls-40{fill:url(#linear-gradient-27);}.cls-41{fill:url(#linear-gradient-28);}.cls-42{fill:url(#linear-gradient-29);}.cls-43{fill:url(#linear-gradient-30);}.cls-44{fill:url(#linear-gradient-31);}.cls-45{fill:url(#linear-gradient-32);}.cls-46{fill:url(#linear-gradient-33);}.cls-47{fill:url(#linear-gradient-34);}.cls-48{fill:url(#linear-gradient-35);}.cls-49{fill:url(#linear-gradient-36);}.cls-50{fill:url(#linear-gradient-37);}.cls-51{fill:url(#linear-gradient-38);}.cls-52{fill:url(#linear-gradient-39);}.cls-53{fill:url(#linear-gradient-40);}.cls-54{fill:#c9c9c9;}.cls-55{fill:url(#linear-gradient-41);}.cls-56{fill:url(#linear-gradient-42);}.cls-57,.cls-58,.cls-59,.cls-60{opacity:0.3;}.cls-61{fill:url(#linear-gradient-43);}.cls-62{fill:#000070;}.cls-63{fill:url(#linear-gradient-44);}.cls-64{fill:url(#linear-gradient-45);}.cls-65{fill:#010854;}.cls-66{fill:url(#linear-gradient-46);}.cls-67{fill:url(#linear-gradient-47);}.cls-68{fill:url(#linear-gradient-48);}.cls-69{fill:url(#linear-gradient-49);}.cls-70{fill:url(#linear-gradient-50);}.cls-71{fill:#080078;}</style><linearGradient id="linear-gradient" x1="151712.65" y1="-199.92" x2="170491.65" y2="-199.92" gradientTransform="matrix(1, 0, 0, -1, 0, -127.81)" gradientUnits="userSpaceOnUse"><stop offset="0" stop-color="#bcc0e5"/><stop offset="1" stop-color="#bcc0e5"/></linearGradient><linearGradient id="linear-gradient-2" x1="901.35" y1="-215.94" x2="867.41" y2="-215.94" gradientTransform="matrix(1, 0, 0, -1, 0, -127.81)" gradientUnits="userSpaceOnUse"><stop offset="0" stop-color="#dcdefa"/><stop offset="1" stop-color="#f2f3fa"/></linearGradient><linearGradient id="linear-gradient-3" x1="776.3" y1="-188.77" x2="987.37" y2="-188.77" gradientTransform="matrix(1, 0, 0, -1, 0, -127.81)" gradientUnits="userSpaceOnUse"><stop offset="0" stop-color="#f7f8ff"/><stop offset="1" stop-color="#f2f3fa"/></linearGradient><linearGradient id="linear-gradient-4" x1="263011.65" y1="-906.46" x2="255848.65" y2="-906.46" xlink:href="#linear-gradient-2"/><linearGradient id="linear-gradient-5" x1="236562.65" y1="-879.21" x2="281116.65" y2="-879.21" xlink:href="#linear-gradient-3"/><linearGradient id="linear-gradient-6" x1="160502.65" y1="-517.22" x2="138788.65" y2="-517.22" xlink:href="#linear-gradient-2"/><linearGradient id="linear-gradient-7" x1="80460.75" y1="-470.36" x2="215532.65" y2="-470.36" xlink:href="#linear-gradient-3"/><linearGradient id="linear-gradient-8" x1="261.19" y1="-678.55" x2="244.69" y2="-585.05" gradientTransform="matrix(1, 0, 0, -1, 0, -127.81)" gradientUnits="userSpaceOnUse"><stop offset="0" stop-color="#5b68f5"/><stop offset="1" stop-color="#010854"/></linearGradient><linearGradient id="linear-gradient-9" x1="264" y1="-558.83" x2="243.79" y2="-557.77" gradientTransform="matrix(1, 0, 0, -1, 0, -127.81)" gradientUnits="userSpaceOnUse"><stop offset="0" stop-color="#fff"/><stop offset="0.08" stop-color="#fdf9f9"/><stop offset="1" stop-color="#f5d5d5"/></linearGradient><linearGradient id="linear-gradient-10" x1="-1413.46" y1="110.23" x2="-1056.52" y2="-30.97" xlink:href="#linear-gradient-9"/><linearGradient id="linear-gradient-11" x1="858.57" y1="-390.65" x2="894.03" y2="-392.92" gradientTransform="matrix(1, 0, 0, -1, 0, -127.81)" gradientUnits="userSpaceOnUse"><stop offset="0" stop-color="#b6bbe5"/><stop offset="1" stop-color="#fff" stop-opacity="0"/></linearGradient><linearGradient id="linear-gradient-12" x1="796.95" y1="-426.23" x2="832.42" y2="-428.5" xlink:href="#linear-gradient-11"/><linearGradient id="linear-gradient-13" x1="321154.65" y1="-529.84" x2="299440.65" y2="-529.84" xlink:href="#linear-gradient-2"/><linearGradient id="linear-gradient-14" x1="241117.65" y1="-439.6" x2="376199.65" y2="-439.6" xlink:href="#linear-gradient-3"/><linearGradient id="linear-gradient-15" x1="159400.65" y1="-602.13" x2="153104.65" y2="-602.13" xlink:href="#linear-gradient-2"/><linearGradient id="linear-gradient-16" x1="146606.65" y1="-542.94" x2="174080.65" y2="-542.94" xlink:href="#linear-gradient-3"/><linearGradient id="linear-gradient-17" x1="267312.65" y1="-741.82" x2="210180.65" y2="-741.82" xlink:href="#linear-gradient-2"/><linearGradient id="linear-gradient-18" x1="571.72" y1="-532.19" x2="476.36" y2="-587" gradientTransform="matrix(1, 0, 0, -1, 0, -127.81)" gradientUnits="userSpaceOnUse"><stop offset="0" stop-color="#ff5a6f"/><stop offset="1" stop-color="#ffad6f"/></linearGradient><linearGradient id="linear-gradient-19" x1="449" y1="-478.58" x2="364.54" y2="-622.97" gradientTransform="matrix(1, 0, 0, -1, 0, -127.81)" gradientUnits="userSpaceOnUse"><stop offset="0" stop-color="#ff5a6f"/><stop offset="0.13" stop-color="#ff926f"/><stop offset="0.2" stop-color="#ffad6f"/><stop offset="0.29" stop-color="#ffbc8a"/><stop offset="0.44" stop-color="#ffd4b4"/><stop offset="0.6" stop-color="#ffe7d4"/><stop offset="0.75" stop-color="#fff4ec"/><stop offset="0.88" stop-color="#fffcfa"/><stop offset="1" stop-color="#fff"/></linearGradient><linearGradient id="linear-gradient-20" x1="220.28" y1="-759.16" x2="255.75" y2="-761.43" xlink:href="#linear-gradient-11"/><linearGradient id="linear-gradient-21" x1="329.69" y1="-696" x2="365.16" y2="-698.27" xlink:href="#linear-gradient-11"/><linearGradient id="linear-gradient-22" x1="439.09" y1="-632.84" x2="474.56" y2="-635.11" xlink:href="#linear-gradient-11"/><linearGradient id="linear-gradient-23" x1="316212.65" y1="-939.84" x2="294494.65" y2="-939.84" xlink:href="#linear-gradient-2"/><linearGradient id="linear-gradient-24" x1="236165.65" y1="-892.45" x2="371244.65" y2="-892.45" xlink:href="#linear-gradient-3"/><linearGradient id="linear-gradient-25" x1="476.56" y1="-841.22" x2="712.59" y2="-907.86" xlink:href="#linear-gradient-11"/><linearGradient id="linear-gradient-26" x1="-7918.47" y1="-10746.62" x2="-6294.57" y2="-8860.02" xlink:href="#linear-gradient-8"/><linearGradient id="linear-gradient-27" x1="-8374.78" y1="-21146.51" x2="-7091.78" y2="-18242.42" xlink:href="#linear-gradient-8"/><linearGradient id="linear-gradient-28" x1="118189.65" y1="-831.79" x2="148976.65" y2="-831.79" xlink:href="#linear-gradient-2"/><linearGradient id="linear-gradient-29" x1="547.02" y1="-836.95" x2="524.69" y2="-805.29" gradientTransform="matrix(1, 0, 0, -1, 0, -127.81)" gradientUnits="userSpaceOnUse"><stop offset="0" stop-color="#fff"/><stop offset="1" stop-color="#f2f3fa"/></linearGradient><linearGradient id="linear-gradient-30" x1="584.18" y1="-838.16" x2="623.74" y2="-838.16" gradientTransform="matrix(1, 0, 0, -1, 0, -127.81)" gradientUnits="userSpaceOnUse"><stop offset="0" stop-color="#bcc0e5"/><stop offset="1" stop-color="#fff"/></linearGradient><linearGradient id="linear-gradient-31" x1="518.67" y1="-117276" x2="518.67" y2="-96388.71" xlink:href="#linear-gradient-8"/><linearGradient id="linear-gradient-32" x1="57239.21" y1="-79746.1" x2="55869.51" y2="-77839.51" gradientTransform="matrix(1, 0, 0, -1, 0, -127.81)" gradientUnits="userSpaceOnUse"><stop offset="0" stop-color="#8992f5"/><stop offset="1" stop-color="#fff"/></linearGradient><linearGradient id="linear-gradient-33" x1="783.34" y1="-662.65" x2="783.23" y2="-664.42" gradientTransform="matrix(1, 0, 0, -1, 0, -127.81)" gradientUnits="userSpaceOnUse"><stop offset="0" stop-color="#04007e"/><stop offset="1" stop-color="#bb1aff"/></linearGradient><linearGradient id="linear-gradient-34" x1="1213.57" y1="-6291.46" x2="1214.27" y2="-6301.24" xlink:href="#linear-gradient-33"/><linearGradient id="linear-gradient-35" x1="36232.59" y1="-18130" x2="39766.69" y2="-19880" gradientTransform="matrix(1, 0, 0, -1, 0, -127.81)" gradientUnits="userSpaceOnUse"><stop offset="0" stop-color="#020c82"/><stop offset="1" stop-color="#5b68f5"/></linearGradient><linearGradient id="linear-gradient-36" x1="40123.79" y1="-44642.98" x2="45388.19" y2="-50539.29" xlink:href="#linear-gradient-35"/><linearGradient id="linear-gradient-37" x1="8769.19" y1="-23674.49" x2="8540.19" y2="-23009.59" xlink:href="#linear-gradient-18"/><linearGradient id="linear-gradient-38" x1="39451.3" y1="-33546.74" x2="36676.8" y2="-31177.34" xlink:href="#linear-gradient-18"/><linearGradient id="linear-gradient-39" x1="17678.69" y1="-31962.59" x2="17208.59" y2="-31088.29" xlink:href="#linear-gradient-18"/><linearGradient id="linear-gradient-40" x1="13445.82" y1="10256.18" x2="-35891.08" y2="-29370.92" xlink:href="#linear-gradient-8"/><linearGradient id="linear-gradient-41" x1="255.05" y1="-299.8" x2="229.8" y2="-344.05" gradientTransform="matrix(1, 0, 0, -1, 0, -127.81)" gradientUnits="userSpaceOnUse"><stop offset="0" stop-color="#ffad6f"/><stop offset="1" stop-color="#ff5a6f"/></linearGradient><linearGradient id="linear-gradient-42" x1="619.6" y1="-44698.4" x2="619.6" y2="-40399" xlink:href="#linear-gradient-18"/><linearGradient id="linear-gradient-43" x1="124.85" y1="-441.87" x2="203.37" y2="-501.71" xlink:href="#linear-gradient-11"/><linearGradient id="linear-gradient-44" x1="23917.44" y1="-35542.95" x2="20220.73" y2="-30088.45" xlink:href="#linear-gradient-8"/><linearGradient id="linear-gradient-45" x1="24393.09" y1="-29024.28" x2="20623.76" y2="-24581.98" xlink:href="#linear-gradient-8"/><linearGradient id="linear-gradient-46" x1="31793.32" y1="-31088.88" x2="25460.92" y2="-24951.28" gradientTransform="matrix(1, 0, 0, -1, 0, -127.81)" gradientUnits="userSpaceOnUse"><stop offset="0" stop-color="#5b68f5"/><stop offset="1" stop-color="#8992f5"/></linearGradient><linearGradient id="linear-gradient-47" x1="-11991.48" y1="-13821.63" x2="-9494.12" y2="-11047.43" xlink:href="#linear-gradient-46"/><linearGradient id="linear-gradient-48" x1="263470.65" y1="-672.17" x2="224024.65" y2="-672.17" gradientTransform="matrix(1, 0, 0, -1, 0, -127.81)" gradientUnits="userSpaceOnUse"><stop offset="0.4" stop-color="#bcc0e5"/><stop offset="0.61" stop-color="#d0d3f5"/></linearGradient><linearGradient id="linear-gradient-49" x1="223960.65" y1="-647.47" x2="263577.65" y2="-647.47" xlink:href="#linear-gradient-3"/><linearGradient id="linear-gradient-50" x1="986.37" y1="-650.54" x2="1018.19" y2="-656.26" xlink:href="#linear-gradient-11"/></defs><title>bg-thumb-1</title><path class="cls-1" d="M619.69,525.45h93.87l2.64,10.94h72.59a43.75,43.75,0,0,0,21.79-5.84l78.59-45.38A13,13,0,0,0,894,467.32a12.9,12.9,0,0,0-4.78-4.78l-66.29-38.28L674.06,440.91Z"/><g class="cls-2"><g class="cls-2"><path class="cls-3" d="M914.91,10H881.84l97.63,56.36a6.66,6.66,0,0,1,2.41,2.42,6.65,6.65,0,0,1,0,6.61,6.66,6.66,0,0,1-2.41,2.42L881.84,134.2h33.07a18.48,18.48,0,0,0,9.15-2.43l90.56-52.29a8.48,8.48,0,0,0,3.1-11.59,8.38,8.38,0,0,0-3.1-3.1L924.06,12.47A18.29,18.29,0,0,0,914.91,10Z"/></g><g class="cls-2"><path class="cls-4" d="M987.36,73.26c-.16-2.55-2.09-5.19-5.7-7.27L894.32,15.61c-6.91-4-17.37-4.41-23.36-1L780.32,67c-2.87,1.65-4.19,3.89-4,6.22.16,2.54,2.08,5.18,5.69,7.26l87.35,50.38c6.9,4,17.37,4.42,23.35,1l90.65-52.39C986.2,77.82,987.52,75.58,987.36,73.26Z"/></g><path class="cls-5" d="M987.36,71.66V63L951.92,80.22,894.31,47c-6.91-4-17.37-4.42-23.36-1L811.76,80.2,776.28,63v8a3.53,3.53,0,0,0,0,.65c.16,2.54,2.09,5.18,5.7,7.27l87.34,50.37a27.1,27.1,0,0,0,12.51,3.29,21.38,21.38,0,0,0,10.85-2.33l90.65-52.39C986.2,76.22,987.51,74,987.36,71.66Z"/><path class="cls-6" d="M987.36,63c-.16-2.54-2.09-5.19-5.7-7.27L894.32,5.36c-6.91-4-17.37-4.42-23.36-1L780.32,56.77c-2.87,1.66-4.19,3.9-4,6.22.16,2.54,2.08,5.18,5.69,7.27l87.35,50.37c6.9,4,17.37,4.42,23.35,1l90.65-52.39C986.2,67.56,987.52,65.32,987.36,63Z"/><path class="cls-7" d="M987.36,61c-.16-2.54-2.09-5.18-5.7-7.27L894.32,3.31c-6.91-4-17.37-4.42-23.36-1L780.32,54.77c-2.87,1.65-4.19,3.89-4,6.21.16,2.54,2.08,5.19,5.69,7.27l87.35,50.38c6.9,4,17.37,4.41,23.35,1L983.36,67.2C986.2,65.51,987.52,63.28,987.36,61Z"/></g><path class="cls-1" d="M1036.21,700.5h-33.07l97.63,56.37a6.62,6.62,0,0,1,2.41,9,6.66,6.66,0,0,1-2.41,2.42l-97.63,56.37h33.07a18.38,18.38,0,0,0,9.18-2.46L1136,769.94a8.48,8.48,0,0,0,3.1-11.59,8.34,8.34,0,0,0-3.1-3.11L1045.39,703A18.38,18.38,0,0,0,1036.21,700.5Z"/><g class="cls-1"><path d="M1108.66,763.77c-.16-2.54-2.09-5.18-5.7-7.27l-87.34-50.37c-6.91-4-17.37-4.42-23.35-1l-90.65,52.39c-2.86,1.65-4.18,3.89-4,6.21.16,2.54,2.09,5.18,5.7,7.27l87.34,50.37c6.91,4,17.37,4.42,23.35,1L1104.66,770C1107.5,768.3,1108.82,766.06,1108.66,763.77Z"/></g><path class="cls-8" d="M1108.67,762.15v-8.66l-35.45,17.22-57.61-33.23c-6.91-4-17.37-4.41-23.35-1l-59.2,34.29-35.48-17.24v8a3.42,3.42,0,0,0,0,.64c.16,2.54,2.09,5.19,5.7,7.27l87.34,50.37a27,27,0,0,0,12.5,3.29,21.18,21.18,0,0,0,10.85-2.33l90.65-52.38C1107.5,766.71,1108.81,764.47,1108.67,762.15Z"/><path class="cls-9" d="M1108.66,753.48c-.16-2.54-2.09-5.18-5.7-7.27l-87.34-50.37c-6.91-4-17.37-4.42-23.35-1l-90.65,52.39c-2.86,1.65-4.18,3.89-4,6.21.16,2.54,2.09,5.19,5.7,7.27l87.34,50.38c6.91,4,17.37,4.41,23.35.95l90.65-52.38C1107.5,758,1108.82,755.77,1108.66,753.48Z"/><path class="cls-10" d="M1108.66,751.44c-.16-2.55-2.09-5.19-5.7-7.27l-87.34-50.4c-6.91-4-17.37-4.41-23.35-1l-90.65,52.39c-2.86,1.65-4.18,3.89-4,6.22.16,2.54,2.09,5.18,5.7,7.26L990.66,809c6.91,4,17.37,4.42,23.35,1l90.65-52.39C1107.5,756,1108.82,753.77,1108.66,751.44Z"/><path class="cls-1" d="M241.36,253.87H183.77l170,98.15a11.49,11.49,0,0,1,0,19.92l-170,98.15h57.59a32,32,0,0,0,16-4.29l157.7-91a14.77,14.77,0,0,0,0-25.58l-157.67-91A31.9,31.9,0,0,0,241.36,253.87Z"/><path class="cls-1" d="M663.84,676.35H606.25l170,98.14a11.51,11.51,0,0,1,0,19.93l-170,98.14h57.59a32.06,32.06,0,0,0,16-4.28l157.67-91a14.75,14.75,0,0,0,0-25.59l-157.67-91A31.86,31.86,0,0,0,663.84,676.35Z"/><path class="cls-1" d="M891.2,214.58H834.13L945.5,278.87a11,11,0,0,1,0,19L176.05,742.1h57.06a34,34,0,0,0,17-4.55l761.55-439.69a11,11,0,0,0,0-19L908.18,219.12A34,34,0,0,0,891.2,214.58Z"/><g class="cls-1"><path d="M367.51,364c-.29-4.42-3.65-9-9.94-12.65L205.51,263.62c-12-6.94-30.24-7.69-40.66-1.67L7.05,353.17c-5,2.87-7.27,6.77-7,10.81.29,4.43,3.65,9,9.94,12.66l152.06,87.71c12,6.94,30.24,7.69,40.66,1.67L360.5,374.77C365.48,371.93,367.77,368,367.51,364Z"/></g><path class="cls-11" d="M367.52,360.7V345.61l-61.72,30L205.52,317.77c-12-6.94-30.25-7.69-40.66-1.67L61.79,375.63,0,345.63v14c0,.37,0,.74,0,1.12.29,4.43,3.65,9,9.94,12.66l152.1,87.65a46.89,46.89,0,0,0,21.72,5.71c7.07.18,13.88-1.15,18.91-4l157.83-91.21C365.48,368.64,367.77,364.77,367.52,360.7Z"/><path class="cls-9" d="M367.51,345.61c-.29-4.42-3.65-9-9.94-12.65L205.51,245.25c-12-6.94-30.24-7.69-40.66-1.67L7.05,334.77c-5,2.87-7.27,6.77-7,10.81.29,4.43,3.65,9,9.94,12.66L162.05,446c12,6.94,30.24,7.69,40.66,1.67l157.83-91.22C365.48,353.56,367.77,349.66,367.51,345.61Z"/><path class="cls-12" d="M367.51,342.55c-.29-4.42-3.65-9-9.94-12.65L205.51,242.19c-12-6.94-30.24-7.69-40.66-1.67L7.05,331.77c-5,2.88-7.27,6.78-7,10.82.29,4.43,3.65,9,9.94,12.66l152.06,87.67c12,6.94,30.24,7.69,40.66,1.66L360.5,353.37C365.48,350.5,367.77,346.6,367.51,342.55Z"/><path class="cls-13" d="M242.73,410.07c-7.63,2.24-9.28,6-8.94,11.06s-4.42,8.07-8.92,8.74-9.41,8.68-5.25,13.26,3.42,5,1.25,10.42,3.5,10.08,11.59,8.79,22.19-27.13,21.76-27.46S242.73,410.07,242.73,410.07Z"/><path class="cls-13" d="M243.32,545.69c.11,1.92.55,2.6,1,2.81s.41.27.5.58a12.92,12.92,0,0,0,1.1,2.24c1.6,2.61,4,2.43,3.29.23s-1.07-2.23-1.35-3.8-.6-3.14-2.12-3.68a1.67,1.67,0,0,0-.87-.21,1.58,1.58,0,0,0-.84.27,1.6,1.6,0,0,0-.58.68A1.56,1.56,0,0,0,243.32,545.69Z"/><path class="cls-14" d="M255.91,440.77c-.55,2.65,2.71,8.53,5.21,11.41,2.13,2.45,9.13,10.21,14.09,15.17.73.72,3.21-2.29,2.58-3.21-3.09-4.55-12.37-18.74-12.37-18.74-7.23-15.18-7.27-15.12-9.07-17.7C253.26,423.2,256.46,438.07,255.91,440.77Z"/><path class="cls-13" d="M258.42,542.53c2.2,1.5,2.6,1.28,3,2.44s-2.94.78-4.55.37a5.22,5.22,0,0,1-2-1.12c-.73-.77-1.32-.28-2.57-.58s-1.51-1.44-1.19-3.33,4-.45,4.85.06A22.91,22.91,0,0,1,258.42,542.53Z"/><path class="cls-15" d="M255.05,540.05c.4.5.11.77-.36.91a3.23,3.23,0,0,1-1.41-.15,3.3,3.3,0,0,1-1.21-.74c-.4-.71-3.27-23.27-3.3-31.94s-3.87-34.41-4.84-40.72,10-8.9,11.38,2.17,1.44,36.27.53,41.75-1.37,23.49-1.39,25.62A5.46,5.46,0,0,0,255.05,540.05Z"/><path class="cls-15" d="M246.51,544.82c.13.68.27,1.44-.75,1.75a1.69,1.69,0,0,1-.8-.1,1.72,1.72,0,0,1-.68-.45,1.88,1.88,0,0,1-.4-.7,1.85,1.85,0,0,1,0-.81c.37-2-4-22.81-4-31.47s-1-34.72-1.94-41,10.2-8.92,11.58,2.16-1.39,37.51-2.33,43-.93,22-1,24.11A23,23,0,0,0,246.51,544.82Z"/><path class="cls-16" d="M260.51,460.33c4.16,29.58,1.14,34.6.43,43.05-.29,3.46-10.12,9.84-15.67,9.83s-6.65-1.83-6.77-5c-.28-7.54-.45-10.66-2.83-43.31Z"/><path class="cls-17" d="M254.33,476.28c8.32-4.57,9.44-7.69,8.71-14.86-1.4-13.5-4.36-35.22-10.61-37.86-5.63-2.39-17,4.22-20.22,13.92-2.82,8.44,1.56,29.11,2.52,36.13S243.4,482.29,254.33,476.28Z"/><path class="cls-18" d="M236.8,431.57a7.16,7.16,0,0,1,1-1.2l.24-.25c.7-.78,2.75-3.43,3.42-8.72,0,0,4.25-1,5,.87a4.3,4.3,0,0,0,2.59,2,4.88,4.88,0,0,1,1.83.49c1.42.72,2.21,2.19,2.14,4.5-.15,5-9.43,10.73-13.38,9.12S235.74,433.38,236.8,431.57Z"/><path class="cls-14" d="M239.63,438.34c-3.95-1.6-3.89-5-2.84-6.77a8.27,8.27,0,0,1,1-1.2l.24-.25a13.8,13.8,0,0,0,2.8-5.56s1.5,2.7,3.39,2.89c1.67.16,4.81-.6,4.86-3.22a5.07,5.07,0,0,1,1.8.49c1.42.72,2.21,2.19,2.14,4.5C252.86,434.22,243.58,440,239.63,438.34Z"/><path class="cls-19" d="M251.44,415.83c1.7,7.55-.14,9.33-2.31,10.62-1.56.92-8.48-1.28-8.25-9.53S250.05,409.77,251.44,415.83Z"/><path class="cls-15" d="M274.76,471.54a4.11,4.11,0,0,1,1.53-3.17,2.35,2.35,0,0,0-.3-.89,2.44,2.44,0,0,0-.62-.7c-1.16-.87,1.14-3.22,1.74-2.7,4.15,3.55,4.13,5.89.56,8.75a1.68,1.68,0,0,1-.9.52,1.65,1.65,0,0,1-1.8-.8A1.61,1.61,0,0,1,274.76,471.54Z"/><path class="cls-20" d="M251,450.48v23.58l20.53,11.86V462.34Z"/><path class="cls-17" d="M292,450.48v23.58l-20.55,11.86V462.34Z"/><path class="cls-9" d="M251,450.48l20.53-11.86L292,450.48l-20.55,11.86Z"/><path class="cls-15" d="M255.43,473.25c1.28.94,1.64,4.65,3.58,5.41a12.14,12.14,0,0,1,3.42,2c-.69,1.52-5.44.74-6.48.19s-3.34-4.52-3.34-4.52l-1.32-3.41,3.39-.28Z"/><path class="cls-14" d="M233.05,440.33c-1.18,3.57-.4,5.42-.12,8.11s4.3,14.26,6.49,16.65,13.14,11.27,13.14,11.27-.66-1.06,1-2.88a1.24,1.24,0,0,1,1.61-.4l-11.68-13.65s-4.47-16.34-5.82-19.58S233.4,439.38,233.05,440.33Z"/><path class="cls-15" d="M255.42,473.25c2.88,1.67,3.48.76,3.87,1.93s-2.2.89-2.84.82S255.42,473.25,255.42,473.25Z"/><path class="cls-13" d="M240.94,424.07c1-1.84,3.51-.73,2.89-2.65s.92-2.38,1.86-1,.65-1.34,1.34-2.37,3.09,1.82,5.41.39,2.43-4.77,0-7.17-8.48-2.22-10.44-.83C235.92,414.77,239.48,426.88,240.94,424.07Z"/><g class="cls-1"><path d="M962.67,262.92a11.55,11.55,0,0,0-5.44-7l-86.8-50.08a43.35,43.35,0,0,0-43.39,0l-100.2,57.85-85.41-49.27c-12-6.94-30.24-7.69-40.66-1.67L442.94,304c-5,2.87-7.27,6.77-7,10.82,0,.35.08.71.14,1.06a9.94,9.94,0,0,0-.14,2.31V418.25a10.46,10.46,0,0,0,0,1.12c.21,3.14,2,6.37,5.21,9.27L63.73,646.54a9.48,9.48,0,0,0-3.29,3.1,9.64,9.64,0,0,0-1.5,4.28v.1a10.23,10.23,0,0,0,0,1.75l-.06,15a16.28,16.28,0,0,0,8.17,14l91.46,52.78a33.69,33.69,0,0,0,33.68,0l391.5-226,14.24,8.25a46.82,46.82,0,0,0,21.76,5.72c7.06.18,13.88-1.15,18.9-4l23-13.27,30,17.32,13.76,8a22.4,22.4,0,0,0,22.36,0l91-52.55a17.22,17.22,0,0,0,8.63-14.94v-44a10.76,10.76,0,0,0-2.15-6.81l-21.68-29.09v-1.38L953.8,298a18.81,18.81,0,0,0,9.38-16.24v-19ZM175.3,722.53c.73,0,1.45,0,2.18-.07C176.75,722.5,176.05,722.53,175.3,722.53Zm4.35-.28a34.41,34.41,0,0,0,4.3-.85A34.41,34.41,0,0,1,179.65,722.25Z"/></g><path class="cls-21" d="M963.12,259.64,783.82,373.41V393l169.92-98.1a18.81,18.81,0,0,0,9.38-16.24Z"/><path class="cls-9" d="M827.05,202.84,657.67,300.63l126.14,72.78L957.24,273.29a11.76,11.76,0,0,0,0-20.37l-86.8-50.08a43.35,43.35,0,0,0-43.39,0Z"/><path class="cls-22" d="M783.81,373.41,657.67,300.63V320.2L783.81,393Z"/><path class="cls-22" d="M775.23,367.68a1.13,1.13,0,0,1-.53-.14L668.78,306.38a1,1,0,0,1-.37-.24,1.19,1.19,0,0,1-.25-.38,1.09,1.09,0,0,1-.06-.44.94.94,0,0,1,.13-.43,1,1,0,0,1,.29-.34,1,1,0,0,1,.41-.18,1,1,0,0,1,.45,0,1.05,1.05,0,0,1,.4.19l105.93,61.15a1.05,1.05,0,0,1,.49.64,1.06,1.06,0,0,1-.11.8,1,1,0,0,1-.35.38A1.16,1.16,0,0,1,775.23,367.68Z"/><path class="cls-22" d="M814.92,344.77a1.1,1.1,0,0,1-.53-.14L708.47,283.47a1,1,0,0,1-.43-.64,1.08,1.08,0,0,1,.11-.77,1,1,0,0,1,.61-.48,1,1,0,0,1,.77.06l105.92,61.13a1,1,0,0,1,.63.48,1,1,0,0,1-.37,1.41A1,1,0,0,1,814.92,344.77Z"/><path class="cls-22" d="M854.61,321.85a1.07,1.07,0,0,1-.52-.14L748.16,260.55a1.06,1.06,0,0,1-.43-.64,1.08,1.08,0,0,1,.11-.77,1,1,0,0,1,.61-.48,1,1,0,0,1,.77.06l105.92,61.16a1,1,0,0,1,.51.5,1.06,1.06,0,0,1,.07.72,1,1,0,0,1-.41.59,1.08,1.08,0,0,1-.7.19Z"/><path class="cls-22" d="M894.32,298.93a1.08,1.08,0,0,1-.53-.14L787.86,237.63a1.1,1.1,0,0,1-.3-.27,1.09,1.09,0,0,1-.19-.37,1.12,1.12,0,0,1,0-.41,1.06,1.06,0,0,1,.13-.39,1.14,1.14,0,0,1,.27-.31,1.16,1.16,0,0,1,.37-.18,1.12,1.12,0,0,1,.41,0,.91.91,0,0,1,.38.13L894.84,297a1.08,1.08,0,0,1,.51.5,1.11,1.11,0,0,1,.06.72,1.08,1.08,0,0,1-.4.59,1.07,1.07,0,0,1-.69.19Z"/><path class="cls-22" d="M934.06,276a1.08,1.08,0,0,1-.53-.14l-106-61.1a1.06,1.06,0,0,1-.31-1.36,1.09,1.09,0,0,1,.57-.49,1,1,0,0,1,.74,0L934.49,274.1a1,1,0,0,1,.48.64,1.06,1.06,0,0,1-.1.8,1,1,0,0,1-.35.33A1,1,0,0,1,934.06,276Z"/><path class="cls-23" d="M876,251.24H849.43V275H876l20.55-11.86Z"/><path class="cls-24" d="M814.34,286.82H787.82v23.72h26.52l20.54-11.86Z"/><path class="cls-20" d="M828.89,239.51V263.1L849.43,275V251.37Z"/><path class="cls-17" d="M870,239.51V263.1L849.43,275V251.37Z"/><path class="cls-9" d="M828.89,239.51l20.54-11.86L870,239.51l-20.54,11.86Z"/><path class="cls-20" d="M767.27,275.09v23.59l20.54,11.86V287Z"/><path class="cls-17" d="M808.36,275.09v23.59l-20.54,11.86V287Z"/><path class="cls-9" d="M767.27,275.09l20.54-11.86,20.54,11.86L787.81,287Z"/><path class="cls-25" d="M803.43,416.38V315.16l-61.71,30L641.43,287.29c-12-7-30.24-7.69-40.66-1.67L497.71,345.18l-61.78-30V415.25a10.46,10.46,0,0,0,0,1.12c.29,4.43,3.65,9,9.94,12.65l152.06,87.75a46.82,46.82,0,0,0,21.76,5.72c7.06.18,13.88-1.15,18.9-4l157.83-91.21C801.39,424.32,803.69,420.42,803.43,416.38Z"/><path class="cls-9" d="M803.44,315.16c-.3-4.43-3.65-9-9.94-12.66L641.44,214.77c-12-6.94-30.25-7.69-40.67-1.66L442.94,304.34c-5,2.87-7.26,6.77-7,10.82.3,4.42,3.65,9,9.94,12.65l152.06,87.71c12,6.94,30.25,7.69,40.67,1.67L796.44,326C801.4,323.1,803.69,319.2,803.44,315.16Z"/><path class="cls-26" d="M803.44,311.77c-.3-4.43-3.65-9-9.94-12.66L641.44,211.42c-12-6.94-30.25-7.69-40.67-1.67L442.94,301c-5,2.87-7.26,6.77-7,10.82.3,4.42,3.65,9,9.94,12.65l152.06,87.71c12,6.94,30.25,7.69,40.67,1.67l157.83-91.21C801.4,319.77,803.69,315.83,803.44,311.77Z"/><path class="cls-27" d="M719.05,469.9l-57.5-54.65v89.88l43.76,25.27a22.4,22.4,0,0,0,22.36,0l91-52.55a17.22,17.22,0,0,0,8.63-14.94v-44Z"/><path class="cls-9" d="M704.6,476.94l-43-57.76,116-67L825.19,416a10.89,10.89,0,0,1,1.91,4.16,11,11,0,0,1-1.81,8.77,10.86,10.86,0,0,1-3.4,3.07L733.77,482.9a22.36,22.36,0,0,1-29.17-6Z"/><path class="cls-28" d="M704.6,473l-43-57.76,116-67,47.59,63.84a10.89,10.89,0,0,1,1.91,4.16,11,11,0,0,1-1.81,8.77,10.86,10.86,0,0,1-3.4,3.07L733.77,479a22.36,22.36,0,0,1-29.17-6Z"/><path class="cls-14" d="M711,456.36l-29.08-39a4.2,4.2,0,0,1-.72-1.58,4.08,4.08,0,0,1,0-1.74,4.28,4.28,0,0,1,.7-1.59,4.33,4.33,0,0,1,1.29-1.16l83-48a4.13,4.13,0,0,1,2.92-.47,4.07,4.07,0,0,1,2.48,1.58l29.09,39a4.05,4.05,0,0,1,.72,1.58,4.25,4.25,0,0,1,0,1.74,4.08,4.08,0,0,1-.71,1.59,4.13,4.13,0,0,1-1.29,1.17l-83,48a4.1,4.1,0,0,1-2.91.47A4.17,4.17,0,0,1,711,456.36Z"/><path class="cls-29" d="M691.55,522.45v-67l-30-40.24v89.88Z"/><path class="cls-30" d="M158.46,715l-99.53-64.1-.06,16.85a16.25,16.25,0,0,0,8.19,14l91.46,52.78a33.69,33.69,0,0,0,33.68,0l391.49-226V489L192.14,715a33.69,33.69,0,0,1-33.68,0Z"/><path class="cls-31" d="M457.55,416.17V381.88l.06-.31.06-.29a3,3,0,0,1,.08-.32c0-.09.05-.18.07-.26a1.31,1.31,0,0,1,.1-.32c0-.11,0-.15.08-.22l.12-.32a1.54,1.54,0,0,0,.08-.19l.16-.32.08-.16.18-.32.08-.13.21-.31.08-.1.23-.31.08-.08a3.84,3.84,0,0,1,.27-.29l.06-.06.3-.28H460l.33-.26.38-.25c.13-.08.27-.15.41-.22,2.57-1.27,6.21-.89,10.27,1.45l98,56.48c7.76,4.47,14.06,14.38,14.06,22.14v32.42Z"/><path class="cls-32" d="M497.7,393,63.7,643.54a9.72,9.72,0,0,0,0,16.82L158.43,715a33.69,33.69,0,0,0,33.68,0L583.69,489V456.53c0-7.76-6.3-17.67-14.06-22.14Z"/><path class="cls-22" d="M423.48,571.24a1,1,0,0,1-.53-.15l-105.9-61.15a1.11,1.11,0,0,1-.36-.25,1,1,0,0,1-.23-.37,1.09,1.09,0,0,1-.06-.44,1,1,0,0,1,.12-.42,1.15,1.15,0,0,1,.29-.33,1.05,1.05,0,0,1,.4-.19,1.09,1.09,0,0,1,.44,0,1,1,0,0,1,.4.18l106,61.16a1.06,1.06,0,0,1,.49.51,1.12,1.12,0,0,1,0,.7,1.06,1.06,0,0,1-.39.58,1.12,1.12,0,0,1-.68.21Z"/><path class="cls-22" d="M463.17,548.32a1.13,1.13,0,0,1-.53-.14L356.72,487a1.1,1.1,0,0,1-.3-.27.91.91,0,0,1-.18-.37.94.94,0,0,1,0-.41,1.06,1.06,0,0,1,.13-.39,1.14,1.14,0,0,1,.27-.31,1.16,1.16,0,0,1,.37-.18,1.12,1.12,0,0,1,.41,0,.91.91,0,0,1,.38.13L463.7,546.35a1,1,0,0,1,.46.64,1,1,0,0,1-.11.78,1,1,0,0,1-.36.4A1,1,0,0,1,463.17,548.32Z"/><path class="cls-22" d="M383.79,594.15a1,1,0,0,1-.52-.14L277.33,532.86a1.06,1.06,0,0,1-.43-.64,1.08,1.08,0,0,1,.11-.77,1,1,0,0,1,.61-.48,1,1,0,0,1,.77.06l105.93,61.16a1,1,0,0,1,.32.26.87.87,0,0,1,.19.37,1,1,0,0,1,0,.42,1.32,1.32,0,0,1-.15.39,1,1,0,0,1-.4.38A1.07,1.07,0,0,1,383.79,594.15Z"/><path class="cls-22" d="M344.05,617.07a1,1,0,0,1-.51-.14l-105.9-61.16a1,1,0,0,1-.48-.64,1,1,0,0,1,.11-.8,1,1,0,0,1,.64-.49,1.07,1.07,0,0,1,.8.11L344.62,615.1a1.05,1.05,0,0,1,.52.5,1.12,1.12,0,0,1,.06.72,1,1,0,0,1-.41.59,1.08,1.08,0,0,1-.7.19Z"/><path class="cls-22" d="M304.4,640a1,1,0,0,1-.53-.15L198,578.69a1.14,1.14,0,0,1-.31-.27,1.27,1.27,0,0,1-.18-.37,1.42,1.42,0,0,1,0-.41,1.06,1.06,0,0,1,.13-.39,1.16,1.16,0,0,1,.27-.31,1.09,1.09,0,0,1,.37-.19,1.14,1.14,0,0,1,.41,0,.9.9,0,0,1,.39.13L304.93,638a1.06,1.06,0,0,1,.49.51,1.12,1.12,0,0,1,.05.7,1.06,1.06,0,0,1-.39.58,1.12,1.12,0,0,1-.68.21Z"/><path class="cls-22" d="M264.71,662.9a1.1,1.1,0,0,1-.53-.14L158.26,601.6a1.09,1.09,0,0,1-.49-.64,1.06,1.06,0,0,1,.11-.8,1.09,1.09,0,0,1,.64-.49,1,1,0,0,1,.79.11l105.93,61.15a1.05,1.05,0,0,1,.49.64,1.06,1.06,0,0,1-.11.8.89.89,0,0,1-.38.39A1,1,0,0,1,264.71,662.9Z"/><path class="cls-22" d="M225.05,685.82a1.11,1.11,0,0,1-.51-.14l-106-61.16a1,1,0,0,1-.31-.27.91.91,0,0,1-.18-.37,1,1,0,0,1,0-.41,1.28,1.28,0,0,1,.13-.39,1,1,0,0,1,.28-.31,1,1,0,0,1,.37-.18,1.12,1.12,0,0,1,.41,0,1,1,0,0,1,.38.14l105.93,61.15a1.08,1.08,0,0,1,.51.5,1.12,1.12,0,0,1,.06.72,1,1,0,0,1-.41.59,1.07,1.07,0,0,1-.69.19Z"/><path class="cls-22" d="M185.33,708.77a1.08,1.08,0,0,1-.53-.14L78.87,647.44a1.06,1.06,0,0,1-.43-.64,1.08,1.08,0,0,1,.11-.77,1,1,0,0,1,.61-.48,1,1,0,0,1,.77.06l105.93,61.16a1,1,0,0,1,.62.48,1,1,0,0,1-1.15,1.52Z"/><path class="cls-22" d="M502.87,525.4a1.08,1.08,0,0,1-.53-.14L396.42,464.11a1,1,0,0,1-.44-.64,1.08,1.08,0,0,1,.11-.77,1,1,0,0,1,.61-.48,1.06,1.06,0,0,1,.78.06l105.91,61.16a.85.85,0,0,1,.37.18.83.83,0,0,1,.26.3,1.06,1.06,0,0,1,.11.78,1.06,1.06,0,0,1-.18.37,1.08,1.08,0,0,1-.3.26.91.91,0,0,1-.38.13,1.07,1.07,0,0,1-.4,0Z"/><path class="cls-22" d="M542.56,502.49a1,1,0,0,1-.52-.14L436.11,441.19a1,1,0,0,1-.44-.64,1.08,1.08,0,0,1,.11-.77,1,1,0,0,1,.61-.48,1.06,1.06,0,0,1,.78.06l105.89,61.16a1,1,0,0,1,.32.26.87.87,0,0,1,.19.37.86.86,0,0,1,0,.42.93.93,0,0,1-.15.39,1,1,0,0,1-.37.38A1.16,1.16,0,0,1,542.56,502.49Z"/><path class="cls-22" d="M582.25,479.57a1,1,0,0,1-.52-.14L475.81,418.27a1,1,0,0,1-.38-.24,1.19,1.19,0,0,1-.25-.38,1.09,1.09,0,0,1-.06-.44,1.08,1.08,0,0,1,.13-.43,1,1,0,0,1,.29-.34,1,1,0,0,1,.41-.18,1,1,0,0,1,.45,0,1.09,1.09,0,0,1,.41.19L582.73,477.6a1,1,0,0,1,.5.5,1.05,1.05,0,0,1,.07.72,1.1,1.1,0,0,1-.41.59,1.05,1.05,0,0,1-.69.19Z"/><path class="cls-33" d="M237.68,619.75H211.15v23.72h26.53l20.53-11.86Z"/><path class="cls-34" d="M347.08,556.59H320.55v23.72h26.53l20.54-11.86Z"/><path class="cls-35" d="M456.49,493.43H430v23.72h26.54L477,505.29Z"/><path class="cls-20" d="M409.42,481.7v23.59L430,517.15V493.56Z"/><path class="cls-17" d="M450.5,481.7v23.59L430,517.15V493.56Z"/><path class="cls-9" d="M409.42,481.7,430,469.84,450.5,481.7,430,493.56Z"/><path class="cls-20" d="M300,544.86v23.59l20.54,11.86V556.72Z"/><path class="cls-17" d="M341.09,544.86v23.59l-20.54,11.86V556.72Z"/><path class="cls-9" d="M300,544.86,320.55,533l20.54,11.86-20.54,11.86Z"/><path class="cls-20" d="M190.61,608v23.58l20.54,11.86V619.89Z"/><path class="cls-17" d="M231.7,608v23.58l-20.55,11.86V619.89Z"/><path class="cls-9" d="M190.61,608l20.54-11.86L231.7,608l-20.55,11.86Z"/><path class="cls-20" d="M868.13,590.42a23.13,23.13,0,0,1-11.53-3.08l-98.79-57A17.75,17.75,0,0,1,749,515V503a14.45,14.45,0,0,0-7.22-12.5l-1-.59a1.1,1.1,0,0,1-.3-.27.91.91,0,0,1-.18-.37,1,1,0,0,1,0-.41,1.28,1.28,0,0,1,.13-.39,1,1,0,0,1,.28-.31A1,1,0,0,1,741,488a1.12,1.12,0,0,1,.41,0,1,1,0,0,1,.38.14l1,.58A16.56,16.56,0,0,1,751.05,503v12a15.71,15.71,0,0,0,7.79,13.51l98.8,57a21.06,21.06,0,0,0,21,0l47.1-27.19a1,1,0,0,1,.74,0,1,1,0,0,1,.57.49,1.06,1.06,0,0,1-.31,1.36l-47.1,27.19A23.17,23.17,0,0,1,868.13,590.42Z"/><path class="cls-17" d="M598.74,681.82a1.1,1.1,0,0,1-.68-.21,1.06,1.06,0,0,1-.39-.58,1.12,1.12,0,0,1,.05-.7,1.08,1.08,0,0,1,.48-.51l49.32-28.47,136.63-79.89a9.48,9.48,0,0,0,0-16.4L752.9,537a24,24,0,0,1-12-20.73V504.7a13,13,0,0,0-6.47-11.19,1,1,0,0,1-.31-.27.91.91,0,0,1-.18-.37,1,1,0,0,1,0-.41,1.07,1.07,0,0,1,.14-.39,1,1,0,0,1,.27-.31,1,1,0,0,1,.37-.18,1.12,1.12,0,0,1,.41,0,1.14,1.14,0,0,1,.39.14,15.11,15.11,0,0,1,7.52,13v11.57A22,22,0,0,0,754,535.18l31.25,18a11.61,11.61,0,0,1,5.77,10,11.68,11.68,0,0,1-1.52,5.77,11.54,11.54,0,0,1-4.19,4.25l-136.68,80-49.32,28.48A1.07,1.07,0,0,1,598.74,681.82Z"/><g class="cls-1"><path d="M790,786.58c-.3-4.42-3.65-9-9.93-12.65L628,686.22c-12-6.94-30.25-7.69-40.67-1.67L429.5,775.77c-5,2.88-7.27,6.78-7,10.82.29,4.43,3.63,9,9.93,12.66L584.5,887c12,6.94,30.24,7.69,40.65,1.66L783,797.41C788,794.53,790.25,790.63,790,786.58Z"/></g><path class="cls-36" d="M790,783.29V768.2l-61.71,30L628,740.34c-12-6.94-30.24-7.69-40.66-1.67L484.25,798.23l-61.78-30v14a10.46,10.46,0,0,0,0,1.12c.29,4.42,3.64,9,9.93,12.65l152.07,87.71a47.06,47.06,0,0,0,21.76,5.72c7.06.17,13.88-1.15,18.9-4L783,794.22C788,791.22,790.24,787.33,790,783.29Z"/><path class="cls-9" d="M790,768.2c-.3-4.42-3.65-9-9.93-12.65L628,667.84c-12-6.94-30.25-7.69-40.67-1.67L429.5,757.38c-5,2.88-7.27,6.78-7,10.82.29,4.43,3.63,9,9.93,12.66L584.5,868.57c12,6.94,30.24,7.68,40.65,1.66L783,779C788,776.15,790.25,772.25,790,768.2Z"/><path class="cls-37" d="M790,764.64c-.3-4.43-3.65-9-9.93-12.66L628,664.27c-12-6.94-30.25-7.68-40.67-1.66L429.5,753.82c-5,2.87-7.27,6.77-7,10.82.29,4.42,3.63,9,9.93,12.65L584.5,865c12,6.94,30.24,7.69,40.65,1.67L783,775.46C788,772.58,790.25,768.68,790,764.64Z"/><path class="cls-38" d="M614.84,760.42l43.43-25.12c5-2.87,7.28-6.77,7-10.82-.28-4.42-3.64-9-9.93-12.65L629.54,697c-12-6.94-30.24-7.69-40.66-1.67l-92,53.22c-5,2.88-7.27,6.78-7,10.82.29,4.43,3.64,9,9.94,12.66l25.81,14.82c6.6,3.8,15,5.73,23.06,5.72H709.06V760.42Z"/><path class="cls-13" d="M573,760c-1.22,2.13,5.8,5.22,9.12,6,2,.45,4.54,3.12,6.49,2.55,4.88-1.42,2.67-5.14,1.92-6.66a3.9,3.9,0,0,0-1.37-1.69,4,4,0,0,0-2-.71,42,42,0,0,1-6.82-.13C578.73,759,574.61,757.19,573,760Z"/><path class="cls-9" d="M583.38,758.63c0,2,.33,4.46,3.63,4.87,6,.73,2.1-6.22,2.1-6.22Z"/><path class="cls-39" d="M611.92,724.54c-15.62-13.37-33.34-17.69-40.5-11.23S579.18,752.24,582,758s9.33,3.66,8.34-.48-2.82-25.8-2.82-25.8S602.18,743.7,616.17,743C626.38,742.51,615.51,727.62,611.92,724.54Z"/><path class="cls-4" d="M581.13,778.56,606,764.2l24.87,14.36L606,792.92Z"/><path class="cls-22" d="M581.13,747.31v28.55L606,790.22V761.67Z"/><path class="cls-4" d="M630.87,747.31v28.55L606,790.22V761.67Z"/><path class="cls-21" d="M581.13,747.31,606,733l24.87,14.36L606,761.67Z"/><path class="cls-13" d="M548.72,767c-1.23,2.13,5.8,5.23,9.12,6,1.94.45,4.53,3.12,6.47,2.55,4.89-1.41,2.68-5.14,1.93-6.66a3.81,3.81,0,0,0-1.36-1.69,4,4,0,0,0-2-.71s-5.16.27-6.82-.13S550.37,764.17,548.72,767Z"/><path class="cls-9" d="M559.15,765.61c-.06,2,.33,4.46,3.62,4.86,6,.73,4.28-4.86,4.28-4.86Z"/><path class="cls-40" d="M595.2,734.19c-17.83-10.26-33-17.8-40.17-11.34s2.08,32.3,3,40c.72,6.4,9.2,7.69,9.4,3.43.24-4.84,0-25.81,0-25.81s18.06,12.85,32,12.17c10.21-.51,17.05-5.06,19.72-8.48,5.25-6.73,2.33-17.11,2.33-17.11Z"/><path class="cls-41" d="M627.59,686.53c-.27-4.43-3.64-9-9.92-12.66l-25.81-14.82c-12-6.94-30.24-7.69-40.67-1.66l-92,53.22c-5,2.87-7.26,6.77-7,10.82.3,4.42,3.64,9,9.94,12.65l25.81,14.82c12,6.94,30.24,7.69,40.65,1.67l92-53.23C625.57,694.47,627.87,690.57,627.59,686.53Z"/><path class="cls-42" d="M627.59,681.59c-.27-4.43-3.64-9-9.92-12.66l-25.81-14.82c-12-6.94-30.24-7.69-40.67-1.67l-92,53.23c-5,2.87-7.26,6.77-7,10.82.3,4.42,3.64,9,9.94,12.65L487.94,744c12,6.94,30.24,7.69,40.65,1.67l92-53.23C625.57,689.53,627.87,685.63,627.59,681.59Z"/><path class="cls-14" d="M513.94,725.5l-14.88-8.6a5.61,5.61,0,0,1-2.83-4.89,5.73,5.73,0,0,1,.75-2.83,5.56,5.56,0,0,1,2.08-2.06l66.76-38.55a15.07,15.07,0,0,1,15.11,0l14.89,8.6a5.63,5.63,0,0,1,2.82,4.89,5.63,5.63,0,0,1-2.82,4.89L529.06,725.5a15.16,15.16,0,0,1-15.12,0Z"/><path class="cls-15" d="M569.83,694.55a13,13,0,0,1-4.78-.78c-2.11-.91-3.63-1.36-6.18,0-1.53.84-3.31,2.92-1.91,3.28,2.32.59,2.6-.37,3.27-.87a3.59,3.59,0,0,1,1.52-.27,3.48,3.48,0,0,1,1.48.4c.38.5-1.11,1.77-.91,2.19.47,1,2.4-1.16,4.68-1.74a5.75,5.75,0,0,1,3,0C569.93,696.53,569.83,694.55,569.83,694.55Z"/><path class="cls-29" d="M568.68,693.92c-.66-.18-1.81,2.76-.77,3.31S590.7,705,590.7,705l10.35-15.93-13.19,6.77Z"/><path class="cls-15" d="M546.34,707.11c-3.21-2.89-3.85-2.15-3.64-1.6s1.18,1.19.93,1.56-.88-.39-3.7.73-4.91,4.42-3.3,4.86,4.83-1,6.89-.42,4.94-.72,4.94-.72l.17-2.32Z"/><path class="cls-43" d="M586.05,691c-3.14,16.06,7.12,21-.83,38.21-4.4,9.54,5.8,17,17.9,17.19,9.07.11,20.72-8.2,20.62-12.37-.69-30.87-4.57-47-13-56.58S587.8,682.22,586.05,691Z"/><path class="cls-15" d="M605.06,681.12c1.57-1.08,1.19-2.85-1.14-3.34-2.67-.56-1.37-7-1.37-7l-9,6s1.74,3.21.89,4C590.63,684.11,593.19,689.18,605.06,681.12Z"/><path class="cls-15" d="M593.56,676.77c-.49-1.16-2.88.66-4.32,0s-5.67-11.43-2.74-16.33,11.75-1,16,10.35Z"/><path class="cls-14" d="M584.06,662.38c.94,3.65,5.89,6.47,6.46,7.14s-.18-1,.61-1.27,2.13.57,1.55,2.54,3.26,3.78,4.37,4.43,5.33,1.15,6.68.3-.25-8.45.33-13.26-1.22-8.34-5.56-7.53-3.83-4.87-7.7-3.49-2.86,4.51-6.38,4.34S583.62,660.91,584.06,662.38Z"/><path class="cls-29" d="M549.79,708.29c-2.52.23-2.89,3.36-1.73,4.09s17.14,4.83,24.63,3.06c13-3.06,22.75-13.34,21.32-21.51-2.32-13.29-7.08-2.61-21,9.65C564.34,711.23,549.79,708.29,549.79,708.29Z"/><path class="cls-44" d="M487.46,589.77l62.42-36c4.48-2.59,8.11-.49,8.11,4.68v72.08c0,5.17-3.63,11.45-8.11,14l-62.42,36c-4.48,2.58-8.11.49-8.11-4.68V603.77C479.35,598.61,483,592.32,487.46,589.77Z"/><path class="cls-20" d="M549.58,598.9V570.17c0-.92-.75-1.24-1.66-.71a3.36,3.36,0,0,0-1.16,1.12,3.43,3.43,0,0,0-.51,1.52v28.72c0,.93.74,1.24,1.67.71a3.49,3.49,0,0,0,1.14-1.12A3.41,3.41,0,0,0,549.58,598.9Z"/><path class="cls-20" d="M535.31,623.38V601.46c0-.92-.75-1.24-1.67-.7a3.42,3.42,0,0,0-1.67,2.63v21.92c0,.92.74,1.24,1.67.7a3.46,3.46,0,0,0,1.67-2.63Z"/><path class="cls-20" d="M506.77,626.63v-16c0-.92-.75-1.24-1.67-.71A3.49,3.49,0,0,0,504,611a3.59,3.59,0,0,0-.53,1.52v16c0,.92.75,1.23,1.67.7a3.46,3.46,0,0,0,1.67-2.63Z"/><path class="cls-20" d="M492.5,641.37v-16c0-.92-.75-1.24-1.67-.7a3.56,3.56,0,0,0-1.14,1.11,3.45,3.45,0,0,0-.52,1.52v16c0,.92.75,1.24,1.66.7a3.46,3.46,0,0,0,1.67-2.63Z"/><path class="cls-20" d="M521.05,639.48V591.67c0-.92-.75-1.24-1.67-.71a3.49,3.49,0,0,0-1.14,1.12,3.59,3.59,0,0,0-.53,1.52v47.81c0,.92.75,1.24,1.67.7a3.46,3.46,0,0,0,1.67-2.63Z"/><path class="cls-45" d="M558,659.8,479.35,708V666.86l78.64-46Z"/><path class="cls-15" d="M780.8,403.42c-3.92-.67-6.19-.91-7.16-2.5-.7-1.17,1.29-.09,1.91-.21.44-.08,0-1.83-1.31-2.48s-2.72-1.56-1.81-2a4.28,4.28,0,0,1,1.78-.16,4.37,4.37,0,0,1,1.69.59c.92.61,2.21,1.32,2.6,2.69s2.11,1.38,2.11,1.38Z"/><path class="cls-15" d="M766.29,424.2c-3.64,1.13-2.16,2.06-5.72,1.2s-3.57-.87-4.28-1.67c-1-1.14-1-2.74,1.38-2.46s3.59.78,3.76.47-.64-1.44,0-1.55.76.52,1.26,1.21,3.14-.49,3.14-.49Z"/><path class="cls-46" d="M791.61,507.11c0,1.57.44,2.33,0,3.12a3.22,3.22,0,0,1-1.56,1,3.32,3.32,0,0,1-1.85,0c-1.23-.51-2-.9-2.35-1.54s-.86-.56-1.81-.75-5-2.95-5.44-3.87c-.8-1.6,1.87-2.42,4.8-1.5a70.23,70.23,0,0,1,7.4,3.06Z"/><path class="cls-47" d="M814,502.47c.1,2.69.21,3.11-.59,4s-3.63-.17-3.87-.84-.6,0-1.6-.59-5.1-2.41-5.42-3.58,1.42-1.75,3.43-1.21a29.85,29.85,0,0,0,4.7.65Z"/><path class="cls-48" d="M818.56,424.31c-1.13,22-2.93,32.33-2.68,40s-.63,30.83-1.15,36.48-6.22,2.9-6.31.36-4.52-32.08-5.06-38.85-2.21-38.67-2.21-38.67Z"/><path class="cls-49" d="M810.75,440.28c-10.68,24.74-12.87,23.5-15.54,34.21s-2.46,26.54-2.71,31-5.73,4-6.27.36-3.09-33.35-2.3-40.42,13-41.64,13-41.64l11.21,5.65Z"/><path class="cls-15" d="M805.38,381.7c-1.18-1.69-1.77-4.28-1.3-5.66s1.73-8.57-3.87-10.28-9.63,3.22-8.39,8.59,2,8.35,3.41,8.46,2-.23,2.33.91,6.47-.37,6.47-.37l1.41-.56Z"/><path class="cls-50" d="M780.33,399.7c20.27-4.67,26.86-17.34,26.86-17.34l6.1,8.54S803,405,781.91,404.32C777.17,404.16,778.74,400.06,780.33,399.7Z"/><path class="cls-51" d="M806.7,382c-11.61,7.54-12.45,6.87-15.28,17.2-2.12,7.74,4.27,27.23,0,37.79-1.49,3.72,1.4,5.58,4.58,4.72,4.09-1.1,2.63,3.53,9.44,5.69,6.56,2.08,12.35-4.32,14.1-11.07.9-3.47.1-31.26-.35-33.21C816.33,390.77,810.49,379.53,806.7,382Z"/><path class="cls-13" d="M805.38,381.7a11.2,11.2,0,0,1,2.32,2.24c.25.42-5.84,3.06-9.89,3.85l-.24-4.07S805.68,383,805.38,381.7Z"/><path class="cls-13" d="M793.32,363.28c-5.66.72-4.56,6.67-3,9.06s1.6,1.56,3.65,2.69c0,0,.39-.21,1.12,3.22l1.09.23c.36.07-.39-1,.09-1.48s2.24.53,1.68,2.12-.59,1.14-.59,1.14,1.45,1.48,2.22,1.15,4.53-.78,4.64-2.17,1.6-3.38,1.1-7.08-3.15-7-6.8-7.45S794.66,363.1,793.32,363.28Z"/><path class="cls-52" d="M764.48,421.06c20.3-10.7,21.27-11.07,27.11-23.6,6.35-13.61,8.73,1.81,8.45,4.55-1.78,17.41-11.35,18.16-31.92,22.88C763.5,426,763.05,421.82,764.48,421.06Z"/><path class="cls-22" d="M327.6,199.35V348.66a5.74,5.74,0,0,1-2.89,5,5.74,5.74,0,0,1-2.89.77,5.87,5.87,0,0,1-2.89-.77L163.28,263.77A19.37,19.37,0,0,1,153.6,247V97.77a5.85,5.85,0,0,1,.78-2.89,5.76,5.76,0,0,1,7.89-2.11l155.66,89.86a19.36,19.36,0,0,1,9.67,16.72Z"/><path class="cls-53" d="M323.54,201.77V351.09a5.77,5.77,0,0,1-.78,2.89,5.87,5.87,0,0,1-2.12,2.11,5.8,5.8,0,0,1-2.88.77,5.88,5.88,0,0,1-2.9-.77L159.21,266.23a19.37,19.37,0,0,1-9.67-16.76V100.16a5.77,5.77,0,0,1,8.67-5L313.86,185a19.32,19.32,0,0,1,9.68,16.75Z"/><path class="cls-9" d="M281.24,273l3.16,1.82v-3.65l-3.16-1.82Z"/><path class="cls-9" d="M289.42,277.68l3.16,1.82v-3.65L289.42,274Z"/><path class="cls-20" d="M297.58,282.39l3.16,1.83v-3.65l-3.16-1.82Z"/><path class="cls-20" d="M305.75,287.11l3.16,1.83v-3.65l-3.16-1.83Z"/><path class="cls-9" d="M256.72,268.2l3.16,1.82v-3.65l-3.16-1.82Z"/><path class="cls-9" d="M264.89,272.91l3.16,1.83v-3.65l-3.16-1.82Z"/><path class="cls-9" d="M273.07,277.63l3.16,1.83v-3.65L273.07,274Z"/><path class="cls-9" d="M281.24,282.35l3.16,1.82v-3.65l-3.16-1.82Z"/><path class="cls-9" d="M289.42,287.07l3.16,1.82v-3.65l-3.16-1.82Z"/><path class="cls-20" d="M297.58,291.78l3.16,1.83V290l-3.16-1.82Z"/><path class="cls-20" d="M305.75,296.5l3.16,1.83v-3.65l-3.16-1.83Z"/><path class="cls-9" d="M256.72,277.59l3.16,1.82v-3.65l-3.16-1.82Z"/><path class="cls-9" d="M264.89,282.31l3.16,1.82v-3.65l-3.16-1.82Z"/><path class="cls-9" d="M273.07,287l3.16,1.83V285.2l-3.16-1.83Z"/><path class="cls-9" d="M281.24,291.74l3.16,1.82v-3.64l-3.16-1.83Z"/><path class="cls-9" d="M289.42,296.46l3.16,1.82v-3.65l-3.16-1.82Z"/><path class="cls-20" d="M297.58,301.18l3.16,1.82v-3.65l-3.16-1.82Z"/><path class="cls-20" d="M305.75,305.89l3.16,1.83v-3.65l-3.16-1.82Z"/><path class="cls-9" d="M256.72,287l3.16,1.82v-3.65l-3.16-1.82Z"/><path class="cls-9" d="M264.89,291.7l3.16,1.82v-3.65l-3.16-1.82Z"/><path class="cls-9" d="M273.07,296.41l3.16,1.83v-3.65l-3.16-1.82Z"/><path class="cls-9" d="M281.24,301.13,284.4,303v-3.65l-3.16-1.83Z"/><path class="cls-9" d="M289.42,305.85l3.16,1.82V304l-3.16-1.82Z"/><path class="cls-20" d="M297.58,310.57l3.16,1.82v-3.65l-3.16-1.82Z"/><path class="cls-20" d="M305.75,315.28l3.16,1.83v-3.65l-3.16-1.82Z"/><path class="cls-9" d="M256.72,296.37l3.16,1.82v-3.65l-3.16-1.82Z"/><path class="cls-9" d="M264.89,301.09l3.16,1.82v-3.65l-3.16-1.82Z"/><path class="cls-9" d="M273.07,305.81l3.16,1.82V304l-3.16-1.82Z"/><path class="cls-9" d="M281.24,310.52l3.16,1.83V308.7l-3.16-1.82Z"/><path class="cls-9" d="M289.42,315.24l3.16,1.82v-3.64l-3.16-1.83Z"/><path class="cls-9" d="M166.29,176.45l-.09,0-.07-.05a.35.35,0,0,1,0-.08.29.29,0,0,1,0-.09V157.56a.24.24,0,0,1,.07-.16.21.21,0,0,1,.16-.07.22.22,0,0,1,.17.07.23.23,0,0,1,.06.16v18.65a.14.14,0,0,1,0,.09.35.35,0,0,1,0,.08l-.07.05Z"/><path class="cls-9" d="M189.58,189.89a.24.24,0,0,1-.23-.23V144a.24.24,0,0,1,.07-.16.2.2,0,0,1,.16-.07.23.23,0,0,1,.17.07.23.23,0,0,1,.06.16v45.65a.23.23,0,0,1-.06.16A.28.28,0,0,1,189.58,189.89Z"/><path class="cls-9" d="M193.43,197.55l-7.69-4.45v3.69l7.69,4.45Z"/><path class="cls-9" d="M169.74,183.87l-7.7-4.44v3.68l7.7,4.45Z"/><path class="cls-9" d="M212.88,203.34l-.09,0a.18.18,0,0,1-.08,0l-.05-.07a.29.29,0,0,1,0-.09V184.46a.22.22,0,0,1,.09-.14.25.25,0,0,1,.15,0,.27.27,0,0,1,.15,0,.25.25,0,0,1,.08.14v18.65a.28.28,0,0,1,0,.09l0,.07-.08,0Z"/><path class="cls-9" d="M216.74,211,209,206.55v3.69l7.72,4.45Z"/><path class="cls-9" d="M236.18,216.71a.24.24,0,0,1-.17-.07.23.23,0,0,1-.06-.16V170.82a.23.23,0,0,1,.06-.16.21.21,0,0,1,.17-.07.21.21,0,0,1,.16.07.23.23,0,0,1,.06.16v45.66a.23.23,0,0,1-.06.16A.26.26,0,0,1,236.18,216.71Z"/><path class="cls-9" d="M240,224.45,232.33,220v3.69l7.69,4.45Z"/><path class="cls-54" d="M259.46,230.16l-.09,0a.18.18,0,0,1-.07,0,.35.35,0,0,1-.05-.08.29.29,0,0,1,0-.09V211.27a.24.24,0,0,1,.07-.16.2.2,0,0,1,.16-.07.23.23,0,0,1,.17.07.23.23,0,0,1,.06.16v18.65a.14.14,0,0,1,0,.09.35.35,0,0,1-.05.08l-.08,0Z"/><path class="cls-9" d="M263.32,237.9l-7.71-4.45v3.69l7.71,4.44Z"/><path class="cls-9" d="M282.76,243.6l-.09,0-.08-.05,0-.07a.29.29,0,0,1,0-.09v-45.6a.34.34,0,0,1,.09-.14.27.27,0,0,1,.15,0,.22.22,0,0,1,.23.19v45.6a.28.28,0,0,1,0,.09.2.2,0,0,1-.06.07.15.15,0,0,1-.07.05Z"/><path class="cls-9" d="M286.61,251.34l-7.71-4.44v3.69l7.71,4.44Z"/><path class="cls-9" d="M306.05,257.05a.24.24,0,0,1-.16-.07.23.23,0,0,1-.06-.16V238.17a.23.23,0,0,1,.06-.16.2.2,0,0,1,.16-.07.22.22,0,0,1,.17.07.24.24,0,0,1,.07.16v18.65a.24.24,0,0,1-.07.16A.26.26,0,0,1,306.05,257.05Z"/><path class="cls-9" d="M309.9,264.79l-7.69-4.44V264l7.69,4.45Z"/><path class="cls-55" d="M161.65,161.77a1.87,1.87,0,0,1-.85-1.46c0-.54.38-.76.85-.49l4.64,2.66h.06c3.13,1.81,6.72-.69,10.2-3.1,4.11-2.86,8.35-5.81,13-3.19l.13.07c4.47,2.58,8.36,8.81,12.12,14.83,3.54,5.66,7.2,11.51,11,13.74,3.46,2,6.66-3.88,9.74-9.55,3.8-7,7.73-14.21,13.56-10.84s9.5,12.77,13.18,21.94c3.24,8.05,6.29,15.65,10.06,17.83a52.6,52.6,0,0,0,11.83,4.67,52.72,52.72,0,0,1,11.45,4.43c4.45,2.41,8,7.17,11.37,11.77s7.06,9.53,11.82,12.28l.12.07,8.24,4.76a1.84,1.84,0,0,1,.61.63,1.82,1.82,0,0,1,.24.83c0,.54-.38.76-.85.49l-8.17-4.74-.15-.09c-5.26-3-9.06-8.17-12.74-13.15-3.32-4.49-6.47-8.74-10.38-10.86a51.19,51.19,0,0,0-11.1-4.28,54.24,54.24,0,0,1-12.21-4.84h-.06c-4.72-2.72-8-10.93-11.5-19.61s-7-17.42-11.74-20.16-8.62,4.35-12,10.61-6.74,12.39-11.27,9.78-8.39-8.84-12.17-14.88-7.17-11.48-11-13.69l-.11-.06c-3.93-2.2-7.92.58-11.79,3.26s-7.57,5.27-11.43,3l-.1-.06Z"/><path class="cls-20" d="M178.75,215.71c-9.23-5.33-16.71-1-16.71,9.65s7.48,23.62,16.71,29,16.72,1,16.72-9.65S188,221,178.75,215.71Zm0,34.08c-7.07-4.08-12.8-14-12.8-22.17s5.73-11.47,12.8-7.39,12.8,14,12.8,22.17-5.73,11.47-12.8,7.37Z"/><path class="cls-20" d="M228,244.14c-9.22-5.33-16.7-1-16.7,9.65s7.48,23.62,16.7,29,16.72,1,16.72-9.65S237.23,249.47,228,244.14Zm0,34.08c-7.06-4.08-12.79-14-12.79-22.17s5.73-11.47,12.79-7.39,12.81,14,12.81,22.17S235.05,282.3,228,278.22Z"/><path class="cls-20" d="M234.81,159l1.08,3.69,1.08-2.44,2.77,1.6v-6.23l-7.7-4.45v6.23Z"/><path class="cls-9" d="M189.32,232.77l3.23-.69c-3-6.81-8.06-13.07-13.8-16.38v4.52C183.14,222.77,187.05,227.56,189.32,232.77Z"/><path class="cls-9" d="M240.8,270.83c0,3.42-1,6-2.71,7.5l3.09,4.55c2.21-2,3.53-5.33,3.53-9.79,0-10.66-7.48-23.62-16.72-28.95v4.52C235.05,252.77,240.8,262.67,240.8,270.83Z"/><path class="cls-56" d="M501.55,316.77c.06.17.12.35.19.52v.09c.07.16.14.32.22.48v.1c.08.16.17.31.26.47v.1l.33.5.42.57a11,11,0,0,1,2.62-2.05l101.9-58.78c6.72-3.88,18.45-3.4,26.21,1.07l98,56.54a16,16,0,0,1,4.51,3.71,1.07,1.07,0,0,1,.14-.16l.16-.18.21-.27.12-.16.2-.29.1-.16a1.92,1.92,0,0,0,.18-.31l.08-.14c.06-.11.11-.22.16-.33a.61.61,0,0,0,.05-.12c0-.12.1-.24.14-.36v-.1l.12-.38V317l.09-.4v-1.41c-.19-2.86-2.35-5.82-6.4-8.16l-98-56.53c-7.76-4.48-19.49-5-26.21-1.08L505.76,308.18c-2.88,1.67-4.36,3.86-4.51,6.18a6.33,6.33,0,0,0,.29,2.33Z"/><path class="cls-9" d="M636.42,351.68l-82-46.83,143.09-83Zm-77.73-46.84,76.79,43.87L692.78,227Z"/><path class="cls-9" d="M697.14,226,593.69,199.89l47.06-86.8Zm-100.3-27.51,96.36,24.34-52.53-105.2Z"/><path class="cls-20" d="M547.49,299.57V310l9.09,5.26V304.82Z"/><path class="cls-17" d="M565.68,299.57V310l-9.1,5.26V304.82Z"/><path class="cls-9" d="M547.49,299.57l9.09-5.26,9.11,5.26-9.11,5.25Z"/><path class="cls-20" d="M686.07,219.16v10.45l9.11,5.25V224.41Z"/><path class="cls-17" d="M704.27,219.16v10.45l-9.1,5.25V224.41Z"/><path class="cls-9" d="M686.07,219.16l9.11-5.26,9.09,5.26-9.09,5.25Z"/><g class="cls-57"><path class="cls-58" d="M542.93,241.54V252l9.1,5.25V246.8Z"/><path class="cls-59" d="M561.13,241.54V252l-9.1,5.25V246.8Z"/><path class="cls-60" d="M542.93,241.54l9.1-5.25,9.1,5.25L552,246.8Z"/></g><g class="cls-57"><path class="cls-58" d="M686.07,159.39v10.45l9.11,5.25V164.64Z"/><path class="cls-59" d="M704.27,159.39v10.45l-9.1,5.25V164.64Z"/><path class="cls-60" d="M686.07,159.39l9.11-5.26,9.09,5.26-9.09,5.25Z"/></g><g class="cls-57"><path class="cls-58" d="M556.58,67.1V77.56l9.1,5.25V72.36Z"/><path class="cls-59" d="M574.79,67.1V77.56l-9.11,5.25V72.36Z"/><path class="cls-60" d="M556.58,67.1l9.1-5.25,9.11,5.25-9.11,5.26Z"/></g><path class="cls-20" d="M631.6,110.1v10.45l9.1,5.25V115.35Z"/><path class="cls-17" d="M649.81,110.1v10.45l-9.11,5.25V115.35Z"/><path class="cls-9" d="M631.6,110.1l9.1-5.26,9.1,5.26-9.1,5.25Z"/><path class="cls-20" d="M626.85,344.92v10.45l9.1,5.26V350.17Z"/><path class="cls-17" d="M645.06,344.92v10.45L636,360.63V350.17Z"/><path class="cls-9" d="M626.85,344.92l9.1-5.26,9.1,5.26-9.1,5.25Z"/><path class="cls-20" d="M582.08,191.56V206.7l13.19,7.61V199.17Z"/><path class="cls-17" d="M608.45,191.56V206.7l-13.18,7.61V199.17Z"/><path class="cls-9" d="M582.08,191.56,595.27,184l13.18,7.61-13.18,7.61Z"/><path class="cls-61" d="M127.84,337.66c-9.69,0-17.55,4.09-17.55,9.14s7.86,9.14,17.55,9.14h89.21V337.66Z"/><path class="cls-62" d="M124.57,349.39c2.63,2.21,3.18,2,3.52,3.52s-3.89.61-5.88-.13a6.45,6.45,0,0,1-2.45-1.7c-.83-1.08-1.66-.54-3.22-1.08s-1.75-2.06-1.08-4.44,5.22,0,6.21.73A28.37,28.37,0,0,1,124.57,349.39Z"/><path class="cls-15" d="M125.16,223c1.31-2.82,2.63-1,3.33-4.43s-.69-8-5.7-11.33-8.19.66-8.74,6.49a15.36,15.36,0,0,0,2.84,10.12l4.71,1.61Z"/><path class="cls-63" d="M129.82,282.77C128,296,126,302.25,125,312.32s-2.28,25.86-3.49,31.68c-.79,3.89-6.11,3.48-5.78,0,.38-3.23-.62-26.23-1.42-32.23s-1.94-32.13-1.94-32.13l17-13.4Z"/><path class="cls-62" d="M137.32,342.45c2.63,2.21,3.17,2,3.51,3.52s-3.87.61-5.87-.13a6.45,6.45,0,0,1-2.45-1.7c-.83-1.08-1.66-.54-3.22-1.08s-1.75-2.06-1.08-4.44,5.22,0,6.21.73A28.37,28.37,0,0,1,137.32,342.45Z"/><path class="cls-64" d="M135.47,283.27c3.9,13.19,3.22,12.07,2.23,22.14s-2.29,25.86-3.49,31.68c-.8,3.89-6.11,3.48-5.78,0,.32-3.3-.68-26.22-1.43-32.28s-2-32.13-2-32.13l4.75-10.12Z"/><path class="cls-65" d="M127.84,213c-1.93.51-2.27,1.4-3.26,2.3s-1.85,1.65-2.75,1c-1.72-1.18-1.26-2.33-2.13-3.34s-1-.91-.31-1.94,1.06-.94,2.39-.93a16.74,16.74,0,0,0,3.72-.63l.46.5s2.51-2.65.11-4.63-6.78-2.49-9.31-.57c0,0-3.1-.61-4.92,4s2.83,12.84,4.1,13.51c1,.52,1.82.06,2.27-1.84s.6-2.92-.49-3.55-1.6-2.62-.43-3.06,1.62-.28,2.28.75,1.74,5.82,2.65,6.6,2.83-.67,4.37-.74a10.46,10.46,0,0,1,1.12,0C130.88,220.07,130.05,212.38,127.84,213Z"/><path class="cls-15" d="M128.15,219.77c-.34-.39-1.69.73-3-1.94-.31-.65-2.94.11-3.34-.47s4.76-1.05,6.26-1.61-.12-2.69.41-3.13,1.75,2.37,2,3.6a16.8,16.8,0,0,0,.55,2.41S131.37,223.26,128.15,219.77Z"/><path class="cls-66" d="M108.84,233.34l5.41-3.57c2.44-3.84,2.64-5.93,2.64-5.93a14.19,14.19,0,0,0,8.27-.85s-.8,2.39.06,3.41c5.93,1.16,7.44,4,9.37,6.12q-3.45-5.76-6.31-11.83c-.51-1.18,2.44-3.88,3.06-2.75.87,1.56,21.16,29.64,12.75,29.27s-11.43-3.75-11.43-3.75,7.45,41.71,7.23,48.87c-.67,21.67-30.63,24.27-31.3,11.05-.54-10.79,1.24-33.21-.63-43C108,260.42,102.81,237.82,108.84,233.34Z"/><path class="cls-15" d="M107.7,265.63c1-2.28.87-.34,3.25,1.29a22.26,22.26,0,0,0,5.9,1.4c2.49.22,1.24,4.24-2.81,4.57s-4.08-1.29-5.84-2.12C105.87,269.69,107.7,265.63,107.7,265.63Z"/><path class="cls-67" d="M108.14,234C97,246.64,87.07,259.45,94.82,266.45c4.33,3.92,13.24,5.44,14.22,4.44a3,3,0,0,0,.77-1,3,3,0,0,0,0-2.5,3.09,3.09,0,0,0-.77-1s-6.64-4.06-6.64-6.59c0-1,7.91-12,7.92-13.9C110.4,237.6,108.14,234,108.14,234Z"/><path class="cls-65" d="M125.16,223a14.11,14.11,0,0,1-8.27.85s-.2,2.09-2.64,5.94l-.54.36c6.48,4.55,9.61,10.37,11.26,9.42s.25-13.16.25-13.16C124.36,225.38,125.16,223,125.16,223Z"/><path class="cls-1" d="M1010.36,470.68H979.17l92.06,53.15a6.25,6.25,0,0,1,3.12,5.39,6.24,6.24,0,0,1-.84,3.12,6.31,6.31,0,0,1-2.28,2.28l-92.06,53.16h31.19a17.28,17.28,0,0,0,8.65-2.32l85.4-49.3a8,8,0,0,0,2.93-10.94,8,8,0,0,0-2.93-2.92L1019,473A17.28,17.28,0,0,0,1010.36,470.68Z"/><g class="cls-1"><path d="M1078.68,530.31c-.16-2.39-2-4.89-5.38-6.85L990.94,476c-6.52-3.76-16.38-4.17-22-.91l-85.48,49.4c-2.69,1.56-3.94,3.67-3.79,5.86.15,2.4,2,4.89,5.38,6.86l82.35,47.5c6.52,3.76,16.38,4.16,22,.9l85.48-49.4C1077.58,534.62,1078.8,532.5,1078.68,530.31Z"/></g><path class="cls-68" d="M1078.68,528.81v-8.17l-33.42,16.24-54.33-31.33c-6.52-3.76-16.38-4.17-22-.91L913.12,536.9l-33.46-16.26v7.56c0,.2,0,.4,0,.61.15,2.39,2,4.88,5.38,6.85l82.35,47.5a25.58,25.58,0,0,0,11.79,3.1,20.14,20.14,0,0,0,10.23-2.2l85.48-49.39C1077.57,533.11,1078.8,531.05,1078.68,528.81Z"/><path class="cls-9" d="M1078.68,520.64c-.16-2.4-2-4.89-5.38-6.85l-82.36-47.5c-6.52-3.76-16.38-4.17-22-.91l-85.48,49.4c-2.69,1.56-3.94,3.67-3.79,5.86.15,2.4,2,4.89,5.38,6.85L967.4,575c6.52,3.76,16.38,4.16,22,.9l85.48-49.4C1077.58,524.94,1078.8,522.83,1078.68,520.64Z"/><path class="cls-69" d="M1078.68,519.66c-.16-2.4-2-4.89-5.38-6.85L990.94,465.3c-6.52-3.76-16.38-4.16-22-.9l-85.48,49.4c-2.69,1.56-3.94,3.67-3.79,5.86.15,2.4,2,4.89,5.38,6.85L967.4,574c6.52,3.76,16.38,4.17,22,.91l85.48-49.4C1077.58,524,1078.8,521.85,1078.68,519.66Z"/><path class="cls-70" d="M1016.56,510.88H972.82v26.68h43.74Z"/><path class="cls-20" d="M949.65,497.57v26.61l23.17,13.38V511Z"/><path class="cls-17" d="M996,497.57v26.61l-23.17,13.38V511Z"/><path class="cls-71" d="M949.65,497.57l23.17-13.38L996,497.57,972.82,511Z"/></svg>