<svg width="88" height="88" viewBox="0 0 88 88" fill="none" xmlns="http://www.w3.org/2000/svg">
<path d="M74.25 33C68.6125 33 64.075 37.2625 63.3875 42.625H47.9875C47.3 36.4375 42.075 31.625 35.75 31.625C33.55 31.625 31.4875 32.175 29.7 33.275L21.3125 21.725C23.375 19.8 24.75 16.9125 24.75 13.75C24.75 7.7 19.8 2.75 13.75 2.75C7.7 2.75 2.75 7.7 2.75 13.75C2.75 19.8 7.7 24.75 13.75 24.75C15.675 24.75 17.4625 24.2 19.1125 23.375L27.5 34.925C24.8875 37.125 23.375 40.425 23.375 44C23.375 47.575 24.8875 50.875 27.3625 53.075L19.1125 64.625C17.6 63.8 15.675 63.25 13.75 63.25C7.7 63.25 2.75 68.2 2.75 74.25C2.75 80.3 7.7 85.25 13.75 85.25C19.8 85.25 24.75 80.3 24.75 74.25C24.75 71.0875 23.375 68.2 21.3125 66.275L29.7 54.725C31.4875 55.825 33.55 56.375 35.75 56.375C42.075 56.375 47.3 51.5625 47.9875 45.375H63.25C63.9375 50.7375 68.6125 55 74.1125 55C80.1625 55 85.1125 50.05 85.1125 44C85.1125 37.95 80.3 33 74.25 33Z" fill="#57AE5B"/>
</svg>
