<svg width="356" height="436" viewBox="0 0 356 436" fill="none" xmlns="http://www.w3.org/2000/svg">
<g style="mix-blend-mode:multiply">
<path d="M69.2645 219.768L0 259.884L69.2645 300L138.523 259.884L69.2645 219.768Z" fill="#D3D3D3"/>
</g>
<path d="M69.2648 213.277L6.5332 249.612L69.2648 285.947L131.99 249.612L69.2648 213.277Z" fill="#A4C441"/>
<path d="M6.5332 249.612V259.742L69.2648 296.076V285.947L6.5332 249.612Z" fill="#91AA27"/>
<path d="M69.2646 296.076L131.99 259.742V249.612L69.2646 285.947V296.076Z" fill="#869916"/>
<g style="mix-blend-mode:multiply">
<g style="mix-blend-mode:multiply">
<path d="M36.5264 250.476L68.617 231.821L101.664 250.902L69.5732 269.55L36.5264 250.476Z" fill="#D3D3D3"/>
</g>
</g>
<path d="M69.5289 262.745L98.5845 245.854L98.5721 250.765L69.5166 267.649L69.5289 262.745Z" fill="#CAC4C4"/>
<path d="M39.6104 245.466L68.6659 228.582L98.5851 245.855L69.5295 262.745L39.6104 245.466Z" fill="white"/>
<path d="M69.5295 262.746L69.5172 267.65L39.5918 250.377L39.6103 245.467L69.5295 262.746Z" fill="#F7F1F1"/>
<g style="mix-blend-mode:multiply">
<path d="M81.8801 237.645C75.0943 233.574 63.873 233.462 56.8651 237.392C49.8573 241.322 49.7154 247.811 56.5012 251.883C63.287 255.954 74.5144 256.065 81.5222 252.136C88.5301 248.206 88.6905 241.717 81.8801 237.645Z" fill="#E6E6E6"/>
</g>
<path d="M84.9893 242.962L78.7341 205.949C79.0117 207.571 78.0555 209.249 75.8779 210.471C72.084 212.599 66.0076 212.537 62.3063 210.335C60.252 209.101 59.3699 207.467 59.6475 205.894L53.1825 242.839C52.7198 245.467 54.1942 248.188 57.6179 250.242C63.7868 253.943 73.8853 254.023 80.2146 250.47C83.8543 248.471 85.452 245.671 84.9893 242.962Z" fill="#F7F1F1"/>
<path d="M76.0692 202.648C72.3679 200.44 66.31 200.378 62.4976 202.513C58.6852 204.647 58.6112 208.157 62.3002 210.366C65.9892 212.574 72.0656 212.63 75.8718 210.501C79.678 208.373 79.7582 204.851 76.0692 202.648Z" fill="#EBE5E5"/>
<path d="M72.0345 62.8613C71.2474 63.2485 70.3797 63.4436 69.5026 63.4308C68.6254 63.4179 67.7638 63.1974 66.9884 62.7873C66.7095 62.6552 66.47 62.4524 66.2936 62.1992C66.1173 61.946 66.0101 61.6511 65.9828 61.3438L65.6436 206.523C65.67 206.83 65.7769 207.124 65.9535 207.376C66.13 207.629 66.3699 207.83 66.6491 207.96C67.4233 208.362 68.2815 208.576 69.1539 208.585C70.0264 208.594 70.8886 208.396 71.6706 208.009C71.9659 207.884 72.2221 207.682 72.4121 207.424C72.6021 207.165 72.7189 206.86 72.7501 206.541L73.1079 61.4116C73.0741 61.7269 72.9568 62.0274 72.7681 62.2822C72.5794 62.537 72.3262 62.7369 72.0345 62.8613Z" fill="white"/>
<g style="mix-blend-mode:multiply">
<path d="M72.7497 206.523L73.1075 61.3931C73.0779 61.7127 72.9625 62.0184 72.7736 62.2779C72.5847 62.5374 72.3292 62.7411 72.0341 62.8675C71.2465 63.2537 70.3785 63.4478 69.5014 63.4339C68.6243 63.4199 67.7629 63.1983 66.988 62.7873C66.7091 62.6552 66.4696 62.4524 66.2932 62.1992C66.1168 61.946 66.0097 61.6511 65.9824 61.3438V71.4793L69.8565 73.0893L71.4481 208.065C71.5269 208.036 71.6032 208.001 71.6763 207.96C71.9663 207.837 72.2184 207.639 72.407 207.386C72.5955 207.134 72.7138 206.836 72.7497 206.523Z" fill="#ECECEC"/>
</g>
<path d="M74.7057 38.0741C71.8249 39.6904 67.2167 39.6472 64.4098 37.9692C63.0342 37.1488 62.3494 36.0816 62.3494 35.0205L62.2754 61.3556C62.2754 62.4166 62.9602 63.4838 64.3358 64.3105C67.1365 65.9822 71.7385 66.0316 74.6317 64.4092C76.0938 63.5887 76.834 62.4968 76.834 61.3987L76.9142 35.0637C76.908 36.1618 76.1678 37.2536 74.7057 38.0741Z" fill="white"/>
<path d="M74.8535 32.1155C72.0466 30.4376 67.4508 30.3944 64.5576 32.0107C61.6644 33.6269 61.6088 36.2981 64.4095 37.9698C67.2102 39.6416 71.8122 39.6909 74.7054 38.0747C77.5986 36.4584 77.6542 33.7935 74.8535 32.1155Z" fill="#EBE5E5"/>
<path d="M72.1763 11.918C71.3942 12.3049 70.5321 12.5021 69.6596 12.4935C68.7872 12.4849 67.929 12.2708 67.1548 11.8686C66.8751 11.7375 66.635 11.5351 66.4585 11.2817C66.2819 11.0283 66.1753 10.7328 66.1492 10.4251L66.0752 35.0267C66.1017 35.3335 66.2086 35.6279 66.3851 35.8803C66.5617 36.1326 66.8016 36.334 67.0807 36.4641C67.8553 36.8682 68.7143 37.0839 69.5879 37.0936C70.4615 37.1032 71.3251 36.9066 72.1084 36.5196C72.4014 36.3883 72.6536 36.1802 72.8382 35.9174C73.0228 35.6547 73.133 35.3469 73.1571 35.0267L73.2311 10.4189C73.2068 10.7407 73.096 11.0499 72.9103 11.3138C72.7246 11.5777 72.4709 11.7865 72.1763 11.918Z" fill="white"/>
<g style="mix-blend-mode:multiply">
<path d="M72.176 11.918C71.394 12.3049 70.5318 12.5021 69.6593 12.4935C68.7869 12.4849 67.9287 12.2708 67.1545 11.8686C66.8749 11.7375 66.6347 11.5351 66.4582 11.2817C66.2817 11.0283 66.175 10.7328 66.149 10.4251L66.0996 26.7295L70.2081 29.0305L71.0347 36.9329C71.4083 36.843 71.7689 36.7062 72.1081 36.5257C72.402 36.3939 72.6548 36.1849 72.8394 35.921C73.0241 35.657 73.1338 35.348 73.1568 35.0267L73.2309 10.4189C73.2066 10.7407 73.0957 11.0499 72.91 11.3138C72.7243 11.5777 72.4707 11.7865 72.176 11.918Z" fill="#BDB7B7"/>
</g>
<path d="M72.1764 11.9183C71.3943 12.3052 70.5322 12.5024 69.6597 12.4938C68.7873 12.4852 67.9291 12.2711 67.1549 11.8689C65.7854 11.0485 65.8162 9.74683 67.2227 8.95721C68.0055 8.56929 68.8688 8.37157 69.7425 8.38015C70.6161 8.38873 71.4753 8.60335 72.2504 9.00657C73.6199 9.82703 73.5829 11.1287 72.1764 11.9183Z" fill="#CCDBE2"/>
<path opacity="0.75" d="M72.2075 8.24805H33.0905L7.85352 109.665H33.0905H72.2075H97.4445L72.2075 8.24805Z" fill="url(#paint0_linear)"/>
<path d="M49.2095 15.4654L26.5635 2.301L59.8694 0L82.5154 13.1644L49.2095 15.4654Z" fill="white"/>
<path d="M48.6851 20.2718L26.0391 7.1135L26.5634 2.30176L49.2095 15.4662L48.6851 20.2718Z" fill="#EBE5E5"/>
<path d="M49.2099 15.4651L82.5158 13.1641L81.9915 17.9758L48.6855 20.2706L49.2099 15.4651Z" fill="#BDB7B7"/>
<g style="mix-blend-mode:overlay" opacity="0.35">
<path d="M60.893 212.37L55.5137 244.263L64.4771 250.716L66.2661 215.954L60.893 212.37Z" fill="#ECECEC"/>
</g>
<g style="mix-blend-mode:multiply">
<path d="M177.264 289.768L108 329.884L177.264 370L246.523 329.884L177.264 289.768Z" fill="#D3D3D3"/>
</g>
<path d="M177.265 283.277L114.533 319.612L177.265 355.947L239.99 319.612L177.265 283.277Z" fill="#A4C441"/>
<path d="M114.533 319.612V329.742L177.265 366.076V355.947L114.533 319.612Z" fill="#91AA27"/>
<path d="M177.265 366.076L239.99 329.742V319.612L177.265 355.947V366.076Z" fill="#869916"/>
<g style="mix-blend-mode:multiply">
<g style="mix-blend-mode:multiply">
<path d="M144.526 320.476L176.617 301.821L209.664 320.902L177.573 339.55L144.526 320.476Z" fill="#D3D3D3"/>
</g>
</g>
<path d="M177.529 332.745L206.584 315.854L206.572 320.765L177.517 337.649L177.529 332.745Z" fill="#CAC4C4"/>
<path d="M147.61 315.466L176.666 298.582L206.585 315.855L177.53 332.745L147.61 315.466Z" fill="white"/>
<path d="M177.529 332.746L177.517 337.65L147.592 320.377L147.61 315.467L177.529 332.746Z" fill="#F7F1F1"/>
<g style="mix-blend-mode:multiply">
<path d="M189.88 307.645C183.094 303.574 171.873 303.462 164.865 307.392C157.857 311.322 157.715 317.811 164.501 321.883C171.287 325.954 182.514 326.065 189.522 322.136C196.53 318.206 196.691 311.717 189.88 307.645Z" fill="#E6E6E6"/>
</g>
<path d="M192.989 312.962L186.734 275.949C187.012 277.571 186.055 279.249 183.878 280.471C180.084 282.599 174.008 282.537 170.306 280.335C168.252 279.101 167.37 277.467 167.647 275.894L161.182 312.839C160.72 315.467 162.194 318.188 165.618 320.242C171.787 323.943 181.885 324.023 188.215 320.47C191.854 318.471 193.452 315.671 192.989 312.962Z" fill="#F7F1F1"/>
<path d="M184.069 272.648C180.368 270.44 174.31 270.378 170.498 272.513C166.685 274.647 166.611 278.157 170.3 280.366C173.989 282.574 180.066 282.63 183.872 280.501C187.678 278.373 187.758 274.851 184.069 272.648Z" fill="#EBE5E5"/>
<path d="M180.035 132.861C179.247 133.248 178.38 133.444 177.503 133.431C176.625 133.418 175.764 133.197 174.988 132.787C174.71 132.655 174.47 132.452 174.294 132.199C174.117 131.946 174.01 131.651 173.983 131.344L173.644 276.523C173.67 276.83 173.777 277.124 173.953 277.376C174.13 277.629 174.37 277.83 174.649 277.96C175.423 278.362 176.281 278.576 177.154 278.585C178.026 278.594 178.889 278.396 179.671 278.009C179.966 277.884 180.222 277.682 180.412 277.424C180.602 277.165 180.719 276.86 180.75 276.541L181.108 131.412C181.074 131.727 180.957 132.027 180.768 132.282C180.579 132.537 180.326 132.737 180.035 132.861Z" fill="white"/>
<g style="mix-blend-mode:multiply">
<path d="M180.75 276.523L181.108 131.393C181.078 131.713 180.963 132.018 180.774 132.278C180.585 132.537 180.329 132.741 180.034 132.867C179.246 133.254 178.379 133.448 177.501 133.434C176.624 133.42 175.763 133.198 174.988 132.787C174.709 132.655 174.47 132.452 174.293 132.199C174.117 131.946 174.01 131.651 173.982 131.344V141.479L177.856 143.089L179.448 278.065C179.527 278.036 179.603 278.001 179.676 277.96C179.966 277.837 180.218 277.639 180.407 277.386C180.596 277.134 180.714 276.836 180.75 276.523Z" fill="#ECECEC"/>
</g>
<path d="M182.706 108.074C179.825 109.69 175.217 109.647 172.41 107.969C171.034 107.149 170.349 106.082 170.349 105.021L170.275 131.356C170.275 132.417 170.96 133.484 172.336 134.31C175.137 135.982 179.739 136.032 182.632 134.409C184.094 133.589 184.834 132.497 184.834 131.399L184.914 105.064C184.908 106.162 184.168 107.254 182.706 108.074Z" fill="white"/>
<path d="M182.853 102.116C180.047 100.438 175.451 100.394 172.558 102.011C169.664 103.627 169.609 106.298 172.41 107.97C175.21 109.642 179.812 109.691 182.705 108.075C185.599 106.458 185.654 103.793 182.853 102.116Z" fill="#EBE5E5"/>
<path d="M180.176 81.918C179.394 82.3049 178.532 82.5021 177.66 82.4935C176.787 82.4849 175.929 82.2708 175.155 81.8686C174.875 81.7375 174.635 81.5351 174.458 81.2817C174.282 81.0283 174.175 80.7328 174.149 80.4251L174.075 105.027C174.102 105.334 174.209 105.628 174.385 105.88C174.562 106.133 174.802 106.334 175.081 106.464C175.855 106.868 176.714 107.084 177.588 107.094C178.462 107.103 179.325 106.907 180.108 106.52C180.401 106.388 180.654 106.18 180.838 105.917C181.023 105.655 181.133 105.347 181.157 105.027L181.231 80.4189C181.207 80.7407 181.096 81.0499 180.91 81.3138C180.725 81.5777 180.471 81.7865 180.176 81.918Z" fill="white"/>
<g style="mix-blend-mode:multiply">
<path d="M180.176 81.918C179.394 82.3049 178.532 82.5021 177.659 82.4935C176.787 82.4849 175.929 82.2708 175.154 81.8686C174.875 81.7375 174.635 81.5351 174.458 81.2817C174.282 81.0283 174.175 80.7328 174.149 80.4251L174.1 96.7295L178.208 99.0305L179.035 106.933C179.408 106.843 179.769 106.706 180.108 106.526C180.402 106.394 180.655 106.185 180.839 105.921C181.024 105.657 181.134 105.348 181.157 105.027L181.231 80.4189C181.207 80.7407 181.096 81.0499 180.91 81.3138C180.724 81.5777 180.471 81.7865 180.176 81.918Z" fill="#BDB7B7"/>
</g>
<path d="M180.176 81.9183C179.394 82.3052 178.532 82.5024 177.66 82.4938C176.787 82.4852 175.929 82.2711 175.155 81.8689C173.785 81.0485 173.816 79.7468 175.223 78.9572C176.006 78.5693 176.869 78.3716 177.742 78.3802C178.616 78.3887 179.475 78.6033 180.25 79.0066C181.62 79.827 181.583 81.1287 180.176 81.9183Z" fill="#CCDBE2"/>
<path opacity="0.75" d="M180.208 78.248H141.09L115.854 179.665H141.09H180.208H205.445L180.208 78.248Z" fill="url(#paint1_linear)"/>
<path d="M157.21 85.4654L134.563 72.301L167.869 70L190.515 83.1644L157.21 85.4654Z" fill="white"/>
<path d="M156.685 90.2718L134.039 77.1135L134.563 72.3018L157.209 85.4662L156.685 90.2718Z" fill="#EBE5E5"/>
<path d="M157.21 85.4651L190.516 83.1641L189.991 87.9758L156.686 90.2706L157.21 85.4651Z" fill="#BDB7B7"/>
<g style="mix-blend-mode:overlay" opacity="0.35">
<path d="M168.893 282.37L163.514 314.263L172.477 320.716L174.266 285.954L168.893 282.37Z" fill="#ECECEC"/>
</g>
<g style="mix-blend-mode:multiply">
<path d="M286.264 355.768L217 395.884L286.264 436L355.523 395.884L286.264 355.768Z" fill="#D3D3D3"/>
</g>
<path d="M286.265 349.277L223.533 385.612L286.265 421.947L348.99 385.612L286.265 349.277Z" fill="#A4C441"/>
<path d="M223.533 385.612V395.742L286.265 432.076V421.947L223.533 385.612Z" fill="#91AA27"/>
<path d="M286.265 432.076L348.99 395.742V385.612L286.265 421.947V432.076Z" fill="#869916"/>
<g style="mix-blend-mode:multiply">
<g style="mix-blend-mode:multiply">
<path d="M253.526 386.476L285.617 367.821L318.664 386.902L286.573 405.55L253.526 386.476Z" fill="#D3D3D3"/>
</g>
</g>
<path d="M286.529 398.745L315.584 381.854L315.572 386.765L286.517 403.649L286.529 398.745Z" fill="#CAC4C4"/>
<path d="M256.61 381.466L285.666 364.582L315.585 381.855L286.53 398.745L256.61 381.466Z" fill="white"/>
<path d="M286.529 398.746L286.517 403.65L256.592 386.377L256.61 381.467L286.529 398.746Z" fill="#F7F1F1"/>
<g style="mix-blend-mode:multiply">
<path d="M298.88 373.645C292.094 369.574 280.873 369.462 273.865 373.392C266.857 377.322 266.715 383.811 273.501 387.883C280.287 391.954 291.514 392.065 298.522 388.136C305.53 384.206 305.691 377.717 298.88 373.645Z" fill="#E6E6E6"/>
</g>
<path d="M301.989 378.962L295.734 341.949C296.012 343.571 295.055 345.249 292.878 346.471C289.084 348.599 283.008 348.537 279.306 346.335C277.252 345.101 276.37 343.467 276.647 341.894L270.182 378.839C269.72 381.467 271.194 384.188 274.618 386.242C280.787 389.943 290.885 390.023 297.215 386.47C300.854 384.471 302.452 381.671 301.989 378.962Z" fill="#F7F1F1"/>
<path d="M293.069 338.648C289.368 336.44 283.31 336.378 279.498 338.513C275.685 340.647 275.611 344.157 279.3 346.366C282.989 348.574 289.066 348.63 292.872 346.501C296.678 344.373 296.758 340.851 293.069 338.648Z" fill="#EBE5E5"/>
<path d="M289.035 198.861C288.247 199.248 287.38 199.444 286.503 199.431C285.625 199.418 284.764 199.197 283.988 198.787C283.71 198.655 283.47 198.452 283.294 198.199C283.117 197.946 283.01 197.651 282.983 197.344L282.644 342.523C282.67 342.83 282.777 343.124 282.953 343.376C283.13 343.629 283.37 343.83 283.649 343.96C284.423 344.362 285.281 344.576 286.154 344.585C287.026 344.594 287.889 344.396 288.671 344.009C288.966 343.884 289.222 343.682 289.412 343.424C289.602 343.165 289.719 342.86 289.75 342.541L290.108 197.412C290.074 197.727 289.957 198.027 289.768 198.282C289.579 198.537 289.326 198.737 289.035 198.861Z" fill="white"/>
<g style="mix-blend-mode:multiply">
<path d="M289.75 342.523L290.108 197.393C290.078 197.713 289.963 198.018 289.774 198.278C289.585 198.537 289.329 198.741 289.034 198.867C288.246 199.254 287.379 199.448 286.501 199.434C285.624 199.42 284.763 199.198 283.988 198.787C283.709 198.655 283.47 198.452 283.293 198.199C283.117 197.946 283.01 197.651 282.982 197.344V207.479L286.856 209.089L288.448 344.065C288.527 344.036 288.603 344.001 288.676 343.96C288.966 343.837 289.218 343.639 289.407 343.386C289.596 343.134 289.714 342.836 289.75 342.523Z" fill="#ECECEC"/>
</g>
<path d="M291.706 174.074C288.825 175.69 284.217 175.647 281.41 173.969C280.034 173.149 279.349 172.082 279.349 171.021L279.275 197.356C279.275 198.417 279.96 199.484 281.336 200.31C284.137 201.982 288.739 202.032 291.632 200.409C293.094 199.589 293.834 198.497 293.834 197.399L293.914 171.064C293.908 172.162 293.168 173.254 291.706 174.074Z" fill="white"/>
<path d="M291.853 168.116C289.047 166.438 284.451 166.394 281.558 168.011C278.664 169.627 278.609 172.298 281.41 173.97C284.21 175.642 288.812 175.691 291.705 174.075C294.599 172.458 294.654 169.793 291.853 168.116Z" fill="#EBE5E5"/>
<path d="M289.176 147.918C288.394 148.305 287.532 148.502 286.66 148.493C285.787 148.485 284.929 148.271 284.155 147.869C283.875 147.738 283.635 147.535 283.458 147.282C283.282 147.028 283.175 146.733 283.149 146.425L283.075 171.027C283.102 171.334 283.209 171.628 283.385 171.88C283.562 172.133 283.802 172.334 284.081 172.464C284.855 172.868 285.714 173.084 286.588 173.094C287.462 173.103 288.325 172.907 289.108 172.52C289.401 172.388 289.654 172.18 289.838 171.917C290.023 171.655 290.133 171.347 290.157 171.027L290.231 146.419C290.207 146.741 290.096 147.05 289.91 147.314C289.725 147.578 289.471 147.786 289.176 147.918Z" fill="white"/>
<g style="mix-blend-mode:multiply">
<path d="M289.176 147.918C288.394 148.305 287.532 148.502 286.659 148.493C285.787 148.485 284.929 148.271 284.154 147.869C283.875 147.738 283.635 147.535 283.458 147.282C283.282 147.028 283.175 146.733 283.149 146.425L283.1 162.73L287.208 165.031L288.035 172.933C288.408 172.843 288.769 172.706 289.108 172.526C289.402 172.394 289.655 172.185 289.839 171.921C290.024 171.657 290.134 171.348 290.157 171.027L290.231 146.419C290.207 146.741 290.096 147.05 289.91 147.314C289.724 147.578 289.471 147.786 289.176 147.918Z" fill="#BDB7B7"/>
</g>
<path d="M289.176 147.918C288.394 148.305 287.532 148.502 286.66 148.494C285.787 148.485 284.929 148.271 284.155 147.869C282.785 147.048 282.816 145.747 284.223 144.957C285.006 144.569 285.869 144.372 286.742 144.38C287.616 144.389 288.475 144.603 289.25 145.007C290.62 145.827 290.583 147.129 289.176 147.918Z" fill="#CCDBE2"/>
<path opacity="0.75" d="M289.208 144.248H250.09L224.854 245.665H250.09H289.208H314.445L289.208 144.248Z" fill="url(#paint2_linear)"/>
<path d="M266.21 151.465L243.563 138.301L276.869 136L299.515 149.164L266.21 151.465Z" fill="white"/>
<path d="M265.685 156.272L243.039 143.114L243.563 138.302L266.209 151.466L265.685 156.272Z" fill="#EBE5E5"/>
<path d="M266.21 151.465L299.516 149.164L298.991 153.976L265.686 156.271L266.21 151.465Z" fill="#BDB7B7"/>
<g style="mix-blend-mode:overlay" opacity="0.35">
<path d="M277.893 348.37L272.514 380.263L281.477 386.716L283.266 351.954L277.893 348.37Z" fill="#ECECEC"/>
</g>
<defs>
<linearGradient id="paint0_linear" x1="52.6521" y1="8.24805" x2="52.6521" y2="110.948" gradientUnits="userSpaceOnUse">
<stop stop-color="#FFD91F"/>
<stop offset="0.890625" stop-color="#FFD91F" stop-opacity="0"/>
</linearGradient>
<linearGradient id="paint1_linear" x1="160.652" y1="78.248" x2="160.652" y2="180.948" gradientUnits="userSpaceOnUse">
<stop stop-color="#FFD91F"/>
<stop offset="0.890625" stop-color="#FFD91F" stop-opacity="0"/>
</linearGradient>
<linearGradient id="paint2_linear" x1="269.652" y1="144.248" x2="269.652" y2="246.948" gradientUnits="userSpaceOnUse">
<stop stop-color="#FFD91F"/>
<stop offset="0.890625" stop-color="#FFD91F" stop-opacity="0"/>
</linearGradient>
</defs>
</svg>
