<svg width="188" height="210" viewBox="0 0 188 210" fill="none" xmlns="http://www.w3.org/2000/svg">
<path opacity="0.14" d="M51.263 41.1349V58.481C51.263 59.8985 51.288 77.0143 51.288 77.0143L49.9306 75.0958L40.3584 63.1444H12.2029C8.83523 63.1334 6.10793 60.4061 6.09693 57.0384V39.6923C5.84474 38.433 6.22501 37.1301 7.11494 36.2042C8.00487 35.2784 9.29172 34.8468 10.5599 35.0489H45.157C48.5169 35.0599 51.241 37.775 51.263 41.1349Z" fill="url(#paint0_linear)"/>
<path d="M45.2425 47.1456V64.4918C45.2425 65.9043 45.2675 83 45.2675 83L43.9101 81.0815L34.3429 69.1351H6.18238C2.81585 69.1214 0.0901461 66.3957 0.0764218 63.0291V45.683C-0.175767 44.4238 0.2045 43.1209 1.09443 42.195C1.98436 41.2691 3.27121 40.8375 4.53943 41.0397H39.1365C42.5053 41.0479 45.2342 43.7768 45.2425 47.1456Z" fill="url(#paint1_linear)"/>
<path d="M33.4022 58.8967C35.5821 58.8967 37.3492 57.1296 37.3492 54.9496C37.3492 52.7697 35.5821 51.0026 33.4022 51.0026C31.2222 51.0026 29.4551 52.7697 29.4551 54.9496C29.4551 57.1296 31.2222 58.8967 33.4022 58.8967Z" fill="white"/>
<path d="M21.8406 58.8967C24.0206 58.8967 25.7877 57.1296 25.7877 54.9496C25.7877 52.7697 24.0206 51.0026 21.8406 51.0026C19.6607 51.0026 17.8936 52.7697 17.8936 54.9496C17.8936 57.1296 19.6607 58.8967 21.8406 58.8967Z" fill="white"/>
<path d="M10.2742 58.8967C12.4541 58.8967 14.2213 57.1296 14.2213 54.9496C14.2213 52.7697 12.4541 51.0026 10.2742 51.0026C8.09432 51.0026 6.32715 52.7697 6.32715 54.9496C6.32715 57.1296 8.09432 58.8967 10.2742 58.8967Z" fill="white"/>
<path opacity="0.14" d="M122 6.94683V26.4444C122 28.0308 122 47.2666 122 47.2666L123.531 45.109L134.295 31.6717H165.953C169.741 31.6587 172.809 28.5908 172.822 24.8024V5.27312C173.101 3.85761 172.672 2.39497 171.671 1.35521C170.671 0.315457 169.226 -0.17043 167.801 0.053689H128.933C127.097 0.0388573 125.331 0.759055 124.028 2.05384C122.726 3.34863 121.996 5.11046 122 6.94683Z" fill="url(#paint2_linear)"/>
<path d="M129.219 15.6802V35.1857C129.219 36.7721 129.219 56 129.219 56L130.742 53.8424L141.506 40.4051H173.148C176.935 40.3964 180.004 37.3308 180.017 33.5437V14.0382C180.3 12.622 179.872 11.157 178.871 10.1162C177.869 9.07542 176.422 8.59079 174.996 8.8188H136.128C134.301 8.81037 132.546 9.52904 131.25 10.8163C129.954 12.1035 129.223 13.8535 129.219 15.6802Z" fill="url(#paint3_linear)"/>
<path d="M168.95 26.9601C171.399 26.9601 173.384 24.9748 173.384 22.5259C173.384 20.077 171.399 18.0918 168.95 18.0918C166.501 18.0918 164.516 20.077 164.516 22.5259C164.516 24.9748 166.501 26.9601 168.95 26.9601Z" fill="white"/>
<path d="M155.943 26.9601C158.392 26.9601 160.377 24.9748 160.377 22.5259C160.377 20.077 158.392 18.0918 155.943 18.0918C153.494 18.0918 151.509 20.077 151.509 22.5259C151.509 24.9748 153.494 26.9601 155.943 26.9601Z" fill="white"/>
<path d="M142.941 26.9601C145.39 26.9601 147.375 24.9748 147.375 22.5259C147.375 20.077 145.39 18.0918 142.941 18.0918C140.492 18.0918 138.507 20.077 138.507 22.5259C138.507 24.9748 140.492 26.9601 142.941 26.9601Z" fill="white"/>
<path d="M90.4421 95.618H39.0772C37.5012 95.618 36.2236 96.8956 36.2236 98.4716V206.623C36.2236 208.199 37.5012 209.477 39.0772 209.477H90.4421C92.0181 209.477 93.2957 208.199 93.2957 206.623V98.4716C93.2957 96.8956 92.0181 95.618 90.4421 95.618ZM76.1741 157.636H53.3453C51.7693 157.636 50.4917 156.359 50.4917 154.783C50.4917 153.207 51.7693 151.929 53.3453 151.929H76.1741C77.7501 151.929 79.0277 153.207 79.0277 154.783C79.0277 156.359 77.7501 157.636 76.1741 157.636ZM76.1741 140.895H53.3453C51.7693 140.895 50.4917 139.618 50.4917 138.042C50.4917 136.466 51.7693 135.188 53.3453 135.188H76.1741C77.7501 135.188 79.0277 136.466 79.0277 138.042C79.0277 139.618 77.7501 140.895 76.1741 140.895ZM76.1741 124.154H53.3453C51.7693 124.154 50.4917 122.876 50.4917 121.3C50.4917 119.724 51.7693 118.447 53.3453 118.447H76.1741C77.7501 118.447 79.0277 119.724 79.0277 121.3C79.0277 122.876 77.7501 124.154 76.1741 124.154ZM76.1741 173.854H53.3453C51.7693 173.854 50.4917 172.577 50.4917 171.001C50.4917 169.425 51.7693 168.147 53.3453 168.147H76.1741C77.7501 168.147 79.0277 169.425 79.0277 171.001C79.0277 172.577 77.7501 173.854 76.1741 173.854ZM76.1741 190.596H53.3453C51.7693 190.596 50.4917 189.318 50.4917 187.742C50.4917 186.166 51.7693 184.888 53.3453 184.888H76.1741C77.7501 184.888 79.0277 186.166 79.0277 187.742C79.0277 189.318 77.7501 190.596 76.1741 190.596Z" fill="url(#paint4_linear)"/>
<path d="M142.557 72.8891L79.7779 55.7675C78.9198 55.5336 78.0017 55.7131 77.2949 56.2531C76.5882 56.7931 76.1738 57.6318 76.1738 58.5212V89.9109H90.4418C95.1699 89.9109 99.0027 93.7437 99.0027 98.4717V209.746H141.807C143.383 209.746 144.66 208.469 144.66 206.893V75.6428C144.66 74.3556 143.799 73.2276 142.557 72.8891ZM116.124 195.319C116.124 196.895 114.847 198.173 113.271 198.173C111.695 198.173 110.417 196.895 110.417 195.319V92.7645C110.417 91.1885 111.695 89.9109 113.271 89.9109C114.847 89.9109 116.124 91.1885 116.124 92.7645V195.319ZM133.246 195.282C133.246 196.858 131.968 198.136 130.392 198.136C128.816 198.136 127.539 196.858 127.539 195.282V98.4717C127.539 96.8957 128.816 95.6181 130.392 95.6181C131.968 95.6181 133.246 96.8957 133.246 98.4717V195.282Z" fill="url(#paint5_linear)"/>
<g filter="url(#filter0_d)">
<path d="M49.5136 185.77C49.5112 195.491 42.0839 203.601 32.4 204.455C31.8602 204.5 31.3085 204.523 30.7569 204.523C30.6086 204.523 30.4603 204.523 30.312 204.509C29.1073 204.492 27.9077 204.351 26.7321 204.087C21.7539 202.989 17.4362 199.914 14.7709 195.568C12.1056 191.223 11.3217 185.98 12.5993 181.045C12.7856 180.332 13.0174 179.632 13.2934 178.948C13.8636 177.472 14.6222 176.077 15.5505 174.796C20.3084 168.189 28.7858 165.407 36.5335 167.909C44.2811 170.412 49.5289 177.628 49.5225 185.77H49.5136Z" fill="url(#paint6_linear)"/>
<path d="M36.2201 195.62H25.2936C24.4121 195.621 23.5664 195.271 22.9427 194.648C22.3191 194.025 21.9688 193.179 21.9688 192.298V191.894C21.9688 190.044 22.7037 188.27 24.0119 186.962C25.3202 185.654 27.0945 184.919 28.9447 184.919H32.572C34.4222 184.919 36.1965 185.654 37.5047 186.962C38.813 188.27 39.5479 190.044 39.5479 191.894V192.295C39.5487 193.177 39.1983 194.024 38.5739 194.648C37.9496 195.272 37.1027 195.621 36.2201 195.62Z" fill="#FEFEFE"/>
<path d="M30.7568 182.623C33.489 182.623 35.704 180.408 35.704 177.676C35.704 174.943 33.489 172.729 30.7568 172.729C28.0245 172.729 25.8096 174.943 25.8096 177.676C25.8096 180.408 28.0245 182.623 30.7568 182.623Z" fill="#FEFEFE"/>
</g>
<g filter="url(#filter1_d)">
<path d="M187.024 153.997C187.024 154.384 187.024 154.771 186.998 155.158C186.963 156.14 186.898 157.109 186.772 158.065C185.293 171.147 176.787 182.376 164.595 187.342C152.403 192.308 138.472 190.218 128.274 181.892C126.52 180.46 124.902 178.868 123.441 177.137C118.795 171.628 115.917 164.847 115.183 157.678C115.07 156.457 115 155.24 115 153.997C115 153.815 115 153.619 115 153.436C115 152.389 115.078 151.35 115.17 150.311C116.458 137.775 124.205 126.823 135.598 121.434C135.837 121.321 136.089 121.208 136.328 121.104C140.936 119.052 145.926 117.994 150.971 118C152.197 117.997 153.423 118.058 154.644 118.183C158.566 118.581 162.396 119.626 165.979 121.273L166.231 121.39C169.059 122.723 171.705 124.413 174.102 126.419C182.265 133.252 186.977 143.352 186.968 153.997H187.024Z" fill="url(#paint7_linear)"/>
<path d="M161.514 172.913H140.538C137.017 172.913 134.162 170.058 134.162 166.536V165.763C134.162 162.212 135.573 158.807 138.083 156.297C140.594 153.786 143.999 152.376 147.549 152.376H154.503C161.897 152.376 167.89 158.369 167.89 165.763V166.536C167.89 170.058 165.035 172.913 161.514 172.913Z" fill="#FEFEFE"/>
<path d="M151.028 147.973C156.273 147.973 160.525 143.721 160.525 138.476C160.525 133.231 156.273 128.979 151.028 128.979C145.783 128.979 141.531 133.231 141.531 138.476C141.531 143.721 145.783 147.973 151.028 147.973Z" fill="#FEFEFE"/>
<g opacity="0.08">
<path opacity="0.08" d="M174.159 126.419L123.441 177.137C118.795 171.628 115.917 164.847 115.183 157.678L154.678 118.183C158.601 118.581 162.431 119.625 166.014 121.273L166.266 121.39C169.102 122.721 171.755 124.411 174.159 126.419Z" fill="url(#paint8_linear)"/>
<path opacity="0.08" d="M185.059 142.249L139.283 188.029C135.28 186.649 131.552 184.572 128.273 181.892L178.922 131.244C181.603 134.519 183.682 138.246 185.059 142.249Z" fill="url(#paint9_linear)"/>
</g>
</g>
<defs>
<filter id="filter0_d" x="12" y="163" width="45.5225" height="45.5235" filterUnits="userSpaceOnUse" color-interpolation-filters="sRGB">
<feFlood flood-opacity="0" result="BackgroundImageFix"/>
<feColorMatrix in="SourceAlpha" type="matrix" values="0 0 0 0 0 0 0 0 0 0 0 0 0 0 0 0 0 0 127 0"/>
<feOffset dx="4"/>
<feGaussianBlur stdDeviation="2"/>
<feColorMatrix type="matrix" values="0 0 0 0 0 0 0 0 0 0 0 0 0 0 0 0 0 0 0.0620356 0"/>
<feBlend mode="normal" in2="BackgroundImageFix" result="effect1_dropShadow"/>
<feBlend mode="normal" in="SourceGraphic" in2="effect1_dropShadow" result="shape"/>
</filter>
<filter id="filter1_d" x="103" y="114" width="84.0242" height="80" filterUnits="userSpaceOnUse" color-interpolation-filters="sRGB">
<feFlood flood-opacity="0" result="BackgroundImageFix"/>
<feColorMatrix in="SourceAlpha" type="matrix" values="0 0 0 0 0 0 0 0 0 0 0 0 0 0 0 0 0 0 127 0"/>
<feOffset dx="-8"/>
<feGaussianBlur stdDeviation="2"/>
<feColorMatrix type="matrix" values="0 0 0 0 0.203922 0 0 0 0 0.756863 0 0 0 0 0.984314 0 0 0 0.1 0"/>
<feBlend mode="normal" in2="BackgroundImageFix" result="effect1_dropShadow"/>
<feBlend mode="normal" in="SourceGraphic" in2="effect1_dropShadow" result="shape"/>
</filter>
<linearGradient id="paint0_linear" x1="42.4622" y1="67.3548" x2="22.0558" y2="37.5845" gradientUnits="userSpaceOnUse">
<stop stop-color="#60B05B"/>
<stop offset="0.25" stop-color="#75BC60"/>
<stop offset="0.74" stop-color="#9AD069"/>
<stop offset="1" stop-color="#A8D86D"/>
</linearGradient>
<linearGradient id="paint1_linear" x1="36.4467" y1="73.3684" x2="16.0437" y2="43.5984" gradientUnits="userSpaceOnUse">
<stop stop-color="#60B05B"/>
<stop offset="0.25" stop-color="#75BC60"/>
<stop offset="0.74" stop-color="#9AD069"/>
<stop offset="1" stop-color="#A8D86D"/>
</linearGradient>
<linearGradient id="paint2_linear" x1="162.32" y1="41.1088" x2="133.942" y2="5.36748" gradientUnits="userSpaceOnUse">
<stop stop-color="#735CD2"/>
<stop offset="1" stop-color="#8F6ACC"/>
</linearGradient>
<linearGradient id="paint3_linear" x1="169.538" y1="49.8438" x2="141.168" y2="14.1044" gradientUnits="userSpaceOnUse">
<stop stop-color="#735CD2"/>
<stop offset="1" stop-color="#8F6ACC"/>
</linearGradient>
<linearGradient id="paint4_linear" x1="64.7597" y1="411" x2="64.7597" y2="95.618" gradientUnits="userSpaceOnUse">
<stop stop-color="#FAFAFA"/>
<stop offset="1" stop-color="#EFEFEF"/>
</linearGradient>
<linearGradient id="paint5_linear" x1="110.417" y1="482.457" x2="110.417" y2="55.667" gradientUnits="userSpaceOnUse">
<stop stop-color="#FAFAFA"/>
<stop offset="1" stop-color="#EFEFEF"/>
</linearGradient>
<linearGradient id="paint6_linear" x1="30.1014" y1="175.229" x2="33.9928" y2="237.751" gradientUnits="userSpaceOnUse">
<stop stop-color="#DEE1E2"/>
<stop offset="1" stop-color="#B4BCBE"/>
</linearGradient>
<linearGradient id="paint7_linear" x1="130.738" y1="186.903" x2="166.361" y2="129.055" gradientUnits="userSpaceOnUse">
<stop stop-color="#2FA2FA"/>
<stop offset="1" stop-color="#37D3FB"/>
</linearGradient>
<linearGradient id="paint8_linear" x1="161.241" y1="124.949" x2="93.5981" y2="194.874" gradientUnits="userSpaceOnUse">
<stop stop-color="#FEFEFC"/>
<stop offset="0.09" stop-color="#FEFEFC" stop-opacity="0.96"/>
<stop offset="0.25" stop-color="#FEFEFC" stop-opacity="0.86"/>
<stop offset="0.44" stop-color="#FEFEFD" stop-opacity="0.7"/>
<stop offset="0.68" stop-color="#FFFFFE" stop-opacity="0.47"/>
<stop offset="0.93" stop-color="white" stop-opacity="0.18"/>
<stop offset="1" stop-color="white" stop-opacity="0.1"/>
</linearGradient>
<linearGradient id="paint9_linear" x1="177.436" y1="140.601" x2="109.766" y2="210.552" gradientUnits="userSpaceOnUse">
<stop stop-color="#FEFEFC"/>
<stop offset="0.09" stop-color="#FEFEFC" stop-opacity="0.96"/>
<stop offset="0.25" stop-color="#FEFEFC" stop-opacity="0.86"/>
<stop offset="0.44" stop-color="#FEFEFD" stop-opacity="0.7"/>
<stop offset="0.68" stop-color="#FFFFFE" stop-opacity="0.47"/>
<stop offset="0.93" stop-color="white" stop-opacity="0.18"/>
<stop offset="1" stop-color="white" stop-opacity="0.1"/>
</linearGradient>
</defs>
</svg>
