<svg width="88" height="88" viewBox="0 0 88 88" fill="none" xmlns="http://www.w3.org/2000/svg">
<path d="M53.625 49.5H34.375C33.616 49.5 33 50.116 33 50.875V83.875C33 84.634 33.616 85.25 34.375 85.25H53.625C54.384 85.25 55 84.634 55 83.875V50.875C55 50.116 54.384 49.5 53.625 49.5Z" fill="#57AE5B"/>
<path d="M22 66H2.75C1.991 66 1.375 66.616 1.375 67.375V83.875C1.375 84.634 1.991 85.25 2.75 85.25H22C22.759 85.25 23.375 84.634 23.375 83.875V67.375C23.375 66.616 22.759 66 22 66Z" fill="#57AE5B"/>
<path d="M85.25 33H66C65.241 33 64.625 33.616 64.625 34.375V83.875C64.625 84.634 65.241 85.25 66 85.25H85.25C86.009 85.25 86.625 84.634 86.625 83.875V34.375C86.625 33.616 86.009 33 85.25 33Z" fill="#57AE5B"/>
<path d="M44.9726 35.3471L72.8754 7.44425V23.375C72.8754 24.134 73.4914 24.75 74.2504 24.75C75.0094 24.75 75.6254 24.134 75.6254 23.375V4.125C75.6254 3.366 75.0094 2.75 74.2504 2.75H55.0004C54.2414 2.75 53.6254 3.366 53.6254 4.125C53.6254 4.884 54.2414 5.5 55.0004 5.5H70.9312L44.0004 32.4307L31.2226 19.6529C30.6849 19.1152 29.8159 19.1152 29.2783 19.6529L12.7783 36.1529L14.7226 38.0971L30.2504 22.5693L43.0283 35.3471C43.5659 35.8848 44.4349 35.8848 44.9726 35.3471Z" fill="#57AE5B"/>
</svg>
