<svg width="88" height="88" viewBox="0 0 88 88" fill="none" xmlns="http://www.w3.org/2000/svg">
<path d="M33.3341 60.8341L19.9375 47.4375C19.0109 46.5545 17.78 46.062 16.5 46.062C15.22 46.062 13.9891 46.5545 13.0625 47.4375C12.1523 48.35 11.6412 49.5862 11.6412 50.875C11.6412 52.1638 12.1523 53.4 13.0625 54.3125L23.375 64.625C23.5049 64.7504 23.6089 64.9002 23.6809 65.0657C23.7529 65.2313 23.7917 65.4095 23.7949 65.59C23.798 65.7705 23.7656 65.9499 23.6995 66.118C23.6334 66.286 23.5348 66.4393 23.4094 66.5693C23.284 66.6992 23.1342 66.8031 22.9686 66.8752C22.8031 66.9472 22.6249 66.9859 22.4444 66.9891C22.2638 66.9923 22.0844 66.9599 21.9164 66.8938C21.7484 66.8276 21.595 66.729 21.4651 66.6036L21.4307 66.5693L11.1183 56.2568C9.71856 54.8512 8.92294 52.9547 8.90085 50.9712C8.87876 48.9877 9.63195 47.074 11 45.6376V30.9375C11 29.6611 10.493 28.4371 9.59045 27.5345C8.68793 26.632 7.46385 26.125 6.1875 26.125C4.91115 26.125 3.68707 26.632 2.78455 27.5345C1.88203 28.4371 1.375 29.6611 1.375 30.9375V57.4475C1.37474 59.4169 2.079 61.3214 3.3605 62.8169L17.875 79.75V85.25C17.875 85.6147 18.0199 85.9644 18.2777 86.2223C18.5356 86.4801 18.8853 86.625 19.25 86.625H34.375C34.7397 86.625 35.0894 86.4801 35.3473 86.2223C35.6051 85.9644 35.75 85.6147 35.75 85.25V66.6669C35.7499 64.4792 34.8809 62.3812 33.3341 60.8341Z" fill="#57AE5B"/>
<path d="M54.6659 60.8341L68.0625 47.4375C68.9891 46.5545 70.22 46.062 71.5 46.062C72.78 46.062 74.0109 46.5545 74.9375 47.4375C75.8477 48.35 76.3588 49.5862 76.3588 50.875C76.3588 52.1638 75.8477 53.4 74.9375 54.3125L64.625 64.625C64.4944 64.7503 64.3898 64.9002 64.3172 65.066C64.2447 65.2318 64.2056 65.4103 64.2022 65.5913C64.1988 65.7723 64.2311 65.9521 64.2974 66.1206C64.3636 66.289 64.4625 66.4427 64.5883 66.5728C64.7141 66.703 64.8643 66.807 65.0304 66.8789C65.1965 66.9509 65.3752 66.9893 65.5562 66.992C65.7371 66.9948 65.9169 66.9618 66.0851 66.8949C66.2533 66.828 66.4066 66.7285 66.5362 66.6022L66.5693 66.5693L76.8818 56.2568C78.2814 54.8512 79.0771 52.9547 79.0991 50.9712C79.1212 48.9877 78.368 47.074 77 45.6376V30.9375C77 29.6611 77.507 28.4371 78.4095 27.5345C79.3121 26.632 80.5361 26.125 81.8125 26.125C83.0889 26.125 84.3129 26.632 85.2155 27.5345C86.118 28.4371 86.625 29.6611 86.625 30.9375V57.4475C86.6253 59.4169 85.921 61.3214 84.6395 62.8169L70.125 79.75V85.25C70.125 85.6147 69.9801 85.9644 69.7223 86.2223C69.4644 86.4801 69.1147 86.625 68.75 86.625H53.625C53.2603 86.625 52.9106 86.4801 52.6527 86.2223C52.3949 85.9644 52.25 85.6147 52.25 85.25V66.6669C52.2501 64.4792 53.1191 62.3812 54.6659 60.8341Z" fill="#57AE5B"/>
<path d="M61.875 42.6248H49.5V28.8748H38.5V42.6248H26.125C25.7603 42.6248 25.4106 42.4799 25.1527 42.222C24.8949 41.9642 24.75 41.6144 24.75 41.2498V17.8748C24.75 17.664 24.7985 17.456 24.8918 17.2669C24.985 17.0779 25.1204 16.9128 25.2876 16.7844L43.1626 3.03439C43.4028 2.84997 43.6972 2.75 44 2.75C44.3028 2.75 44.5972 2.84997 44.8374 3.03439L62.7124 16.7844C62.8796 16.9128 63.015 17.0779 63.1082 17.2669C63.2015 17.456 63.25 17.664 63.25 17.8748V41.2498C63.25 41.6144 63.1051 41.9642 62.8473 42.222C62.5894 42.4799 62.2397 42.6248 61.875 42.6248Z" fill="#57AE5B"/>
</svg>
