<svg width="88" height="88" viewBox="0 0 88 88" fill="none" xmlns="http://www.w3.org/2000/svg">
<path d="M5.5 46.75H15.125V85.1455H5.5C5.13533 85.1455 4.78559 85.0006 4.52773 84.7428C4.26987 84.4849 4.125 84.1352 4.125 83.7705V48.125C4.125 47.7603 4.26987 47.4106 4.52773 47.1527C4.78559 46.8949 5.13533 46.75 5.5 46.75Z" fill="#57AE5B"/>
<path d="M49.5 33H19.25C18.8853 33 18.5356 33.1449 18.2777 33.4027C18.0199 33.6606 17.875 34.0103 17.875 34.375V83.875C17.875 84.2397 18.0199 84.5894 18.2777 84.8473C18.5356 85.1051 18.8853 85.25 19.25 85.25H49.5C49.8647 85.25 50.2144 85.1051 50.4723 84.8473C50.7301 84.5894 50.875 84.2397 50.875 83.875V34.375C50.875 34.0103 50.7301 33.6606 50.4723 33.4027C50.2144 33.1449 49.8647 33 49.5 33ZM39.875 72.875H28.875C28.5103 72.875 28.1606 72.7301 27.9027 72.4723C27.6449 72.2144 27.5 71.8647 27.5 71.5C27.5 71.1353 27.6449 70.7856 27.9027 70.5277C28.1606 70.2699 28.5103 70.125 28.875 70.125H39.875C40.2397 70.125 40.5894 70.2699 40.8473 70.5277C41.1051 70.7856 41.25 71.1353 41.25 71.5C41.25 71.8647 41.1051 72.2144 40.8473 72.4723C40.5894 72.7301 40.2397 72.875 39.875 72.875ZM39.875 64.625H28.875C28.5103 64.625 28.1606 64.4801 27.9027 64.2223C27.6449 63.9644 27.5 63.6147 27.5 63.25C27.5 62.8853 27.6449 62.5356 27.9027 62.2777C28.1606 62.0199 28.5103 61.875 28.875 61.875H39.875C40.2397 61.875 40.5894 62.0199 40.8473 62.2777C41.1051 62.5356 41.25 62.8853 41.25 63.25C41.25 63.6147 41.1051 63.9644 40.8473 64.2223C40.5894 64.4801 40.2397 64.625 39.875 64.625ZM39.875 56.375H28.875C28.5103 56.375 28.1606 56.2301 27.9027 55.9723C27.6449 55.7144 27.5 55.3647 27.5 55C27.5 54.6353 27.6449 54.2856 27.9027 54.0277C28.1606 53.7699 28.5103 53.625 28.875 53.625H39.875C40.2397 53.625 40.5894 53.7699 40.8473 54.0277C41.1051 54.2856 41.25 54.6353 41.25 55C41.25 55.3647 41.1051 55.7144 40.8473 55.9723C40.5894 56.2301 40.2397 56.375 39.875 56.375ZM39.875 48.125H28.875C28.5103 48.125 28.1606 47.9801 27.9027 47.7223C27.6449 47.4644 27.5 47.1147 27.5 46.75C27.5 46.3853 27.6449 46.0356 27.9027 45.7777C28.1606 45.5199 28.5103 45.375 28.875 45.375H39.875C40.2397 45.375 40.5894 45.5199 40.8473 45.7777C41.1051 46.0356 41.25 46.3853 41.25 46.75C41.25 47.1147 41.1051 47.4644 40.8473 47.7223C40.5894 47.9801 40.2397 48.125 39.875 48.125Z" fill="#57AE5B"/>
<path d="M82.962 16.5809L44.462 2.83092C44.2546 2.75693 44.0325 2.73383 43.8143 2.76358C43.5961 2.79332 43.3882 2.87503 43.2082 3.00183C43.0282 3.12863 42.8812 3.29682 42.7798 3.49224C42.6783 3.68765 42.6252 3.90459 42.625 4.12479V30.2498H49.5C50.594 30.2498 51.6432 30.6844 52.4168 31.458C53.1904 32.2316 53.625 33.2808 53.625 34.3748V85.2498H82.5C82.8647 85.2498 83.2144 85.1049 83.4723 84.8471C83.7301 84.5892 83.875 84.2395 83.875 83.8748V17.8748C83.8748 17.5913 83.7869 17.3148 83.6235 17.0832C83.46 16.8516 83.229 16.6762 82.962 16.5809ZM61.875 71.4998C61.875 71.8645 61.7301 72.2142 61.4723 72.4721C61.2144 72.7299 60.8647 72.8748 60.5 72.8748C60.1353 72.8748 59.7856 72.7299 59.5277 72.4721C59.2699 72.2142 59.125 71.8645 59.125 71.4998V20.6248C59.125 20.2601 59.2699 19.9104 59.5277 19.6525C59.7856 19.3947 60.1353 19.2498 60.5 19.2498C60.8647 19.2498 61.2144 19.3947 61.4723 19.6525C61.7301 19.9104 61.875 20.2601 61.875 20.6248V71.4998ZM70.125 71.4998C70.125 71.8645 69.9801 72.2142 69.7223 72.4721C69.4644 72.7299 69.1147 72.8748 68.75 72.8748C68.3853 72.8748 68.0356 72.7299 67.7777 72.4721C67.5199 72.2142 67.375 71.8645 67.375 71.4998V23.3748C67.375 23.0101 67.5199 22.6604 67.7777 22.4025C68.0356 22.1447 68.3853 21.9998 68.75 21.9998C69.1147 21.9998 69.4644 22.1447 69.7223 22.4025C69.9801 22.6604 70.125 23.0101 70.125 23.3748V71.4998ZM78.375 71.4998C78.375 71.8645 78.2301 72.2142 77.9723 72.4721C77.7144 72.7299 77.3647 72.8748 77 72.8748C76.6353 72.8748 76.2856 72.7299 76.0277 72.4721C75.7699 72.2142 75.625 71.8645 75.625 71.4998V26.1248C75.625 25.7601 75.7699 25.4104 76.0277 25.1525C76.2856 24.8947 76.6353 24.7498 77 24.7498C77.3647 24.7498 77.7144 24.8947 77.9723 25.1525C78.2301 25.4104 78.375 25.7601 78.375 26.1248V71.4998Z" fill="#57AE5B"/>
</svg>
