<svg width="88" height="88" viewBox="0 0 88 88" fill="none" xmlns="http://www.w3.org/2000/svg">
<path d="M44 55C45.5188 55 46.75 53.7688 46.75 52.25C46.75 50.7312 45.5188 49.5 44 49.5C42.4812 49.5 41.25 50.7312 41.25 52.25C41.25 53.7688 42.4812 55 44 55Z" fill="#57AE5B"/>
<path d="M77.3327 11.0426L44.3328 2.79263C44.1145 2.73628 43.8855 2.73628 43.6672 2.79263L10.6672 11.0426C10.3699 11.1168 10.1058 11.2882 9.91699 11.5296C9.72816 11.771 9.62539 12.0685 9.625 12.375V50.875C9.625 59.9918 13.2466 68.7352 19.6932 75.1818C26.1398 81.6284 34.8832 85.25 44 85.25C53.1168 85.25 61.8602 81.6284 68.3068 75.1818C74.7534 68.7352 78.375 59.9918 78.375 50.875V12.375C78.3746 12.0685 78.2718 11.771 78.083 11.5296C77.8942 11.2882 77.6301 11.1168 77.3327 11.0426ZM34.375 31.625C34.375 29.0723 35.3891 26.6241 37.1941 24.8191C38.9991 23.0141 41.4473 22 44 22C46.5527 22 49.0009 23.0141 50.8059 24.8191C52.6109 26.6241 53.625 29.0723 53.625 31.625V38.5H50.875V31.625C50.875 29.8016 50.1507 28.053 48.8614 26.7636C47.572 25.4743 45.8234 24.75 44 24.75C42.1766 24.75 40.428 25.4743 39.1386 26.7636C37.8493 28.053 37.125 29.8016 37.125 31.625V38.5H34.375V31.625ZM59.125 61.875C59.125 62.2397 58.9801 62.5894 58.7223 62.8473C58.4644 63.1051 58.1147 63.25 57.75 63.25H30.25C29.8853 63.25 29.5356 63.1051 29.2777 62.8473C29.0199 62.5894 28.875 62.2397 28.875 61.875V42.625C28.875 42.2603 29.0199 41.9106 29.2777 41.6527C29.5356 41.3949 29.8853 41.25 30.25 41.25H57.75C58.1147 41.25 58.4644 41.3949 58.7223 41.6527C58.9801 41.9106 59.125 42.2603 59.125 42.625V61.875Z" fill="#57AE5B"/>
</svg>
