<svg width="88" height="88" viewBox="0 0 88 88" fill="none" xmlns="http://www.w3.org/2000/svg">
<path d="M33.3341 60.8341L19.9375 47.4375C19.0109 46.5545 17.78 46.062 16.5 46.062C15.22 46.062 13.9891 46.5545 13.0625 47.4375C12.1523 48.35 11.6412 49.5862 11.6412 50.875C11.6412 52.1638 12.1523 53.4 13.0625 54.3125L23.375 64.625C23.5063 64.7518 23.6111 64.9036 23.6831 65.0713C23.7552 65.2391 23.7931 65.4195 23.7947 65.6021C23.7963 65.7846 23.7615 65.9657 23.6924 66.1347C23.6232 66.3037 23.5211 66.4572 23.392 66.5863C23.2629 66.7154 23.1094 66.8175 22.9404 66.8866C22.7715 66.9558 22.5904 66.9906 22.4078 66.989C22.2253 66.9874 22.0448 66.9494 21.8771 66.8774C21.7093 66.8053 21.5576 66.7006 21.4307 66.5693L11.1183 56.2568C9.71824 54.8514 8.92239 52.9548 8.90031 50.9712C8.87822 48.9876 9.63163 47.0738 11 45.6376V30.9375C11 29.6611 10.493 28.4371 9.59045 27.5345C8.68793 26.632 7.46385 26.125 6.1875 26.125C4.91115 26.125 3.68707 26.632 2.78455 27.5345C1.88203 28.4371 1.375 29.6611 1.375 30.9375V57.4475C1.37474 59.4169 2.079 61.3214 3.3605 62.8169L17.875 79.75V85.25C17.875 85.6147 18.0199 85.9644 18.2777 86.2223C18.5356 86.4801 18.8853 86.625 19.25 86.625H34.375C34.7397 86.625 35.0894 86.4801 35.3473 86.2223C35.6051 85.9644 35.75 85.6147 35.75 85.25V66.6669C35.7499 64.4792 34.8809 62.3812 33.3341 60.8341Z" fill="#57AE5B"/>
<path d="M54.6659 60.8341L68.0625 47.4375C68.9891 46.5545 70.22 46.062 71.5 46.062C72.78 46.062 74.0109 46.5545 74.9375 47.4375C75.8477 48.35 76.3588 49.5862 76.3588 50.875C76.3588 52.1638 75.8477 53.4 74.9375 54.3125L64.625 64.625C64.4937 64.7518 64.3889 64.9036 64.3169 65.0713C64.2448 65.2391 64.2069 65.4195 64.2053 65.6021C64.2037 65.7846 64.2385 65.9657 64.3076 66.1347C64.3768 66.3037 64.4789 66.4572 64.608 66.5863C64.7371 66.7154 64.8906 66.8175 65.0596 66.8866C65.2285 66.9558 65.4096 66.9906 65.5922 66.989C65.7747 66.9874 65.9552 66.9494 66.1229 66.8774C66.2907 66.8053 66.4424 66.7006 66.5693 66.5693L76.8818 56.2568C78.2818 54.8514 79.0776 52.9548 79.0997 50.9712C79.1218 48.9876 78.3684 47.0738 77 45.6376V30.9375C77 29.6611 77.507 28.4371 78.4095 27.5345C79.3121 26.632 80.5361 26.125 81.8125 26.125C83.0889 26.125 84.3129 26.632 85.2155 27.5345C86.118 28.4371 86.625 29.6611 86.625 30.9375V57.4475C86.6253 59.4169 85.921 61.3214 84.6395 62.8169L70.125 79.75V85.25C70.125 85.6147 69.9801 85.9644 69.7223 86.2223C69.4644 86.4801 69.1147 86.625 68.75 86.625H53.625C53.2603 86.625 52.9106 86.4801 52.6527 86.2223C52.3949 85.9644 52.25 85.6147 52.25 85.25V66.6669C52.2501 64.4792 53.1191 62.3812 54.6659 60.8341Z" fill="#57AE5B"/>
<path d="M44 1.375C39.6488 1.375 35.3953 2.66528 31.7775 5.08267C28.1596 7.50006 25.3398 10.936 23.6747 14.956C22.0095 18.9759 21.5739 23.3994 22.4227 27.667C23.2716 31.9346 25.3669 35.8546 28.4437 38.9314C31.5204 42.0081 35.4404 44.1034 39.708 44.9523C43.9756 45.8012 48.3991 45.3655 52.419 43.7003C56.439 42.0352 59.8749 39.2154 62.2923 35.5975C64.7097 31.9797 66 27.7262 66 23.375C65.983 17.5455 63.6596 11.9596 59.5375 7.83748C55.4154 3.71537 49.8295 1.39205 44 1.375ZM44 42.625C39.1303 42.6577 34.4413 40.7821 30.9375 37.4C30.9375 37.2625 31.075 37.2625 31.075 37.125C31.9502 35.7989 32.4168 34.2451 32.4168 32.6562C32.4168 31.0674 31.9502 29.5136 31.075 28.1875C30.5675 27.4671 30.0164 26.7783 29.425 26.125C28.4625 25.1625 27.5 24.0625 27.5 23.375C27.5 22.9625 29.425 22 30.25 21.5875C31.9351 20.941 33.443 19.9043 34.65 18.5625C36.85 15.675 35.0625 10.5875 34.1 9.075C33.8132 8.51733 33.4422 8.00718 33 7.5625C35.8822 5.55255 39.2568 4.36431 42.7625 4.125C43.0491 4.39865 43.3732 4.63013 43.725 4.8125C44.4114 5.25701 45.0557 5.76328 45.65 6.325C46.0625 7.0125 46.3375 7.7 46.6125 8.25C46.8094 9.16003 47.2642 9.99409 47.9225 10.6525C48.5809 11.3108 49.415 11.7656 50.325 11.9625C50.6 12.375 50.875 12.375 51.2875 12.375C53.6135 12.0982 55.8342 11.2477 57.75 9.9C61.2974 13.4848 63.2758 18.3318 63.25 23.375C63.2351 28.4758 61.2022 33.3635 57.5954 36.9704C53.9885 40.5772 49.1009 42.6101 44 42.625Z" fill="#7BC47F"/>
<path d="M50.6002 18.0125C49.3375 17.9946 48.0852 18.2424 46.9244 18.7399C45.7637 19.2373 44.7206 19.9733 43.8627 20.9C43.3396 21.4656 42.9555 22.1453 42.7407 22.8851C42.5259 23.625 42.4863 24.4047 42.6252 25.1625C43.1352 27.5097 43.2744 29.9222 43.0377 32.3125C42.9002 34.2375 42.7627 35.8875 44.9627 37.5375C45.6293 38.0493 46.4627 38.2944 47.3002 38.225C49.2252 38.225 51.5627 36.9875 53.7627 34.7875C56.1002 32.45 58.5752 28.6 58.5752 25.025C58.3909 23.0596 57.4625 21.2388 55.9801 19.9353C54.4976 18.6317 52.5731 17.9439 50.6002 18.0125Z" fill="#57AE5B"/>
</svg>
