<svg width="12" height="12" viewBox="0 0 12 12" fill="none" xmlns="http://www.w3.org/2000/svg">
<path d="M9.66679 3H2.33321C2.2725 3.00002 2.21295 3.01663 2.16098 3.04802C2.10902 3.07941 2.06662 3.1244 2.03835 3.17812C2.01008 3.23185 1.99702 3.29227 2.00057 3.35288C2.00413 3.41348 2.02417 3.47197 2.05853 3.52202L5.72532 8.85553C5.75596 8.90008 5.79697 8.93651 5.84482 8.96168C5.89267 8.98685 5.94593 9.00001 6 9.00001C6.05407 9.00001 6.10732 8.98685 6.15518 8.96168C6.20303 8.93651 6.24404 8.90008 6.27468 8.85553L9.94147 3.52202C9.97583 3.47197 9.99587 3.41348 9.99943 3.35288C10.003 3.29227 9.98992 3.23185 9.96165 3.17812C9.93338 3.1244 9.89098 3.07941 9.83902 3.04802C9.78705 3.01663 9.7275 3.00002 9.66679 3Z" fill="#515151"/>
</svg>
