<?xml version="1.0" encoding="utf-8"?>
<!-- Generator: Adobe Illustrator 22.1.0, SVG Export Plug-In . SVG Version: 6.00 Build 0)  -->
<svg version="1.1" id="Layer_1" xmlns="http://www.w3.org/2000/svg" xmlns:xlink="http://www.w3.org/1999/xlink" x="0px" y="0px"
	 viewBox="0 0 1450 1063" style="enable-background:new 0 0 1450 1063;" xml:space="preserve">
<style type="text/css">
	.st0{opacity:0.2;}
	.st1{opacity:0.2;fill:#8992F5;enable-background:new    ;}
	.st2{opacity:0.2;fill:none;stroke:#8992F5;stroke-width:1.23;stroke-miterlimit:10;enable-background:new    ;}
	.st3{opacity:0.25;}
	.st4{opacity:0.5;}
	.st5{opacity:0.5;fill:url(#SVGID_1_);enable-background:new    ;}
	.st6{fill:#BCC0E5;}
	.st7{opacity:0.5;fill:url(#SVGID_2_);enable-background:new    ;}
	.st8{opacity:0.5;fill:#FFFFFF;enable-background:new    ;}
	.st9{opacity:0.5;fill:url(#SVGID_3_);enable-background:new    ;}
	.st10{fill:url(#SVGID_4_);}
	.st11{fill:#FFFFFF;}
	.st12{fill:url(#SVGID_5_);}
	.st13{fill:url(#SVGID_6_);}
	.st14{fill:url(#SVGID_7_);}
	.st15{fill:#001370;}
	.st16{fill:#020C82;}
	.st17{fill:#F5D5D5;}
	.st18{fill:url(#SVGID_8_);}
	.st19{fill:#FFAD6F;}
	.st20{fill:url(#SVGID_9_);}
	.st21{fill:url(#SVGID_10_);}
	.st22{fill:#FF5A6F;}
	.st23{fill:#DCDEFA;}
	.st24{fill:#E6E7F5;}
	.st25{fill:url(#SVGID_11_);}
	.st26{fill:url(#SVGID_12_);}
	.st27{fill:url(#SVGID_13_);}
	.st28{fill:url(#SVGID_14_);}
	.st29{fill:url(#SVGID_15_);}
	.st30{fill:url(#SVGID_16_);}
	.st31{fill:#D0D3F5;}
	.st32{fill:url(#SVGID_17_);}
	.st33{fill:url(#SVGID_18_);}
	.st34{fill:url(#SVGID_19_);}
	.st35{fill:url(#SVGID_20_);}
	.st36{fill:url(#SVGID_21_);}
	.st37{fill:url(#SVGID_22_);}
	.st38{fill:url(#SVGID_23_);}
	.st39{fill:url(#SVGID_24_);}
	.st40{fill:url(#SVGID_25_);}
	.st41{fill:url(#SVGID_26_);}
	.st42{fill:url(#SVGID_27_);}
	.st43{fill:url(#SVGID_28_);}
	.st44{fill:url(#SVGID_29_);}
	.st45{fill:url(#SVGID_30_);}
	.st46{fill:url(#SVGID_31_);}
	.st47{fill:url(#SVGID_32_);}
	.st48{fill:url(#SVGID_33_);}
	.st49{fill:url(#SVGID_34_);}
	.st50{fill:url(#SVGID_35_);}
	.st51{fill:url(#SVGID_36_);}
	.st52{fill:url(#SVGID_37_);}
	.st53{fill:url(#SVGID_38_);}
	.st54{fill:url(#SVGID_39_);}
	.st55{fill:url(#SVGID_40_);}
	.st56{fill:#C9C9C9;}
	.st57{fill:url(#SVGID_41_);}
	.st58{fill:url(#SVGID_42_);}
	.st59{opacity:0.3;}
	.st60{opacity:0.3;fill:#FF5A6F;enable-background:new    ;}
	.st61{opacity:0.3;fill:#FFAD6F;enable-background:new    ;}
	.st62{opacity:0.3;fill:#FFFFFF;enable-background:new    ;}
	.st63{fill:url(#SVGID_43_);}
	.st64{fill:#000070;}
	.st65{fill:url(#SVGID_44_);}
	.st66{fill:url(#SVGID_45_);}
	.st67{fill:#010854;}
	.st68{fill:url(#SVGID_46_);}
	.st69{fill:url(#SVGID_47_);}
	.st70{fill:url(#SVGID_48_);}
	.st71{fill:url(#SVGID_49_);}
	.st72{fill:url(#SVGID_50_);}
	.st73{fill:#080078;}
</style>
<g class="st0">
	<path class="st1" d="M5.8,436.4c1.3,0.8,1.3,2,0,2.8c-0.8,0.4-1.6,0.6-2.4,0.6c-0.8,0-1.7-0.2-2.4-0.6c-1.3-0.8-1.3-2,0-2.8
		c0.8-0.4,1.6-0.6,2.4-0.6C4.3,435.8,5.1,436,5.8,436.4z"/>
	<path class="st1" d="M113.7,374.1c1.3,0.8,1.3,2,0,2.8c-0.7,0.4-1.6,0.6-2.4,0.6c-0.8,0-1.7-0.2-2.4-0.6c-1.3-0.8-1.3-2,0-2.8
		c0.8-0.4,1.6-0.6,2.4-0.6C112.1,373.5,112.9,373.7,113.7,374.1z"/>
	<path class="st1" d="M221.5,311.9c1.3,0.8,1.3,2,0,2.8c-0.8,0.4-1.6,0.6-2.4,0.6c-0.8,0-1.7-0.2-2.4-0.6c-1.3-0.8-1.3-2,0-2.8
		c0.8-0.4,1.6-0.6,2.4-0.6C219.9,311.3,220.8,311.5,221.5,311.9z"/>
	<path class="st1" d="M329.4,249.6c1.3,0.8,1.3,2,0,2.8c-0.8,0.4-1.6,0.6-2.4,0.6c-0.8,0-1.7-0.2-2.4-0.6c-1.3-0.8-1.3-2,0-2.8
		c0.7-0.4,1.6-0.6,2.4-0.6C327.8,249,328.7,249.2,329.4,249.6z"/>
	<path class="st1" d="M437.2,187.3c1.3,0.8,1.3,2,0,2.8c-0.8,0.4-1.6,0.6-2.4,0.6c-0.8,0-1.7-0.2-2.4-0.6c-1.3-0.8-1.3-2,0-2.8
		c0.8-0.4,1.6-0.6,2.4-0.6C435.6,186.8,436.5,187,437.2,187.3z"/>
	<path class="st1" d="M545,125.1c1.3,0.8,1.3,2,0,2.8c-0.8,0.4-1.6,0.6-2.4,0.6s-1.7-0.2-2.4-0.6c-1.3-0.8-1.3-2,0-2.8
		c0.8-0.4,1.6-0.6,2.4-0.6S544.3,124.7,545,125.1z"/>
	<path class="st1" d="M652.9,62.8c1.3,0.8,1.3,2,0,2.8c-0.7,0.4-1.6,0.6-2.4,0.6c-0.8,0-1.7-0.2-2.4-0.6c-1.3-0.8-1.3-2,0-2.8
		c0.8-0.4,1.6-0.6,2.4-0.6S652.1,62.4,652.9,62.8z"/>
	<path class="st1" d="M760.7,0.6c1.3,0.8,1.3,2,0,2.8c-0.8,0.4-1.6,0.6-2.4,0.6s-1.7-0.2-2.4-0.6c-1.3-0.8-1.3-2,0-2.8
		c0.8-0.4,1.6-0.6,2.4-0.6S760,0.2,760.7,0.6z"/>
	<path class="st1" d="M5.8,560.9c1.3,0.8,1.3,2,0,2.8c-0.8,0.4-1.6,0.6-2.4,0.6s-1.7-0.2-2.4-0.6c-1.3-0.8-1.3-2,0-2.8
		c0.8-0.4,1.6-0.6,2.4-0.6S5.1,560.5,5.8,560.9z"/>
	<path class="st1" d="M113.7,498.7c1.3,0.8,1.3,2,0,2.8c-0.8,0.4-1.6,0.6-2.4,0.6c-0.8,0-1.7-0.2-2.4-0.6c-1.3-0.8-1.3-2,0-2.8
		c0.8-0.4,1.6-0.6,2.4-0.6C112.1,498.1,112.9,498.3,113.7,498.7z"/>
	<path class="st1" d="M221.5,436.4c1.3,0.8,1.3,2,0,2.8c-0.8,0.4-1.6,0.6-2.4,0.6c-0.8,0-1.7-0.2-2.4-0.6c-1.3-0.8-1.3-2,0-2.8
		c0.8-0.4,1.6-0.6,2.4-0.6C219.9,435.8,220.8,436,221.5,436.4z"/>
	<path class="st1" d="M329.4,374.1c1.3,0.8,1.3,2,0,2.8c-0.8,0.4-1.6,0.6-2.4,0.6s-1.7-0.2-2.4-0.6c-1.3-0.8-1.3-2,0-2.8
		c0.8-0.4,1.6-0.6,2.4-0.6S328.7,373.7,329.4,374.1z"/>
	<path class="st1" d="M437.2,311.9c1.3,0.8,1.3,2,0,2.8c-0.7,0.4-1.6,0.6-2.4,0.6c-0.8,0-1.7-0.2-2.4-0.6c-1.3-0.8-1.3-2,0-2.8
		c0.8-0.4,1.6-0.6,2.4-0.6C435.6,311.3,436.5,311.5,437.2,311.9z"/>
	<path class="st1" d="M545,249.6c1.3,0.8,1.3,2,0,2.8c-0.8,0.4-1.6,0.6-2.4,0.6c-0.8,0-1.7-0.2-2.4-0.6c-1.3-0.8-1.3-2,0-2.8
		c0.8-0.4,1.6-0.6,2.4-0.6C543.5,249,544.3,249.2,545,249.6z"/>
	<path class="st1" d="M652.9,187.3c1.3,0.8,1.3,2,0,2.8c-0.7,0.4-1.6,0.6-2.4,0.6c-0.8,0-1.7-0.2-2.4-0.6c-1.3-0.8-1.3-2,0-2.8
		c0.7-0.4,1.6-0.6,2.4-0.6C651.3,186.8,652.1,187,652.9,187.3z"/>
	<path class="st1" d="M760.7,125.1c1.3,0.8,1.3,2,0,2.8c-0.8,0.4-1.6,0.6-2.4,0.6c-0.8,0-1.7-0.2-2.4-0.6c-1.3-0.8-1.3-2,0-2.8
		c0.8-0.4,1.6-0.6,2.4-0.6C759.2,124.5,760,124.7,760.7,125.1z"/>
	<path class="st1" d="M868.6,62.8c1.3,0.8,1.3,2,0,2.8c-0.8,0.4-1.6,0.6-2.4,0.6c-0.8,0-1.7-0.2-2.4-0.6c-1.3-0.8-1.3-2,0-2.8
		c0.8-0.4,1.6-0.6,2.4-0.6C867,62.2,867.8,62.4,868.6,62.8z"/>
	<path class="st1" d="M5.8,685.4c1.3,0.8,1.3,2,0,2.8c-0.8,0.4-1.6,0.6-2.4,0.6s-1.7-0.2-2.4-0.6c-1.3-0.8-1.3-2,0-2.8
		c0.7-0.4,1.6-0.6,2.4-0.6C4.3,684.9,5.1,685.1,5.8,685.4z"/>
	<path class="st1" d="M113.7,623.2c1.3,0.8,1.3,2,0,2.8c-0.8,0.4-1.6,0.6-2.4,0.6c-0.8,0-1.7-0.2-2.4-0.6c-1.3-0.8-1.3-2,0-2.8
		c0.8-0.4,1.6-0.6,2.4-0.6C112.1,622.6,112.9,622.8,113.7,623.2z"/>
	<path class="st1" d="M221.5,560.9c1.3,0.8,1.3,2,0,2.8c-0.7,0.4-1.6,0.6-2.4,0.6s-1.7-0.2-2.4-0.6c-1.3-0.8-1.3-2,0-2.8
		c0.8-0.4,1.6-0.6,2.4-0.6S220.8,560.5,221.5,560.9z"/>
	<path class="st1" d="M329.4,498.7c1.3,0.8,1.3,2,0,2.8c-0.8,0.4-1.6,0.6-2.4,0.6s-1.7-0.2-2.4-0.6c-1.3-0.8-1.3-2,0-2.8
		c0.8-0.4,1.6-0.6,2.4-0.6S328.7,498.3,329.4,498.7z"/>
	<path class="st1" d="M437.2,436.4c1.3,0.8,1.3,2,0,2.8c-0.8,0.4-1.6,0.6-2.4,0.6s-1.7-0.2-2.4-0.6c-1.3-0.8-1.3-2,0-2.8
		c0.8-0.4,1.6-0.6,2.4-0.6S436.5,436,437.2,436.4z"/>
	<path class="st1" d="M545.1,374.1c1.3,0.8,1.3,2,0,2.8c-0.8,0.4-1.6,0.6-2.4,0.6s-1.7-0.2-2.4-0.6c-1.3-0.8-1.3-2,0-2.8
		c0.8-0.4,1.6-0.6,2.4-0.6S544.3,373.7,545.1,374.1z"/>
	<path class="st1" d="M652.9,311.9c1.3,0.8,1.3,2,0,2.8c-0.8,0.4-1.6,0.6-2.4,0.6c-0.8,0-1.7-0.2-2.4-0.6c-1.3-0.8-1.3-2,0-2.8
		c0.8-0.4,1.6-0.6,2.4-0.6C651.3,311.3,652.1,311.5,652.9,311.9z"/>
	<path class="st1" d="M760.7,249.6c1.3,0.8,1.3,2,0,2.8c-0.7,0.4-1.6,0.6-2.4,0.6c-0.8,0-1.7-0.2-2.4-0.6c-1.3-0.8-1.3-2,0-2.8
		c0.8-0.4,1.6-0.6,2.4-0.6C759.2,249,760,249.2,760.7,249.6z"/>
	<path class="st1" d="M868.6,187.3c1.3,0.8,1.3,2,0,2.8c-0.8,0.4-1.6,0.6-2.4,0.6s-1.7-0.2-2.4-0.6c-1.3-0.8-1.3-2,0-2.8
		c0.8-0.4,1.6-0.6,2.4-0.6S867.8,187,868.6,187.3z"/>
	<path class="st1" d="M976.4,125.1c1.3,0.8,1.3,2,0,2.8c-0.8,0.4-1.6,0.6-2.4,0.6s-1.7-0.2-2.4-0.6c-1.3-0.8-1.3-2,0-2.8
		c0.7-0.4,1.6-0.6,2.4-0.6C974.8,124.5,975.7,124.7,976.4,125.1z"/>
	<path class="st1" d="M5.8,810c1.3,0.8,1.3,2,0,2.8c-0.8,0.4-1.6,0.6-2.4,0.6c-0.8,0-1.7-0.2-2.4-0.6c-1.3-0.8-1.3-2,0-2.8
		c0.8-0.4,1.6-0.6,2.4-0.6C4.3,809.4,5.1,809.6,5.8,810z"/>
	<path class="st1" d="M113.7,747.7c1.3,0.8,1.3,2,0,2.8c-0.7,0.4-1.6,0.6-2.4,0.6c-0.8,0-1.7-0.2-2.4-0.6c-1.3-0.8-1.3-2,0-2.8
		c0.7-0.4,1.6-0.6,2.4-0.6C112.1,747.1,112.9,747.3,113.7,747.7z"/>
	<path class="st1" d="M221.5,685.4c1.3,0.8,1.3,2,0,2.8c-0.8,0.4-1.6,0.6-2.4,0.6c-0.8,0-1.7-0.2-2.4-0.6c-1.3-0.8-1.3-2,0-2.8
		c0.8-0.4,1.6-0.6,2.4-0.6C220,684.9,220.8,685.1,221.5,685.4z"/>
	<path class="st1" d="M329.4,623.2c1.3,0.8,1.3,2,0,2.8c-0.8,0.4-1.6,0.6-2.4,0.6c-0.8,0-1.7-0.2-2.4-0.6c-1.3-0.8-1.3-2,0-2.8
		c0.8-0.4,1.6-0.6,2.4-0.6C327.8,622.6,328.7,622.8,329.4,623.2z"/>
	<path class="st1" d="M437.2,560.9c1.3,0.8,1.3,2,0,2.8c-0.8,0.4-1.6,0.6-2.4,0.6s-1.7-0.2-2.4-0.6c-1.3-0.8-1.3-2,0-2.8
		c0.8-0.4,1.6-0.6,2.4-0.6S436.5,560.5,437.2,560.9z"/>
	<path class="st1" d="M545.1,498.7c1.3,0.8,1.3,2,0,2.8c-0.7,0.4-1.6,0.6-2.4,0.6s-1.7-0.2-2.4-0.6c-1.3-0.8-1.3-2,0-2.8
		c0.8-0.4,1.6-0.6,2.4-0.6S544.3,498.3,545.1,498.7z"/>
	<path class="st1" d="M652.9,436.4c1.3,0.8,1.3,2,0,2.8c-0.8,0.4-1.6,0.6-2.4,0.6c-0.8,0-1.7-0.2-2.4-0.6c-1.3-0.8-1.3-2,0-2.8
		c0.8-0.4,1.6-0.6,2.4-0.6C651.3,435.8,652.1,436,652.9,436.4z"/>
	<path class="st1" d="M760.7,374.1c1.3,0.8,1.3,2,0,2.8c-0.8,0.4-1.6,0.6-2.4,0.6s-1.7-0.2-2.4-0.6c-1.3-0.8-1.3-2,0-2.8
		c0.7-0.4,1.6-0.6,2.4-0.6S760,373.8,760.7,374.1z"/>
	<path class="st1" d="M868.6,311.9c1.3,0.8,1.3,2,0,2.8c-0.8,0.4-1.6,0.6-2.4,0.6s-1.7-0.2-2.4-0.6c-1.3-0.8-1.3-2,0-2.8
		c0.8-0.4,1.6-0.6,2.4-0.6S867.8,311.5,868.6,311.9z"/>
	<path class="st1" d="M976.4,249.6c1.3,0.8,1.3,2,0,2.8c-0.7,0.4-1.6,0.6-2.4,0.6s-1.7-0.2-2.4-0.6c-1.3-0.8-1.3-2,0-2.8
		c0.7-0.4,1.6-0.6,2.4-0.6S975.7,249.2,976.4,249.6z"/>
	<path class="st1" d="M1084.3,187.3c1.3,0.8,1.3,2,0,2.8c-0.8,0.4-1.6,0.6-2.4,0.6s-1.7-0.2-2.4-0.6c-1.3-0.8-1.3-2,0-2.8
		c0.8-0.4,1.6-0.6,2.4-0.6S1083.5,187,1084.3,187.3z"/>
	<path class="st1" d="M5.9,934.5c1.3,0.8,1.3,2,0,2.8c-0.8,0.4-1.6,0.6-2.4,0.6s-1.7-0.2-2.4-0.6c-1.3-0.8-1.3-2,0-2.8
		c0.8-0.4,1.6-0.6,2.4-0.6S5.1,934.1,5.9,934.5z"/>
	<path class="st1" d="M113.7,872.2c1.3,0.8,1.3,2,0,2.8c-0.8,0.4-1.6,0.6-2.4,0.6c-0.8,0-1.7-0.2-2.4-0.6c-1.3-0.8-1.3-2,0-2.8
		c0.7-0.4,1.6-0.6,2.4-0.6C112.1,871.7,112.9,871.9,113.7,872.2z"/>
	<path class="st1" d="M221.5,810c1.3,0.8,1.3,2,0,2.8c-0.8,0.4-1.6,0.6-2.4,0.6c-0.8,0-1.7-0.2-2.4-0.6c-1.3-0.8-1.3-2,0-2.8
		c0.8-0.4,1.6-0.6,2.4-0.6C220,809.4,220.8,809.6,221.5,810z"/>
	<path class="st1" d="M329.4,747.7c1.3,0.8,1.3,2,0,2.8c-0.7,0.4-1.6,0.6-2.4,0.6c-0.8,0-1.7-0.2-2.4-0.6c-1.3-0.8-1.3-2,0-2.8
		c0.8-0.4,1.6-0.6,2.4-0.6S328.7,747.3,329.4,747.7z"/>
	<path class="st1" d="M437.2,685.4c1.3,0.8,1.3,2,0,2.8c-0.8,0.4-1.6,0.6-2.4,0.6c-0.8,0-1.7-0.2-2.4-0.6c-1.3-0.8-1.3-2,0-2.8
		c0.8-0.4,1.6-0.6,2.4-0.6C435.6,684.9,436.5,685.1,437.2,685.4z"/>
	<path class="st1" d="M545.1,623.2c1.3,0.8,1.3,2,0,2.8c-0.8,0.4-1.6,0.6-2.4,0.6s-1.7-0.2-2.4-0.6c-1.3-0.8-1.3-2,0-2.8
		c0.8-0.4,1.6-0.6,2.4-0.6S544.3,622.8,545.1,623.2z"/>
	<path class="st1" d="M652.9,560.9c1.3,0.8,1.3,2,0,2.8c-0.7,0.4-1.6,0.6-2.4,0.6c-0.8,0-1.7-0.2-2.4-0.6c-1.3-0.8-1.3-2,0-2.8
		c0.7-0.4,1.6-0.6,2.4-0.6C651.3,560.3,652.1,560.5,652.9,560.9z"/>
	<path class="st1" d="M760.7,498.7c1.3,0.8,1.3,2,0,2.8c-0.8,0.4-1.6,0.6-2.4,0.6c-0.8,0-1.7-0.2-2.4-0.6c-1.3-0.8-1.3-2,0-2.8
		c0.8-0.4,1.6-0.6,2.4-0.6C759.2,498.1,760,498.3,760.7,498.7z"/>
	<path class="st1" d="M868.6,436.4c1.3,0.8,1.3,2,0,2.8c-0.7,0.4-1.6,0.6-2.4,0.6c-0.8,0-1.7-0.2-2.4-0.6c-1.3-0.8-1.3-2,0-2.8
		c0.8-0.4,1.6-0.6,2.4-0.6S867.8,436,868.6,436.4z"/>
	<path class="st1" d="M976.4,374.1c1.3,0.8,1.3,2,0,2.8c-0.8,0.4-1.6,0.6-2.4,0.6c-0.8,0-1.7-0.2-2.4-0.6c-1.3-0.8-1.3-2,0-2.8
		c0.8-0.4,1.6-0.6,2.4-0.6C974.8,373.6,975.7,373.8,976.4,374.1z"/>
	<path class="st1" d="M1084.3,311.9c1.3,0.8,1.3,2,0,2.8c-0.8,0.4-1.6,0.6-2.4,0.6s-1.7-0.2-2.4-0.6c-1.3-0.8-1.3-2,0-2.8
		c0.8-0.4,1.6-0.6,2.4-0.6S1083.5,311.5,1084.3,311.9z"/>
	<path class="st1" d="M1192.1,249.6c1.3,0.8,1.3,2,0,2.8c-0.8,0.4-1.6,0.6-2.4,0.6c-0.8,0-1.7-0.2-2.4-0.6c-1.3-0.8-1.3-2,0-2.8
		c0.8-0.4,1.6-0.6,2.4-0.6C1190.5,249,1191.4,249.2,1192.1,249.6z"/>
	<path class="st1" d="M113.7,996.8c1.3,0.8,1.3,2,0,2.8c-0.8,0.4-1.6,0.6-2.4,0.6s-1.7-0.2-2.4-0.6c-1.3-0.8-1.3-2,0-2.8
		c0.8-0.4,1.6-0.6,2.4-0.6S112.9,996.4,113.7,996.8z"/>
	<path class="st1" d="M221.5,934.5c1.3,0.8,1.3,2,0,2.8c-0.8,0.4-1.6,0.6-2.4,0.6c-0.8,0-1.7-0.2-2.4-0.6c-1.3-0.8-1.3-2,0-2.8
		c0.8-0.4,1.6-0.6,2.4-0.6C220,933.9,220.8,934.1,221.5,934.5z"/>
	<path class="st1" d="M329.4,872.2c1.3,0.8,1.3,2,0,2.8c-0.8,0.4-1.6,0.6-2.4,0.6s-1.7-0.2-2.4-0.6c-1.3-0.8-1.3-2,0-2.8
		c0.8-0.4,1.6-0.6,2.4-0.6S328.7,871.9,329.4,872.2z"/>
	<path class="st1" d="M437.2,810c1.3,0.8,1.3,2,0,2.8c-0.7,0.4-1.6,0.6-2.4,0.6c-0.8,0-1.7-0.2-2.4-0.6c-1.3-0.8-1.3-2,0-2.8
		c0.7-0.4,1.6-0.6,2.4-0.6S436.5,809.6,437.2,810z"/>
	<path class="st1" d="M545.1,747.7c1.3,0.8,1.3,2,0,2.8c-0.8,0.4-1.6,0.6-2.4,0.6c-0.8,0-1.7-0.2-2.4-0.6c-1.3-0.8-1.3-2,0-2.8
		c0.8-0.4,1.6-0.6,2.4-0.6C543.5,747.1,544.3,747.3,545.1,747.7z"/>
	<path class="st1" d="M652.9,685.4c1.3,0.8,1.3,2,0,2.8c-0.7,0.4-1.6,0.6-2.4,0.6c-0.8,0-1.7-0.2-2.4-0.6c-1.3-0.8-1.3-2,0-2.8
		c0.8-0.4,1.6-0.6,2.4-0.6C651.3,684.9,652.2,685.1,652.9,685.4z"/>
	<path class="st1" d="M760.7,623.2c1.3,0.8,1.3,2,0,2.8c-0.8,0.4-1.6,0.6-2.4,0.6c-0.8,0-1.7-0.2-2.4-0.6c-1.3-0.8-1.3-2,0-2.8
		c0.8-0.4,1.6-0.6,2.4-0.6C759.2,622.6,760,622.8,760.7,623.2z"/>
	<path class="st1" d="M868.6,560.9c1.3,0.8,1.3,2,0,2.8c-0.8,0.4-1.6,0.6-2.4,0.6s-1.7-0.2-2.4-0.6c-1.3-0.8-1.3-2,0-2.8
		c0.7-0.4,1.6-0.6,2.4-0.6C867,560.3,867.8,560.5,868.6,560.9z"/>
	<path class="st1" d="M976.4,498.7c1.3,0.8,1.3,2,0,2.8c-0.8,0.4-1.6,0.6-2.4,0.6s-1.7-0.2-2.4-0.6c-1.3-0.8-1.3-2,0-2.8
		c0.8-0.4,1.6-0.6,2.4-0.6S975.7,498.3,976.4,498.7z"/>
	<path class="st1" d="M1084.3,436.4c1.3,0.8,1.3,2,0,2.8c-0.8,0.4-1.6,0.6-2.4,0.6s-1.7-0.2-2.4-0.6c-1.3-0.8-1.3-2,0-2.8
		c0.8-0.4,1.6-0.6,2.4-0.6S1083.5,436,1084.3,436.4z"/>
	<path class="st1" d="M1192.1,374.1c1.3,0.8,1.3,2,0,2.8c-0.8,0.4-1.6,0.6-2.4,0.6c-0.8,0-1.7-0.2-2.4-0.6c-1.3-0.8-1.3-2,0-2.8
		c0.8-0.4,1.6-0.6,2.4-0.6C1190.5,373.6,1191.4,373.8,1192.1,374.1z"/>
	<path class="st1" d="M1299,311.5c2.6,0.8,2.6,2.8,0,3.6c-1,0.3-2,0.3-3,0c-2.6-0.8-2.6-2.8,0-3.6
		C1297,311.2,1298.1,311.2,1299,311.5z"/>
	<path class="st1" d="M221.5,1059c1.3,0.8,1.3,2,0,2.8c-0.8,0.4-1.6,0.6-2.4,0.6s-1.7-0.2-2.4-0.6c-1.3-0.8-1.3-2,0-2.8
		c0.7-0.4,1.6-0.6,2.4-0.6C220,1058.4,220.8,1058.6,221.5,1059z"/>
	<path class="st1" d="M329.4,996.8c1.3,0.8,1.3,2,0,2.8c-0.8,0.4-1.6,0.6-2.4,0.6c-0.8,0-1.7-0.2-2.4-0.6c-1.3-0.8-1.3-2,0-2.8
		c0.8-0.4,1.6-0.6,2.4-0.6C327.8,996.2,328.7,996.4,329.4,996.8z"/>
	<path class="st1" d="M437.2,934.5c1.3,0.8,1.3,2,0,2.8c-0.8,0.4-1.6,0.6-2.4,0.6c-0.8,0-1.7-0.2-2.4-0.6c-1.3-0.8-1.3-2,0-2.8
		c0.8-0.4,1.6-0.6,2.4-0.6C435.6,933.9,436.5,934.1,437.2,934.5z"/>
	<path class="st1" d="M545.1,872.2c1.3,0.8,1.3,2,0,2.8c-0.8,0.4-1.6,0.6-2.4,0.6c-0.8,0-1.7-0.2-2.4-0.6c-1.3-0.8-1.3-2,0-2.8
		c0.8-0.4,1.6-0.6,2.4-0.6C543.5,871.7,544.3,871.9,545.1,872.2z"/>
	<path class="st1" d="M652.9,810c1.3,0.8,1.3,2,0,2.8c-0.8,0.4-1.6,0.6-2.4,0.6s-1.7-0.2-2.4-0.6c-1.3-0.8-1.3-2,0-2.8
		c0.8-0.4,1.6-0.6,2.4-0.6S652.2,809.6,652.9,810z"/>
	<path class="st1" d="M760.7,747.7c1.3,0.8,1.3,2,0,2.8c-0.8,0.4-1.6,0.6-2.4,0.6c-0.8,0-1.7-0.2-2.4-0.6c-1.3-0.8-1.3-2,0-2.8
		c0.8-0.4,1.6-0.6,2.4-0.6C759.2,747.1,760,747.3,760.7,747.7z"/>
	<path class="st1" d="M868.6,685.4c1.3,0.8,1.3,2,0,2.8c-0.8,0.4-1.6,0.6-2.4,0.6c-0.8,0-1.7-0.2-2.4-0.6c-1.3-0.8-1.3-2,0-2.8
		c0.8-0.4,1.6-0.6,2.4-0.6C867,684.9,867.8,685.1,868.6,685.4z"/>
	<path class="st1" d="M976.4,623.2c1.3,0.8,1.3,2,0,2.8c-0.7,0.4-1.6,0.6-2.4,0.6c-0.8,0-1.7-0.2-2.4-0.6c-1.3-0.8-1.3-2,0-2.8
		c0.7-0.4,1.6-0.6,2.4-0.6S975.7,622.8,976.4,623.2z"/>
	<path class="st1" d="M1084.3,560.9c1.3,0.8,1.3,2,0,2.8c-0.8,0.4-1.6,0.6-2.4,0.6s-1.7-0.2-2.4-0.6c-1.3-0.8-1.3-2,0-2.8
		c0.8-0.4,1.6-0.6,2.4-0.6S1083.5,560.5,1084.3,560.9z"/>
	<path class="st1" d="M1192.1,498.7c1.3,0.8,1.3,2,0,2.8c-0.8,0.4-1.6,0.6-2.4,0.6c-0.8,0-1.7-0.2-2.4-0.6c-1.3-0.8-1.3-2,0-2.8
		c0.8-0.4,1.6-0.6,2.4-0.6C1190.5,498.1,1191.4,498.3,1192.1,498.7z"/>
	<path class="st1" d="M1299,436c2.6,0.8,2.6,2.8,0,3.6c-1,0.3-2,0.3-3,0c-2.6-0.8-2.6-2.8,0-3.6C1297,435.7,1298.1,435.7,1299,436z"
		/>
	<path class="st1" d="M1407.8,374.1c1.3,0.8,1.3,2,0,2.8c-0.8,0.4-1.6,0.6-2.4,0.6s-1.7-0.2-2.4-0.6c-1.3-0.8-1.3-2,0-2.8
		c0.8-0.4,1.6-0.6,2.4-0.6S1407.1,373.8,1407.8,374.1z"/>
	<path class="st1" d="M437.2,1059c1.3,0.8,1.3,2,0,2.8c-0.8,0.4-1.6,0.6-2.4,0.6s-1.7-0.2-2.4-0.6c-1.3-0.8-1.3-2,0-2.8
		c0.8-0.4,1.6-0.6,2.4-0.6S436.5,1058.7,437.2,1059z"/>
	<path class="st1" d="M545.1,996.8c1.3,0.8,1.3,2,0,2.8c-0.8,0.4-1.6,0.6-2.4,0.6s-1.7-0.2-2.4-0.6c-1.3-0.8-1.3-2,0-2.8
		c0.7-0.4,1.6-0.6,2.4-0.6S544.3,996.4,545.1,996.8z"/>
	<path class="st1" d="M652.9,934.5c1.3,0.8,1.3,2,0,2.8c-0.8,0.4-1.6,0.6-2.4,0.6s-1.7-0.2-2.4-0.6c-1.3-0.8-1.3-2,0-2.8
		c0.8-0.4,1.6-0.6,2.4-0.6S652.2,934.1,652.9,934.5z"/>
	<path class="st1" d="M760.7,872.2c1.3,0.8,1.3,2,0,2.8c-0.7,0.4-1.6,0.6-2.4,0.6c-0.8,0-1.7-0.2-2.4-0.6c-1.3-0.8-1.3-2,0-2.8
		c0.7-0.4,1.6-0.6,2.4-0.6C759.2,871.7,760,871.9,760.7,872.2z"/>
	<path class="st1" d="M868.6,810c1.3,0.8,1.3,2,0,2.8c-0.8,0.4-1.6,0.6-2.4,0.6s-1.7-0.2-2.4-0.6c-1.3-0.8-1.3-2,0-2.8
		c0.8-0.4,1.6-0.6,2.4-0.6S867.8,809.6,868.6,810z"/>
	<path class="st1" d="M976.4,747.7c1.3,0.8,1.3,2,0,2.8c-0.8,0.4-1.6,0.6-2.4,0.6c-0.8,0-1.7-0.2-2.4-0.6c-1.3-0.8-1.3-2,0-2.8
		c0.7-0.4,1.6-0.6,2.4-0.6C974.8,747.1,975.7,747.3,976.4,747.7z"/>
	<path class="st1" d="M1084.3,685.4c1.3,0.8,1.3,2,0,2.8c-0.8,0.4-1.6,0.6-2.4,0.6s-1.7-0.2-2.4-0.6c-1.3-0.8-1.3-2,0-2.8
		c0.8-0.4,1.6-0.6,2.4-0.6S1083.5,685.1,1084.3,685.4z"/>
	<path class="st1" d="M1192.1,623.2c1.3,0.8,1.3,2,0,2.8c-0.8,0.4-1.6,0.6-2.4,0.6c-0.8,0-1.7-0.2-2.4-0.6c-1.3-0.8-1.3-2,0-2.8
		c0.8-0.4,1.6-0.6,2.4-0.6C1190.5,622.6,1191.4,622.8,1192.1,623.2z"/>
	<path class="st1" d="M652.9,1059c1.3,0.8,1.3,2,0,2.8c-0.8,0.4-1.6,0.6-2.4,0.6c-0.8,0-1.7-0.2-2.4-0.6c-1.3-0.8-1.3-2,0-2.8
		c0.8-0.4,1.6-0.6,2.4-0.6C651.3,1058.4,652.2,1058.7,652.9,1059z"/>
	<path class="st1" d="M760.8,996.8c1.3,0.8,1.3,2,0,2.8c-0.8,0.4-1.6,0.6-2.4,0.6s-1.7-0.2-2.4-0.6c-1.3-0.8-1.3-2,0-2.8
		c0.8-0.4,1.6-0.6,2.4-0.6S760,996.4,760.8,996.8z"/>
	<path class="st1" d="M868.6,934.5c1.3,0.8,1.3,2,0,2.8c-0.8,0.4-1.6,0.6-2.4,0.6s-1.7-0.2-2.4-0.6c-1.3-0.8-1.3-2,0-2.8
		c0.8-0.4,1.6-0.6,2.4-0.6S867.8,934.1,868.6,934.5z"/>
	<path class="st1" d="M976.4,872.2c1.3,0.8,1.3,2,0,2.8c-0.8,0.4-1.6,0.6-2.4,0.6s-1.7-0.2-2.4-0.6c-1.3-0.8-1.3-2,0-2.8
		c0.8-0.4,1.6-0.6,2.4-0.6S975.7,871.9,976.4,872.2z"/>
	<path class="st1" d="M1084.3,810c1.3,0.8,1.3,2,0,2.8c-0.8,0.4-1.6,0.6-2.4,0.6s-1.7-0.2-2.4-0.6c-1.3-0.8-1.3-2,0-2.8
		c0.8-0.4,1.6-0.6,2.4-0.6S1083.5,809.6,1084.3,810z"/>
	<path class="st1" d="M1192.1,747.7c1.3,0.8,1.3,2,0,2.8c-0.8,0.4-1.6,0.6-2.4,0.6c-0.8,0-1.7-0.2-2.4-0.6c-1.3-0.8-1.3-2,0-2.8
		c0.8-0.4,1.6-0.6,2.4-0.6C1190.5,747.1,1191.4,747.3,1192.1,747.7z"/>
	<path class="st1" d="M1300,685.5c1.3,0.8,1.3,2,0,2.8c-0.8,0.4-1.6,0.6-2.4,0.6c-0.8,0-1.7-0.2-2.4-0.6c-1.3-0.8-1.3-2,0-2.8
		c0.7-0.4,1.6-0.6,2.4-0.6C1298.4,684.9,1299.2,685.1,1300,685.5z"/>
	<path class="st1" d="M868.6,1059c1.3,0.8,1.3,2,0,2.8c-0.8,0.4-1.6,0.6-2.4,0.6c-0.8,0-1.7-0.2-2.4-0.6c-1.3-0.8-1.3-2,0-2.8
		c0.8-0.4,1.6-0.6,2.4-0.6C867,1058.4,867.8,1058.7,868.6,1059z"/>
	<path class="st1" d="M976.4,996.8c1.3,0.8,1.3,2,0,2.8c-0.8,0.4-1.6,0.6-2.4,0.6s-1.7-0.2-2.4-0.6c-1.3-0.8-1.3-2,0-2.8
		c0.8-0.4,1.6-0.6,2.4-0.6S975.7,996.4,976.4,996.8z"/>
	<path class="st1" d="M1084.3,934.5c1.3,0.8,1.3,2,0,2.8c-0.8,0.4-1.6,0.6-2.4,0.6s-1.7-0.2-2.4-0.6c-1.3-0.8-1.3-2,0-2.8
		c0.8-0.4,1.6-0.6,2.4-0.6S1083.5,934.1,1084.3,934.5z"/>
	<path class="st1" d="M1192.1,872.2c1.3,0.8,1.3,2,0,2.8c-0.8,0.4-1.6,0.6-2.4,0.6c-0.8,0-1.7-0.2-2.4-0.6c-1.3-0.8-1.3-2,0-2.8
		c0.8-0.4,1.6-0.6,2.4-0.6C1190.6,871.7,1191.4,871.9,1192.1,872.2z"/>
	<path class="st1" d="M1300,810c1.3,0.8,1.3,2,0,2.8c-0.8,0.4-1.6,0.6-2.4,0.6c-0.8,0-1.7-0.2-2.4-0.6c-1.3-0.8-1.3-2,0-2.8
		c0.8-0.4,1.6-0.6,2.4-0.6C1298.4,809.4,1299.2,809.6,1300,810z"/>
	<path class="st1" d="M1084.3,1059c1.3,0.8,1.3,2,0,2.8c-0.8,0.4-1.6,0.6-2.4,0.6s-1.7-0.2-2.4-0.6c-1.3-0.8-1.3-2,0-2.8
		c0.8-0.4,1.6-0.6,2.4-0.6S1083.5,1058.7,1084.3,1059z"/>
	<path class="st1" d="M1192.1,996.8c1.3,0.8,1.3,2,0,2.8c-0.8,0.4-1.6,0.6-2.4,0.6c-0.8,0-1.7-0.2-2.4-0.6c-1.3-0.8-1.3-2,0-2.8
		c0.8-0.4,1.6-0.6,2.4-0.6C1190.6,996.2,1191.4,996.4,1192.1,996.8z"/>
	<path class="st1" d="M1300,934.5c1.3,0.8,1.3,2,0,2.8c-0.8,0.4-1.6,0.6-2.4,0.6c-0.8,0-1.7-0.2-2.4-0.6c-1.3-0.8-1.3-2,0-2.8
		c0.8-0.4,1.6-0.6,2.4-0.6C1298.4,933.9,1299.2,934.1,1300,934.5z"/>
	<path class="st1" d="M1407.8,872.2c1.3,0.8,1.3,2,0,2.8c-0.8,0.4-1.6,0.6-2.4,0.6s-1.7-0.2-2.4-0.6c-1.3-0.8-1.3-2,0-2.8
		c0.8-0.4,1.6-0.6,2.4-0.6S1407.1,871.9,1407.8,872.2z"/>
	<path class="st1" d="M1300,1059c1.3,0.8,1.3,2,0,2.8c-0.8,0.4-1.6,0.6-2.4,0.6c-0.8,0-1.7-0.2-2.4-0.6c-1.3-0.8-1.3-2,0-2.8
		c0.8-0.4,1.6-0.6,2.4-0.6C1298.4,1058.4,1299.2,1058.7,1300,1059z"/>
	<path class="st1" d="M1407.8,996.8c1.3,0.8,1.3,2,0,2.8c-0.8,0.4-1.6,0.6-2.4,0.6s-1.7-0.2-2.4-0.6c-1.3-0.8-1.3-2,0-2.8
		c0.8-0.4,1.6-0.6,2.4-0.6S1407.1,996.4,1407.8,996.8z"/>
	<path class="st2" d="M133.2,736.4l67-38.7c1.9-1.1,3.5-2.7,4.6-4.6c1.1-1.9,1.7-4.1,1.7-6.3c0-2.2-0.6-4.4-1.7-6.3
		c-1.1-1.9-2.7-3.5-4.6-4.6l-67-38.7c-6.7-3.8-14.2-5.9-21.9-5.9s-15.3,2-21.9,5.9l-67,38.7c-1.9,1.1-3.5,2.7-4.6,4.6
		c-1.1,1.9-1.7,4.1-1.7,6.3c0,2.2,0.6,4.4,1.7,6.3c1.1,1.9,2.7,3.5,4.6,4.6l67,38.7c6.7,3.8,14.2,5.9,21.9,5.9
		S126.5,740.3,133.2,736.4L133.2,736.4z"/>
	<path class="st2" d="M456.7,923.2l67-38.7c1.9-1.1,3.5-2.7,4.6-4.6c1.1-1.9,1.7-4.1,1.7-6.3c0-2.2-0.6-4.4-1.7-6.3
		c-1.1-1.9-2.7-3.5-4.6-4.6l-67-38.7c-6.7-3.8-14.2-5.9-21.9-5.9c-7.7,0-15.3,2-21.9,5.9l-67,38.7c-1.9,1.1-3.5,2.7-4.6,4.6
		c-1.1,1.9-1.7,4.1-1.7,6.3c0,2.2,0.6,4.4,1.7,6.3c1.1,1.9,2.7,3.5,4.6,4.6l67,38.7c6.7,3.8,14.2,5.9,21.9,5.9
		C442.5,929.1,450.1,927.1,456.7,923.2z"/>
	<path class="st2" d="M241,674.2l67-38.7c1.9-1.1,3.5-2.7,4.6-4.6c1.1-1.9,1.7-4.1,1.7-6.3c0-2.2-0.6-4.4-1.7-6.3
		c-1.1-1.9-2.7-3.5-4.6-4.6L241,575c-6.7-3.9-14.2-5.9-21.9-5.9s-15.3,2-21.9,5.9l-67,38.7c-1.9,1.1-3.5,2.7-4.6,4.6
		c-1.1,1.9-1.7,4.1-1.7,6.3c0,2.2,0.6,4.4,1.7,6.3s2.7,3.5,4.6,4.6l67,38.7c6.7,3.8,14.2,5.9,21.9,5.9S234.4,678,241,674.2
		L241,674.2z"/>
	<path class="st2" d="M995.9,861l67-38.7c1.9-1.1,3.5-2.7,4.6-4.6c1.1-1.9,1.7-4.1,1.7-6.3c0-2.2-0.6-4.4-1.7-6.3
		c-1.1-1.9-2.7-3.5-4.6-4.6l-67-38.7c-6.7-3.8-14.2-5.9-21.9-5.9c-7.7,0-15.3,2-21.9,5.9l-67,38.7c-1.9,1.1-3.5,2.7-4.6,4.6
		c-1.1,1.9-1.7,4.1-1.7,6.3c0,2.2,0.6,4.4,1.7,6.3c1.1,1.9,2.7,3.5,4.6,4.6l67,38.7c6.7,3.8,14.2,5.9,21.9,5.9
		C981.7,866.9,989.3,864.8,995.9,861L995.9,861z"/>
	<path class="st2" d="M1211.6,985.5l67-38.7c1.9-1.1,3.5-2.7,4.6-4.6c1.1-1.9,1.7-4.1,1.7-6.3c0-2.2-0.6-4.4-1.7-6.3
		c-1.1-1.9-2.7-3.5-4.6-4.6l-67-38.7c-6.7-3.8-14.2-5.9-21.9-5.9c-7.7,0-15.3,2-21.9,5.9l-67,38.7c-1.9,1.1-3.5,2.7-4.6,4.6
		c-1.1,1.9-1.7,4.1-1.7,6.3c0,2.2,0.6,4.4,1.7,6.3c1.1,1.9,2.7,3.5,4.6,4.6l67,38.7c6.7,3.8,14.2,5.9,21.9,5.9
		C1197.4,991.4,1205,989.4,1211.6,985.5L1211.6,985.5z"/>
	<path class="st2" d="M564.6,238.3l67-38.7c1.9-1.1,3.5-2.7,4.6-4.6c1.1-1.9,1.7-4.1,1.7-6.3c0-2.2-0.6-4.4-1.7-6.3
		c-1.1-1.9-2.7-3.5-4.6-4.6L567,140.6c-7.4-4.3-15.8-6.5-24.4-6.5c-8.6,0-17,2.3-24.4,6.5l-64.5,37.3c-1.9,1.1-3.5,2.7-4.6,4.6
		c-1.1,1.9-1.7,4.1-1.7,6.3c0,2.2,0.6,4.4,1.7,6.3c1.1,1.9,2.7,3.5,4.6,4.6l67,38.7c6.7,3.8,14.2,5.9,21.9,5.9
		C550.3,244.2,557.9,242.2,564.6,238.3z"/>
	<path class="st2" d="M1211.6,487.4l67-38.7c1.9-1.1,3.5-2.7,4.6-4.6s1.7-4.1,1.7-6.3c0-2.2-0.6-4.4-1.7-6.3
		c-1.1-1.9-2.7-3.5-4.6-4.6l-67-38.7c-6.7-3.8-14.2-5.9-21.9-5.9c-7.7,0-15.3,2-21.9,5.9l-67,38.7c-1.9,1.1-3.5,2.7-4.6,4.6
		c-1.1,1.9-1.7,4.1-1.7,6.3c0,2.2,0.6,4.4,1.7,6.3s2.7,3.5,4.6,4.6l67,38.7c6.7,3.9,14.2,5.9,21.9,5.9
		C1197.4,493.3,1204.9,491.2,1211.6,487.4z"/>
	<path class="st2" d="M1375.2,425.1l67-38.7c1.9-1.1,3.5-2.7,4.6-4.6s1.7-4.1,1.7-6.3c0-2.2-0.6-4.4-1.7-6.3
		c-1.1-1.9-2.7-3.5-4.6-4.6l-67-38.7c-6.7-3.8-14.2-5.9-21.9-5.9c-7.7,0-15.3,2-21.9,5.9l-67,38.7c-1.9,1.1-3.5,2.7-4.6,4.6
		c-1.1,1.9-1.7,4.1-1.7,6.3c0,2.2,0.6,4.4,1.7,6.3c1.1,1.9,2.7,3.5,4.6,4.6l67,38.7c6.7,3.9,14.2,5.9,21.9,5.9
		C1360.9,431,1368.5,429,1375.2,425.1L1375.2,425.1z"/>
</g>
<path class="st3" d="M743,678.3h93.9l2.6,10.9h72.6c7.7,0,15.2-2,21.8-5.8l78.6-45.4c2-1.1,3.6-2.8,4.8-4.8c1.2-2,1.8-4.2,1.8-6.5
	c0-2.3-0.6-4.5-1.8-6.5c-1.1-2-2.8-3.6-4.8-4.8l-66.3-38.3l-148.8,16.6L743,678.3z"/>
<g class="st4">
	<g class="st4">
		
			<linearGradient id="SVGID_1_" gradientUnits="userSpaceOnUse" x1="151836" y1="839.083" x2="170615" y2="839.083" gradientTransform="matrix(1 0 0 -1 0 1064)">
			<stop  offset="0" style="stop-color:#BCC0E5"/>
			<stop  offset="1" style="stop-color:#BCC0E5"/>
		</linearGradient>
		<path class="st5" d="M1038.3,162.8h-33.1l97.6,56.4c1,0.6,1.8,1.4,2.4,2.4c0.6,1,0.9,2.1,0.9,3.3c0,1.2-0.3,2.3-0.9,3.3
			c-0.6,1-1.4,1.8-2.4,2.4l-97.6,56.4h33.1c3.2,0,6.4-0.8,9.2-2.4l90.6-52.3c1.3-0.7,2.4-1.8,3.1-3.1c0.8-1.3,1.1-2.8,1.1-4.2
			s-0.4-3-1.1-4.2c-0.7-1.3-1.8-2.4-3.1-3.1l-90.6-52.3C1044.6,163.7,1041.5,162.8,1038.3,162.8z"/>
	</g>
	<g class="st4">
		<path class="st6" d="M1110.7,226.1c-0.2-2.6-2.1-5.2-5.7-7.3l-87.3-50.4c-6.9-4-17.4-4.4-23.4-1l-90.6,52.4
			c-2.9,1.6-4.2,3.9-4,6.2c0.2,2.5,2.1,5.2,5.7,7.3l87.3,50.4c6.9,4,17.4,4.4,23.4,1l90.6-52.4
			C1109.6,230.6,1110.9,228.4,1110.7,226.1z"/>
	</g>
	
		<linearGradient id="SVGID_2_" gradientUnits="userSpaceOnUse" x1="1024.7" y1="823.0674" x2="990.767" y2="823.0674" gradientTransform="matrix(1 0 0 -1 0 1064)">
		<stop  offset="0" style="stop-color:#DCDEFA"/>
		<stop  offset="1" style="stop-color:#F2F3FA"/>
	</linearGradient>
	<path class="st7" d="M1110.7,224.5v-8.7l-35.4,17.2l-57.6-33.2c-6.9-4-17.4-4.4-23.4-1L935.1,233l-35.5-17.2v8c0,0.2,0,0.4,0,0.7
		c0.2,2.5,2.1,5.2,5.7,7.3l87.3,50.4c3.8,2.1,8.1,3.2,12.5,3.3c3.8,0.2,7.5-0.6,10.9-2.3l90.7-52.4
		C1109.6,229,1110.9,226.8,1110.7,224.5z"/>
	<path class="st8" d="M1110.7,215.8c-0.2-2.5-2.1-5.2-5.7-7.3l-87.3-50.4c-6.9-4-17.4-4.4-23.4-1l-90.6,52.4c-2.9,1.7-4.2,3.9-4,6.2
		c0.2,2.5,2.1,5.2,5.7,7.3l87.3,50.4c6.9,4,17.4,4.4,23.4,1l90.6-52.4C1109.6,220.4,1110.9,218.1,1110.7,215.8z"/>
	
		<linearGradient id="SVGID_3_" gradientUnits="userSpaceOnUse" x1="899.6519" y1="850.2291" x2="1110.7229" y2="850.2291" gradientTransform="matrix(1 0 0 -1 0 1064)">
		<stop  offset="0" style="stop-color:#F7F8FF"/>
		<stop  offset="1" style="stop-color:#F2F3FA"/>
	</linearGradient>
	<path class="st9" d="M1110.7,213.8c-0.2-2.5-2.1-5.2-5.7-7.3l-87.3-50.4c-6.9-4-17.4-4.4-23.4-1l-90.6,52.5c-2.9,1.7-4.2,3.9-4,6.2
		c0.2,2.5,2.1,5.2,5.7,7.3l87.3,50.4c6.9,4,17.4,4.4,23.4,0.9l90.6-52.4C1109.6,218.3,1110.9,216.1,1110.7,213.8z"/>
</g>
<path class="st3" d="M1159.6,853.3h-33.1l97.6,56.4c1,0.6,1.8,1.4,2.4,2.4c0.6,1,0.9,2.1,0.9,3.3c0,1.2-0.3,2.3-0.9,3.3
	c-0.6,1-1.4,1.8-2.4,2.4l-97.6,56.4h33.1c3.2,0,6.4-0.8,9.2-2.5l90.6-52.3c1.3-0.7,2.4-1.8,3.1-3.1c0.8-1.3,1.1-2.8,1.1-4.2
	c0-1.5-0.4-3-1.1-4.2c-0.7-1.3-1.8-2.4-3.1-3.1l-90.6-52.3C1165.9,854.2,1162.8,853.3,1159.6,853.3z"/>
<g class="st3">
	<path d="M1232,916.6c-0.2-2.5-2.1-5.2-5.7-7.3l-87.3-50.4c-6.9-4-17.4-4.4-23.3-1l-90.7,52.4c-2.9,1.6-4.2,3.9-4,6.2
		c0.2,2.5,2.1,5.2,5.7,7.3l87.3,50.4c6.9,4,17.4,4.4,23.3,1l90.7-52.4C1230.8,921.1,1232.2,918.9,1232,916.6z"/>
</g>
<linearGradient id="SVGID_4_" gradientUnits="userSpaceOnUse" x1="263135" y1="132.5392" x2="255972" y2="132.5392" gradientTransform="matrix(1 0 0 -1 0 1064)">
	<stop  offset="0" style="stop-color:#DCDEFA"/>
	<stop  offset="1" style="stop-color:#F2F3FA"/>
</linearGradient>
<path class="st10" d="M1232,915v-8.7l-35.5,17.2l-57.6-33.2c-6.9-4-17.4-4.4-23.3-1l-59.2,34.3l-35.5-17.2v8c0,0.2,0,0.4,0,0.6
	c0.2,2.5,2.1,5.2,5.7,7.3l87.3,50.4c3.8,2.1,8.1,3.2,12.5,3.3c3.8,0.2,7.5-0.6,10.8-2.3l90.7-52.4
	C1230.8,919.5,1232.2,917.3,1232,915z"/>
<path class="st11" d="M1232,906.3c-0.2-2.5-2.1-5.2-5.7-7.3l-87.3-50.4c-6.9-4-17.4-4.4-23.3-1L1025,900c-2.9,1.7-4.2,3.9-4,6.2
	c0.2,2.5,2.1,5.2,5.7,7.3l87.3,50.4c6.9,4,17.4,4.4,23.3,1l90.7-52.4C1230.8,910.8,1232.2,908.6,1232,906.3z"/>
<linearGradient id="SVGID_5_" gradientUnits="userSpaceOnUse" x1="236686" y1="159.7959" x2="281240" y2="159.7959" gradientTransform="matrix(1 0 0 -1 0 1064)">
	<stop  offset="0" style="stop-color:#F7F8FF"/>
	<stop  offset="1" style="stop-color:#F2F3FA"/>
</linearGradient>
<path class="st12" d="M1232,904.2c-0.2-2.5-2.1-5.2-5.7-7.3l-87.3-50.4c-6.9-4-17.4-4.4-23.3-1L1025,898c-2.9,1.7-4.2,3.9-4,6.2
	c0.2,2.5,2.1,5.2,5.7,7.3l87.3,50.4c6.9,4,17.4,4.4,23.3,1l90.7-52.4C1230.8,908.8,1232.2,906.6,1232,904.2z"/>
<path class="st3" d="M364.7,406.7h-57.6l170,98.1c1.7,1,3.2,2.5,4.2,4.2c1,1.7,1.5,3.7,1.5,5.8c0,2-0.5,4-1.5,5.8
	c-1,1.7-2.5,3.2-4.2,4.2l-170,98.1h57.6c5.6,0,11.1-1.5,16-4.3l157.7-91c2.2-1.3,4.1-3.2,5.4-5.4c1.3-2.2,2-4.8,2-7.4
	c0-2.6-0.7-5.1-2-7.4c-1.3-2.2-3.2-4.1-5.4-5.4l-157.7-91C375.9,408.2,370.3,406.7,364.7,406.7z"/>
<path class="st3" d="M787.2,829.2h-57.6l170,98.1c1.7,1,3.2,2.5,4.2,4.2c1,1.7,1.5,3.7,1.5,5.8c0,2-0.5,4-1.5,5.8
	c-1,1.7-2.5,3.2-4.2,4.2l-170,98.1h57.6c5.6,0,11.1-1.5,16-4.3l157.7-91c2.2-1.3,4.1-3.2,5.4-5.4c1.3-2.2,2-4.8,2-7.4
	c0-2.6-0.7-5.1-2-7.4c-1.3-2.2-3.2-4.1-5.4-5.4l-157.7-91C798.3,830.7,792.8,829.2,787.2,829.2z"/>
<path class="st3" d="M1014.5,367.4h-57.1l111.4,64.3c1.7,1,3,2.4,4,4c1,1.7,1.5,3.6,1.5,5.5s-0.5,3.8-1.5,5.5c-1,1.7-2.3,3.1-4,4
	L299.4,894.9h57.1c6,0,11.8-1.6,17-4.5L1135,450.7c1.7-1,3-2.4,4-4c1-1.7,1.5-3.6,1.5-5.5s-0.5-3.8-1.5-5.5s-2.3-3.1-4-4
	l-103.5-59.7C1026.4,369,1020.5,367.4,1014.5,367.4z"/>
<g class="st3">
	<path d="M490.9,516.8c-0.3-4.4-3.6-9-9.9-12.6l-152.1-87.7c-12-6.9-30.2-7.7-40.7-1.7L130.4,506c-5,2.9-7.3,6.8-7,10.8
		c0.3,4.4,3.7,9,9.9,12.7l152.1,87.7c12,6.9,30.2,7.7,40.7,1.7l157.8-91.2C488.8,524.7,491.1,520.8,490.9,516.8z"/>
</g>
<linearGradient id="SVGID_6_" gradientUnits="userSpaceOnUse" x1="160626" y1="521.7836" x2="138912" y2="521.7836" gradientTransform="matrix(1 0 0 -1 0 1064)">
	<stop  offset="0" style="stop-color:#DCDEFA"/>
	<stop  offset="1" style="stop-color:#F2F3FA"/>
</linearGradient>
<path class="st13" d="M490.9,513.5v-15.1l-61.7,30l-100.3-57.8c-12-6.9-30.2-7.7-40.7-1.7l-103.1,59.5l-61.8-30v14
	c0,0.4,0,0.7,0,1.1c0.3,4.4,3.7,9,9.9,12.7l152.1,87.7c6.7,3.6,14.1,5.6,21.7,5.7c7.1,0.2,13.9-1.2,18.9-4l157.8-91.2
	C488.8,521.4,491.1,517.6,490.9,513.5z"/>
<path class="st11" d="M490.9,498.4c-0.3-4.4-3.6-9-9.9-12.6l-152.1-87.7c-12-6.9-30.2-7.7-40.7-1.7l-157.8,91.2
	c-5,2.9-7.3,6.8-7,10.8c0.3,4.4,3.7,9,9.9,12.7l152.1,87.7c12,6.9,30.2,7.7,40.7,1.7l157.8-91.2
	C488.8,506.4,491.1,502.5,490.9,498.4z"/>
<linearGradient id="SVGID_7_" gradientUnits="userSpaceOnUse" x1="80584.1016" y1="568.6388" x2="215656.0156" y2="568.6388" gradientTransform="matrix(1 0 0 -1 0 1064)">
	<stop  offset="0" style="stop-color:#F7F8FF"/>
	<stop  offset="1" style="stop-color:#F2F3FA"/>
</linearGradient>
<path class="st14" d="M490.9,495.4c-0.3-4.4-3.6-9-9.9-12.6L328.9,395c-12-6.9-30.2-7.7-40.7-1.7l-157.8,91.2c-5,2.9-7.3,6.8-7,10.8
	c0.3,4.4,3.7,9,9.9,12.7l152.1,87.7c12,6.9,30.2,7.7,40.7,1.7l157.8-91.2C488.8,503.3,491.1,499.4,490.9,495.4z"/>
<path class="st15" d="M366.1,562.9c-7.6,2.2-9.3,6-8.9,11.1s-4.4,8.1-8.9,8.7s-9.4,8.7-5.2,13.3s3.4,5,1.2,10.4
	c-2.2,5.4,3.5,10.1,11.6,8.8c8.1-1.3,22.2-27.1,21.8-27.5S366.1,562.9,366.1,562.9z"/>
<path class="st15" d="M366.7,698.5c0.1,1.9,0.6,2.6,1,2.8s0.4,0.3,0.5,0.6c0.3,0.8,0.7,1.5,1.1,2.2c1.6,2.6,4,2.4,3.3,0.2
	c-0.7-2.2-1.1-2.2-1.3-3.8c-0.3-1.6-0.6-3.1-2.1-3.7c-0.3-0.1-0.6-0.2-0.9-0.2c-0.3,0-0.6,0.1-0.8,0.3c-0.3,0.2-0.5,0.4-0.6,0.7
	C366.7,697.9,366.6,698.2,366.7,698.5z"/>
<path class="st16" d="M379.3,593.6c-0.5,2.6,2.7,8.5,5.2,11.4c2.1,2.5,9.1,10.2,14.1,15.2c0.7,0.7,3.2-2.3,2.6-3.2
	c-3.1-4.6-12.4-18.7-12.4-18.7c-7.2-15.2-7.3-15.1-9.1-17.7C376.6,576,379.8,590.9,379.3,593.6z"/>
<path class="st15" d="M381.8,695.3c2.2,1.5,2.6,1.3,3,2.4c0.4,1.2-2.9,0.8-4.5,0.4c-0.7-0.2-1.4-0.6-2-1.1c-0.7-0.8-1.3-0.3-2.6-0.6
	c-1.2-0.3-1.5-1.4-1.2-3.3c0.3-1.9,4-0.5,4.9,0.1C380.2,693.8,381,694.6,381.8,695.3z"/>
<path class="st17" d="M378.4,692.9c0.4,0.5,0.1,0.8-0.4,0.9c-0.5,0.1-1,0-1.4-0.1c-0.5-0.2-0.9-0.4-1.2-0.7
	c-0.4-0.7-3.3-23.3-3.3-31.9c0-8.7-3.9-34.4-4.8-40.7s10-8.9,11.4,2.2c1.4,11.1,1.4,36.3,0.5,41.8c-0.9,5.5-1.4,23.5-1.4,25.6
	C377.7,690.8,377.9,691.9,378.4,692.9z"/>
<path class="st17" d="M369.9,697.6c0.1,0.7,0.3,1.4-0.8,1.8c-0.3,0-0.5,0-0.8-0.1c-0.3-0.1-0.5-0.2-0.7-0.4
	c-0.2-0.2-0.3-0.4-0.4-0.7c-0.1-0.3-0.1-0.5,0-0.8c0.4-2-4-22.8-4-31.5c0-8.7-1-34.7-1.9-41c-0.9-6.3,10.2-8.9,11.6,2.2
	c1.4,11.1-1.4,37.5-2.3,43s-0.9,22-1,24.1C369.5,695.3,369.7,696.5,369.9,697.6z"/>
<linearGradient id="SVGID_8_" gradientUnits="userSpaceOnUse" x1="384.5401" y1="360.4536" x2="368.0401" y2="453.9536" gradientTransform="matrix(1 0 0 -1 0 1064)">
	<stop  offset="0" style="stop-color:#5B68F5"/>
	<stop  offset="1" style="stop-color:#010854"/>
</linearGradient>
<path class="st18" d="M383.9,613.1c4.2,29.6,1.1,34.6,0.4,43c-0.3,3.5-10.1,9.8-15.7,9.8c-5.6,0-6.7-1.8-6.8-5
	c-0.3-7.5-0.4-10.7-2.8-43.3L383.9,613.1z"/>
<path class="st19" d="M377.7,629.1c8.3-4.6,9.4-7.7,8.7-14.9c-1.4-13.5-4.4-35.2-10.6-37.9c-5.6-2.4-17,4.2-20.2,13.9
	c-2.8,8.4,1.6,29.1,2.5,36.1S366.8,635.1,377.7,629.1z"/>
<linearGradient id="SVGID_9_" gradientUnits="userSpaceOnUse" x1="387.3517" y1="480.1737" x2="367.1426" y2="481.2327" gradientTransform="matrix(1 0 0 -1 0 1064)">
	<stop  offset="0" style="stop-color:#FFFFFF"/>
	<stop  offset="8.000000e-02" style="stop-color:#FDF9F9"/>
	<stop  offset="1" style="stop-color:#F5D5D5"/>
</linearGradient>
<path class="st20" d="M360.1,584.4c0.3-0.4,0.6-0.8,1-1.2l0.2-0.2c0.7-0.8,2.8-3.4,3.4-8.7c0,0,4.2-1,5,0.9c0.6,1,1.5,1.7,2.6,2
	c0.6,0,1.3,0.2,1.8,0.5c1.4,0.7,2.2,2.2,2.1,4.5c-0.1,5-9.4,10.7-13.4,9.1C359,589.6,359.1,586.2,360.1,584.4z"/>
<path class="st16" d="M363,591.1c-4-1.6-3.9-5-2.8-6.8c0.3-0.4,0.6-0.8,1-1.2l0.2-0.2c1.3-1.6,2.3-3.5,2.8-5.6c0,0,1.5,2.7,3.4,2.9
	c1.7,0.2,4.8-0.6,4.9-3.2c0.6,0.1,1.2,0.2,1.8,0.5c1.4,0.7,2.2,2.2,2.1,4.5C376.2,587,366.9,592.8,363,591.1z"/>
<linearGradient id="SVGID_10_" gradientUnits="userSpaceOnUse" x1="-1290.1091" y1="1149.2308" x2="-933.1693" y2="1008.0307" gradientTransform="matrix(1 0 0 -1 0 1064)">
	<stop  offset="0" style="stop-color:#FFFFFF"/>
	<stop  offset="8.000000e-02" style="stop-color:#FDF9F9"/>
	<stop  offset="1" style="stop-color:#F5D5D5"/>
</linearGradient>
<path class="st21" d="M374.8,568.6c1.7,7.5-0.1,9.3-2.3,10.6c-1.6,0.9-8.5-1.3-8.2-9.5S373.4,562.6,374.8,568.6z"/>
<path class="st17" d="M398.1,624.3c0-0.6,0.1-1.2,0.4-1.8c0.3-0.5,0.6-1,1.1-1.4c0-0.3-0.1-0.6-0.3-0.9c-0.2-0.3-0.4-0.5-0.6-0.7
	c-1.2-0.9,1.1-3.2,1.7-2.7c4.1,3.5,4.1,5.9,0.6,8.8c-0.2,0.3-0.5,0.4-0.9,0.5c-0.3,0.1-0.7,0-1-0.1c-0.3-0.1-0.6-0.4-0.8-0.7
	C398.1,625.1,398.1,624.7,398.1,624.3z"/>
<path class="st22" d="M374.3,603.3v23.6l20.5,11.9v-23.6L374.3,603.3z"/>
<path class="st19" d="M415.4,603.3v23.6l-20.5,11.9v-23.6L415.4,603.3z"/>
<path class="st11" d="M374.3,603.3l20.5-11.9l20.5,11.9l-20.5,11.9L374.3,603.3z"/>
<path class="st17" d="M378.8,626.1c1.3,0.9,1.6,4.6,3.6,5.4c1.2,0.5,2.4,1.1,3.4,2c-0.7,1.5-5.4,0.7-6.5,0.2s-3.3-4.5-3.3-4.5
	l-1.3-3.4l3.4-0.3L378.8,626.1z"/>
<path class="st16" d="M356.4,593.1c-1.2,3.6-0.4,5.4-0.1,8.1s4.3,14.3,6.5,16.6c2.2,2.4,13.1,11.3,13.1,11.3s-0.7-1.1,1-2.9
	c0.2-0.3,0.4-0.4,0.7-0.5c0.3-0.1,0.6,0,0.9,0.1l-11.7-13.7c0,0-4.5-16.3-5.8-19.6S356.8,592.2,356.4,593.1z"/>
<path class="st17" d="M378.8,626.1c2.9,1.7,3.5,0.8,3.9,1.9c0.4,1.2-2.2,0.9-2.8,0.8C379.2,628.7,378.8,626.1,378.8,626.1z"/>
<path class="st15" d="M364.3,576.9c1-1.8,3.5-0.7,2.9-2.7c-0.6-1.9,0.9-2.4,1.9-1s0.6-1.3,1.3-2.4c0.7-1,3.1,1.8,5.4,0.4
	s2.4-4.8,0-7.2c-2.4-2.4-8.5-2.2-10.4-0.8C359.3,567.6,362.8,579.7,364.3,576.9z"/>
<g class="st3">
	<path d="M1086,415.7c-0.4-1.5-1.1-2.8-2-4c-0.9-1.2-2.1-2.2-3.4-3l-86.8-50.1c-6.6-3.8-14.1-5.8-21.7-5.8c-7.6,0-15.1,2-21.7,5.8
		l-100.2,57.9l-85.4-49.3c-12-6.9-30.2-7.7-40.7-1.7l-157.8,91.2c-5,2.9-7.3,6.8-7,10.8c0,0.4,0.1,0.7,0.1,1.1
		c-0.1,0.8-0.2,1.5-0.1,2.3v100.1c0,0.4,0,0.7,0,1.1c0.2,3.1,2,6.4,5.2,9.3L187.1,799.3c-1.3,0.8-2.5,1.8-3.3,3.1
		c-0.8,1.3-1.3,2.8-1.5,4.3v0.1c-0.1,0.6-0.1,1.2,0,1.8l-0.1,15c0,2.8,0.8,5.6,2.2,8.1c1.4,2.5,3.5,4.5,6,5.9l91.5,52.8
		c5.1,3,10.9,4.5,16.8,4.5s11.7-1.6,16.8-4.5l391.5-226l14.2,8.2c6.7,3.6,14.2,5.6,21.8,5.7c7.1,0.2,13.9-1.2,18.9-4l23-13.3
		l30,17.3l13.8,8c3.4,2,7.3,3,11.2,3c3.9,0,7.8-1,11.2-3l91-52.5c2.6-1.5,4.8-3.7,6.3-6.3c1.5-2.6,2.3-5.6,2.3-8.6v-44
		c0.1-2.4-0.7-4.8-2.2-6.8L926.9,539v-1.4l150.3-86.8c2.8-1.6,5.2-4,6.9-6.9c1.7-2.9,2.5-6.1,2.5-9.4v-19L1086,415.7z M298.7,875.3
		c0.7,0,1.4,0,2.2-0.1C300.1,875.3,299.4,875.3,298.7,875.3z M303,875.1c1.5-0.2,2.9-0.5,4.3-0.9C305.9,874.6,304.5,874.9,303,875.1
		z"/>
</g>
<path class="st23" d="M1086.5,412.4L907.2,526.2v19.6l169.9-98.1c2.8-1.6,5.2-4,6.9-6.9c1.7-2.9,2.5-6.1,2.5-9.4V412.4z"/>
<path class="st11" d="M950.4,355.6L781,453.4l126.1,72.8l173.4-100.1c1.8-1,3.3-2.5,4.3-4.3s1.6-3.8,1.6-5.9c0-2.1-0.5-4.1-1.6-5.9
	c-1-1.8-2.5-3.3-4.3-4.3l-86.8-50.1c-6.6-3.8-14.1-5.8-21.7-5.8C964.5,349.8,957,351.8,950.4,355.6z"/>
<path class="st24" d="M907.2,526.2L781,453.4V473l126.1,72.8V526.2z"/>
<g>
	<g>
		<path class="st24" d="M898.6,520.5c-0.2,0-0.4,0-0.5-0.1l-105.9-61.2c-0.1-0.1-0.3-0.1-0.4-0.2c-0.1-0.1-0.2-0.2-0.2-0.4
			c-0.1-0.1-0.1-0.3-0.1-0.4c0-0.1,0.1-0.3,0.1-0.4c0.1-0.1,0.2-0.2,0.3-0.3c0.1-0.1,0.3-0.2,0.4-0.2c0.1,0,0.3,0,0.4,0
			c0.1,0,0.3,0.1,0.4,0.2l105.9,61.2c0.2,0.1,0.4,0.4,0.5,0.6c0.1,0.3,0,0.6-0.1,0.8c-0.1,0.2-0.2,0.3-0.4,0.4
			S898.8,520.5,898.6,520.5z"/>
	</g>
	<g>
		<path class="st24" d="M938.3,497.6c-0.2,0-0.4,0-0.5-0.1l-105.9-61.2c-0.2-0.1-0.4-0.4-0.4-0.6c-0.1-0.3,0-0.5,0.1-0.8
			c0.1-0.2,0.4-0.4,0.6-0.5c0.3-0.1,0.5-0.1,0.8,0.1l105.9,61.1c0.3,0.1,0.5,0.2,0.6,0.5c0.1,0.2,0.2,0.5,0.1,0.8
			c-0.1,0.3-0.2,0.5-0.5,0.6C938.8,497.6,938.5,497.6,938.3,497.6z"/>
	</g>
	<g>
		<path class="st24" d="M978,474.7c-0.2,0-0.4,0-0.5-0.1l-105.9-61.2c-0.2-0.1-0.4-0.4-0.4-0.6c-0.1-0.3,0-0.5,0.1-0.8
			c0.1-0.2,0.4-0.4,0.6-0.5c0.3-0.1,0.5-0.1,0.8,0.1l105.9,61.2c0.2,0.1,0.4,0.3,0.5,0.5s0.1,0.5,0.1,0.7c-0.1,0.2-0.2,0.4-0.4,0.6
			C978.5,474.6,978.2,474.7,978,474.7L978,474.7z"/>
	</g>
	<g>
		<path class="st24" d="M1017.7,451.7c-0.2,0-0.4,0-0.5-0.1l-105.9-61.2c-0.1-0.1-0.2-0.2-0.3-0.3c-0.1-0.1-0.1-0.2-0.2-0.4
			c0-0.1,0-0.3,0-0.4c0-0.1,0.1-0.3,0.1-0.4c0.1-0.1,0.2-0.2,0.3-0.3c0.1-0.1,0.2-0.1,0.4-0.2c0.1,0,0.3,0,0.4,0
			c0.1,0,0.3,0.1,0.4,0.1l105.9,61.1c0.2,0.1,0.4,0.3,0.5,0.5c0.1,0.2,0.1,0.5,0.1,0.7c-0.1,0.2-0.2,0.4-0.4,0.6
			C1018.2,451.7,1017.9,451.8,1017.7,451.7L1017.7,451.7z"/>
	</g>
	<g>
		<path class="st24" d="M1057.4,428.8c-0.2,0-0.4,0-0.5-0.1l-106-61.1c-0.2-0.1-0.4-0.4-0.4-0.6c-0.1-0.2,0-0.5,0.1-0.7
			c0.1-0.2,0.3-0.4,0.6-0.5c0.2-0.1,0.5-0.1,0.7,0l105.9,61.2c0.2,0.1,0.4,0.4,0.5,0.6c0.1,0.3,0,0.6-0.1,0.8
			c-0.1,0.1-0.2,0.3-0.3,0.3S1057.6,428.8,1057.4,428.8z"/>
	</g>
</g>
<linearGradient id="SVGID_11_" gradientUnits="userSpaceOnUse" x1="981.9183" y1="648.3583" x2="1017.3873" y2="646.0823" gradientTransform="matrix(1 0 0 -1 0 1064)">
	<stop  offset="0" style="stop-color:#B6BBE5"/>
	<stop  offset="1" style="stop-color:#FFFFFF;stop-opacity:0"/>
</linearGradient>
<path class="st25" d="M999.3,404h-26.5v23.7h26.5l20.5-11.9L999.3,404z"/>
<linearGradient id="SVGID_12_" gradientUnits="userSpaceOnUse" x1="920.2993" y1="612.7783" x2="955.7703" y2="610.5023" gradientTransform="matrix(1 0 0 -1 0 1064)">
	<stop  offset="0" style="stop-color:#B6BBE5"/>
	<stop  offset="1" style="stop-color:#FFFFFF;stop-opacity:0"/>
</linearGradient>
<path class="st26" d="M937.7,439.6h-26.5v23.7h26.5l20.5-11.9L937.7,439.6z"/>
<path class="st22" d="M952.2,392.3v23.6l20.5,11.9v-23.6L952.2,392.3z"/>
<path class="st19" d="M993.3,392.3v23.6l-20.5,11.9v-23.6L993.3,392.3z"/>
<path class="st11" d="M952.2,392.3l20.5-11.9l20.5,11.9l-20.5,11.9L952.2,392.3z"/>
<path class="st22" d="M890.6,427.9v23.6l20.5,11.9v-23.6L890.6,427.9z"/>
<path class="st19" d="M931.7,427.9v23.6l-20.5,11.9v-23.6L931.7,427.9z"/>
<path class="st11" d="M890.6,427.9l20.5-11.9l20.5,11.9l-20.5,11.9L890.6,427.9z"/>
<linearGradient id="SVGID_13_" gradientUnits="userSpaceOnUse" x1="321278" y1="509.1653" x2="299564" y2="509.1653" gradientTransform="matrix(1 0 0 -1 0 1064)">
	<stop  offset="0" style="stop-color:#DCDEFA"/>
	<stop  offset="1" style="stop-color:#F2F3FA"/>
</linearGradient>
<path class="st27" d="M926.8,569.2V468l-61.7,30l-100.3-57.9c-12-6.9-30.2-7.7-40.7-1.7L621.1,498l-61.8-30v100.1c0,0.4,0,0.7,0,1.1
	c0.3,4.4,3.7,9,9.9,12.7l152.1,87.8c6.7,3.6,14.2,5.6,21.8,5.7c7.1,0.2,13.9-1.2,18.9-4l157.8-91.2
	C924.7,577.1,927,573.2,926.8,569.2z"/>
<path class="st11" d="M926.8,468c-0.3-4.4-3.7-9-9.9-12.7l-152.1-87.7c-12-6.9-30.2-7.7-40.7-1.7l-157.8,91.2c-5,2.9-7.3,6.8-7,10.8
	c0.3,4.4,3.7,9,9.9,12.6l152.1,87.7c12,6.9,30.2,7.7,40.7,1.7l157.8-91.2C924.8,475.9,927,472,926.8,468z"/>
<linearGradient id="SVGID_14_" gradientUnits="userSpaceOnUse" x1="241241" y1="599.408" x2="376323" y2="599.408" gradientTransform="matrix(1 0 0 -1 0 1064)">
	<stop  offset="0" style="stop-color:#F7F8FF"/>
	<stop  offset="1" style="stop-color:#F2F3FA"/>
</linearGradient>
<path class="st28" d="M926.8,464.6c-0.3-4.4-3.7-9-9.9-12.7l-152.1-87.7c-12-6.9-30.2-7.7-40.7-1.7l-157.8,91.2
	c-5,2.9-7.3,6.8-7,10.8c0.3,4.4,3.7,9,9.9,12.7L721.3,565c12,6.9,30.2,7.7,40.7,1.7l157.8-91.2C924.8,472.6,927,468.6,926.8,464.6z"
	/>
<linearGradient id="SVGID_15_" gradientUnits="userSpaceOnUse" x1="159524" y1="436.8715" x2="153228" y2="436.8715" gradientTransform="matrix(1 0 0 -1 0 1064)">
	<stop  offset="0" style="stop-color:#DCDEFA"/>
	<stop  offset="1" style="stop-color:#F2F3FA"/>
</linearGradient>
<path class="st29" d="M842.4,622.7l-57.5-54.6v89.9l43.8,25.3c3.4,2,7.3,3,11.2,3c3.9,0,7.8-1,11.2-3l91-52.5
	c2.6-1.5,4.8-3.7,6.3-6.3c1.5-2.6,2.3-5.6,2.3-8.6v-44L842.4,622.7z"/>
<path class="st11" d="M828,629.7L785,572l116-67l47.6,63.8c0.9,1.2,1.6,2.7,1.9,4.2c0.3,1.5,0.3,3.1,0,4.6s-0.9,2.9-1.8,4.2
	c-0.9,1.3-2.1,2.3-3.4,3.1l-88.1,50.9c-4.7,2.8-10.3,3.7-15.7,2.6C836,637.2,831.2,634.1,828,629.7z"/>
<linearGradient id="SVGID_16_" gradientUnits="userSpaceOnUse" x1="146730" y1="496.0676" x2="174204" y2="496.0676" gradientTransform="matrix(1 0 0 -1 0 1064)">
	<stop  offset="0" style="stop-color:#F7F8FF"/>
	<stop  offset="1" style="stop-color:#F2F3FA"/>
</linearGradient>
<path class="st30" d="M828,625.8l-43-57.8l116-67l47.6,63.8c0.9,1.2,1.6,2.7,1.9,4.2c0.3,1.5,0.3,3.1,0,4.6
	c-0.3,1.5-0.9,2.9-1.8,4.2c-0.9,1.3-2.1,2.3-3.4,3.1l-88.1,50.9c-4.7,2.8-10.3,3.7-15.7,2.6C836,633.3,831.2,630.2,828,625.8z"/>
<path class="st16" d="M834.3,609.2l-29.1-39c-0.4-0.5-0.6-1-0.7-1.6c-0.1-0.6-0.1-1.2,0-1.7c0.1-0.6,0.4-1.1,0.7-1.6
	c0.3-0.5,0.8-0.9,1.3-1.2l83-48c0.9-0.5,1.9-0.7,2.9-0.5c1,0.2,1.9,0.8,2.5,1.6l29.1,39c0.4,0.5,0.6,1,0.7,1.6
	c0.1,0.6,0.1,1.2,0,1.7c-0.1,0.6-0.4,1.1-0.7,1.6c-0.3,0.5-0.8,0.9-1.3,1.2l-83,48c-0.9,0.5-1.9,0.7-2.9,0.5
	C835.8,610.5,834.9,610,834.3,609.2z"/>
<g>
	<path class="st31" d="M814.9,675.3v-67l-30-40.2v89.9L814.9,675.3z"/>
</g>
<linearGradient id="SVGID_17_" gradientUnits="userSpaceOnUse" x1="267436" y1="297.1875" x2="210304" y2="297.1875" gradientTransform="matrix(1 0 0 -1 0 1064)">
	<stop  offset="0" style="stop-color:#DCDEFA"/>
	<stop  offset="1" style="stop-color:#F2F3FA"/>
</linearGradient>
<path class="st32" d="M281.8,867.8l-99.5-64.1l-0.1,16.9c0,2.8,0.8,5.6,2.2,8.1c1.4,2.5,3.5,4.5,6,5.9l91.5,52.8
	c5.1,3,10.9,4.5,16.8,4.5c5.9,0,11.7-1.6,16.8-4.5l391.5-226v-19.6L315.5,867.8c-5.1,3-10.9,4.5-16.8,4.5
	C292.7,872.3,286.9,870.8,281.8,867.8z"/>
<linearGradient id="SVGID_18_" gradientUnits="userSpaceOnUse" x1="695.0695" y1="506.8088" x2="599.7085" y2="452.0038" gradientTransform="matrix(1 0 0 -1 0 1064)">
	<stop  offset="0" style="stop-color:#FF5A6F"/>
	<stop  offset="1" style="stop-color:#FFAD6F"/>
</linearGradient>
<path class="st33" d="M580.9,569v-32.3c0-0.2,0-0.5,0-0.7c0-0.1,0-0.2,0-0.2c0-0.1,0-0.3,0-0.4c0-0.1,0-0.2,0-0.3c0-0.1,0-0.2,0-0.3
	l0.1-0.3l0.1-0.3c0-0.1,0-0.2,0.1-0.3c0-0.1,0-0.2,0.1-0.3c0-0.1,0.1-0.2,0.1-0.3c0-0.1,0-0.2,0.1-0.2l0.1-0.3
	c0-0.1,0.1-0.1,0.1-0.2c0-0.1,0.1-0.2,0.2-0.3l0.1-0.2l0.2-0.3l0.1-0.1l0.2-0.3l0.1-0.1c0.1-0.1,0.1-0.2,0.2-0.3l0.1-0.1
	c0.1-0.1,0.2-0.2,0.3-0.3l0.1-0.1l0.3-0.3h0.1l0.3-0.3l0.4-0.2c0.1-0.1,0.3-0.1,0.4-0.2c2.6-1.3,6.2-0.9,10.3,1.5l98,56.5
	c7.8,4.5,14.1,14.4,14.1,22.1v32.4L580.9,569z"/>
<linearGradient id="SVGID_19_" gradientUnits="userSpaceOnUse" x1="572.3564" y1="560.424" x2="487.8964" y2="416.034" gradientTransform="matrix(1 0 0 -1 0 1064)">
	<stop  offset="0" style="stop-color:#FF5A6F"/>
	<stop  offset="0.13" style="stop-color:#FF926F"/>
	<stop  offset="0.2" style="stop-color:#FFAD6F"/>
	<stop  offset="0.29" style="stop-color:#FFBC8A"/>
	<stop  offset="0.44" style="stop-color:#FFD4B4"/>
	<stop  offset="0.6" style="stop-color:#FFE7D4"/>
	<stop  offset="0.75" style="stop-color:#FFF4EC"/>
	<stop  offset="0.88" style="stop-color:#FFFCFA"/>
	<stop  offset="1" style="stop-color:#FFFFFF"/>
</linearGradient>
<path class="st34" d="M621.1,545.8l-434,250.6c-1.5,0.9-2.7,2.1-3.6,3.6c-0.9,1.5-1.3,3.2-1.3,4.9c0,1.7,0.4,3.4,1.3,4.9
	c0.9,1.5,2.1,2.7,3.6,3.6l94.7,54.7c5.1,3,10.9,4.5,16.8,4.5c5.9,0,11.7-1.6,16.8-4.5L707,641.8v-32.4c0-7.8-6.3-17.7-14.1-22.1
	L621.1,545.8z"/>
<g>
	<g>
		<path class="st24" d="M546.8,724c-0.2,0-0.4-0.1-0.5-0.2l-105.9-61.1c-0.1-0.1-0.3-0.1-0.4-0.2c-0.1-0.1-0.2-0.2-0.2-0.4
			c-0.1-0.1-0.1-0.3-0.1-0.4c0-0.1,0.1-0.3,0.1-0.4c0.1-0.1,0.2-0.2,0.3-0.3c0.1-0.1,0.3-0.2,0.4-0.2c0.1,0,0.3,0,0.4,0
			c0.1,0,0.3,0.1,0.4,0.2l106,61.2c0.2,0.1,0.4,0.3,0.5,0.5c0.1,0.2,0.1,0.5,0.1,0.7c-0.1,0.2-0.2,0.4-0.4,0.6
			C547.4,724,547.1,724.1,546.8,724L546.8,724z"/>
	</g>
	<g>
		<path class="st24" d="M586.5,701.1c-0.2,0-0.4,0-0.5-0.1l-105.9-61.2c-0.1-0.1-0.2-0.2-0.3-0.3c-0.1-0.1-0.1-0.2-0.2-0.4
			c0-0.1,0-0.3,0-0.4c0-0.1,0.1-0.3,0.1-0.4c0.1-0.1,0.2-0.2,0.3-0.3c0.1-0.1,0.2-0.1,0.4-0.2c0.1,0,0.3,0,0.4,0
			c0.1,0,0.3,0.1,0.4,0.1l105.9,61.1c0.2,0.1,0.4,0.4,0.5,0.6c0.1,0.3,0,0.5-0.1,0.8c-0.1,0.2-0.2,0.3-0.4,0.4
			C586.9,701.1,586.7,701.1,586.5,701.1z"/>
	</g>
	<g>
		<path class="st24" d="M507.1,747c-0.2,0-0.4,0-0.5-0.1l-105.9-61.2c-0.2-0.1-0.4-0.4-0.4-0.6c-0.1-0.3,0-0.5,0.1-0.8
			c0.1-0.2,0.4-0.4,0.6-0.5c0.3-0.1,0.5-0.1,0.8,0.1L507.7,745c0.1,0.1,0.2,0.2,0.3,0.3c0.1,0.1,0.2,0.2,0.2,0.4s0,0.3,0,0.4
			s-0.1,0.3-0.1,0.4c-0.1,0.2-0.2,0.3-0.4,0.4C507.5,746.9,507.3,747,507.1,747z"/>
	</g>
	<g>
		<path class="st24" d="M467.4,769.9c-0.2,0-0.4,0-0.5-0.1L361,708.6c-0.2-0.1-0.4-0.4-0.5-0.6c-0.1-0.3,0-0.6,0.1-0.8
			c0.1-0.2,0.4-0.4,0.6-0.5s0.6,0,0.8,0.1L468,767.9c0.2,0.1,0.4,0.3,0.5,0.5c0.1,0.2,0.1,0.5,0.1,0.7c-0.1,0.2-0.2,0.4-0.4,0.6
			C467.9,769.9,467.7,769.9,467.4,769.9L467.4,769.9z"/>
	</g>
	<g>
		<path class="st24" d="M427.8,792.8c-0.2,0-0.4-0.1-0.5-0.2l-105.9-61.1c-0.1-0.1-0.2-0.2-0.3-0.3c-0.1-0.1-0.1-0.2-0.2-0.4
			c0-0.1,0-0.3,0-0.4c0-0.1,0.1-0.3,0.1-0.4c0.1-0.1,0.2-0.2,0.3-0.3c0.1-0.1,0.2-0.1,0.4-0.2c0.1,0,0.3,0,0.4,0
			c0.1,0,0.3,0.1,0.4,0.1l105.9,61.2c0.2,0.1,0.4,0.3,0.5,0.5c0.1,0.2,0.1,0.5,0.1,0.7c-0.1,0.2-0.2,0.4-0.4,0.6
			C428.2,792.8,428,792.8,427.8,792.8L427.8,792.8z"/>
	</g>
	<g>
		<path class="st24" d="M388.1,815.7c-0.2,0-0.4,0-0.5-0.1l-105.9-61.2c-0.2-0.1-0.4-0.4-0.5-0.6c-0.1-0.3,0-0.6,0.1-0.8
			c0.1-0.2,0.4-0.4,0.6-0.5c0.3-0.1,0.6,0,0.8,0.1l105.9,61.2c0.2,0.1,0.4,0.4,0.5,0.6c0.1,0.3,0,0.6-0.1,0.8
			c-0.1,0.2-0.2,0.3-0.4,0.4C388.4,815.7,388.3,815.7,388.1,815.7z"/>
	</g>
	<g>
		<path class="st24" d="M348.4,838.6c-0.2,0-0.4-0.1-0.5-0.1l-106-61.2c-0.1-0.1-0.2-0.2-0.3-0.3c-0.1-0.1-0.1-0.2-0.2-0.4
			c0-0.1,0-0.3,0-0.4c0-0.1,0.1-0.3,0.1-0.4c0.1-0.1,0.2-0.2,0.3-0.3c0.1-0.1,0.2-0.1,0.4-0.2c0.1,0,0.3,0,0.4,0
			c0.1,0,0.3,0.1,0.4,0.1l105.9,61.1c0.2,0.1,0.4,0.3,0.5,0.5c0.1,0.2,0.1,0.5,0.1,0.7s-0.2,0.4-0.4,0.6
			C348.9,838.6,348.6,838.7,348.4,838.6L348.4,838.6z"/>
	</g>
	<g>
		<path class="st24" d="M308.7,861.6c-0.2,0-0.4,0-0.5-0.1l-105.9-61.2c-0.2-0.2-0.4-0.4-0.4-0.6c-0.1-0.3,0-0.5,0.1-0.8
			c0.1-0.2,0.4-0.4,0.6-0.5c0.3-0.1,0.5-0.1,0.8,0.1l105.9,61.2c0.3,0.1,0.5,0.2,0.6,0.5c0.1,0.2,0.2,0.5,0.1,0.8
			c-0.1,0.3-0.2,0.5-0.5,0.6C309.2,861.6,308.9,861.6,308.7,861.6z"/>
	</g>
	<g>
		<path class="st24" d="M626.2,678.2c-0.2,0-0.4,0-0.5-0.1l-105.9-61.2c-0.2-0.1-0.4-0.4-0.4-0.6c-0.1-0.3,0-0.5,0.1-0.8
			c0.1-0.2,0.4-0.4,0.6-0.5c0.3-0.1,0.5-0.1,0.8,0.1l105.9,61.2c0.1,0,0.3,0.1,0.4,0.2c0.1,0.1,0.2,0.2,0.3,0.3
			c0.1,0.1,0.1,0.2,0.1,0.4c0,0.1,0,0.3,0,0.4c0,0.1-0.1,0.3-0.2,0.4c-0.1,0.1-0.2,0.2-0.3,0.3c-0.1,0.1-0.2,0.1-0.4,0.1
			C626.5,678.3,626.3,678.3,626.2,678.2L626.2,678.2z"/>
	</g>
	<g>
		<path class="st24" d="M665.9,655.3c-0.2,0-0.4,0-0.5-0.1L559.5,594c-0.2-0.2-0.4-0.4-0.4-0.6c-0.1-0.3,0-0.5,0.1-0.8
			c0.1-0.2,0.4-0.4,0.6-0.5c0.3-0.1,0.5-0.1,0.8,0.1l105.9,61.2c0.1,0.1,0.2,0.2,0.3,0.3c0.1,0.1,0.2,0.2,0.2,0.4c0,0.1,0,0.3,0,0.4
			c0,0.1-0.1,0.3-0.2,0.4c-0.1,0.2-0.2,0.3-0.4,0.4C666.3,655.2,666.1,655.3,665.9,655.3z"/>
	</g>
	<g>
		<path class="st24" d="M705.6,632.4c-0.2,0-0.4,0-0.5-0.1l-105.9-61.2c-0.1-0.1-0.3-0.1-0.4-0.2c-0.1-0.1-0.2-0.2-0.2-0.4
			c-0.1-0.1-0.1-0.3-0.1-0.4c0-0.1,0.1-0.3,0.1-0.4c0.1-0.1,0.2-0.2,0.3-0.3c0.1-0.1,0.3-0.2,0.4-0.2c0.1,0,0.3,0,0.4,0
			c0.1,0,0.3,0.1,0.4,0.2l105.9,61.1c0.2,0.1,0.4,0.3,0.5,0.5c0.1,0.2,0.1,0.5,0.1,0.7c-0.1,0.2-0.2,0.4-0.4,0.6
			C706,632.4,705.8,632.4,705.6,632.4L705.6,632.4z"/>
	</g>
</g>
<linearGradient id="SVGID_20_" gradientUnits="userSpaceOnUse" x1="343.6374" y1="279.848" x2="379.1004" y2="277.573" gradientTransform="matrix(1 0 0 -1 0 1064)">
	<stop  offset="0" style="stop-color:#B6BBE5"/>
	<stop  offset="1" style="stop-color:#FFFFFF;stop-opacity:0"/>
</linearGradient>
<path class="st35" d="M361,772.6h-26.5v23.7H361l20.5-11.9L361,772.6z"/>
<linearGradient id="SVGID_21_" gradientUnits="userSpaceOnUse" x1="453.0384" y1="343.0082" x2="488.5094" y2="340.7322" gradientTransform="matrix(1 0 0 -1 0 1064)">
	<stop  offset="0" style="stop-color:#B6BBE5"/>
	<stop  offset="1" style="stop-color:#FFFFFF;stop-opacity:0"/>
</linearGradient>
<path class="st36" d="M470.4,709.4h-26.5v23.7h26.5l20.5-11.9L470.4,709.4z"/>
<linearGradient id="SVGID_22_" gradientUnits="userSpaceOnUse" x1="562.4393" y1="406.1682" x2="597.9103" y2="403.8922" gradientTransform="matrix(1 0 0 -1 0 1064)">
	<stop  offset="0" style="stop-color:#B6BBE5"/>
	<stop  offset="1" style="stop-color:#FFFFFF;stop-opacity:0"/>
</linearGradient>
<path class="st37" d="M579.8,646.2h-26.5V670h26.5l20.5-11.9L579.8,646.2z"/>
<path class="st22" d="M532.8,634.5v23.6l20.5,11.9v-23.6L532.8,634.5z"/>
<path class="st19" d="M573.9,634.5v23.6L553.3,670v-23.6L573.9,634.5z"/>
<path class="st11" d="M532.8,634.5l20.5-11.9l20.5,11.9l-20.5,11.9L532.8,634.5z"/>
<path class="st22" d="M423.4,697.7v23.6l20.5,11.9v-23.6L423.4,697.7z"/>
<path class="st19" d="M464.4,697.7v23.6l-20.5,11.9v-23.6L464.4,697.7z"/>
<path class="st11" d="M423.4,697.7l20.5-11.9l20.5,11.9l-20.5,11.9L423.4,697.7z"/>
<path class="st22" d="M314,760.8v23.6l20.5,11.9v-23.6L314,760.8z"/>
<path class="st19" d="M355,760.8v23.6l-20.5,11.9v-23.6L355,760.8z"/>
<path class="st11" d="M314,760.8l20.5-11.9l20.5,11.9l-20.5,11.9L314,760.8z"/>
<path class="st22" d="M991.5,743.2c-4,0-8-1.1-11.5-3.1l-98.8-57c-2.7-1.6-4.9-3.8-6.5-6.5c-1.6-2.7-2.4-5.7-2.4-8.8v-12
	c0-2.5-0.7-5-1.9-7.2c-1.3-2.2-3.1-4-5.3-5.3l-1-0.6c-0.1-0.1-0.2-0.2-0.3-0.3c-0.1-0.1-0.1-0.2-0.2-0.4c0-0.1,0-0.3,0-0.4
	c0-0.1,0.1-0.3,0.1-0.4c0.1-0.1,0.2-0.2,0.3-0.3c0.1-0.1,0.2-0.1,0.4-0.2c0.1,0,0.3,0,0.4,0c0.1,0,0.3,0.1,0.4,0.1l1,0.6
	c2.5,1.5,4.6,3.5,6,6c1.4,2.5,2.2,5.3,2.2,8.2v12c0,2.7,0.7,5.4,2.1,7.8c1.4,2.4,3.3,4.3,5.7,5.7l98.8,57c3.2,1.8,6.8,2.8,10.5,2.8
	c3.7,0,7.3-1,10.5-2.8l47.1-27.2c0.2-0.1,0.5-0.1,0.7,0c0.2,0.1,0.4,0.3,0.6,0.5c0.1,0.2,0.2,0.5,0.1,0.7c-0.1,0.3-0.2,0.5-0.4,0.6
	l-47.1,27.2C999.5,742.1,995.5,743.2,991.5,743.2z"/>
<path class="st19" d="M722.1,834.6c-0.2,0-0.5-0.1-0.7-0.2c-0.2-0.1-0.3-0.3-0.4-0.6c-0.1-0.2,0-0.5,0.1-0.7
	c0.1-0.2,0.3-0.4,0.5-0.5l49.3-28.5l136.6-79.9c1.4-0.8,2.6-2,3.5-3.5c0.8-1.4,1.3-3.1,1.3-4.7c0-1.7-0.4-3.3-1.3-4.7
	s-2-2.6-3.5-3.5l-31.2-18c-3.6-2.1-6.7-5.1-8.8-8.8c-2.1-3.6-3.2-7.8-3.2-12v-11.6c0-2.3-0.6-4.5-1.8-6.5s-2.8-3.6-4.7-4.7
	c-0.1-0.1-0.2-0.2-0.3-0.3c-0.1-0.1-0.1-0.2-0.2-0.4c0-0.1,0-0.3,0-0.4c0-0.1,0.1-0.3,0.1-0.4c0.1-0.1,0.2-0.2,0.3-0.3
	c0.1-0.1,0.2-0.1,0.4-0.2c0.1,0,0.3,0,0.4,0c0.1,0,0.3,0.1,0.4,0.1c2.3,1.3,4.2,3.2,5.5,5.5c1.3,2.3,2,4.9,2,7.5v11.6
	c0,3.8,1,7.6,3,10.9c1.9,3.3,4.7,6.1,8,8l31.2,18c1.7,1,3.2,2.5,4.2,4.2c1,1.8,1.5,3.7,1.6,5.8c0,2-0.5,4-1.5,5.8
	c-1,1.8-2.4,3.2-4.2,4.2l-136.7,80l-49.3,28.5C722.5,834.6,722.3,834.6,722.1,834.6z"/>
<g class="st3">
	<path d="M913.3,939.4c-0.3-4.4-3.6-9-9.9-12.7L751.3,839c-12-6.9-30.2-7.7-40.7-1.7l-157.8,91.2c-5,2.9-7.3,6.8-7,10.8
		c0.3,4.4,3.6,9,9.9,12.7l152.1,87.7c12,6.9,30.2,7.7,40.7,1.7l157.8-91.2C911.3,947.3,913.6,943.4,913.3,939.4z"/>
</g>
<linearGradient id="SVGID_23_" gradientUnits="userSpaceOnUse" x1="316336" y1="99.1679" x2="294618" y2="99.1679" gradientTransform="matrix(1 0 0 -1 0 1064)">
	<stop  offset="0" style="stop-color:#DCDEFA"/>
	<stop  offset="1" style="stop-color:#F2F3FA"/>
</linearGradient>
<path class="st38" d="M913.3,936.1V921l-61.7,30l-100.3-57.9c-12-6.9-30.2-7.7-40.7-1.7L607.6,951l-61.8-30v14c0,0.4,0,0.7,0,1.1
	c0.3,4.4,3.6,9,9.9,12.7l152.1,87.7c6.7,3.6,14.1,5.6,21.8,5.7c7.1,0.2,13.9-1.2,18.9-4L906.3,947
	C911.3,944,913.6,940.1,913.3,936.1z"/>
<path class="st11" d="M913.3,921c-0.3-4.4-3.6-9-9.9-12.7l-152.1-87.7c-12-6.9-30.2-7.7-40.7-1.7l-157.8,91.2c-5,2.9-7.3,6.8-7,10.8
	c0.3,4.4,3.6,9,9.9,12.7l152.1,87.7c12,6.9,30.2,7.7,40.7,1.7l157.8-91.2C911.3,929,913.6,925.1,913.3,921z"/>
<linearGradient id="SVGID_24_" gradientUnits="userSpaceOnUse" x1="236289" y1="146.5536" x2="371368" y2="146.5536" gradientTransform="matrix(1 0 0 -1 0 1064)">
	<stop  offset="0" style="stop-color:#F7F8FF"/>
	<stop  offset="1" style="stop-color:#F2F3FA"/>
</linearGradient>
<path class="st39" d="M913.3,917.4c-0.3-4.4-3.6-9-9.9-12.7l-152.1-87.7c-12-6.9-30.2-7.7-40.7-1.7l-157.8,91.2
	c-5,2.9-7.3,6.8-7,10.8c0.3,4.4,3.6,9,9.9,12.6l152.1,87.7c12,6.9,30.2,7.7,40.7,1.7l157.8-91.2
	C911.3,925.4,913.6,921.5,913.3,917.4z"/>
<linearGradient id="SVGID_25_" gradientUnits="userSpaceOnUse" x1="599.9174" y1="197.7837" x2="835.9464" y2="131.1477" gradientTransform="matrix(1 0 0 -1 0 1064)">
	<stop  offset="0" style="stop-color:#B6BBE5"/>
	<stop  offset="1" style="stop-color:#FFFFFF;stop-opacity:0"/>
</linearGradient>
<path class="st40" d="M738.2,913.2l43.4-25.1c5-2.9,7.3-6.8,7-10.8c-0.3-4.4-3.6-9-9.9-12.6l-25.8-14.8c-12-6.9-30.2-7.7-40.7-1.7
	l-92,53.2c-5,2.9-7.3,6.8-7,10.8c0.3,4.4,3.6,9,9.9,12.7l25.8,14.8c6.6,3.8,15,5.7,23.1,5.7h160.4v-32.2H738.2z"/>
<path class="st15" d="M696.3,912.8c-1.2,2.1,5.8,5.2,9.1,6c2,0.5,4.5,3.1,6.5,2.6c4.9-1.4,2.7-5.1,1.9-6.7c-0.3-0.7-0.8-1.3-1.4-1.7
	c-0.6-0.4-1.3-0.7-2-0.7c-2.3,0.1-4.6,0.1-6.8-0.1C702.1,911.8,698,910,696.3,912.8z"/>
<path class="st11" d="M706.7,911.4c0,2,0.3,4.5,3.6,4.9c6,0.7,2.1-6.2,2.1-6.2L706.7,911.4z"/>
<linearGradient id="SVGID_26_" gradientUnits="userSpaceOnUse" x1="-7795.1172" y1="-9707.6152" x2="-6171.2188" y2="-7821.0132" gradientTransform="matrix(1 0 0 -1 0 1064)">
	<stop  offset="0" style="stop-color:#5B68F5"/>
	<stop  offset="1" style="stop-color:#010854"/>
</linearGradient>
<path class="st41" d="M735.3,877.3c-15.6-13.4-33.3-17.7-40.5-11.2s7.8,38.9,10.6,44.7s9.3,3.7,8.3-0.5s-2.8-25.8-2.8-25.8
	s14.7,11.9,28.7,11.2C749.7,895.3,738.9,880.4,735.3,877.3z"/>
<g>
	<path class="st6" d="M704.5,931.4l24.9-14.4l24.9,14.4l-24.9,14.4L704.5,931.4z"/>
</g>
<path class="st24" d="M704.5,900.1v28.5l24.9,14.4v-28.5L704.5,900.1z"/>
<g>
	<path class="st6" d="M754.2,900.1v28.5L729.3,943v-28.5L754.2,900.1z"/>
</g>
<path class="st23" d="M704.5,900.1l24.9-14.4l24.9,14.4l-24.9,14.4L704.5,900.1z"/>
<path class="st15" d="M672.1,919.8c-1.2,2.1,5.8,5.2,9.1,6c1.9,0.5,4.5,3.1,6.5,2.5c4.9-1.4,2.7-5.1,1.9-6.7
	c-0.3-0.7-0.8-1.3-1.4-1.7c-0.6-0.4-1.3-0.7-2-0.7c0,0-5.2,0.3-6.8-0.1C677.7,918.8,673.7,917,672.1,919.8z"/>
<path class="st11" d="M682.5,918.4c-0.1,2,0.3,4.5,3.6,4.9c6,0.7,4.3-4.9,4.3-4.9H682.5z"/>
<linearGradient id="SVGID_27_" gradientUnits="userSpaceOnUse" x1="-8251.4229" y1="-20107.5117" x2="-6968.4224" y2="-17203.4141" gradientTransform="matrix(1 0 0 -1 0 1064)">
	<stop  offset="0" style="stop-color:#5B68F5"/>
	<stop  offset="1" style="stop-color:#010854"/>
</linearGradient>
<path class="st42" d="M718.6,887c-17.8-10.3-33-17.8-40.2-11.3c-7.2,6.5,2.1,32.3,3,40c0.7,6.4,9.2,7.7,9.4,3.4
	c0.2-4.8,0-25.8,0-25.8s18.1,12.9,32,12.2c10.2-0.5,17-5.1,19.7-8.5c5.2-6.7,2.3-17.1,2.3-17.1L718.6,887z"/>
<linearGradient id="SVGID_28_" gradientUnits="userSpaceOnUse" x1="118313" y1="207.2172" x2="149100" y2="207.2172" gradientTransform="matrix(1 0 0 -1 0 1064)">
	<stop  offset="0" style="stop-color:#DCDEFA"/>
	<stop  offset="1" style="stop-color:#F2F3FA"/>
</linearGradient>
<path class="st43" d="M750.9,839.3c-0.3-4.4-3.6-9-9.9-12.7l-25.8-14.8c-12-6.9-30.2-7.7-40.7-1.7l-92,53.2c-5,2.9-7.3,6.8-7,10.8
	c0.3,4.4,3.6,9,9.9,12.7l25.8,14.8c12,6.9,30.2,7.7,40.7,1.7l92-53.2C748.9,847.3,751.2,843.4,750.9,839.3z"/>
<linearGradient id="SVGID_29_" gradientUnits="userSpaceOnUse" x1="670.3776" y1="202.0498" x2="648.0477" y2="233.7098" gradientTransform="matrix(1 0 0 -1 0 1064)">
	<stop  offset="0" style="stop-color:#FFFFFF"/>
	<stop  offset="1" style="stop-color:#F2F3FA"/>
</linearGradient>
<path class="st44" d="M750.9,834.4c-0.3-4.4-3.6-9-9.9-12.7l-25.8-14.8c-12-6.9-30.2-7.7-40.7-1.7l-92,53.2c-5,2.9-7.3,6.8-7,10.8
	c0.3,4.4,3.6,9,9.9,12.7l25.8,14.8c12,6.9,30.2,7.7,40.7,1.7l92-53.2C748.9,842.3,751.2,838.4,750.9,834.4z"/>
<path class="st16" d="M637.3,878.3l-14.9-8.6c-0.9-0.5-1.6-1.2-2.1-2.1c-0.5-0.9-0.8-1.8-0.8-2.8s0.3-2,0.8-2.8
	c0.5-0.9,1.2-1.6,2.1-2.1l66.8-38.5c2.3-1.3,4.9-2,7.6-2c2.7,0,5.3,0.7,7.6,2l14.9,8.6c0.9,0.5,1.6,1.2,2.1,2.1
	c0.5,0.9,0.8,1.8,0.8,2.8c0,1-0.3,2-0.8,2.8c-0.5,0.9-1.2,1.6-2.1,2.1l-66.8,38.5c-2.3,1.3-4.9,2-7.6,2
	C642.2,880.3,639.6,879.6,637.3,878.3z"/>
<path class="st17" d="M693.2,847.4c-1.6,0-3.2-0.2-4.8-0.8c-2.1-0.9-3.6-1.4-6.2,0c-1.5,0.8-3.3,2.9-1.9,3.3
	c2.3,0.6,2.6-0.4,3.3-0.9c0.5-0.2,1-0.3,1.5-0.3c0.5,0,1,0.2,1.5,0.4c0.4,0.5-1.1,1.8-0.9,2.2c0.5,1,2.4-1.2,4.7-1.7
	c2.3-0.6,3.1,0.2,3,0C693.3,849.3,693.2,847.4,693.2,847.4z"/>
<path class="st31" d="M692,846.7c-0.7-0.2-1.8,2.8-0.8,3.3c1,0.5,22.8,7.8,22.8,7.8l10.3-15.9l-13.2,6.8L692,846.7z"/>
<path class="st17" d="M669.7,859.9c-3.2-2.9-3.9-2.1-3.6-1.6c0.2,0.5,1.2,1.2,0.9,1.6c-0.2,0.4-0.9-0.4-3.7,0.7
	c-2.8,1.1-4.9,4.4-3.3,4.9c1.6,0.4,4.8-1,6.9-0.4s4.9-0.7,4.9-0.7l0.2-2.3L669.7,859.9z"/>
<linearGradient id="SVGID_30_" gradientUnits="userSpaceOnUse" x1="707.5341" y1="200.8442" x2="747.0976" y2="200.8442" gradientTransform="matrix(1 0 0 -1 0 1064)">
	<stop  offset="0" style="stop-color:#BCC0E5"/>
	<stop  offset="1" style="stop-color:#FFFFFF"/>
</linearGradient>
<path class="st45" d="M709.4,843.8c-3.1,16.1,7.1,21-0.8,38.2c-4.4,9.5,5.8,17,17.9,17.2c9.1,0.1,20.7-8.2,20.6-12.4
	c-0.7-30.9-4.6-47-13-56.6C725.7,820.7,711.2,835,709.4,843.8z"/>
<path class="st17" d="M728.4,833.9c1.6-1.1,1.2-2.8-1.1-3.3c-2.7-0.6-1.4-7-1.4-7l-9,6c0,0,1.7,3.2,0.9,4
	C714,836.9,716.5,842,728.4,833.9z"/>
<path class="st17" d="M716.9,829.6c-0.5-1.2-2.9,0.7-4.3,0c-1.4-0.7-5.7-11.4-2.7-16.3c2.9-4.9,11.8-1,16,10.3L716.9,829.6z"/>
<path class="st16" d="M707.4,815.2c0.9,3.6,5.9,6.5,6.5,7.1c0.6,0.7-0.2-1,0.6-1.3c0.8-0.3,2.1,0.6,1.5,2.5c-0.6,2,3.3,3.8,4.4,4.4
	c1.1,0.7,5.3,1.2,6.7,0.3c1.3-0.9-0.2-8.5,0.3-13.3c0.6-4.8-1.2-8.3-5.6-7.5c-4.4,0.8-3.8-4.9-7.7-3.5s-2.9,4.5-6.4,4.3
	C704.2,808.2,707,813.7,707.4,815.2z"/>
<path class="st31" d="M673.1,861.1c-2.5,0.2-2.9,3.4-1.7,4.1c1.1,0.7,17.1,4.8,24.6,3.1c13-3.1,22.8-13.3,21.3-21.5
	c-2.3-13.3-7.1-2.6-21,9.7C687.7,864,673.1,861.1,673.1,861.1z"/>
<linearGradient id="SVGID_31_" gradientUnits="userSpaceOnUse" x1="642.027" y1="-116237" x2="642.027" y2="-95349.7031" gradientTransform="matrix(1 0 0 -1 0 1064)">
	<stop  offset="0" style="stop-color:#5B68F5"/>
	<stop  offset="1" style="stop-color:#010854"/>
</linearGradient>
<path class="st46" d="M610.8,742.6l62.4-36c4.5-2.6,8.1-0.5,8.1,4.7v72.1c0,5.2-3.6,11.5-8.1,14l-62.4,36c-4.5,2.6-8.1,0.5-8.1-4.7
	v-72.1C602.7,751.4,606.3,745.1,610.8,742.6z"/>
<path class="st22" d="M672.9,751.7V723c0-0.9-0.8-1.2-1.7-0.7c-0.5,0.3-0.9,0.7-1.2,1.1c-0.3,0.5-0.5,1-0.5,1.5v28.7
	c0,0.9,0.7,1.2,1.7,0.7c0.5-0.3,0.9-0.7,1.1-1.1C672.7,752.8,672.9,752.2,672.9,751.7z"/>
<path class="st22" d="M658.7,776.2v-21.9c0-0.9-0.8-1.2-1.7-0.7c-0.5,0.3-0.9,0.7-1.2,1.1c-0.3,0.5-0.5,1-0.5,1.5v21.9
	c0,0.9,0.7,1.2,1.7,0.7c0.5-0.3,0.9-0.7,1.1-1.1C658.4,777.2,658.6,776.7,658.7,776.2z"/>
<path class="st22" d="M630.1,779.4v-16c0-0.9-0.8-1.2-1.7-0.7c-0.5,0.3-0.9,0.7-1.1,1.1c-0.3,0.5-0.5,1-0.5,1.5v16
	c0,0.9,0.8,1.2,1.7,0.7c0.5-0.3,0.9-0.7,1.1-1.1C629.9,780.5,630.1,780,630.1,779.4z"/>
<path class="st22" d="M615.9,794.2v-16c0-0.9-0.8-1.2-1.7-0.7c-0.5,0.3-0.9,0.7-1.1,1.1c-0.3,0.5-0.5,1-0.5,1.5v16
	c0,0.9,0.8,1.2,1.7,0.7c0.5-0.3,0.9-0.7,1.1-1.1C615.6,795.2,615.8,794.7,615.9,794.2z"/>
<path class="st22" d="M644.4,792.3v-47.8c0-0.9-0.8-1.2-1.7-0.7c-0.5,0.3-0.9,0.7-1.1,1.1c-0.3,0.5-0.5,1-0.5,1.5v47.8
	c0,0.9,0.8,1.2,1.7,0.7c0.5-0.3,0.9-0.7,1.1-1.1C644.2,793.3,644.4,792.8,644.4,792.3z"/>
<linearGradient id="SVGID_32_" gradientUnits="userSpaceOnUse" x1="57362.5664" y1="-78707.1016" x2="55992.8672" y2="-76800.5078" gradientTransform="matrix(1 0 0 -1 0 1064)">
	<stop  offset="0" style="stop-color:#8992F5"/>
	<stop  offset="1" style="stop-color:#FFFFFF"/>
</linearGradient>
<path class="st47" d="M681.3,812.6l-78.6,48.2v-41.2l78.6-46V812.6z"/>
<path class="st17" d="M904.1,556.2c-3.9-0.7-6.2-0.9-7.2-2.5c-0.7-1.2,1.3-0.1,1.9-0.2c0.4-0.1,0-1.8-1.3-2.5
	c-1.3-0.6-2.7-1.6-1.8-2c0.6-0.2,1.2-0.2,1.8-0.2c0.6,0.1,1.2,0.3,1.7,0.6c0.9,0.6,2.2,1.3,2.6,2.7c0.4,1.4,2.1,1.4,2.1,1.4
	L904.1,556.2z"/>
<path class="st17" d="M889.6,577c-3.6,1.1-2.2,2.1-5.7,1.2c-3.6-0.9-3.6-0.9-4.3-1.7c-1-1.1-1-2.7,1.4-2.5c2.4,0.3,3.6,0.8,3.8,0.5
	c0.2-0.3-0.6-1.4,0-1.5s0.8,0.5,1.3,1.2c0.5,0.7,3.1-0.5,3.1-0.5L889.6,577z"/>
<linearGradient id="SVGID_33_" gradientUnits="userSpaceOnUse" x1="906.6973" y1="376.3561" x2="906.5833" y2="374.5831" gradientTransform="matrix(1 0 0 -1 0 1064)">
	<stop  offset="0" style="stop-color:#04007E"/>
	<stop  offset="1" style="stop-color:#BB1AFF"/>
</linearGradient>
<path class="st48" d="M915,659.9c0,1.6,0.4,2.3,0,3.1c-0.4,0.5-1,0.8-1.6,1c-0.6,0.2-1.2,0.2-1.8,0c-1.2-0.5-2-0.9-2.4-1.5
	c-0.3-0.6-0.9-0.6-1.8-0.8c-0.9-0.2-5-3-5.4-3.9c-0.8-1.6,1.9-2.4,4.8-1.5c2.5,0.9,5,1.9,7.4,3.1L915,659.9z"/>
<linearGradient id="SVGID_34_" gradientUnits="userSpaceOnUse" x1="1336.9209" y1="-5252.4526" x2="1337.6211" y2="-5262.2324" gradientTransform="matrix(1 0 0 -1 0 1064)">
	<stop  offset="0" style="stop-color:#04007E"/>
	<stop  offset="1" style="stop-color:#BB1AFF"/>
</linearGradient>
<path class="st49" d="M937.3,655.3c0.1,2.7,0.2,3.1-0.6,4c-0.8,0.9-3.6-0.2-3.9-0.8s-0.6,0-1.6-0.6c-1-0.6-5.1-2.4-5.4-3.6
	c-0.3-1.2,1.4-1.8,3.4-1.2c1.5,0.3,3.1,0.6,4.7,0.6L937.3,655.3z"/>
<linearGradient id="SVGID_35_" gradientUnits="userSpaceOnUse" x1="36355.9453" y1="-17090.9941" x2="39890.0469" y2="-18840.9941" gradientTransform="matrix(1 0 0 -1 0 1064)">
	<stop  offset="0" style="stop-color:#020C82"/>
	<stop  offset="1" style="stop-color:#5B68F5"/>
</linearGradient>
<path class="st50" d="M941.9,577.1c-1.1,22-2.9,32.3-2.7,40c0.3,7.7-0.6,30.8-1.2,36.5c-0.5,5.7-6.2,2.9-6.3,0.4
	c-0.1-2.5-4.5-32.1-5.1-38.8s-2.2-38.7-2.2-38.7L941.9,577.1z"/>
<linearGradient id="SVGID_36_" gradientUnits="userSpaceOnUse" x1="40247.1445" y1="-43603.9805" x2="45511.543" y2="-49500.2812" gradientTransform="matrix(1 0 0 -1 0 1064)">
	<stop  offset="0" style="stop-color:#020C82"/>
	<stop  offset="1" style="stop-color:#5B68F5"/>
</linearGradient>
<path class="st51" d="M934.1,593.1c-10.7,24.7-12.9,23.5-15.5,34.2s-2.5,26.5-2.7,31s-5.7,4-6.3,0.4c-0.5-3.6-3.1-33.3-2.3-40.4
	c0.8-7.1,13-41.6,13-41.6l11.2,5.7L934.1,593.1z"/>
<path class="st17" d="M928.7,534.5c-1.2-1.7-1.8-4.3-1.3-5.7c0.5-1.4,1.7-8.6-3.9-10.3c-5.6-1.7-9.6,3.2-8.4,8.6s2,8.4,3.4,8.5
	c1.4,0.1,2-0.2,2.3,0.9c0.3,1.1,6.5-0.4,6.5-0.4l1.4-0.6L928.7,534.5z"/>
<linearGradient id="SVGID_37_" gradientUnits="userSpaceOnUse" x1="8892.54" y1="-22635.4883" x2="8663.54" y2="-21970.5898" gradientTransform="matrix(1 0 0 -1 0 1064)">
	<stop  offset="0" style="stop-color:#FF5A6F"/>
	<stop  offset="1" style="stop-color:#FFAD6F"/>
</linearGradient>
<path class="st52" d="M903.7,552.5c20.3-4.7,26.9-17.3,26.9-17.3l6.1,8.5c0,0-10.3,14.1-31.4,13.4
	C900.5,557,902.1,552.9,903.7,552.5z"/>
<linearGradient id="SVGID_38_" gradientUnits="userSpaceOnUse" x1="39574.6484" y1="-32507.7402" x2="36800.1484" y2="-30138.3379" gradientTransform="matrix(1 0 0 -1 0 1064)">
	<stop  offset="0" style="stop-color:#FF5A6F"/>
	<stop  offset="1" style="stop-color:#FFAD6F"/>
</linearGradient>
<path class="st53" d="M930.1,534.8c-11.6,7.5-12.5,6.9-15.3,17.2c-2.1,7.7,4.3,27.2,0,37.8c-1.5,3.7,1.4,5.6,4.6,4.7
	c4.1-1.1,2.6,3.5,9.4,5.7c6.6,2.1,12.3-4.3,14.1-11.1c0.9-3.5,0.1-31.3-0.3-33.2C939.7,543.6,933.8,532.3,930.1,534.8z"/>
<path class="st15" d="M928.7,534.5c0.9,0.6,1.7,1.4,2.3,2.2c0.2,0.4-5.8,3.1-9.9,3.8l-0.2-4.1C920.9,536.5,929,535.8,928.7,534.5z"
	/>
<path class="st15" d="M916.7,516.1c-5.7,0.7-4.6,6.7-3,9.1c1.6,2.4,1.6,1.6,3.7,2.7c0,0,0.4-0.2,1.1,3.2l1.1,0.2
	c0.4,0.1-0.4-1,0.1-1.5c0.5-0.5,2.2,0.5,1.7,2.1s-0.6,1.1-0.6,1.1s1.5,1.5,2.2,1.1c0.8-0.3,4.5-0.8,4.6-2.2c0.1-1.4,1.6-3.4,1.1-7.1
	c-0.5-3.7-3.2-7-6.8-7.4C918.2,517.1,918,515.9,916.7,516.1z"/>
<linearGradient id="SVGID_39_" gradientUnits="userSpaceOnUse" x1="17802.041" y1="-30923.5859" x2="17331.9395" y2="-30049.2871" gradientTransform="matrix(1 0 0 -1 0 1064)">
	<stop  offset="0" style="stop-color:#FF5A6F"/>
	<stop  offset="1" style="stop-color:#FFAD6F"/>
</linearGradient>
<path class="st54" d="M887.8,573.9c20.3-10.7,21.3-11.1,27.1-23.6c6.3-13.6,8.7,1.8,8.4,4.5c-1.8,17.4-11.3,18.2-31.9,22.9
	C886.9,578.8,886.4,574.6,887.8,573.9z"/>
<path class="st24" d="M451,352.2v149.3c0,1-0.3,2-0.8,2.9c-0.5,0.9-1.2,1.6-2.1,2.1c-0.9,0.5-1.9,0.8-2.9,0.8s-2-0.3-2.9-0.8
	l-155.6-89.9c-2.9-1.7-5.4-4.1-7.1-7.1c-1.7-2.9-2.6-6.3-2.6-9.7V250.6c0-1,0.3-2,0.8-2.9c0.5-0.9,1.2-1.6,2.1-2.1
	c0.9-0.5,1.9-0.8,2.9-0.8c1,0,2,0.3,2.9,0.8l155.7,89.9c2.9,1.7,5.4,4.1,7.1,7.1C450.1,345.4,450.9,348.8,451,352.2z"/>
<linearGradient id="SVGID_40_" gradientUnits="userSpaceOnUse" x1="13569.1699" y1="11295.1865" x2="-35767.7305" y2="-28331.9199" gradientTransform="matrix(1 0 0 -1 0 1064)">
	<stop  offset="0" style="stop-color:#5B68F5"/>
	<stop  offset="1" style="stop-color:#010854"/>
</linearGradient>
<path class="st55" d="M446.9,354.6v149.3c0,1-0.3,2-0.8,2.9c-0.5,0.9-1.2,1.6-2.1,2.1c-0.9,0.5-1.9,0.8-2.9,0.8c-1,0-2-0.3-2.9-0.8
	L282.6,419c-2.9-1.7-5.4-4.1-7.1-7.1c-1.7-2.9-2.6-6.3-2.6-9.7V253c0-1,0.3-2,0.8-2.9c0.5-0.9,1.2-1.6,2.1-2.1
	c0.9-0.5,1.9-0.8,2.9-0.8c1,0,2,0.3,2.9,0.8l155.7,89.9c2.9,1.7,5.4,4.1,7.1,7.1C446,347.8,446.9,351.2,446.9,354.6z"/>
<path class="st11" d="M404.6,425.8l3.2,1.8v-3.6l-3.2-1.8V425.8z"/>
<path class="st11" d="M412.8,430.5l3.2,1.8v-3.6l-3.2-1.8V430.5z"/>
<path class="st22" d="M420.9,435.2l3.2,1.8v-3.6l-3.2-1.8V435.2z"/>
<path class="st22" d="M429.1,439.9l3.2,1.8v-3.7l-3.2-1.8V439.9z"/>
<path class="st11" d="M380.1,421l3.2,1.8v-3.6l-3.2-1.8V421z"/>
<path class="st11" d="M388.2,425.7l3.2,1.8v-3.6l-3.2-1.8V425.7z"/>
<path class="st11" d="M396.4,430.4l3.2,1.8v-3.6l-3.2-1.8V430.4z"/>
<path class="st11" d="M404.6,435.2l3.2,1.8v-3.6l-3.2-1.8V435.2z"/>
<path class="st11" d="M412.8,439.9l3.2,1.8V438l-3.2-1.8V439.9z"/>
<path class="st22" d="M420.9,444.6l3.2,1.8v-3.6l-3.2-1.8V444.6z"/>
<path class="st22" d="M429.1,449.3l3.2,1.8v-3.6l-3.2-1.8V449.3z"/>
<path class="st11" d="M380.1,430.4l3.2,1.8v-3.7l-3.2-1.8V430.4z"/>
<path class="st11" d="M388.2,435.1l3.2,1.8v-3.7l-3.2-1.8V435.1z"/>
<path class="st11" d="M396.4,439.8l3.2,1.8V438l-3.2-1.8V439.8z"/>
<path class="st11" d="M404.6,444.5l3.2,1.8v-3.6l-3.2-1.8V444.5z"/>
<path class="st11" d="M412.8,449.3l3.2,1.8v-3.6l-3.2-1.8V449.3z"/>
<path class="st22" d="M420.9,454l3.2,1.8v-3.6l-3.2-1.8V454z"/>
<path class="st22" d="M429.1,458.7l3.2,1.8v-3.6l-3.2-1.8V458.7z"/>
<path class="st11" d="M380.1,439.8l3.2,1.8V438l-3.2-1.8V439.8z"/>
<path class="st11" d="M388.2,444.5l3.2,1.8v-3.6l-3.2-1.8V444.5z"/>
<path class="st11" d="M396.4,449.2l3.2,1.8v-3.6l-3.2-1.8V449.2z"/>
<path class="st11" d="M404.6,453.9l3.2,1.8v-3.6l-3.2-1.8V453.9z"/>
<path class="st11" d="M412.8,458.7l3.2,1.8v-3.6l-3.2-1.8V458.7z"/>
<path class="st22" d="M420.9,463.4l3.2,1.8v-3.6l-3.2-1.8V463.4z"/>
<path class="st22" d="M429.1,468.1l3.2,1.8v-3.6l-3.2-1.8V468.1z"/>
<path class="st11" d="M380.1,449.2l3.2,1.8v-3.7l-3.2-1.8V449.2z"/>
<path class="st11" d="M388.2,453.9l3.2,1.8v-3.7l-3.2-1.8V453.9z"/>
<path class="st11" d="M396.4,458.6l3.2,1.8v-3.7l-3.2-1.8V458.6z"/>
<path class="st11" d="M404.6,463.3l3.2,1.8v-3.7l-3.2-1.8V463.3z"/>
<path class="st11" d="M412.8,468l3.2,1.8v-3.6l-3.2-1.8V468z"/>
<path class="st11" d="M289.6,329.3C289.6,329.3,289.6,329.3,289.6,329.3c-0.1,0-0.1,0-0.2-0.1c0,0,0,0,0-0.1c0,0,0-0.1,0-0.1v-18.6
	c0-0.1,0-0.1,0.1-0.2c0,0,0.1-0.1,0.2-0.1s0.1,0,0.2,0.1s0.1,0.1,0.1,0.2V329c0,0,0,0.1,0,0.1c0,0,0,0.1-0.1,0.1
	C289.8,329.2,289.8,329.2,289.6,329.3C289.7,329.3,289.7,329.3,289.6,329.3z"/>
<path class="st11" d="M312.9,342.7c-0.1,0-0.1,0-0.2-0.1c0,0-0.1-0.1-0.1-0.2v-45.7c0-0.1,0-0.1,0.1-0.2c0,0,0.1-0.1,0.2-0.1
	c0.1,0,0.1,0,0.2,0.1s0.1,0.1,0.1,0.2v45.7c0,0.1,0,0.1-0.1,0.2S313,342.7,312.9,342.7z"/>
<path class="st11" d="M316.8,350.4l-7.7-4.4v3.7l7.7,4.5V350.4z"/>
<path class="st11" d="M293.1,336.7l-7.7-4.4v3.7l7.7,4.5V336.7z"/>
<path class="st11" d="M336.2,356.1C336.2,356.1,336.2,356.1,336.2,356.1c-0.1,0-0.1,0-0.2-0.1c0,0,0,0-0.1-0.1c0,0,0-0.1,0-0.1
	v-18.6c0-0.1,0-0.1,0.1-0.1c0,0,0.1-0.1,0.2-0.1s0.1,0,0.2,0.1c0,0,0.1,0.1,0.1,0.1v18.6c0,0,0,0.1,0,0.1c0,0,0,0.1-0.1,0.1
	C336.4,356.1,336.4,356.1,336.2,356.1C336.3,356.1,336.3,356.1,336.2,356.1z"/>
<path class="st11" d="M340.1,363.8l-7.7-4.5v3.7l7.7,4.5V363.8z"/>
<path class="st11" d="M359.5,369.5c-0.1,0-0.1,0-0.2-0.1s-0.1-0.1-0.1-0.2v-45.7c0-0.1,0-0.1,0.1-0.2s0.1-0.1,0.2-0.1
	c0.1,0,0.1,0,0.2,0.1c0,0,0.1,0.1,0.1,0.2v45.7c0,0.1,0,0.1-0.1,0.2C359.6,369.5,359.6,369.5,359.5,369.5z"/>
<path class="st11" d="M363.4,377.3l-7.7-4.4v3.7l7.7,4.4V377.3z"/>
<path class="st56" d="M382.8,383C382.8,383,382.8,383,382.8,383c-0.1,0-0.1,0-0.2-0.1c0,0,0,0,0-0.1c0,0,0-0.1,0-0.1v-18.6
	c0-0.1,0-0.1,0.1-0.2c0,0,0.1-0.1,0.2-0.1c0.1,0,0.1,0,0.2,0.1s0.1,0.1,0.1,0.2v18.6c0,0,0,0.1,0,0.1c0,0,0,0.1,0,0.1
	C383,382.9,382.9,382.9,382.8,383C382.9,383,382.8,383,382.8,383z"/>
<path class="st11" d="M386.7,390.7l-7.7-4.5v3.7l7.7,4.4V390.7z"/>
<path class="st11" d="M406.1,396.4C406.1,396.4,406,396.4,406.1,396.4c-0.1,0-0.1,0-0.2-0.1c0,0,0,0-0.1-0.1c0,0,0-0.1,0-0.1v-45.6
	c0-0.1,0-0.1,0.1-0.1c0,0,0.1-0.1,0.2-0.1s0.1,0,0.2,0.1c0,0,0.1,0.1,0.1,0.1v45.6c0,0,0,0.1,0,0.1c0,0,0,0.1-0.1,0.1
	C406.3,396.4,406.2,396.4,406.1,396.4C406.2,396.4,406.1,396.4,406.1,396.4z"/>
<path class="st11" d="M410,404.1l-7.7-4.4v3.7l7.7,4.4V404.1z"/>
<path class="st11" d="M429.4,409.9c-0.1,0-0.1,0-0.2-0.1s-0.1-0.1-0.1-0.2V391c0-0.1,0-0.1,0.1-0.2s0.1-0.1,0.2-0.1s0.1,0,0.2,0.1
	c0,0,0.1,0.1,0.1,0.2v18.7c0,0.1,0,0.1-0.1,0.2C429.5,409.8,429.5,409.9,429.4,409.9z"/>
<path class="st11" d="M433.3,417.6l-7.7-4.4v3.7l7.7,4.4V417.6z"/>
<linearGradient id="SVGID_41_" gradientUnits="userSpaceOnUse" x1="378.4036" y1="739.2006" x2="353.1536" y2="694.9506" gradientTransform="matrix(1 0 0 -1 0 1064)">
	<stop  offset="0" style="stop-color:#FFAD6F"/>
	<stop  offset="1" style="stop-color:#FF5A6F"/>
</linearGradient>
<path class="st57" d="M285,314.6c-0.2-0.2-0.5-0.4-0.6-0.6c-0.1-0.3-0.2-0.5-0.2-0.8c0-0.5,0.4-0.8,0.8-0.5l4.6,2.7h0.1
	c3.1,1.8,6.7-0.7,10.2-3.1c4.1-2.9,8.3-5.8,13-3.2l0.1,0.1c4.5,2.6,8.4,8.8,12.1,14.8c3.5,5.7,7.2,11.5,11,13.7
	c3.5,2,6.7-3.9,9.7-9.5c3.8-7,7.7-14.2,13.6-10.8c5.8,3.4,9.5,12.8,13.2,21.9c3.2,8,6.3,15.6,10.1,17.8c3.7,2,7.7,3.6,11.8,4.7
	c4,1,7.8,2.5,11.5,4.4c4.4,2.4,8,7.2,11.4,11.8s7.1,9.5,11.8,12.3l0.1,0.1l8.2,4.8c0.2,0.2,0.5,0.4,0.6,0.6c0.1,0.3,0.2,0.5,0.2,0.8
	c0,0.5-0.4,0.8-0.9,0.5l-8.2-4.7l-0.2-0.1c-5.3-3-9.1-8.2-12.7-13.1c-3.3-4.5-6.5-8.7-10.4-10.9c-3.5-1.9-7.2-3.3-11.1-4.3
	c-4.3-1.1-8.4-2.7-12.2-4.8h-0.1c-4.7-2.7-8-10.9-11.5-19.6c-3.5-8.7-7-17.4-11.7-20.2c-4.7-2.7-8.6,4.3-12,10.6s-6.7,12.4-11.3,9.8
	c-4.5-2.6-8.4-8.8-12.2-14.9c-3.8-6-7.2-11.5-11-13.7L313,311c-3.9-2.2-7.9,0.6-11.8,3.3c-3.9,2.7-7.6,5.3-11.4,3l-0.1-0.1
	L285,314.6z"/>
<path class="st22" d="M302.1,368.5c-9.2-5.3-16.7-1-16.7,9.6s7.5,23.6,16.7,29c9.2,5.4,16.7,1,16.7-9.6S311.3,373.8,302.1,368.5z
	 M302.1,402.6c-7.1-4.1-12.8-14-12.8-22.2c0-8.2,5.7-11.5,12.8-7.4c7.1,4.1,12.8,14,12.8,22.2S309.2,406.7,302.1,402.6L302.1,402.6z
	"/>
<path class="st22" d="M351.3,396.9c-9.2-5.3-16.7-1-16.7,9.6c0,10.7,7.5,23.6,16.7,29c9.2,5.4,16.7,1,16.7-9.6
	S360.6,402.3,351.3,396.9z M351.3,431c-7.1-4.1-12.8-14-12.8-22.2c0-8.2,5.7-11.5,12.8-7.4c7.1,4.1,12.8,14,12.8,22.2
	C364.1,431.8,358.4,435.1,351.3,431z"/>
<path class="st22" d="M358.2,311.8l1.1,3.7l1.1-2.4l2.8,1.6v-6.2l-7.7-4.4v6.2L358.2,311.8z"/>
<path class="st11" d="M312.7,385.6l3.2-0.7c-3-6.8-8.1-13.1-13.8-16.4v4.5C306.5,375.6,310.4,380.4,312.7,385.6z"/>
<path class="st11" d="M364.1,423.6c0,3.4-1,6-2.7,7.5l3.1,4.6c2.2-2,3.5-5.3,3.5-9.8c0-10.7-7.5-23.6-16.7-29v4.5
	C358.4,405.6,364.1,415.5,364.1,423.6z"/>
<linearGradient id="SVGID_42_" gradientUnits="userSpaceOnUse" x1="742.9554" y1="-43659.3984" x2="742.9554" y2="-39360" gradientTransform="matrix(1 0 0 -1 0 1064)">
	<stop  offset="0" style="stop-color:#FF5A6F"/>
	<stop  offset="1" style="stop-color:#FFAD6F"/>
</linearGradient>
<path class="st58" d="M624.9,469.6c0.1,0.2,0.1,0.4,0.2,0.5v0.1c0.1,0.2,0.1,0.3,0.2,0.5v0.1c0.1,0.2,0.2,0.3,0.3,0.5v0.1l0.3,0.5
	c0.1,0.2,0.3,0.4,0.4,0.6c0.8-0.8,1.6-1.5,2.6-2.1l101.9-58.8c6.7-3.9,18.5-3.4,26.2,1.1l98,56.5c1.7,0.9,3.2,2.2,4.5,3.7
	c0-0.1,0.1-0.1,0.1-0.2l0.2-0.2l0.2-0.3l0.1-0.2l0.2-0.3l0.1-0.2c0.1-0.1,0.1-0.2,0.2-0.3l0.1-0.1c0.1-0.1,0.1-0.2,0.2-0.3
	c0,0,0-0.1,0-0.1c0-0.1,0.1-0.2,0.1-0.4v-0.1l0.1-0.4c0,0,0-0.1,0-0.1l0.1-0.4v-0.1c0-0.1,0-0.3,0-0.4c0-0.1,0-0.3,0-0.5
	c0-0.2,0-0.3,0-0.5c-0.2-2.9-2.4-5.8-6.4-8.2l-98-56.5c-7.8-4.5-19.5-5-26.2-1.1L629.1,461c-2.9,1.7-4.4,3.9-4.5,6.2
	C624.6,468,624.7,468.7,624.9,469.6L624.9,469.6z"/>
<path class="st11" d="M759.8,504.5l-82-46.8l143.1-83L759.8,504.5z M682,457.6l76.8,43.9l57.3-121.7L682,457.6z"/>
<path class="st11" d="M820.5,378.8L717,352.7l47.1-86.8L820.5,378.8z M720.2,351.3l96.4,24.3L764,270.5L720.2,351.3z"/>
<path class="st22" d="M670.8,452.4v10.4l9.1,5.3v-10.5L670.8,452.4z"/>
<path class="st19" d="M689,452.4v10.4l-9.1,5.3v-10.5L689,452.4z"/>
<path class="st11" d="M670.8,452.4l9.1-5.3l9.1,5.3l-9.1,5.2L670.8,452.4z"/>
<path class="st22" d="M809.4,372v10.4l9.1,5.2v-10.4L809.4,372z"/>
<path class="st19" d="M827.6,372v10.4l-9.1,5.2v-10.4L827.6,372z"/>
<path class="st11" d="M809.4,372l9.1-5.3l9.1,5.3l-9.1,5.2L809.4,372z"/>
<g class="st59">
	<path class="st60" d="M666.3,394.3v10.5l9.1,5.2v-10.5L666.3,394.3z"/>
	<path class="st61" d="M684.5,394.3v10.5l-9.1,5.2v-10.5L684.5,394.3z"/>
	<path class="st62" d="M666.3,394.3l9.1-5.2l9.1,5.2l-9.1,5.3L666.3,394.3z"/>
</g>
<g class="st59">
	<path class="st60" d="M809.4,312.2v10.5l9.1,5.2v-10.5L809.4,312.2z"/>
	<path class="st61" d="M827.6,312.2v10.5l-9.1,5.2v-10.5L827.6,312.2z"/>
	<path class="st62" d="M809.4,312.2l9.1-5.3l9.1,5.3l-9.1,5.2L809.4,312.2z"/>
</g>
<g class="st59">
	<path class="st60" d="M679.9,219.9v10.5l9.1,5.2v-10.4L679.9,219.9z"/>
	<path class="st61" d="M698.1,219.9v10.5l-9.1,5.2v-10.4L698.1,219.9z"/>
	<path class="st62" d="M679.9,219.9l9.1-5.2l9.1,5.2l-9.1,5.3L679.9,219.9z"/>
</g>
<path class="st22" d="M755,262.9v10.4l9.1,5.2v-10.4L755,262.9z"/>
<path class="st19" d="M773.2,262.9v10.4l-9.1,5.2v-10.4L773.2,262.9z"/>
<path class="st11" d="M755,262.9l9.1-5.3l9.1,5.3l-9.1,5.2L755,262.9z"/>
<path class="st22" d="M750.2,497.7v10.5l9.1,5.3V503L750.2,497.7z"/>
<path class="st19" d="M768.4,497.7v10.5l-9.1,5.3V503L768.4,497.7z"/>
<path class="st11" d="M750.2,497.7l9.1-5.3l9.1,5.3l-9.1,5.2L750.2,497.7z"/>
<path class="st22" d="M705.4,344.4v15.1l13.2,7.6V352L705.4,344.4z"/>
<path class="st19" d="M731.8,344.4v15.1l-13.2,7.6V352L731.8,344.4z"/>
<path class="st11" d="M705.4,344.4l13.2-7.6l13.2,7.6l-13.2,7.6L705.4,344.4z"/>
<linearGradient id="SVGID_43_" gradientUnits="userSpaceOnUse" x1="248.2036" y1="597.134" x2="326.7256" y2="537.298" gradientTransform="matrix(1 0 0 -1 0 1064)">
	<stop  offset="0" style="stop-color:#B6BBE5"/>
	<stop  offset="1" style="stop-color:#FFFFFF;stop-opacity:0"/>
</linearGradient>
<path class="st63" d="M251.2,490.5c-9.7,0-17.6,4.1-17.6,9.1c0,5.1,7.9,9.1,17.6,9.1h89.2v-18.3H251.2z"/>
<path class="st64" d="M247.9,502.2c2.6,2.2,3.2,2,3.5,3.5c0.3,1.5-3.9,0.6-5.9-0.1c-0.9-0.4-1.8-0.9-2.5-1.7
	c-0.8-1.1-1.7-0.5-3.2-1.1c-1.6-0.5-1.8-2.1-1.1-4.4c0.7-2.4,5.2,0,6.2,0.7C246.1,500.1,247,501.1,247.9,502.2z"/>
<path class="st17" d="M248.5,375.8c1.3-2.8,2.6-1,3.3-4.4s-0.7-8-5.7-11.3c-5-3.3-8.2,0.7-8.7,6.5c-0.3,3.6,0.7,7.2,2.8,10.1
	l4.7,1.6L248.5,375.8z"/>
<linearGradient id="SVGID_44_" gradientUnits="userSpaceOnUse" x1="24040.793" y1="-34503.9414" x2="20344.082" y2="-29049.4414" gradientTransform="matrix(1 0 0 -1 0 1064)">
	<stop  offset="0" style="stop-color:#5B68F5"/>
	<stop  offset="1" style="stop-color:#010854"/>
</linearGradient>
<path class="st65" d="M253.2,435.6c-1.9,13.2-3.9,19.5-4.9,29.6c-1,10.1-2.3,25.9-3.5,31.7c-0.8,3.9-6.1,3.5-5.8,0
	c0.4-3.2-0.6-26.2-1.4-32.2s-1.9-32.1-1.9-32.1l17-13.4L253.2,435.6z"/>
<path class="st64" d="M260.7,495.3c2.6,2.2,3.2,2,3.5,3.5c0.3,1.5-3.9,0.6-5.9-0.1c-0.9-0.4-1.8-0.9-2.5-1.7
	c-0.8-1.1-1.7-0.5-3.2-1.1c-1.6-0.5-1.8-2.1-1.1-4.4c0.7-2.4,5.2,0,6.2,0.7C258.8,493.1,259.8,494.2,260.7,495.3z"/>
<linearGradient id="SVGID_45_" gradientUnits="userSpaceOnUse" x1="24516.4453" y1="-27985.2812" x2="20747.1133" y2="-23542.9805" gradientTransform="matrix(1 0 0 -1 0 1064)">
	<stop  offset="0" style="stop-color:#5B68F5"/>
	<stop  offset="1" style="stop-color:#010854"/>
</linearGradient>
<path class="st66" d="M258.8,436.1c3.9,13.2,3.2,12.1,2.2,22.1c-1,10.1-2.3,25.9-3.5,31.7c-0.8,3.9-6.1,3.5-5.8,0
	c0.3-3.3-0.7-26.2-1.4-32.3s-1.9-32.1-1.9-32.1l4.8-10.1L258.8,436.1z"/>
<path class="st67" d="M251.2,365.8c-1.9,0.5-2.3,1.4-3.3,2.3c-1,0.9-1.8,1.6-2.8,1c-1.7-1.2-1.3-2.3-2.1-3.3c-0.9-1-1-0.9-0.3-1.9
	c0.7-1,1.1-0.9,2.4-0.9c1.3-0.1,2.5-0.3,3.7-0.6l0.5,0.5c0,0,2.5-2.7,0.1-4.6c-2.4-2-6.8-2.5-9.3-0.6c0,0-3.1-0.6-4.9,4
	c-1.8,4.7,2.8,12.8,4.1,13.5c1,0.5,1.8,0.1,2.3-1.8s0.6-2.9-0.5-3.5c-1.1-0.6-1.6-2.6-0.4-3.1c1.2-0.4,1.6-0.3,2.3,0.8
	s1.7,5.8,2.6,6.6c0.9,0.8,2.8-0.7,4.4-0.7c0.4,0,0.7,0,1.1,0C254.2,372.9,253.4,365.2,251.2,365.8z"/>
<path class="st17" d="M251.5,372.6c-0.3-0.4-1.7,0.7-3-1.9c-0.3-0.6-2.9,0.1-3.3-0.5c-0.4-0.6,4.8-1,6.3-1.6s-0.1-2.7,0.4-3.1
	s1.8,2.4,1.9,3.6c0.1,0.8,0.3,1.6,0.6,2.4C254.3,371.4,254.7,376.1,251.5,372.6z"/>
<linearGradient id="SVGID_46_" gradientUnits="userSpaceOnUse" x1="31916.6738" y1="-30049.8789" x2="25584.2715" y2="-23912.2793" gradientTransform="matrix(1 0 0 -1 0 1064)">
	<stop  offset="0" style="stop-color:#5B68F5"/>
	<stop  offset="1" style="stop-color:#8992F5"/>
</linearGradient>
<path class="st68" d="M232.2,386.1l5.4-3.6c2.4-3.8,2.6-5.9,2.6-5.9c2.8,0.5,5.7,0.3,8.3-0.9c0,0-0.8,2.4,0.1,3.4
	c5.9,1.2,7.4,4,9.4,6.1c-2.3-3.8-4.4-7.8-6.3-11.8c-0.5-1.2,2.4-3.9,3.1-2.8c0.9,1.6,21.2,29.6,12.7,29.3s-11.4-3.8-11.4-3.8
	s7.5,41.7,7.2,48.9c-0.7,21.7-30.6,24.3-31.3,11.1c-0.5-10.8,1.2-33.2-0.6-43C231.3,413.2,226.2,390.6,232.2,386.1z"/>
<path class="st17" d="M231,418.4c1-2.3,0.9-0.3,3.3,1.3c1.9,0.7,3.9,1.2,5.9,1.4c2.5,0.2,1.2,4.2-2.8,4.6c-4.1,0.3-4.1-1.3-5.8-2.1
	C229.2,422.5,231,418.4,231,418.4z"/>
<linearGradient id="SVGID_47_" gradientUnits="userSpaceOnUse" x1="-11868.1318" y1="-12782.624" x2="-9370.7617" y2="-10008.4248" gradientTransform="matrix(1 0 0 -1 0 1064)">
	<stop  offset="0" style="stop-color:#5B68F5"/>
	<stop  offset="1" style="stop-color:#8992F5"/>
</linearGradient>
<path class="st69" d="M231.5,386.8c-11.2,12.6-21.1,25.4-13.3,32.4c4.3,3.9,13.2,5.4,14.2,4.4c0.3-0.3,0.6-0.6,0.8-1
	c0.2-0.4,0.3-0.8,0.3-1.3s-0.1-0.9-0.3-1.3c-0.2-0.4-0.4-0.7-0.8-1c0,0-6.6-4.1-6.6-6.6c0-1,7.9-12,7.9-13.9
	C233.7,390.4,231.5,386.8,231.5,386.8z"/>
<path class="st67" d="M248.5,375.8c-2.6,1.1-5.5,1.4-8.3,0.9c0,0-0.2,2.1-2.6,5.9l-0.5,0.4c6.5,4.6,9.6,10.4,11.3,9.4
	c1.7-1,0.2-13.2,0.2-13.2C247.7,378.2,248.5,375.8,248.5,375.8z"/>
<path class="st3" d="M1133.7,623.5h-31.2l92.1,53.2c1,0.5,1.7,1.3,2.3,2.3c0.6,0.9,0.8,2,0.8,3.1c0,1.1-0.3,2.2-0.8,3.1
	c-0.5,0.9-1.3,1.7-2.3,2.3l-92.1,53.2h31.2c3,0,6-0.8,8.7-2.3l85.4-49.3c1.2-0.7,2.2-1.7,2.9-2.9c0.7-1.2,1.1-2.6,1.1-4
	c0-1.4-0.4-2.8-1.1-4c-0.7-1.2-1.7-2.2-2.9-2.9l-85.4-49.3C1139.7,624.3,1136.8,623.5,1133.7,623.5z"/>
<g class="st3">
	<path d="M1202,683.1c-0.2-2.4-2-4.9-5.4-6.8l-82.4-47.5c-6.5-3.8-16.4-4.2-22-0.9l-85.5,49.4c-2.7,1.6-3.9,3.7-3.8,5.9
		c0.1,2.4,2,4.9,5.4,6.9l82.3,47.5c6.5,3.8,16.4,4.2,22,0.9l85.5-49.4C1200.9,687.4,1202.2,685.3,1202,683.1z"/>
</g>
<linearGradient id="SVGID_48_" gradientUnits="userSpaceOnUse" x1="263594" y1="366.8315" x2="224148" y2="366.8315" gradientTransform="matrix(1 0 0 -1 0 1064)">
	<stop  offset="0.4" style="stop-color:#BCC0E5"/>
	<stop  offset="0.61" style="stop-color:#D0D3F5"/>
</linearGradient>
<path class="st70" d="M1202,681.6v-8.2l-33.4,16.2l-54.3-31.3c-6.5-3.8-16.4-4.2-22-0.9l-55.8,32.3l-33.5-16.3v7.6
	c0,0.2,0,0.4,0,0.6c0.1,2.4,2,4.9,5.4,6.9l82.3,47.5c3.6,2,7.7,3,11.8,3.1c3.5,0.2,7.1-0.6,10.2-2.2l85.5-49.4
	C1200.9,685.9,1202.2,683.9,1202,681.6z"/>
<path class="st11" d="M1202,673.4c-0.2-2.4-2-4.9-5.4-6.9l-82.4-47.5c-6.5-3.8-16.4-4.2-22-0.9l-85.5,49.4c-2.7,1.6-3.9,3.7-3.8,5.9
	c0.1,2.4,2,4.9,5.4,6.8l82.3,47.5c6.5,3.8,16.4,4.2,22,0.9l85.5-49.4C1200.9,677.7,1202.2,675.6,1202,673.4z"/>
<linearGradient id="SVGID_49_" gradientUnits="userSpaceOnUse" x1="224084" y1="391.5372" x2="263701" y2="391.5372" gradientTransform="matrix(1 0 0 -1 0 1064)">
	<stop  offset="0" style="stop-color:#F7F8FF"/>
	<stop  offset="1" style="stop-color:#F2F3FA"/>
</linearGradient>
<path class="st71" d="M1202,672.5c-0.2-2.4-2-4.9-5.4-6.9l-82.4-47.5c-6.5-3.8-16.4-4.2-22-0.9l-85.5,49.4c-2.7,1.6-3.9,3.7-3.8,5.9
	c0.1,2.4,2,4.9,5.4,6.8l82.3,47.5c6.5,3.8,16.4,4.2,22,0.9l85.5-49.4C1200.9,676.8,1202.2,674.7,1202,672.5z"/>
<linearGradient id="SVGID_50_" gradientUnits="userSpaceOnUse" x1="1109.724" y1="388.4641" x2="1141.5439" y2="382.7471" gradientTransform="matrix(1 0 0 -1 0 1064)">
	<stop  offset="0" style="stop-color:#B6BBE5"/>
	<stop  offset="1" style="stop-color:#FFFFFF;stop-opacity:0"/>
</linearGradient>
<path class="st72" d="M1139.9,663.7h-43.7v26.7h43.7V663.7z"/>
<path class="st22" d="M1073,650.4V677l23.2,13.4v-26.6L1073,650.4z"/>
<path class="st19" d="M1119.3,650.4V677l-23.2,13.4v-26.6L1119.3,650.4z"/>
<path class="st73" d="M1073,650.4l23.2-13.4l23.2,13.4l-23.2,13.4L1073,650.4z"/>
</svg>
